<svg width="991" height="1352" viewBox="0 0 991 1352" fill="none" xmlns="http://www.w3.org/2000/svg">
<path d="M891.44 841.664C891.44 977.544 797.91 1087.7 682.54 1087.7C657.4 1087.7 633.29 1082.47 610.97 1072.87C571.58 1087.38 529.5 1095.24 485.78 1095.24C442.06 1095.24 399.57 1087.31 360.02 1072.67C337.55 1082.4 313.28 1087.7 287.95 1087.7C172.58 1087.7 79.0503 977.544 79.0503 841.664C79.0503 831.354 79.5903 821.194 80.6403 811.204C90.0303 815.594 101.39 817.804 115.02 817.004C138.63 815.604 169.06 805.144 207.87 781.324C210.78 779.544 213.67 777.834 216.54 776.204C343.96 703.664 427.22 782.494 427.22 782.494C427.22 782.494 430.02 784.464 435.19 787.264C443.43 791.734 457.67 798.294 476.29 802.434C482 803.724 488.12 804.764 494.61 805.444C525.86 808.744 565.54 803.674 608.27 775.524C611.45 773.424 614.6 771.424 617.71 769.514C698.7 719.734 757.82 730.114 798.46 753.494C804.75 757.104 810.58 761.024 816 765.084C830.75 776.144 850.71 777.664 870.35 773.244C874.4 772.334 878.42 771.184 882.4 769.804C888.3 792.544 891.46 816.674 891.46 841.674L891.44 841.664Z" fill="url(#paint0_linear_1048_2)" stroke="#490B40" stroke-width="5" stroke-miterlimit="10"/>
<g style="mix-blend-mode:darken">
<path d="M891.44 841.664C891.44 977.544 797.91 1087.7 682.54 1087.7C657.4 1087.7 633.29 1082.47 610.97 1072.87C571.58 1087.38 529.5 1095.24 485.78 1095.24C442.06 1095.24 399.57 1087.31 360.02 1072.67C337.55 1082.4 313.28 1087.7 287.95 1087.7C172.58 1087.7 79.0503 977.544 79.0503 841.664C79.0503 831.354 79.5903 821.194 80.6403 811.204C90.0303 815.594 101.39 817.804 115.02 817.004C118.02 816.824 121.13 816.494 124.36 816.014C126.14 855.104 130.6 907.614 141.72 926.384C160.29 957.714 153.32 898.534 162.61 892.724C171.9 886.914 178.86 871.834 193.95 929.864C209.03 987.894 238.05 1020.38 248.49 1019.22C258.94 1018.07 236.82 967.994 251.98 971.644C284.47 979.474 282.73 996.014 336.7 1027.35C410.73 1070.34 600.15 1074.93 681.38 1014.59C762.61 954.234 749.85 984.414 742.89 1012.26C735.93 1040.11 821.81 965.844 824.12 886.924C826.45 808.004 855.46 878.804 850.82 910.144C846.48 939.414 886.7 929.204 854.19 775.454C859.52 775.214 864.95 774.454 870.35 773.244C874.4 772.334 878.42 771.184 882.4 769.804C888.3 792.544 891.46 816.674 891.46 841.674L891.44 841.664Z" fill="#CCCCCC"/>
</g>
<path d="M916.63 646.274C905.57 626.904 892.77 605.494 882.67 580.594C880.51 563.724 877.52 547.164 873.72 530.964C873.26 528.944 872.77 526.924 872.28 524.914C869.03 511.754 865.27 498.824 860.99 486.184C849.44 451.854 834.24 419.524 815.94 389.794C764.52 306.244 688.57 243.184 599.76 213.684C599.94 263.904 582.06 311.454 522.94 325.804C395.61 356.704 400.84 274.354 428.91 199.714C409.08 202.874 389.71 207.674 370.92 213.964C346.4 222.174 322.86 232.944 300.56 246.004C294.01 249.854 287.55 253.884 281.21 258.114C231 291.594 187.85 337.034 154.89 390.934C154.42 391.694 153.95 392.454 153.5 393.214C151.91 395.854 150.34 398.514 148.81 401.194C132.39 429.674 118.76 460.374 108.37 492.804C104.17 505.874 100.49 519.224 97.39 532.824C93.23 550.914 90.06 569.454 87.94 588.354C80.75 620.274 74.01 641.434 67.99 656.354C51.69 696.784 40.75 691.354 40.75 730.244C40.75 761.434 50.81 797.294 80.63 811.194C90.02 815.584 101.38 817.794 115.01 816.994C138.62 815.594 169.05 805.134 207.86 781.314C210.77 779.534 213.66 777.824 216.53 776.194C243.52 760.824 268.52 752.254 291.17 748.294C327.52 741.914 357.81 747.394 380.51 755.684C410.46 766.644 427.2 782.484 427.2 782.484C427.2 782.484 430 784.454 435.17 787.254C443.41 791.724 457.65 798.284 476.27 802.424C481.98 803.714 488.1 804.754 494.59 805.434C525.84 808.734 565.52 803.664 608.25 775.514C611.43 773.414 614.58 771.414 617.69 769.504C634.33 759.284 650.06 751.584 664.87 746.034C687.94 737.384 708.84 733.904 727.68 734.024C755.67 734.204 779.14 742.374 798.44 753.484C804.73 757.094 810.56 761.014 815.98 765.074C830.73 776.134 850.69 777.654 870.33 773.234C874.38 772.324 878.4 771.174 882.38 769.794C913.77 758.924 941.33 734.354 941.33 711.694C941.33 691.134 930.3 670.254 916.63 646.274ZM347.25 425.614C401.66 446.494 448.94 473.504 484.51 502.164C520.24 473.074 568.07 445.614 623.23 424.444C628.81 422.304 634.38 420.254 639.93 418.304C624.61 443.234 615.18 477.094 615.18 514.384C615.18 521.724 615.55 528.934 616.26 535.974C590.33 547.714 566.96 560.814 546.87 574.634C546.52 574.114 546.14 573.614 545.71 573.114C537.08 562.914 513.51 555.594 485.78 555.594C456.25 555.594 431.43 563.894 424.36 575.144C424.09 574.954 423.82 574.794 423.55 574.614C403.56 561.684 380.71 549.474 355.6 538.554C356.11 532.554 356.37 526.434 356.37 520.204C356.37 480.084 345.46 443.934 328.01 418.614C334.4 420.814 340.81 423.154 347.24 425.624L347.25 425.614Z" fill="url(#paint1_linear_1048_2)" stroke="#490B40" stroke-width="5" stroke-miterlimit="10"/>
<g style="mix-blend-mode:exclusion" opacity="0.15">
<path d="M941.33 711.694C941.33 734.354 913.77 758.924 882.38 769.794C878.41 771.174 874.38 772.324 870.33 773.234C850.69 777.654 830.74 776.134 815.98 765.074C810.56 761.014 804.73 757.094 798.44 753.484C779.14 742.374 755.67 734.204 727.68 734.024C708.84 733.894 687.94 737.374 664.87 746.034C650.05 751.584 634.33 759.284 617.69 769.504C614.58 771.414 611.43 773.414 608.25 775.514C565.52 803.664 525.84 808.744 494.59 805.434C488.1 804.754 481.97 803.714 476.27 802.424C457.66 798.284 443.41 791.724 435.17 787.254C429.99 784.454 427.2 782.484 427.2 782.484C427.2 782.484 410.46 766.644 380.51 755.684C357.81 747.394 327.52 741.914 291.17 748.294C268.52 752.254 243.52 760.824 216.53 776.194C213.66 777.824 210.77 779.534 207.86 781.314C169.05 805.144 138.62 815.594 115.01 816.994C101.38 817.804 90.02 815.594 80.63 811.194C50.81 797.284 40.75 761.434 40.75 730.244C40.75 691.344 51.7 696.774 67.99 656.354C74.01 641.434 80.76 620.284 87.94 588.354C90.07 569.454 93.23 550.914 97.39 532.824C100.49 519.224 104.17 505.874 108.37 492.804C118.76 460.374 132.39 429.674 148.81 401.194C150.34 398.514 151.91 395.854 153.5 393.214C153.96 392.454 154.42 391.694 154.89 390.934C187.85 337.034 231 291.594 281.21 258.114C287.55 253.884 294 249.854 300.56 246.004C322.87 232.944 346.4 222.174 370.92 213.964C389.71 207.674 409.08 202.884 428.91 199.714C426.58 205.904 424.41 212.144 422.46 218.364C408.25 221.134 394.31 224.794 380.69 229.274C357.7 236.854 335.62 246.784 314.69 258.834C308.54 262.394 302.49 266.114 296.55 270.004C249.45 300.904 208.99 342.824 178.07 392.564C177.64 393.264 177.2 393.954 176.77 394.664C175.28 397.104 173.81 399.544 172.37 402.024C156.97 428.304 144.19 456.624 134.44 486.544C130.5 498.604 127.05 510.924 124.14 523.464C120.24 540.164 117.27 557.274 115.28 574.714C108.54 604.174 102.21 623.694 96.55 637.444C81.26 674.744 71 669.744 71 705.634C71 734.404 80.44 767.494 108.4 780.324C117.21 784.374 127.87 786.424 140.65 785.674C162.79 784.374 191.34 774.724 227.74 752.754C230.47 751.114 233.17 749.524 235.86 748.024C261.18 733.844 284.63 725.934 305.87 722.284C339.97 716.384 368.39 721.444 389.67 729.094C417.77 739.204 433.46 753.834 433.46 753.834C433.46 753.834 436.09 755.644 440.94 758.224C448.67 762.344 462.03 768.414 479.49 772.234C484.84 773.424 490.59 774.374 496.67 775.004C525.99 778.054 563.2 773.374 603.29 747.394C606.26 745.454 609.22 743.614 612.15 741.854C627.75 732.414 642.5 725.314 656.4 720.194C678.04 712.214 697.65 709.004 715.31 709.124C741.57 709.284 763.58 716.834 781.68 727.074C787.59 730.404 793.06 734.024 798.14 737.764C811.97 747.964 830.68 749.364 849.11 745.294C852.91 744.454 856.69 743.394 860.41 742.114C889.85 732.094 915.7 709.414 915.7 688.504C915.7 669.534 905.35 650.274 892.53 628.144C882.15 610.264 870.15 590.514 860.68 567.534C858.64 551.984 855.85 536.694 852.28 521.754C851.86 519.884 851.39 518.024 850.94 516.174C847.88 504.024 844.36 492.094 840.35 480.424C829.52 448.754 815.26 418.934 798.1 391.494C750.6 315.564 680.78 257.974 599.1 230.264C599.56 224.794 599.77 219.244 599.75 213.664C688.56 243.154 764.51 306.224 815.93 389.774C834.23 419.504 849.42 451.834 860.98 486.164C865.26 498.804 869.01 511.734 872.27 524.894C872.76 526.904 873.26 528.914 873.71 530.944C877.51 547.144 880.49 563.704 882.66 580.574C892.76 605.474 905.56 626.884 916.62 646.254C930.29 670.234 941.32 691.114 941.32 711.674L941.33 711.694Z" fill="#10FFE2"/>
</g>
<path d="M644.82 186.544C625.16 188.644 609.45 185.934 596.69 176.564C598.59 188.804 599.73 201.324 599.78 213.684C599.96 263.904 582.08 311.454 522.96 325.804C395.63 356.704 400.86 274.354 428.93 199.714C409.1 202.874 389.73 207.674 370.94 213.964C393.68 159.454 474.9 -13.8658 582.15 3.7542C709.23 24.6442 693.56 181.314 644.82 186.544Z" fill="url(#paint2_linear_1048_2)" stroke="#490B40" stroke-width="5" stroke-linecap="round" stroke-linejoin="round"/>
<g style="mix-blend-mode:difference" opacity="0.15">
<path d="M644.82 186.544C625.16 188.644 609.45 185.934 596.69 176.564C598.59 188.804 599.73 201.324 599.78 213.684C599.96 263.904 582.08 311.454 522.96 325.804C395.63 356.704 400.86 274.354 428.93 199.714C409.1 202.874 389.73 207.674 370.94 213.964C375.62 202.744 382.78 186.484 392.15 167.884C428.21 107.444 468.42 93.6944 489.89 120.974C489.89 120.974 451.59 149.124 451.59 233.544C451.59 317.964 519.5 309.594 542.12 290.994C568.22 269.524 601.3 203.954 583.03 156.084C564.75 108.204 585.05 146.504 622.77 168.564C658.53 189.484 721.93 9.56438 529.12 10.1044C545.91 3.37438 563.64 0.724385 582.15 3.76438C709.23 24.6544 693.56 181.324 644.82 186.554V186.544Z" fill="#C401DB"/>
</g>
<path d="M467.26 120.384C455.66 140.064 440.38 169.254 428.93 199.724" stroke="#490B40" stroke-width="5" stroke-linecap="round" stroke-linejoin="round"/>
<path d="M555 102.184C567.69 121.174 584.58 149.464 597.73 179.234" stroke="#490B40" stroke-width="5" stroke-linecap="round" stroke-linejoin="round"/>
<path d="M281.23 258.114C230.31 292.064 186.66 338.314 153.52 393.214L111.06 358.244C111.06 358.244 126.98 257.604 227.7 214.034L281.24 258.114H281.23Z" fill="url(#paint3_linear_1048_2)" stroke="#490B40" stroke-width="5" stroke-miterlimit="10"/>
<g style="mix-blend-mode:difference" opacity="0.75">
<path d="M281.23 258.114C230.31 292.064 186.66 338.314 153.52 393.214L111.06 358.244C111.06 358.244 112.29 350.484 116.21 338.364L151.23 369.164C182.82 320.464 222.8 279.114 268.65 247.774L281.23 258.124V258.114Z" fill="#101220"/>
</g>
<path d="M317.57 166.864C317.57 166.864 313.17 201.424 300.58 246.014C294.03 249.864 287.57 253.894 281.23 258.124L227.69 214.044C126.97 257.604 111.05 358.254 111.05 358.254L153.51 393.224C151.92 395.864 150.35 398.524 148.82 401.204C114.93 404.314 74.6601 404.964 35.6201 398.194C35.6201 398.194 47.5101 219.814 120.85 146.244C120.85 146.244 262.92 132.504 317.56 166.864H317.57Z" fill="url(#paint4_linear_1048_2)" stroke="#490B40" stroke-width="5" stroke-miterlimit="10"/>
<path d="M548.259 645.772C556.365 634.533 549.046 615.405 531.912 603.048C514.779 590.691 494.318 589.784 486.213 601.023C478.107 612.262 485.426 631.39 502.559 643.747C519.693 656.104 540.153 657.011 548.259 645.772Z" fill="url(#paint5_linear_1048_2)" stroke="#490B40" stroke-width="5" stroke-miterlimit="10"/>
<path d="M466.322 642.696C483.456 630.338 490.774 611.21 482.669 599.971C474.563 588.733 454.103 589.639 436.969 601.996C419.835 614.354 412.517 633.482 420.622 644.721C428.728 655.959 449.189 655.053 466.322 642.696Z" fill="url(#paint6_linear_1048_2)" stroke="#490B40" stroke-width="5" stroke-miterlimit="10"/>
<path d="M549.22 581.704C549.22 589.914 540.01 597.244 525.61 602.034C520.37 603.764 514.44 605.174 508.01 606.174C501.62 607.144 494.76 607.714 487.59 607.804C487 607.814 486.39 607.814 485.78 607.814C485.17 607.814 484.63 607.814 484.06 607.804C477.49 607.724 471.19 607.244 465.27 606.414C458.69 605.504 452.59 604.134 447.19 602.424C432.08 597.654 422.34 590.154 422.34 581.694C422.34 579.434 423.04 577.224 424.36 575.124C431.43 563.874 456.25 555.574 485.78 555.574C513.5 555.574 537.08 562.904 545.71 573.094C546.14 573.584 546.52 574.094 546.87 574.614C548.33 576.754 549.15 579.014 549.21 581.344C549.22 581.454 549.22 581.574 549.22 581.684V581.704Z" fill="url(#paint7_radial_1048_2)" stroke="#490B40" stroke-width="5" stroke-miterlimit="10"/>
<path d="M615.18 514.394C615.18 521.734 615.55 528.944 616.26 535.984C590.33 547.724 566.96 560.824 546.87 574.644C546.52 574.124 546.14 573.624 545.71 573.124C537.08 562.924 513.51 555.604 485.78 555.604C456.25 555.604 431.43 563.904 424.36 575.154C424.09 574.964 423.82 574.804 423.55 574.624C403.56 561.694 380.71 549.484 355.6 538.564C356.11 532.564 356.37 526.444 356.37 520.214C356.37 480.094 345.46 443.944 328.01 418.624C334.4 420.824 340.81 423.164 347.24 425.634C401.65 446.514 448.93 473.524 484.5 502.184C520.23 473.094 568.06 445.634 623.22 424.464C628.8 422.324 634.37 420.274 639.92 418.324C624.6 443.254 615.17 477.114 615.17 514.404L615.18 514.394Z" fill="url(#paint8_linear_1048_2)" stroke="#490B40" stroke-width="5" stroke-miterlimit="10"/>
<path d="M566.5 978.274L495.42 1051.25L416.93 984.694L488.01 774.004L566.5 978.274Z" fill="url(#paint9_linear_1048_2)" stroke="#490B40" stroke-width="5" stroke-miterlimit="10"/>
<g style="mix-blend-mode:difference" opacity="0.2">
<path d="M488.01 773.994L416.92 984.694L495.42 1051.25L566.49 978.284L488 773.994H488.01ZM494.45 1021.17L436.35 971.924L489.89 814.974L547.51 966.644L494.46 1021.16L494.45 1021.17Z" fill="#39B54A"/>
</g>
<path d="M564.58 799.914L493.5 872.894L415.01 806.334L486.09 733.354L564.58 799.914Z" fill="url(#paint10_linear_1048_2)" stroke="#490B40" stroke-width="5" stroke-miterlimit="10"/>
<g style="mix-blend-mode:difference" opacity="0.15">
<path d="M564.58 799.914L493.5 872.894L415.01 806.334L430.33 790.594L493.5 844.174L549.26 786.914L564.58 799.914Z" fill="#39B54A"/>
<path d="M564.58 799.914L493.5 872.894L415.01 806.334L430.33 790.594L493.5 844.174L549.26 786.914L564.58 799.914Z" stroke="#490B40" stroke-miterlimit="10"/>
</g>
<path d="M339.96 1138.12C354.452 1138.12 366.2 1118 366.2 1093.18C366.2 1068.36 354.452 1048.24 339.96 1048.24C325.468 1048.24 313.72 1068.36 313.72 1093.18C313.72 1118 325.468 1138.12 339.96 1138.12Z" fill="url(#paint11_linear_1048_2)" stroke="#490B40" stroke-width="5" stroke-miterlimit="10"/>
<path d="M255.249 1137.44C269.703 1136.38 279.957 1115.46 278.152 1090.71C276.347 1065.95 263.167 1046.74 248.713 1047.79C234.26 1048.85 224.006 1069.77 225.811 1094.52C227.616 1119.28 240.796 1138.49 255.249 1137.44Z" fill="url(#paint12_linear_1048_2)" stroke="#490B40" stroke-width="5" stroke-miterlimit="10"/>
<path d="M297.31 1146.24C314.144 1146.24 327.79 1122.88 327.79 1094.05C327.79 1065.23 314.144 1041.86 297.31 1041.86C280.476 1041.86 266.83 1065.23 266.83 1094.05C266.83 1122.88 280.476 1146.24 297.31 1146.24Z" fill="url(#paint13_linear_1048_2)" stroke="#490B40" stroke-width="5" stroke-miterlimit="10"/>
<path d="M725.26 1139.28C739.752 1139.28 751.5 1119.16 751.5 1094.34C751.5 1069.52 739.752 1049.4 725.26 1049.4C710.768 1049.4 699.02 1069.52 699.02 1094.34C699.02 1119.16 710.768 1139.28 725.26 1139.28Z" fill="url(#paint14_linear_1048_2)" stroke="#490B40" stroke-width="5" stroke-miterlimit="10"/>
<path d="M641.709 1140.94C656.163 1139.88 666.417 1118.96 664.612 1094.21C662.807 1069.45 649.627 1050.24 635.173 1051.29C620.72 1052.35 610.466 1073.27 612.271 1098.02C614.076 1122.78 627.256 1141.99 641.709 1140.94Z" fill="url(#paint15_linear_1048_2)" stroke="#490B40" stroke-width="5" stroke-miterlimit="10"/>
<path d="M682.61 1143.92C699.444 1143.92 713.09 1120.56 713.09 1091.73C713.09 1062.91 699.444 1039.54 682.61 1039.54C665.776 1039.54 652.13 1062.91 652.13 1091.73C652.13 1120.56 665.776 1143.92 682.61 1143.92Z" fill="url(#paint16_linear_1048_2)" stroke="#490B40" stroke-width="5" stroke-miterlimit="10"/>
<path d="M792.75 514.394C792.75 550.084 784.11 582.624 769.94 607.204C753.69 635.374 730.16 653.084 703.97 653.084C694.63 653.084 685.62 650.834 677.17 646.644C645.49 631.004 621.51 588.354 616.27 535.984C615.56 528.944 615.19 521.734 615.19 514.394C615.19 477.104 624.62 443.244 639.94 418.314C656.1 392.054 678.81 375.714 703.96 375.714C719.25 375.714 733.64 381.754 746.21 392.394C769.16 411.834 786.02 446.604 791.12 487.924C792.2 496.494 792.75 505.344 792.75 514.394Z" fill="white" stroke="#490B40" stroke-width="5" stroke-miterlimit="10"/>
<path d="M776.09 521.344C776.09 544.324 770.97 565.274 762.56 581.114C752.92 599.244 738.97 610.654 723.43 610.654C717.89 610.654 712.56 609.204 707.54 606.504C688.76 596.434 674.53 568.974 671.44 535.254C671.01 530.724 670.79 526.074 670.79 521.354C670.79 497.344 676.37 475.544 685.47 459.494C695.06 442.594 708.52 432.064 723.43 432.064C732.51 432.064 741.03 435.954 748.5 442.804C752.67 446.644 756.53 451.424 759.92 456.984L731.63 501.274L771.44 484.664C773.1 490.864 774.35 497.454 775.13 504.324C775.76 509.844 776.09 515.534 776.09 521.364V521.344Z" fill="url(#paint17_linear_1048_2)" stroke="#490B40" stroke-width="5" stroke-miterlimit="10"/>
<path d="M356.38 520.184C356.38 555.874 347.74 588.414 333.57 612.994C317.32 641.164 293.79 658.874 267.6 658.874C258.26 658.874 249.25 656.624 240.8 652.434C209.12 636.794 185.14 594.144 179.9 541.774C179.19 534.734 178.82 527.524 178.82 520.184C178.82 482.894 188.25 449.034 203.57 424.104C219.73 397.844 242.44 381.504 267.59 381.504C282.88 381.504 297.27 387.544 309.84 398.184C332.79 417.624 349.65 452.394 354.75 493.714C355.83 502.284 356.38 511.134 356.38 520.184Z" fill="white" stroke="#490B40" stroke-width="5" stroke-miterlimit="10"/>
<path d="M298.98 530.334C298.98 553.314 293.86 574.264 285.45 590.104C275.81 608.234 261.86 619.644 246.32 619.644C240.78 619.644 235.45 618.194 230.43 615.494C211.65 605.424 197.42 577.964 194.33 544.244C193.9 539.714 193.68 535.064 193.68 530.344C193.68 506.334 199.26 484.534 208.36 468.484C217.95 451.584 231.41 441.054 246.32 441.054C255.4 441.054 263.92 444.944 271.39 451.794C275.56 455.634 279.42 460.414 282.81 465.974L254.52 510.264L294.33 493.654C295.99 499.854 297.24 506.444 298.02 513.314C298.65 518.834 298.98 524.524 298.98 530.354V530.334Z" fill="url(#paint18_linear_1048_2)" stroke="#490B40" stroke-width="5" stroke-miterlimit="10"/>
<path opacity="0.25" d="M239.27 724.074C349.854 724.074 439.5 634.428 439.5 523.844C439.5 413.26 349.854 323.614 239.27 323.614C128.686 323.614 39.04 413.26 39.04 523.844C39.04 634.428 128.686 724.074 239.27 724.074Z" fill="#00FFFF"/>
<path opacity="0.25" d="M727.59 717.314C838.174 717.314 927.82 627.668 927.82 517.084C927.82 406.5 838.174 316.854 727.59 316.854C617.006 316.854 527.36 406.5 527.36 517.084C527.36 627.668 617.006 717.314 727.59 717.314Z" fill="#00FFFF"/>
<path d="M239.27 724.074C349.854 724.074 439.5 634.428 439.5 523.844C439.5 413.26 349.854 323.614 239.27 323.614C128.686 323.614 39.04 413.26 39.04 523.844C39.04 634.428 128.686 724.074 239.27 724.074Z" stroke="#FD14BB" stroke-width="20" stroke-miterlimit="10"/>
<path d="M727.59 717.314C838.174 717.314 927.82 627.668 927.82 517.084C927.82 406.5 838.174 316.854 727.59 316.854C617.006 316.854 527.36 406.5 527.36 517.084C527.36 627.668 617.006 717.314 727.59 717.314Z" stroke="#FD14BB" stroke-width="20" stroke-miterlimit="10"/>
<path d="M920.23 805.674L857.73 1063.31C857.73 1095.1 834.89 1123.02 801.8 1131.69L500.53 1213.45L499.79 1213.65L498.93 1213.39L188.87 1118.35C155.78 1109.68 132.94 1081.76 132.94 1049.97L66.29 805.654C66.29 758.504 115.06 724.424 164.15 737.274L493.27 823.464L822.39 737.274C871.48 724.424 920.26 758.504 920.26 805.654L920.23 805.674Z" fill="white" stroke="#101220" stroke-width="5" stroke-miterlimit="10"/>
<path d="M987.6 839.654L915.51 1161.23C915.51 1200.9 889.16 1235.75 850.99 1246.57L503.46 1348.62L502.6 1348.87L501.6 1348.55L143.92 1229.93C105.74 1219.12 79.4 1184.26 79.4 1144.59L2.5 839.644C2.5 780.794 58.77 738.254 115.4 754.304L495.07 861.884L874.73 754.304C931.35 738.264 987.61 780.794 987.61 839.644L987.6 839.654Z" fill="#6715FF" stroke="#101220" stroke-width="5" stroke-miterlimit="10"/>
<path d="M520.22 539.502H447.5V559.862H520.22V539.502Z" stroke="#FD14BB" stroke-width="20" stroke-miterlimit="10"/>
<defs>
<linearGradient id="paint0_linear_1048_2" x1="485.24" y1="734.014" x2="485.24" y2="1095.24" gradientUnits="userSpaceOnUse">
<stop stop-color="#10FFE2"/>
<stop offset="0.1" stop-color="#15FEDF"/>
<stop offset="0.23" stop-color="#25FDD6"/>
<stop offset="0.38" stop-color="#40FBC9"/>
<stop offset="0.53" stop-color="#65F9B6"/>
<stop offset="0.7" stop-color="#94F69E"/>
<stop offset="0.87" stop-color="#CDF281"/>
<stop offset="1" stop-color="#FEEF69"/>
</linearGradient>
<linearGradient id="paint1_linear_1048_2" x1="491.04" y1="817.164" x2="491.04" y2="199.724" gradientUnits="userSpaceOnUse">
<stop stop-color="#FEEF69"/>
<stop offset="0.02" stop-color="#EEF070"/>
<stop offset="0.08" stop-color="#C0F388"/>
<stop offset="0.15" stop-color="#96F59D"/>
<stop offset="0.22" stop-color="#72F8B0"/>
<stop offset="0.3" stop-color="#53FABF"/>
<stop offset="0.39" stop-color="#3AFCCC"/>
<stop offset="0.48" stop-color="#27FDD6"/>
<stop offset="0.59" stop-color="#1AFEDC"/>
<stop offset="0.73" stop-color="#12FEE0"/>
<stop offset="1" stop-color="#10FFE2"/>
</linearGradient>
<linearGradient id="paint2_linear_1048_2" x1="387.1" y1="250.134" x2="678.72" y2="81.7742" gradientUnits="userSpaceOnUse">
<stop stop-color="#C401DB"/>
<stop offset="0.15" stop-color="#D807CF"/>
<stop offset="0.37" stop-color="#F310C0"/>
<stop offset="0.5" stop-color="#FD14BB"/>
<stop offset="0.62" stop-color="#FD16B9"/>
<stop offset="0.7" stop-color="#FD1FB6"/>
<stop offset="0.76" stop-color="#FD2DAF"/>
<stop offset="0.82" stop-color="#FD42A6"/>
<stop offset="0.87" stop-color="#FD5D9A"/>
<stop offset="0.92" stop-color="#FE7E8B"/>
<stop offset="0.96" stop-color="#FEA57A"/>
<stop offset="1" stop-color="#FFC96B"/>
</linearGradient>
<linearGradient id="paint3_linear_1048_2" x1="162.58" y1="250.044" x2="222.31" y2="353.494" gradientUnits="userSpaceOnUse">
<stop stop-color="#C401DB"/>
<stop offset="0.11" stop-color="#B603E0"/>
<stop offset="0.51" stop-color="#8B0DF0"/>
<stop offset="0.82" stop-color="#7012FB"/>
<stop offset="1" stop-color="#6715FF"/>
</linearGradient>
<linearGradient id="paint4_linear_1048_2" x1="247.74" y1="126.484" x2="77.0601" y2="422.104" gradientUnits="userSpaceOnUse">
<stop stop-color="#C401DB"/>
<stop offset="0.11" stop-color="#B603E0"/>
<stop offset="0.51" stop-color="#8B0DF0"/>
<stop offset="0.82" stop-color="#7012FB"/>
<stop offset="1" stop-color="#6715FF"/>
</linearGradient>
<linearGradient id="paint5_linear_1048_2" x1="549.713" y1="643.756" x2="487.667" y2="599.007" gradientUnits="userSpaceOnUse">
<stop stop-color="#C401DB"/>
<stop offset="0.23" stop-color="#DC09CD"/>
<stop offset="0.46" stop-color="#EE0FC3"/>
<stop offset="0.72" stop-color="#F912BC"/>
<stop offset="1" stop-color="#FD14BB"/>
</linearGradient>
<linearGradient id="paint6_linear_1048_2" x1="416.739" y1="639.336" x2="478.785" y2="594.587" gradientUnits="userSpaceOnUse">
<stop stop-color="#C401DB"/>
<stop offset="0.23" stop-color="#DC09CD"/>
<stop offset="0.46" stop-color="#EE0FC3"/>
<stop offset="0.72" stop-color="#F912BC"/>
<stop offset="1" stop-color="#FD14BB"/>
</linearGradient>
<radialGradient id="paint7_radial_1048_2" cx="0" cy="0" r="1" gradientUnits="userSpaceOnUse" gradientTransform="translate(485.78 581.704) scale(48.51 48.51)">
<stop stop-color="#FEEF69"/>
<stop offset="0.28" stop-color="#FEF447"/>
<stop offset="0.76" stop-color="#FEFB14"/>
<stop offset="1" stop-color="#FFFF00"/>
</radialGradient>
<linearGradient id="paint8_linear_1048_2" x1="483.98" y1="418.314" x2="483.98" y2="575.134" gradientUnits="userSpaceOnUse">
<stop stop-color="#FD14BB"/>
<stop offset="0.15" stop-color="#FD17B9"/>
<stop offset="0.28" stop-color="#FD22B5"/>
<stop offset="0.42" stop-color="#FD35AE"/>
<stop offset="0.55" stop-color="#FD4FA4"/>
<stop offset="0.67" stop-color="#FD7197"/>
<stop offset="0.8" stop-color="#FD9B88"/>
<stop offset="0.92" stop-color="#FDCB76"/>
<stop offset="1" stop-color="#FEEF69"/>
</linearGradient>
<linearGradient id="paint9_linear_1048_2" x1="491.71" y1="1051.25" x2="491.71" y2="774.004" gradientUnits="userSpaceOnUse">
<stop stop-color="#8AFF00"/>
<stop offset="0.16" stop-color="#8FFE05"/>
<stop offset="0.36" stop-color="#9FFC13"/>
<stop offset="0.58" stop-color="#BAF82B"/>
<stop offset="0.82" stop-color="#DEF34C"/>
<stop offset="1" stop-color="#FEEF69"/>
</linearGradient>
<linearGradient id="paint10_linear_1048_2" x1="489.79" y1="872.894" x2="489.79" y2="733.354" gradientUnits="userSpaceOnUse">
<stop stop-color="#8AFF00"/>
<stop offset="0.16" stop-color="#8FFE05"/>
<stop offset="0.36" stop-color="#9FFC13"/>
<stop offset="0.58" stop-color="#BAF82B"/>
<stop offset="0.82" stop-color="#DEF34C"/>
<stop offset="1" stop-color="#FEEF69"/>
</linearGradient>
<linearGradient id="paint11_linear_1048_2" x1="339.96" y1="1138.12" x2="339.96" y2="1048.24" gradientUnits="userSpaceOnUse">
<stop stop-color="#FFFF00"/>
<stop offset="0.24" stop-color="#FEFB14"/>
<stop offset="0.72" stop-color="#FEF447"/>
<stop offset="1" stop-color="#FEEF69"/>
</linearGradient>
<linearGradient id="paint12_linear_1048_2" x1="252.023" y1="1137.46" x2="252.023" y2="1047.74" gradientUnits="userSpaceOnUse">
<stop stop-color="#FFFF00"/>
<stop offset="0.24" stop-color="#FEFB14"/>
<stop offset="0.72" stop-color="#FEF447"/>
<stop offset="1" stop-color="#FEEF69"/>
</linearGradient>
<linearGradient id="paint13_linear_1048_2" x1="297.31" y1="1146.24" x2="297.31" y2="1041.86" gradientUnits="userSpaceOnUse">
<stop stop-color="#FFFF00"/>
<stop offset="0.24" stop-color="#FEFB14"/>
<stop offset="0.72" stop-color="#FEF447"/>
<stop offset="1" stop-color="#FEEF69"/>
</linearGradient>
<linearGradient id="paint14_linear_1048_2" x1="725.26" y1="1139.28" x2="725.26" y2="1049.4" gradientUnits="userSpaceOnUse">
<stop stop-color="#FFFF00"/>
<stop offset="0.24" stop-color="#FEFB14"/>
<stop offset="0.72" stop-color="#FEF447"/>
<stop offset="1" stop-color="#FEEF69"/>
</linearGradient>
<linearGradient id="paint15_linear_1048_2" x1="638.486" y1="1140.94" x2="638.486" y2="1051.22" gradientUnits="userSpaceOnUse">
<stop stop-color="#FFFF00"/>
<stop offset="0.24" stop-color="#FEFB14"/>
<stop offset="0.72" stop-color="#FEF447"/>
<stop offset="1" stop-color="#FEEF69"/>
</linearGradient>
<linearGradient id="paint16_linear_1048_2" x1="682.61" y1="1143.92" x2="682.61" y2="1039.54" gradientUnits="userSpaceOnUse">
<stop stop-color="#FFFF00"/>
<stop offset="0.24" stop-color="#FEFB14"/>
<stop offset="0.72" stop-color="#FEF447"/>
<stop offset="1" stop-color="#FEEF69"/>
</linearGradient>
<linearGradient id="paint17_linear_1048_2" x1="723.44" y1="610.654" x2="723.44" y2="432.054" gradientUnits="userSpaceOnUse">
<stop stop-color="#101220"/>
<stop offset="0.42" stop-color="#111120"/>
<stop offset="0.57" stop-color="#181023"/>
<stop offset="0.68" stop-color="#240F28"/>
<stop offset="0.76" stop-color="#350D30"/>
<stop offset="0.84" stop-color="#4B0A39"/>
<stop offset="0.9" stop-color="#660745"/>
<stop offset="0.96" stop-color="#860352"/>
<stop offset="1" stop-color="#9E005D"/>
</linearGradient>
<linearGradient id="paint18_linear_1048_2" x1="246.33" y1="619.644" x2="246.33" y2="441.034" gradientUnits="userSpaceOnUse">
<stop stop-color="#101220"/>
<stop offset="0.42" stop-color="#111120"/>
<stop offset="0.57" stop-color="#181023"/>
<stop offset="0.68" stop-color="#240F28"/>
<stop offset="0.76" stop-color="#350D30"/>
<stop offset="0.84" stop-color="#4B0A39"/>
<stop offset="0.9" stop-color="#660745"/>
<stop offset="0.96" stop-color="#860352"/>
<stop offset="1" stop-color="#9E005D"/>
</linearGradient>
</defs>
</svg>
