<svg width="1236" height="1133" viewBox="0 0 1236 1133" fill="none" xmlns="http://www.w3.org/2000/svg">
<g clip-path="url(#clip0_1141_210)">
<path d="M1028.3 970.08C1028.3 1106.76 934.216 1217.56 818.166 1217.56C792.876 1217.56 768.636 1212.3 746.176 1202.64C706.556 1217.24 664.226 1225.14 620.256 1225.14C576.286 1225.14 533.546 1217.16 493.756 1202.43C471.156 1212.22 446.746 1217.55 421.266 1217.55C305.216 1217.55 211.136 1106.75 211.136 970.07C211.136 959.7 211.686 949.48 212.736 939.44C222.176 943.86 233.606 946.08 247.316 945.27C271.066 943.86 301.676 933.34 340.706 909.38C343.636 907.59 346.536 905.87 349.426 904.23C477.586 831.26 561.336 910.56 561.336 910.56C561.336 910.56 564.146 912.55 569.356 915.36C577.646 919.85 591.976 926.46 610.696 930.62C616.436 931.92 622.596 932.96 629.126 933.65C660.566 936.97 700.476 931.87 743.456 903.55C746.646 901.44 749.816 899.43 752.946 897.5C834.416 847.43 893.876 857.87 934.756 881.39C941.086 885.02 946.946 888.96 952.396 893.05C967.236 904.17 987.306 905.7 1007.06 901.26C1011.13 900.34 1015.18 899.19 1019.18 897.8C1025.11 920.67 1028.29 944.94 1028.29 970.09L1028.3 970.08Z" fill="url(#paint0_linear_1141_210)" stroke="#490B40" stroke-width="5" stroke-miterlimit="10"/>
<g style="mix-blend-mode:darken">
<path d="M1028.3 970.08C1028.3 1106.76 934.216 1217.56 818.166 1217.56C792.876 1217.56 768.636 1212.3 746.176 1202.64C706.556 1217.24 664.226 1225.14 620.256 1225.14C576.286 1225.14 533.546 1217.16 493.756 1202.43C471.156 1212.22 446.746 1217.55 421.266 1217.55C305.216 1217.55 211.136 1106.75 211.136 970.07C211.136 959.7 211.686 949.48 212.736 939.44C222.176 943.86 233.606 946.08 247.316 945.27C250.336 945.09 253.466 944.76 256.706 944.28C258.496 983.59 262.976 1036.41 274.166 1055.3C292.846 1086.81 285.836 1027.29 295.176 1021.45C304.516 1015.61 311.516 1000.44 326.706 1058.8C341.876 1117.17 371.056 1149.85 381.556 1148.68C392.066 1147.52 369.816 1097.15 385.066 1100.83C417.746 1108.71 415.996 1125.34 470.276 1156.86C544.746 1200.1 735.266 1204.72 816.976 1144.02C898.686 1083.31 885.846 1113.67 878.846 1141.68C871.846 1169.69 958.226 1094.98 960.556 1015.6C962.896 936.22 992.086 1007.43 987.406 1038.95C983.036 1068.39 1023.5 1058.12 990.796 903.47C996.156 903.23 1001.62 902.46 1007.05 901.24C1011.12 900.32 1015.17 899.17 1019.17 897.78C1025.1 920.65 1028.28 944.92 1028.28 970.07L1028.3 970.08Z" fill="#CCCCCC"/>
</g>
<path d="M1053.64 773.55C1042.52 754.06 1029.64 732.53 1019.48 707.48C1017.3 690.51 1014.3 673.85 1010.48 657.56C1010.02 655.52 1009.53 653.5 1009.03 651.48C1005.76 638.24 1001.98 625.24 997.675 612.52C986.055 577.99 970.765 545.47 952.365 515.56C900.645 431.52 824.255 368.09 734.915 338.42C735.095 388.93 717.105 436.76 657.645 451.2C529.565 482.28 534.825 399.45 563.065 324.37C543.125 327.55 523.635 332.38 504.735 338.7C480.065 346.96 456.395 357.79 433.955 370.93C427.365 374.8 420.875 378.86 414.495 383.11C363.995 416.79 320.595 462.49 287.435 516.71C286.965 517.47 286.495 518.24 286.035 519C284.435 521.66 282.855 524.33 281.315 527.03C264.795 555.68 251.085 586.56 240.635 619.18C236.405 632.33 232.705 645.75 229.585 659.44C225.395 677.64 222.215 696.29 220.075 715.3C212.845 747.41 206.065 768.69 200.005 783.7C183.615 824.36 172.605 818.9 172.605 858.03C172.605 889.4 182.725 925.47 212.725 939.46C222.165 943.88 233.595 946.1 247.305 945.29C271.055 943.88 301.665 933.36 340.695 909.4C343.625 907.61 346.525 905.89 349.415 904.25C376.565 888.79 401.715 880.17 424.495 876.19C461.065 869.78 491.525 875.29 514.365 883.62C544.495 894.64 561.325 910.58 561.325 910.58C561.325 910.58 564.135 912.57 569.345 915.38C577.635 919.87 591.965 926.48 610.685 930.64C616.425 931.94 622.585 932.98 629.115 933.67C660.555 936.99 700.465 931.89 743.445 903.57C746.635 901.46 749.805 899.45 752.935 897.52C769.675 887.24 785.495 879.5 800.395 873.91C823.595 865.2 844.625 861.7 863.575 861.83C891.725 862.01 915.335 870.23 934.745 881.4C941.075 885.03 946.935 888.97 952.385 893.06C967.225 904.18 987.295 905.71 1007.05 901.27C1011.12 900.35 1015.17 899.2 1019.17 897.81C1050.75 886.88 1078.47 862.16 1078.47 839.37C1078.47 818.69 1067.37 797.69 1053.63 773.57L1053.64 773.55ZM480.915 551.59C535.645 572.59 583.206 599.76 618.986 628.59C654.926 599.33 703.035 571.71 758.515 550.42C764.125 548.27 769.725 546.21 775.315 544.25C759.905 569.32 750.425 603.38 750.425 640.89C750.425 648.27 750.795 655.53 751.505 662.6C725.425 674.41 701.915 687.58 681.705 701.48C681.345 700.96 680.965 700.45 680.535 699.95C671.855 689.69 648.145 682.32 620.255 682.32C590.545 682.32 565.595 690.67 558.475 701.98C558.205 701.79 557.925 701.62 557.665 701.45C537.555 688.44 514.575 676.16 489.315 665.18C489.825 659.15 490.095 652.99 490.095 646.73C490.095 606.37 479.125 570.01 461.575 544.54C468.005 546.75 474.455 549.11 480.925 551.59H480.915Z" fill="url(#paint1_linear_1141_210)" stroke="#490B40" stroke-width="5" stroke-miterlimit="10"/>
<g style="mix-blend-mode:exclusion" opacity="0.15">
<path d="M1078.49 839.35C1078.49 862.14 1050.77 886.86 1019.19 897.79C1015.19 899.18 1011.15 900.34 1007.07 901.25C987.316 905.69 967.246 904.16 952.406 893.04C946.956 888.95 941.096 885.01 934.766 881.38C915.356 870.21 891.746 861.98 863.596 861.81C844.646 861.68 823.616 865.18 800.416 873.89C785.516 879.48 769.696 887.22 752.956 897.5C749.826 899.42 746.656 901.43 743.466 903.55C700.486 931.87 660.576 936.97 629.136 933.65C622.606 932.96 616.446 931.92 610.706 930.62C591.986 926.46 577.656 919.85 569.366 915.36C564.156 912.55 561.346 910.56 561.346 910.56C561.346 910.56 544.506 894.63 514.386 883.6C491.556 875.26 461.086 869.75 424.516 876.17C401.736 880.15 376.586 888.77 349.436 904.23C346.546 905.87 343.646 907.59 340.716 909.38C301.686 933.35 271.076 943.86 247.326 945.27C233.616 946.08 222.186 943.86 212.746 939.44C182.746 925.45 172.626 889.38 172.626 858.01C172.626 818.89 183.636 824.35 200.026 783.68C206.086 768.67 212.866 747.39 220.096 715.28C222.236 696.27 225.416 677.62 229.606 659.42C232.726 645.74 236.426 632.31 240.656 619.16C251.106 586.54 264.816 555.66 281.336 527.01C282.876 524.31 284.456 521.64 286.056 518.98C286.516 518.22 286.986 517.45 287.456 516.69C320.606 462.47 364.006 416.77 414.516 383.09C420.896 378.84 427.386 374.78 433.976 370.91C456.416 357.78 480.086 346.94 504.756 338.68C523.656 332.35 543.146 327.53 563.086 324.35C560.746 330.57 558.556 336.85 556.596 343.11C542.306 345.9 528.276 349.58 514.586 354.08C491.456 361.7 469.256 371.69 448.196 383.81C442.006 387.39 435.926 391.13 429.946 395.05C382.576 426.13 341.876 468.3 310.766 518.33C310.336 519.03 309.886 519.73 309.456 520.44C307.956 522.9 306.476 525.35 305.026 527.85C289.536 554.28 276.686 582.77 266.866 612.87C262.906 625 259.436 637.4 256.506 650.01C252.586 666.81 249.596 684.02 247.596 701.56C240.816 731.19 234.446 750.83 228.756 764.66C213.386 802.18 203.056 797.15 203.056 833.25C203.056 862.19 212.546 895.47 240.676 908.38C249.536 912.45 260.266 914.51 273.116 913.76C295.386 912.45 324.106 902.75 360.716 880.64C363.466 878.99 366.176 877.39 368.886 875.88C394.356 861.61 417.936 853.66 439.306 849.99C473.606 844.06 502.196 849.15 523.596 856.84C551.866 867.01 567.646 881.72 567.646 881.72C567.646 881.72 570.296 883.54 575.166 886.14C582.946 890.29 596.386 896.39 613.946 900.23C619.326 901.43 625.106 902.38 631.226 903.02C660.716 906.09 698.146 901.38 738.466 875.25C741.456 873.3 744.436 871.44 747.376 869.68C763.066 860.19 777.906 853.05 791.886 847.89C813.646 839.86 833.376 836.64 851.146 836.75C877.556 836.92 899.696 844.5 917.896 854.81C923.836 858.16 929.336 861.8 934.456 865.56C948.366 875.82 967.186 877.23 985.726 873.13C989.546 872.29 993.346 871.22 997.096 869.94C1026.72 859.86 1052.72 837.05 1052.72 816.01C1052.72 796.93 1042.31 777.56 1029.42 755.3C1018.98 737.32 1006.91 717.45 997.386 694.34C995.336 678.7 992.526 663.32 988.936 648.29C988.516 646.41 988.046 644.54 987.586 642.68C984.506 630.46 980.966 618.46 976.936 606.73C966.046 574.87 951.696 544.88 934.436 517.28C886.656 440.9 816.426 382.98 734.276 355.11C734.736 349.61 734.946 344.02 734.926 338.41C824.256 368.08 900.646 431.51 952.376 515.55C970.776 545.46 986.066 577.98 997.686 612.51C1001.99 625.22 1005.77 638.23 1009.04 651.47C1009.54 653.49 1010.03 655.52 1010.49 657.55C1014.31 673.84 1017.31 690.5 1019.49 707.47C1029.65 732.52 1042.53 754.05 1053.65 773.54C1067.4 797.66 1078.49 818.66 1078.49 839.34V839.35Z" fill="#10FFE2"/>
</g>
<path d="M780.226 311.12C760.446 313.23 744.656 310.51 731.816 301.08C733.726 313.39 734.866 325.99 734.926 338.42C735.106 388.93 717.116 436.76 657.656 451.2C529.576 482.28 534.836 399.45 563.076 324.37C543.136 327.55 523.646 332.38 504.746 338.7C527.616 283.87 609.316 109.53 717.186 127.26C845.006 148.27 829.246 305.86 780.226 311.12Z" fill="url(#paint2_linear_1141_210)" stroke="#490B40" stroke-width="5" stroke-linecap="round" stroke-linejoin="round"/>
<g style="mix-blend-mode:difference" opacity="0.15">
<path d="M780.226 311.12C760.446 313.23 744.656 310.51 731.816 301.08C733.726 313.39 734.866 325.99 734.926 338.42C735.106 388.93 717.116 436.76 657.656 451.2C529.576 482.28 534.836 399.45 563.076 324.37C543.136 327.55 523.646 332.38 504.746 338.7C509.456 327.41 516.656 311.06 526.076 292.35C562.346 231.55 602.786 217.73 624.386 245.16C624.386 245.16 585.856 273.47 585.856 358.39C585.856 443.31 654.166 434.88 676.916 416.17C703.176 394.57 736.446 328.62 718.066 280.47C699.676 232.31 720.106 270.84 758.046 293.02C794.016 314.06 857.786 133.09 663.846 133.64C680.736 126.87 698.566 124.21 717.186 127.26C845.006 148.27 829.246 305.86 780.226 311.12Z" fill="#C401DB"/>
</g>
<path d="M601.626 244.57C589.956 264.36 574.596 293.72 563.076 324.37" stroke="#490B40" stroke-width="5" stroke-linecap="round" stroke-linejoin="round"/>
<path d="M689.886 226.26C702.656 245.36 719.636 273.82 732.866 303.77" stroke="#490B40" stroke-width="5" stroke-linecap="round" stroke-linejoin="round"/>
<path d="M683.114 773.035C691.268 761.729 683.905 742.486 666.668 730.054C649.431 717.623 628.848 716.71 620.694 728.016C612.54 739.322 619.903 758.565 637.139 770.997C654.376 783.428 674.959 784.341 683.114 773.035Z" fill="url(#paint3_linear_1141_210)" stroke="#490B40" stroke-width="5" stroke-miterlimit="10"/>
<path d="M600.674 769.966C617.911 757.534 625.273 738.291 617.119 726.985C608.965 715.679 588.382 716.592 571.145 729.023C553.909 741.455 546.546 760.698 554.7 772.004C562.854 783.309 583.437 782.397 600.674 769.966Z" fill="url(#paint4_linear_1141_210)" stroke="#490B40" stroke-width="5" stroke-miterlimit="10"/>
<path d="M684.076 708.6C684.076 716.86 674.806 724.23 660.326 729.05C655.056 730.79 649.086 732.21 642.626 733.21C636.196 734.19 629.296 734.76 622.086 734.85C621.486 734.86 620.876 734.86 620.266 734.86C619.656 734.86 619.106 734.86 618.536 734.85C611.926 734.77 605.596 734.29 599.636 733.45C593.016 732.53 586.886 731.16 581.446 729.44C566.246 724.64 556.446 717.09 556.446 708.59C556.446 706.31 557.146 704.1 558.486 701.98C565.596 690.67 590.556 682.32 620.266 682.32C648.156 682.32 671.866 689.69 680.546 699.95C680.976 700.45 681.356 700.96 681.716 701.48C683.176 703.63 684.006 705.91 684.066 708.25C684.076 708.36 684.076 708.48 684.076 708.59V708.6Z" fill="url(#paint5_radial_1141_210)" stroke="#490B40" stroke-width="5" stroke-miterlimit="10"/>
<path d="M752.604 640.805C752.604 648.198 752.981 655.47 753.706 662.553C727.106 674.383 703.128 687.575 682.515 701.499C682.148 700.978 681.76 700.467 681.322 699.967C672.469 689.689 648.287 682.306 619.841 682.306C589.539 682.306 564.092 690.671 556.83 702C556.555 701.81 556.269 701.639 556.004 701.469C535.494 688.437 512.056 676.136 486.293 665.137C486.813 659.097 487.088 652.926 487.088 646.655C487.088 606.226 475.9 569.804 458 544.29C464.558 546.504 471.137 548.868 477.735 551.353C533.556 572.389 582.063 599.605 618.556 628.484C655.212 599.174 704.28 571.507 760.865 550.181C766.587 548.027 772.299 545.963 778 544C762.283 569.113 752.614 603.231 752.614 640.805H752.604Z" fill="url(#paint6_linear_1141_210)" stroke="#490B40" stroke-width="5" stroke-miterlimit="10"/>
<path d="M701.456 1107.5L629.956 1180.9L551.006 1113.95L622.496 902.02L701.456 1107.5Z" fill="url(#paint7_linear_1141_210)" stroke="#490B40" stroke-width="5" stroke-miterlimit="10"/>
<g style="mix-blend-mode:difference" opacity="0.2">
<path d="M622.496 902.02L550.996 1113.96L629.956 1180.91L701.446 1107.51L622.496 902.03V902.02ZM628.976 1150.65L570.536 1101.12L624.386 943.25L682.346 1095.81L628.976 1150.65Z" fill="#39B54A"/>
</g>
<path d="M699.515 928.09L628.025 1001.49L549.065 934.54L620.565 861.14L699.515 928.09Z" fill="url(#paint8_linear_1141_210)" stroke="#490B40" stroke-width="5" stroke-miterlimit="10"/>
<g style="mix-blend-mode:difference" opacity="0.15">
<path d="M699.526 928.08L628.026 1001.49L549.076 934.55L564.486 918.72L628.026 972.6L684.116 915.01L699.526 928.08Z" fill="#39B54A"/>
<path d="M699.526 928.08L628.026 1001.49L549.076 934.55L564.486 918.72L628.026 972.6L684.116 915.01L699.526 928.08Z" stroke="#490B40" stroke-miterlimit="10"/>
</g>
<path d="M166.786 628.64C166.786 402.35 370.616 218.9 622.056 218.9C873.496 218.9 1077.33 402.35 1077.33 628.64" stroke="#101220" stroke-width="50" stroke-linecap="round" stroke-linejoin="round"/>
<path d="M255.386 676.86C246.106 839.85 271.706 891.22 193.786 886.78C115.876 882.34 44.5359 815.21 53.8159 652.22C63.0959 489.23 132.606 433.14 210.516 437.58C288.426 442.02 264.656 513.88 255.376 676.87L255.386 676.86Z" fill="#101220"/>
<path d="M979.876 679.7C993.886 842.35 969.796 894.44 1047.55 887.74C1125.3 881.04 1194.66 811.86 1180.64 649.21C1166.63 486.56 1095.52 432.51 1017.77 439.21C940.016 445.91 965.866 517.05 979.876 679.7Z" fill="#101220"/>
<path d="M926.455 635.828C926.455 674.393 917.763 709.539 903.51 736.101C887.17 766.532 863.5 785.67 837.158 785.67C827.766 785.67 818.706 783.237 810.205 778.712C778.339 761.815 754.224 715.732 748.956 659.15C748.243 651.549 747.874 643.757 747.874 635.828C747.874 595.541 757.355 558.959 772.766 532.028C789.016 503.662 811.859 486 837.158 486C852.531 486 867.013 492.521 879.649 504.018C902.734 525.015 919.685 562.582 924.813 607.23C925.895 616.485 926.455 626.054 926.455 635.828Z" fill="white" stroke="#490B40" stroke-width="5" stroke-miterlimit="10"/>
<path d="M877.472 635.828C877.472 661.16 873.553 684.249 867.113 701.706C859.732 721.692 849.056 734.269 837.157 734.269C832.919 734.269 828.834 732.67 824.991 729.69C810.611 718.589 799.718 688.323 797.351 651.153C797.02 646.163 796.854 641.037 796.854 635.828C796.854 609.362 801.13 585.329 808.091 567.64C815.434 549.007 825.742 537.401 837.157 537.401C844.105 537.401 850.634 541.693 856.347 549.239C859.542 553.477 862.494 558.74 865.09 564.865L843.431 613.682L873.909 595.377C875.182 602.213 876.136 609.472 876.734 617.045C877.218 623.128 877.472 629.403 877.472 635.828Z" fill="url(#paint9_linear_1141_210)" stroke="#490B40" stroke-width="5" stroke-miterlimit="10"/>
<path d="M487.581 642.089C487.581 680.654 478.889 715.8 464.636 742.362C448.296 772.792 424.626 791.931 398.284 791.931C388.892 791.931 379.832 789.498 371.331 784.973C339.465 768.076 315.35 721.993 310.082 665.411C309.369 657.81 309 650.018 309 642.089C309 601.802 318.481 565.22 333.892 538.289C350.142 509.923 372.985 492.261 398.284 492.261C413.657 492.261 428.139 498.782 440.775 510.279C463.86 531.276 480.81 568.843 485.939 613.491C487.021 622.746 487.581 632.315 487.581 642.089Z" fill="white" stroke="#490B40" stroke-width="5" stroke-miterlimit="10"/>
<path d="M438.6 642.089C438.6 667.421 434.681 690.51 428.241 707.967C420.86 727.953 410.183 740.53 398.285 740.53C394.047 740.53 389.962 738.931 386.119 735.951C371.739 724.85 360.846 694.584 358.479 657.414C358.148 652.424 357.982 647.298 357.982 642.089C357.982 615.623 362.258 591.591 369.219 573.901C376.562 555.268 386.87 543.662 398.285 543.662C405.233 543.662 411.761 547.955 417.475 555.501C420.67 559.738 423.622 565.002 426.218 571.126L404.559 619.943L435.037 601.638C436.309 608.474 437.264 615.733 437.862 623.306C438.346 629.389 438.6 635.664 438.6 642.089Z" fill="url(#paint10_linear_1141_210)" stroke="#490B40" stroke-width="5" stroke-miterlimit="10"/>
</g>
<defs>
<linearGradient id="paint0_linear_1141_210" x1="619.716" y1="861.8" x2="619.716" y2="1225.15" gradientUnits="userSpaceOnUse">
<stop stop-color="#10FFE2"/>
<stop offset="0.1" stop-color="#15FEDF"/>
<stop offset="0.23" stop-color="#25FDD6"/>
<stop offset="0.38" stop-color="#40FBC9"/>
<stop offset="0.53" stop-color="#65F9B6"/>
<stop offset="0.7" stop-color="#94F69E"/>
<stop offset="0.87" stop-color="#CDF281"/>
<stop offset="1" stop-color="#FEEF69"/>
</linearGradient>
<linearGradient id="paint1_linear_1141_210" x1="625.555" y1="945.44" x2="625.555" y2="324.37" gradientUnits="userSpaceOnUse">
<stop stop-color="#FEEF69"/>
<stop offset="0.02" stop-color="#EEF070"/>
<stop offset="0.08" stop-color="#C0F388"/>
<stop offset="0.15" stop-color="#96F59D"/>
<stop offset="0.22" stop-color="#72F8B0"/>
<stop offset="0.3" stop-color="#53FABF"/>
<stop offset="0.39" stop-color="#3AFCCC"/>
<stop offset="0.48" stop-color="#27FDD6"/>
<stop offset="0.59" stop-color="#1AFEDC"/>
<stop offset="0.73" stop-color="#12FEE0"/>
<stop offset="1" stop-color="#10FFE2"/>
</linearGradient>
<linearGradient id="paint2_linear_1141_210" x1="521.006" y1="375.09" x2="814.326" y2="205.74" gradientUnits="userSpaceOnUse">
<stop stop-color="#C401DB"/>
<stop offset="0.15" stop-color="#D807CF"/>
<stop offset="0.37" stop-color="#F310C0"/>
<stop offset="0.5" stop-color="#FD14BB"/>
<stop offset="0.62" stop-color="#FD16B9"/>
<stop offset="0.7" stop-color="#FD1FB6"/>
<stop offset="0.76" stop-color="#FD2DAF"/>
<stop offset="0.82" stop-color="#FD42A6"/>
<stop offset="0.87" stop-color="#FD5D9A"/>
<stop offset="0.92" stop-color="#FE7E8B"/>
<stop offset="0.96" stop-color="#FEA57A"/>
<stop offset="1" stop-color="#FFC96B"/>
</linearGradient>
<linearGradient id="paint3_linear_1141_210" x1="686.131" y1="768.85" x2="623.72" y2="723.838" gradientUnits="userSpaceOnUse">
<stop stop-color="#C401DB"/>
<stop offset="0.23" stop-color="#DC09CD"/>
<stop offset="0.46" stop-color="#EE0FC3"/>
<stop offset="0.72" stop-color="#F912BC"/>
<stop offset="1" stop-color="#FD14BB"/>
</linearGradient>
<linearGradient id="paint4_linear_1141_210" x1="546.77" y1="760.992" x2="609.181" y2="715.979" gradientUnits="userSpaceOnUse">
<stop stop-color="#C401DB"/>
<stop offset="0.23" stop-color="#DC09CD"/>
<stop offset="0.46" stop-color="#EE0FC3"/>
<stop offset="0.72" stop-color="#F912BC"/>
<stop offset="1" stop-color="#FD14BB"/>
</linearGradient>
<radialGradient id="paint5_radial_1141_210" cx="0" cy="0" r="1" gradientUnits="userSpaceOnUse" gradientTransform="translate(620.256 708.6) scale(48.8 48.8)">
<stop stop-color="#FEEF69"/>
<stop offset="0.28" stop-color="#FEF447"/>
<stop offset="0.76" stop-color="#FEFB14"/>
<stop offset="1" stop-color="#FFFF00"/>
</radialGradient>
<linearGradient id="paint6_linear_1141_210" x1="617.995" y1="544" x2="617.995" y2="702.01" gradientUnits="userSpaceOnUse">
<stop stop-color="#FD14BB"/>
<stop offset="0.15" stop-color="#FD17B9"/>
<stop offset="0.28" stop-color="#FD22B5"/>
<stop offset="0.42" stop-color="#FD35AE"/>
<stop offset="0.55" stop-color="#FD4FA4"/>
<stop offset="0.67" stop-color="#FD7197"/>
<stop offset="0.8" stop-color="#FD9B88"/>
<stop offset="0.92" stop-color="#FDCB76"/>
<stop offset="1" stop-color="#FEEF69"/>
</linearGradient>
<linearGradient id="paint7_linear_1141_210" x1="626.226" y1="1180.9" x2="626.226" y2="902.02" gradientUnits="userSpaceOnUse">
<stop stop-color="#8AFF00"/>
<stop offset="0.16" stop-color="#8FFE05"/>
<stop offset="0.36" stop-color="#9FFC13"/>
<stop offset="0.58" stop-color="#BAF82B"/>
<stop offset="0.82" stop-color="#DEF34C"/>
<stop offset="1" stop-color="#FEEF69"/>
</linearGradient>
<linearGradient id="paint8_linear_1141_210" x1="624.295" y1="1001.49" x2="624.295" y2="861.14" gradientUnits="userSpaceOnUse">
<stop stop-color="#8AFF00"/>
<stop offset="0.16" stop-color="#8FFE05"/>
<stop offset="0.36" stop-color="#9FFC13"/>
<stop offset="0.58" stop-color="#BAF82B"/>
<stop offset="0.82" stop-color="#DEF34C"/>
<stop offset="1" stop-color="#FEEF69"/>
</linearGradient>
<linearGradient id="paint9_linear_1141_210" x1="837.17" y1="734.269" x2="837.17" y2="537.401" gradientUnits="userSpaceOnUse">
<stop stop-color="#101220"/>
<stop offset="0.42" stop-color="#111120"/>
<stop offset="0.57" stop-color="#181023"/>
<stop offset="0.68" stop-color="#240F28"/>
<stop offset="0.76" stop-color="#350D30"/>
<stop offset="0.84" stop-color="#4B0A39"/>
<stop offset="0.9" stop-color="#660745"/>
<stop offset="0.96" stop-color="#860352"/>
<stop offset="1" stop-color="#9E005D"/>
</linearGradient>
<linearGradient id="paint10_linear_1141_210" x1="398.298" y1="740.53" x2="398.298" y2="543.662" gradientUnits="userSpaceOnUse">
<stop stop-color="#101220"/>
<stop offset="0.42" stop-color="#111120"/>
<stop offset="0.57" stop-color="#181023"/>
<stop offset="0.68" stop-color="#240F28"/>
<stop offset="0.76" stop-color="#350D30"/>
<stop offset="0.84" stop-color="#4B0A39"/>
<stop offset="0.9" stop-color="#660745"/>
<stop offset="0.96" stop-color="#860352"/>
<stop offset="1" stop-color="#9E005D"/>
</linearGradient>
<clipPath id="clip0_1141_210">
<rect width="1236" height="1133" fill="white"/>
</clipPath>
</defs>
</svg>
