<svg width="1236" height="1133" viewBox="0 0 1236 1133" fill="none" xmlns="http://www.w3.org/2000/svg">
<g clip-path="url(#clip0_1141_270)">
<path d="M1028.3 1082.08C1028.3 1218.76 934.216 1329.56 818.166 1329.56C792.876 1329.56 768.636 1324.3 746.176 1314.64C706.556 1329.24 664.226 1337.14 620.256 1337.14C576.286 1337.14 533.546 1329.16 493.756 1314.43C471.156 1324.22 446.746 1329.55 421.266 1329.55C305.216 1329.55 211.136 1218.75 211.136 1082.07C211.136 1071.7 211.686 1061.48 212.736 1051.44C222.176 1055.86 233.606 1058.08 247.316 1057.27C271.066 1055.86 301.676 1045.34 340.706 1021.38C343.636 1019.59 346.536 1017.87 349.426 1016.23C477.586 943.26 561.336 1022.56 561.336 1022.56C561.336 1022.56 564.146 1024.55 569.356 1027.36C577.646 1031.85 591.976 1038.46 610.696 1042.62C616.436 1043.92 622.596 1044.96 629.126 1045.65C660.566 1048.97 700.476 1043.87 743.456 1015.55C746.646 1013.44 749.816 1011.43 752.946 1009.5C834.416 959.43 893.876 969.87 934.756 993.39C941.086 997.02 946.946 1000.96 952.396 1005.05C967.236 1016.17 987.306 1017.7 1007.06 1013.26C1011.13 1012.34 1015.18 1011.19 1019.18 1009.8C1025.11 1032.67 1028.29 1056.94 1028.29 1082.09L1028.3 1082.08Z" fill="url(#paint0_linear_1141_270)" stroke="#490B40" stroke-width="5" stroke-miterlimit="10"/>
<g style="mix-blend-mode:darken">
<path d="M1028.3 1082.08C1028.3 1218.76 934.216 1329.56 818.166 1329.56C792.876 1329.56 768.636 1324.3 746.176 1314.64C706.556 1329.24 664.226 1337.14 620.256 1337.14C576.286 1337.14 533.546 1329.16 493.756 1314.43C471.156 1324.22 446.746 1329.55 421.266 1329.55C305.216 1329.55 211.136 1218.75 211.136 1082.07C211.136 1071.7 211.686 1061.48 212.736 1051.44C222.176 1055.86 233.606 1058.08 247.316 1057.27C250.336 1057.09 253.466 1056.76 256.706 1056.28C258.496 1095.59 262.976 1148.41 274.166 1167.3C292.846 1198.81 285.836 1139.29 295.176 1133.45C304.516 1127.61 311.516 1112.44 326.706 1170.8C341.876 1229.17 371.056 1261.85 381.556 1260.68C392.066 1259.52 369.816 1209.15 385.066 1212.83C417.746 1220.71 415.996 1237.34 470.276 1268.86C544.746 1312.1 735.266 1316.72 816.976 1256.02C898.686 1195.31 885.846 1225.67 878.846 1253.68C871.846 1281.69 958.226 1206.98 960.556 1127.6C962.896 1048.22 992.086 1119.43 987.406 1150.95C983.036 1180.39 1023.5 1170.12 990.796 1015.47C996.156 1015.23 1001.62 1014.46 1007.05 1013.24C1011.12 1012.32 1015.17 1011.17 1019.17 1009.78C1025.1 1032.65 1028.28 1056.92 1028.28 1082.07L1028.3 1082.08Z" fill="#CCCCCC"/>
</g>
<path d="M1053.64 885.55C1042.52 866.06 1029.64 844.53 1019.48 819.48C1017.3 802.51 1014.3 785.85 1010.48 769.56C1010.02 767.52 1009.53 765.5 1009.03 763.48C1005.76 750.24 1001.98 737.24 997.675 724.52C986.055 689.99 970.765 657.47 952.365 627.56C900.645 543.52 824.255 480.09 734.915 450.42C735.095 500.93 717.105 548.76 657.645 563.2C529.565 594.28 534.825 511.45 563.065 436.37C543.125 439.55 523.635 444.38 504.735 450.7C480.065 458.96 456.395 469.79 433.955 482.93C427.365 486.8 420.875 490.86 414.495 495.11C363.995 528.79 320.595 574.49 287.435 628.71C286.965 629.47 286.495 630.24 286.035 631C284.435 633.66 282.855 636.33 281.315 639.03C264.795 667.68 251.085 698.56 240.635 731.18C236.405 744.33 232.705 757.75 229.585 771.44C225.395 789.64 222.215 808.29 220.075 827.3C212.845 859.41 206.065 880.69 200.005 895.7C183.615 936.36 172.605 930.9 172.605 970.03C172.605 1001.4 182.725 1037.47 212.725 1051.46C222.165 1055.88 233.595 1058.1 247.305 1057.29C271.055 1055.88 301.665 1045.36 340.695 1021.4C343.625 1019.61 346.525 1017.89 349.415 1016.25C376.565 1000.79 401.715 992.17 424.495 988.19C461.065 981.78 491.525 987.29 514.365 995.62C544.495 1006.64 561.325 1022.58 561.325 1022.58C561.325 1022.58 564.135 1024.57 569.345 1027.38C577.635 1031.87 591.965 1038.48 610.685 1042.64C616.425 1043.94 622.585 1044.98 629.115 1045.67C660.555 1048.99 700.465 1043.89 743.445 1015.57C746.635 1013.46 749.805 1011.45 752.935 1009.52C769.675 999.24 785.495 991.5 800.395 985.91C823.595 977.2 844.625 973.7 863.575 973.83C891.725 974.01 915.335 982.23 934.745 993.4C941.075 997.03 946.935 1000.97 952.385 1005.06C967.225 1016.18 987.295 1017.71 1007.05 1013.27C1011.12 1012.35 1015.17 1011.2 1019.17 1009.81C1050.75 998.88 1078.47 974.16 1078.47 951.37C1078.47 930.69 1067.37 909.69 1053.63 885.57L1053.64 885.55ZM480.915 663.59C535.645 684.59 583.206 711.76 618.986 740.59C654.926 711.33 703.035 683.71 758.515 662.42C764.125 660.27 769.725 658.21 775.315 656.25C759.905 681.32 750.425 715.38 750.425 752.89C750.425 760.27 750.795 767.53 751.505 774.6C725.425 786.41 701.915 799.58 681.705 813.48C681.345 812.96 680.965 812.45 680.535 811.95C671.855 801.69 648.145 794.32 620.255 794.32C590.545 794.32 565.595 802.67 558.475 813.98C558.205 813.79 557.925 813.62 557.665 813.45C537.555 800.44 514.575 788.16 489.315 777.18C489.825 771.15 490.095 764.99 490.095 758.73C490.095 718.37 479.125 682.01 461.575 656.54C468.005 658.75 474.455 661.11 480.925 663.59H480.915Z" fill="url(#paint1_linear_1141_270)" stroke="#490B40" stroke-width="5" stroke-miterlimit="10"/>
<g style="mix-blend-mode:exclusion" opacity="0.15">
<path d="M1078.49 951.35C1078.49 974.14 1050.77 998.86 1019.19 1009.79C1015.19 1011.18 1011.15 1012.34 1007.07 1013.25C987.316 1017.69 967.246 1016.16 952.406 1005.04C946.956 1000.95 941.096 997.01 934.766 993.38C915.356 982.21 891.746 973.98 863.596 973.81C844.646 973.68 823.616 977.18 800.416 985.89C785.516 991.48 769.696 999.22 752.956 1009.5C749.826 1011.42 746.656 1013.43 743.466 1015.55C700.486 1043.87 660.576 1048.97 629.136 1045.65C622.606 1044.96 616.446 1043.92 610.706 1042.62C591.986 1038.46 577.656 1031.85 569.366 1027.36C564.156 1024.55 561.346 1022.56 561.346 1022.56C561.346 1022.56 544.506 1006.63 514.386 995.6C491.556 987.26 461.086 981.75 424.516 988.17C401.736 992.15 376.586 1000.77 349.436 1016.23C346.546 1017.87 343.646 1019.59 340.716 1021.38C301.686 1045.35 271.076 1055.86 247.326 1057.27C233.616 1058.08 222.186 1055.86 212.746 1051.44C182.746 1037.45 172.626 1001.38 172.626 970.01C172.626 930.89 183.636 936.35 200.026 895.68C206.086 880.67 212.866 859.39 220.096 827.28C222.236 808.27 225.416 789.62 229.606 771.42C232.726 757.74 236.426 744.31 240.656 731.16C251.106 698.54 264.816 667.66 281.336 639.01C282.876 636.31 284.456 633.64 286.056 630.98C286.516 630.22 286.986 629.45 287.456 628.69C320.606 574.47 364.006 528.77 414.516 495.09C420.896 490.84 427.386 486.78 433.976 482.91C456.416 469.78 480.086 458.94 504.756 450.68C523.656 444.35 543.146 439.53 563.086 436.35C560.746 442.57 558.556 448.85 556.596 455.11C542.306 457.9 528.276 461.58 514.586 466.08C491.456 473.7 469.256 483.69 448.196 495.81C442.006 499.39 435.926 503.13 429.946 507.05C382.576 538.13 341.876 580.3 310.766 630.33C310.336 631.03 309.886 631.73 309.456 632.44C307.956 634.9 306.476 637.35 305.026 639.85C289.536 666.28 276.686 694.77 266.866 724.87C262.906 737 259.436 749.4 256.506 762.01C252.586 778.81 249.596 796.02 247.596 813.56C240.816 843.19 234.446 862.83 228.756 876.66C213.386 914.18 203.056 909.15 203.056 945.25C203.056 974.19 212.546 1007.47 240.676 1020.38C249.536 1024.45 260.266 1026.51 273.116 1025.76C295.386 1024.45 324.106 1014.75 360.716 992.64C363.466 990.99 366.176 989.39 368.886 987.88C394.356 973.61 417.936 965.66 439.306 961.99C473.606 956.06 502.196 961.15 523.596 968.84C551.866 979.01 567.646 993.72 567.646 993.72C567.646 993.72 570.296 995.54 575.166 998.14C582.946 1002.29 596.386 1008.39 613.946 1012.23C619.326 1013.43 625.106 1014.38 631.226 1015.02C660.716 1018.09 698.146 1013.38 738.466 987.25C741.456 985.3 744.436 983.44 747.376 981.68C763.066 972.19 777.906 965.05 791.886 959.89C813.646 951.86 833.376 948.64 851.146 948.75C877.556 948.92 899.696 956.5 917.896 966.81C923.836 970.16 929.336 973.8 934.456 977.56C948.366 987.82 967.186 989.23 985.726 985.13C989.546 984.29 993.346 983.22 997.096 981.94C1026.72 971.86 1052.72 949.05 1052.72 928.01C1052.72 908.93 1042.31 889.56 1029.42 867.3C1018.98 849.32 1006.91 829.45 997.386 806.34C995.336 790.7 992.526 775.32 988.936 760.29C988.516 758.41 988.046 756.54 987.586 754.68C984.506 742.46 980.966 730.46 976.936 718.73C966.046 686.87 951.696 656.88 934.436 629.28C886.656 552.9 816.426 494.98 734.276 467.11C734.736 461.61 734.946 456.02 734.926 450.41C824.256 480.08 900.646 543.51 952.376 627.55C970.776 657.46 986.066 689.98 997.686 724.51C1001.99 737.22 1005.77 750.23 1009.04 763.47C1009.54 765.49 1010.03 767.52 1010.49 769.55C1014.31 785.84 1017.31 802.5 1019.49 819.47C1029.65 844.52 1042.53 866.05 1053.65 885.54C1067.4 909.66 1078.49 930.66 1078.49 951.34V951.35Z" fill="#10FFE2"/>
</g>
<path d="M780.226 423.12C760.446 425.23 744.656 422.51 731.816 413.08C733.726 425.39 734.866 437.99 734.926 450.42C735.106 500.93 717.116 548.76 657.656 563.2C529.576 594.28 534.836 511.45 563.076 436.37C543.136 439.55 523.646 444.38 504.746 450.7C527.616 395.87 609.316 221.53 717.186 239.26C845.006 260.27 829.246 417.86 780.226 423.12Z" fill="url(#paint2_linear_1141_270)" stroke="#490B40" stroke-width="5" stroke-linecap="round" stroke-linejoin="round"/>
<g style="mix-blend-mode:difference" opacity="0.15">
<path d="M780.226 423.12C760.446 425.23 744.656 422.51 731.816 413.08C733.726 425.39 734.866 437.99 734.926 450.42C735.106 500.93 717.116 548.76 657.656 563.2C529.576 594.28 534.836 511.45 563.076 436.37C543.136 439.55 523.646 444.38 504.746 450.7C509.456 439.41 516.656 423.06 526.076 404.35C562.346 343.55 602.786 329.73 624.386 357.16C624.386 357.16 585.856 385.47 585.856 470.39C585.856 555.31 654.166 546.88 676.916 528.17C703.176 506.57 736.446 440.62 718.066 392.47C699.676 344.31 720.106 382.84 758.046 405.02C794.016 426.06 857.786 245.09 663.846 245.64C680.736 238.87 698.566 236.21 717.186 239.26C845.006 260.27 829.246 417.86 780.226 423.12Z" fill="#C401DB"/>
</g>
<path d="M601.626 356.57C589.956 376.36 574.596 405.72 563.076 436.37" stroke="#490B40" stroke-width="5" stroke-linecap="round" stroke-linejoin="round"/>
<path d="M689.886 338.26C702.656 357.36 719.636 385.82 732.866 415.77" stroke="#490B40" stroke-width="5" stroke-linecap="round" stroke-linejoin="round"/>
<path d="M683.114 885.035C691.268 873.729 683.905 854.486 666.668 842.054C649.431 829.623 628.848 828.71 620.694 840.016C612.54 851.322 619.903 870.565 637.139 882.997C654.376 895.428 674.959 896.341 683.114 885.035Z" fill="url(#paint3_linear_1141_270)" stroke="#490B40" stroke-width="5" stroke-miterlimit="10"/>
<path d="M600.674 881.966C617.911 869.534 625.273 850.291 617.119 838.985C608.965 827.679 588.382 828.592 571.145 841.023C553.909 853.455 546.546 872.698 554.7 884.003C562.854 895.309 583.437 894.397 600.674 881.966Z" fill="url(#paint4_linear_1141_270)" stroke="#490B40" stroke-width="5" stroke-miterlimit="10"/>
<path d="M684.076 820.6C684.076 828.86 674.806 836.23 660.326 841.05C655.056 842.79 649.086 844.21 642.626 845.21C636.196 846.19 629.296 846.76 622.086 846.85C621.486 846.86 620.876 846.86 620.266 846.86C619.656 846.86 619.106 846.86 618.536 846.85C611.926 846.77 605.596 846.29 599.636 845.45C593.016 844.53 586.886 843.16 581.446 841.44C566.246 836.64 556.446 829.09 556.446 820.59C556.446 818.31 557.146 816.1 558.486 813.98C565.596 802.67 590.556 794.32 620.266 794.32C648.156 794.32 671.866 801.69 680.546 811.95C680.976 812.45 681.356 812.96 681.716 813.48C683.176 815.63 684.006 817.91 684.066 820.25C684.076 820.36 684.076 820.48 684.076 820.59V820.6Z" fill="url(#paint5_radial_1141_270)" stroke="#490B40" stroke-width="5" stroke-miterlimit="10"/>
<path d="M752.604 752.805C752.604 760.198 752.981 767.47 753.706 774.553C727.106 786.383 703.128 799.575 682.515 813.499C682.148 812.978 681.76 812.467 681.322 811.967C672.469 801.689 648.287 794.306 619.841 794.306C589.539 794.306 564.092 802.671 556.83 814C556.555 813.81 556.269 813.639 556.004 813.469C535.494 800.437 512.056 788.136 486.293 777.137C486.813 771.097 487.088 764.926 487.088 758.655C487.088 718.226 475.9 681.804 458 656.29C464.558 658.504 471.137 660.868 477.735 663.353C533.556 684.389 582.063 711.605 618.556 740.484C655.212 711.174 704.28 683.507 760.865 662.181C766.587 660.027 772.299 657.963 778 656C762.283 681.113 752.614 715.231 752.614 752.805H752.604Z" fill="url(#paint6_linear_1141_270)" stroke="#490B40" stroke-width="5" stroke-miterlimit="10"/>
<path d="M701.456 1219.5L629.956 1292.9L551.006 1225.95L622.496 1014.02L701.456 1219.5Z" fill="url(#paint7_linear_1141_270)" stroke="#490B40" stroke-width="5" stroke-miterlimit="10"/>
<g style="mix-blend-mode:difference" opacity="0.2">
<path d="M622.496 1014.02L550.996 1225.96L629.956 1292.91L701.446 1219.51L622.496 1014.03V1014.02ZM628.976 1262.65L570.536 1213.12L624.386 1055.25L682.346 1207.81L628.976 1262.65Z" fill="#39B54A"/>
</g>
<path d="M699.515 1040.09L628.025 1113.49L549.065 1046.54L620.565 973.14L699.515 1040.09Z" fill="url(#paint8_linear_1141_270)" stroke="#490B40" stroke-width="5" stroke-miterlimit="10"/>
<g style="mix-blend-mode:difference" opacity="0.15">
<path d="M699.526 1040.08L628.026 1113.49L549.076 1046.55L564.486 1030.72L628.026 1084.6L684.116 1027.01L699.526 1040.08Z" fill="#39B54A"/>
<path d="M699.526 1040.08L628.026 1113.49L549.076 1046.55L564.486 1030.72L628.026 1084.6L684.116 1027.01L699.526 1040.08Z" stroke="#490B40" stroke-miterlimit="10"/>
</g>
<path d="M166.786 740.64C166.786 514.35 370.616 330.9 622.056 330.9C873.496 330.9 1077.33 514.35 1077.33 740.64" stroke="#101220" stroke-width="50" stroke-linecap="round" stroke-linejoin="round"/>
<path d="M255.386 788.86C246.106 951.85 271.706 1003.22 193.786 998.78C115.876 994.34 44.5359 927.21 53.8159 764.22C63.0959 601.23 132.606 545.14 210.516 549.58C288.426 554.02 264.656 625.88 255.376 788.87L255.386 788.86Z" fill="#101220"/>
<path d="M979.876 791.7C993.886 954.35 969.796 1006.44 1047.55 999.74C1125.3 993.04 1194.66 923.86 1180.64 761.21C1166.63 598.56 1095.52 544.51 1017.77 551.21C940.016 557.91 965.866 629.05 979.876 791.7Z" fill="#101220"/>
<path d="M926.454 763.896C926.454 802.461 917.762 837.608 903.509 864.169C887.169 894.6 863.499 913.738 837.157 913.738C827.765 913.738 818.705 911.305 810.204 906.78C778.339 889.883 754.223 843.8 748.955 787.218C748.242 779.617 747.873 771.825 747.873 763.896C747.873 723.61 757.354 687.027 772.765 660.097C789.015 631.73 811.858 614.068 837.157 614.068C852.53 614.068 867.012 620.589 879.648 632.086C902.733 653.084 919.684 690.65 924.812 735.298C925.894 744.553 926.454 754.122 926.454 763.896Z" fill="white" stroke="#490B40" stroke-width="5" stroke-miterlimit="10"/>
<path d="M877.472 763.896C877.472 789.228 873.553 812.317 867.113 829.774C859.732 849.76 849.056 862.337 837.157 862.337C832.919 862.337 828.834 860.738 824.991 857.758C810.611 846.657 799.718 816.391 797.351 779.221C797.02 774.231 796.854 769.105 796.854 763.896C796.854 737.43 801.13 713.398 808.091 695.708C815.434 677.075 825.742 665.469 837.157 665.469C844.105 665.469 850.634 669.761 856.347 677.308C859.542 681.545 862.494 686.809 865.09 692.933L843.431 741.75L873.909 723.445C875.182 730.281 876.136 737.54 876.734 745.113C877.218 751.196 877.472 757.471 877.472 763.896Z" fill="url(#paint9_linear_1141_270)" stroke="#490B40" stroke-width="5" stroke-miterlimit="10"/>
<path d="M487.581 770.157C487.581 808.722 478.889 843.868 464.636 870.43C448.296 900.861 424.626 919.999 398.284 919.999C388.892 919.999 379.832 917.566 371.331 913.041C339.465 896.144 315.35 850.061 310.082 793.479C309.369 785.878 309 778.086 309 770.157C309 729.87 318.481 693.288 333.892 666.358C350.142 637.991 372.985 620.329 398.284 620.329C413.657 620.329 428.139 626.85 440.775 638.347C463.86 659.345 480.81 696.911 485.939 741.559C487.021 750.814 487.581 760.383 487.581 770.157Z" fill="white" stroke="#490B40" stroke-width="5" stroke-miterlimit="10"/>
<path d="M438.599 770.157C438.599 795.488 434.68 818.578 428.24 836.035C420.859 856.021 410.183 868.598 398.284 868.598C394.046 868.598 389.961 866.999 386.118 864.018C371.738 852.918 360.845 822.652 358.478 785.482C358.147 780.492 357.981 775.365 357.981 770.157C357.981 743.691 362.257 719.658 369.218 701.969C376.561 683.336 386.869 671.73 398.284 671.73C405.232 671.73 411.761 676.022 417.474 683.568C420.669 687.806 423.621 693.069 426.217 699.194L404.558 748.011L435.036 729.706C436.308 736.541 437.263 743.8 437.861 751.374C438.345 757.457 438.599 763.732 438.599 770.157Z" fill="url(#paint10_linear_1141_270)" stroke="#490B40" stroke-width="5" stroke-miterlimit="10"/>
<path d="M926.454 743.828C926.454 745.414 926.454 746.986 926.403 748.558C926.199 746.207 925.957 743.869 925.69 741.559C920.562 696.911 903.611 659.345 880.526 638.347C867.89 626.85 853.408 620.329 838.035 620.329C812.736 620.329 789.894 637.992 773.643 666.358C758.843 692.222 749.502 727 748.802 765.414C748.191 758.36 747.873 751.156 747.873 743.828C747.873 703.541 757.354 666.959 772.765 640.028C789.015 611.662 811.858 594 837.157 594C852.53 594 867.012 600.521 879.648 612.018C902.733 633.015 919.684 670.582 924.812 715.23C925.894 724.485 926.454 734.054 926.454 743.828Z" fill="url(#paint11_linear_1141_270)" stroke="#490B40" stroke-width="5" stroke-miterlimit="10"/>
<path d="M487.581 750.089C487.581 751.675 487.581 753.247 487.53 754.819C487.326 752.468 487.084 750.13 486.817 747.82C481.689 703.172 464.738 665.606 441.653 644.608C429.017 633.111 414.535 626.59 399.162 626.59C373.863 626.59 351.02 644.253 334.77 672.619C319.97 698.483 310.629 733.261 309.929 771.675C309.318 764.621 309 757.417 309 750.089C309 709.802 318.481 673.22 333.892 646.289C350.142 617.923 372.985 600.261 398.284 600.261C413.657 600.261 428.139 606.782 440.775 618.279C463.86 639.276 480.81 676.843 485.939 721.491C487.021 730.745 487.581 740.315 487.581 750.089Z" fill="url(#paint12_linear_1141_270)" stroke="#490B40" stroke-width="5" stroke-miterlimit="10"/>
</g>
<defs>
<linearGradient id="paint0_linear_1141_270" x1="619.716" y1="973.8" x2="619.716" y2="1337.15" gradientUnits="userSpaceOnUse">
<stop stop-color="#10FFE2"/>
<stop offset="0.1" stop-color="#15FEDF"/>
<stop offset="0.23" stop-color="#25FDD6"/>
<stop offset="0.38" stop-color="#40FBC9"/>
<stop offset="0.53" stop-color="#65F9B6"/>
<stop offset="0.7" stop-color="#94F69E"/>
<stop offset="0.87" stop-color="#CDF281"/>
<stop offset="1" stop-color="#FEEF69"/>
</linearGradient>
<linearGradient id="paint1_linear_1141_270" x1="625.555" y1="1057.44" x2="625.555" y2="436.37" gradientUnits="userSpaceOnUse">
<stop stop-color="#FEEF69"/>
<stop offset="0.02" stop-color="#EEF070"/>
<stop offset="0.08" stop-color="#C0F388"/>
<stop offset="0.15" stop-color="#96F59D"/>
<stop offset="0.22" stop-color="#72F8B0"/>
<stop offset="0.3" stop-color="#53FABF"/>
<stop offset="0.39" stop-color="#3AFCCC"/>
<stop offset="0.48" stop-color="#27FDD6"/>
<stop offset="0.59" stop-color="#1AFEDC"/>
<stop offset="0.73" stop-color="#12FEE0"/>
<stop offset="1" stop-color="#10FFE2"/>
</linearGradient>
<linearGradient id="paint2_linear_1141_270" x1="521.006" y1="487.09" x2="814.326" y2="317.74" gradientUnits="userSpaceOnUse">
<stop stop-color="#C401DB"/>
<stop offset="0.15" stop-color="#D807CF"/>
<stop offset="0.37" stop-color="#F310C0"/>
<stop offset="0.5" stop-color="#FD14BB"/>
<stop offset="0.62" stop-color="#FD16B9"/>
<stop offset="0.7" stop-color="#FD1FB6"/>
<stop offset="0.76" stop-color="#FD2DAF"/>
<stop offset="0.82" stop-color="#FD42A6"/>
<stop offset="0.87" stop-color="#FD5D9A"/>
<stop offset="0.92" stop-color="#FE7E8B"/>
<stop offset="0.96" stop-color="#FEA57A"/>
<stop offset="1" stop-color="#FFC96B"/>
</linearGradient>
<linearGradient id="paint3_linear_1141_270" x1="686.131" y1="880.85" x2="623.72" y2="835.838" gradientUnits="userSpaceOnUse">
<stop stop-color="#C401DB"/>
<stop offset="0.23" stop-color="#DC09CD"/>
<stop offset="0.46" stop-color="#EE0FC3"/>
<stop offset="0.72" stop-color="#F912BC"/>
<stop offset="1" stop-color="#FD14BB"/>
</linearGradient>
<linearGradient id="paint4_linear_1141_270" x1="546.77" y1="872.991" x2="609.181" y2="827.979" gradientUnits="userSpaceOnUse">
<stop stop-color="#C401DB"/>
<stop offset="0.23" stop-color="#DC09CD"/>
<stop offset="0.46" stop-color="#EE0FC3"/>
<stop offset="0.72" stop-color="#F912BC"/>
<stop offset="1" stop-color="#FD14BB"/>
</linearGradient>
<radialGradient id="paint5_radial_1141_270" cx="0" cy="0" r="1" gradientUnits="userSpaceOnUse" gradientTransform="translate(620.256 820.6) scale(48.8 48.8)">
<stop stop-color="#FEEF69"/>
<stop offset="0.28" stop-color="#FEF447"/>
<stop offset="0.76" stop-color="#FEFB14"/>
<stop offset="1" stop-color="#FFFF00"/>
</radialGradient>
<linearGradient id="paint6_linear_1141_270" x1="617.995" y1="656" x2="617.995" y2="814.01" gradientUnits="userSpaceOnUse">
<stop stop-color="#FD14BB"/>
<stop offset="0.15" stop-color="#FD17B9"/>
<stop offset="0.28" stop-color="#FD22B5"/>
<stop offset="0.42" stop-color="#FD35AE"/>
<stop offset="0.55" stop-color="#FD4FA4"/>
<stop offset="0.67" stop-color="#FD7197"/>
<stop offset="0.8" stop-color="#FD9B88"/>
<stop offset="0.92" stop-color="#FDCB76"/>
<stop offset="1" stop-color="#FEEF69"/>
</linearGradient>
<linearGradient id="paint7_linear_1141_270" x1="626.226" y1="1292.9" x2="626.226" y2="1014.02" gradientUnits="userSpaceOnUse">
<stop stop-color="#8AFF00"/>
<stop offset="0.16" stop-color="#8FFE05"/>
<stop offset="0.36" stop-color="#9FFC13"/>
<stop offset="0.58" stop-color="#BAF82B"/>
<stop offset="0.82" stop-color="#DEF34C"/>
<stop offset="1" stop-color="#FEEF69"/>
</linearGradient>
<linearGradient id="paint8_linear_1141_270" x1="624.295" y1="1113.49" x2="624.295" y2="973.14" gradientUnits="userSpaceOnUse">
<stop stop-color="#8AFF00"/>
<stop offset="0.16" stop-color="#8FFE05"/>
<stop offset="0.36" stop-color="#9FFC13"/>
<stop offset="0.58" stop-color="#BAF82B"/>
<stop offset="0.82" stop-color="#DEF34C"/>
<stop offset="1" stop-color="#FEEF69"/>
</linearGradient>
<linearGradient id="paint9_linear_1141_270" x1="837.17" y1="862.337" x2="837.17" y2="665.469" gradientUnits="userSpaceOnUse">
<stop stop-color="#101220"/>
<stop offset="0.42" stop-color="#111120"/>
<stop offset="0.57" stop-color="#181023"/>
<stop offset="0.68" stop-color="#240F28"/>
<stop offset="0.76" stop-color="#350D30"/>
<stop offset="0.84" stop-color="#4B0A39"/>
<stop offset="0.9" stop-color="#660745"/>
<stop offset="0.96" stop-color="#860352"/>
<stop offset="1" stop-color="#9E005D"/>
</linearGradient>
<linearGradient id="paint10_linear_1141_270" x1="398.297" y1="868.598" x2="398.297" y2="671.73" gradientUnits="userSpaceOnUse">
<stop stop-color="#101220"/>
<stop offset="0.42" stop-color="#111120"/>
<stop offset="0.57" stop-color="#181023"/>
<stop offset="0.68" stop-color="#240F28"/>
<stop offset="0.76" stop-color="#350D30"/>
<stop offset="0.84" stop-color="#4B0A39"/>
<stop offset="0.9" stop-color="#660745"/>
<stop offset="0.96" stop-color="#860352"/>
<stop offset="1" stop-color="#9E005D"/>
</linearGradient>
<linearGradient id="paint11_linear_1141_270" x1="837.17" y1="765.414" x2="837.17" y2="594" gradientUnits="userSpaceOnUse">
<stop stop-color="#FEEF69"/>
<stop offset="0.14" stop-color="#DBF17A"/>
<stop offset="0.74" stop-color="#4AFBC4"/>
<stop offset="1" stop-color="#10FFE2"/>
</linearGradient>
<linearGradient id="paint12_linear_1141_270" x1="398.297" y1="771.675" x2="398.297" y2="600.261" gradientUnits="userSpaceOnUse">
<stop stop-color="#FEEF69"/>
<stop offset="0.14" stop-color="#DBF17A"/>
<stop offset="0.74" stop-color="#4AFBC4"/>
<stop offset="1" stop-color="#10FFE2"/>
</linearGradient>
<clipPath id="clip0_1141_270">
<rect width="1236" height="1133" fill="white"/>
</clipPath>
</defs>
</svg>
