<svg width="1371" height="703" viewBox="0 0 1371 703" fill="none" xmlns="http://www.w3.org/2000/svg">
<path d="M1339.09 507.358C1339.09 589.108 1285.81 655.382 1220.09 655.382C1205.77 655.382 1192.03 652.238 1179.32 646.46C1156.88 655.191 1132.91 659.919 1108 659.919C1083.1 659.919 1058.89 655.146 1036.36 646.338C1023.56 652.192 1009.74 655.382 995.306 655.382C929.583 655.382 876.301 589.108 876.301 507.358C876.301 501.154 876.611 495.041 877.209 489.035C882.557 491.676 889.03 493.008 896.793 492.521C910.243 491.676 927.579 485.388 949.686 471.054C951.344 469.981 952.987 468.953 954.623 467.971C1027.21 424.329 1074.64 471.754 1074.64 471.754C1074.64 471.754 1076.23 472.942 1079.18 474.624C1083.87 477.311 1091.99 481.262 1102.59 483.752C1105.84 484.528 1109.33 485.152 1113.03 485.563C1130.83 487.55 1153.44 484.498 1177.78 467.56C1179.59 466.296 1181.38 465.093 1183.15 463.944C1229.29 433.997 1262.97 440.239 1286.12 454.307C1289.7 456.476 1293.03 458.836 1296.11 461.28C1304.52 467.933 1315.88 468.846 1327.07 466.19C1329.38 465.642 1331.67 464.949 1333.93 464.119C1337.29 477.799 1339.09 492.316 1339.09 507.358Z" fill="url(#paint0_linear_1001_775)" stroke="#490B40" stroke-width="5" stroke-miterlimit="10"/>
<g style="mix-blend-mode:darken">
<path d="M1339.09 507.358C1339.09 589.108 1285.81 655.382 1220.09 655.382C1205.77 655.382 1192.03 652.238 1179.32 646.46C1156.88 655.191 1132.91 659.919 1108 659.919C1083.1 659.919 1058.89 655.146 1036.36 646.338C1023.56 652.192 1009.74 655.382 995.306 655.382C929.583 655.382 876.301 589.108 876.301 507.358C876.301 501.154 876.611 495.041 877.209 489.035C882.557 491.676 889.03 493.008 896.793 492.521C898.502 492.414 900.275 492.217 902.113 491.927C903.129 515.442 905.666 547.034 912.002 558.331C922.584 577.179 918.612 541.576 923.903 538.082C929.193 534.587 933.158 525.513 941.757 560.424C950.349 595.335 966.877 614.883 972.824 614.183C978.778 613.49 966.171 583.36 974.813 585.56C993.323 590.272 992.329 600.222 1023.07 619.07C1065.25 644.93 1173.15 647.701 1219.43 611.397C1265.7 575.086 1258.43 593.241 1254.46 609.996C1250.5 626.751 1299.42 582.066 1300.74 534.587C1302.07 487.109 1318.59 529.7 1315.95 548.556C1313.48 566.164 1336.39 560.021 1317.87 467.522C1320.9 467.377 1323.99 466.92 1327.07 466.19C1329.38 465.642 1331.67 464.949 1333.93 464.119C1337.29 477.799 1339.09 492.316 1339.09 507.358Z" fill="#CCCCCC"/>
</g>
<path d="M1353.45 389.806C1347.15 378.152 1339.85 365.271 1334.1 350.29C1332.87 340.143 1331.17 330.178 1329 320.434C1328.74 319.216 1328.46 318.006 1328.18 316.795C1326.33 308.878 1324.19 301.098 1321.75 293.494C1315.17 272.841 1306.51 253.391 1296.09 235.502C1266.8 185.237 1223.53 147.297 1172.94 129.552C1173.04 159.766 1162.86 188.373 1129.18 197.006C1056.65 215.596 1059.62 166.054 1075.62 121.148C1064.32 123.051 1053.29 125.936 1042.58 129.72C1028.61 134.66 1015.21 141.138 1002.5 148.994C998.766 151.308 995.09 153.737 991.479 156.279C962.878 176.422 938.298 203.758 919.521 236.187C919.254 236.644 918.988 237.101 918.728 237.557C917.82 239.148 916.926 240.747 916.054 242.361C906.698 259.496 898.935 277.964 893.017 297.475C890.624 305.339 888.527 313.37 886.761 321.553C884.389 332.439 882.587 343.591 881.376 354.964C877.282 374.17 873.44 386.898 870.009 395.873C860.725 420.195 854.49 416.929 854.49 440.33C854.49 459.095 860.221 480.668 877.21 489.034C882.558 491.676 889.031 493.008 896.794 492.521C910.244 491.676 927.58 485.388 949.687 471.054C951.345 469.98 952.988 468.953 954.624 467.971C969.999 458.722 984.242 453.568 997.145 451.185C1017.85 447.349 1035.11 450.645 1048.04 455.631C1065.1 462.223 1074.64 471.754 1074.64 471.754C1074.64 471.754 1076.23 472.942 1079.18 474.624C1083.87 477.311 1091.99 481.262 1102.59 483.751C1105.84 484.528 1109.33 485.152 1113.03 485.563C1130.83 487.55 1153.44 484.497 1177.78 467.56C1179.59 466.296 1181.38 465.093 1183.16 463.944C1192.63 457.793 1201.59 453.165 1210.03 449.823C1223.17 444.616 1235.08 442.522 1245.81 442.599C1261.76 442.705 1275.13 447.623 1286.12 454.306C1289.7 456.476 1293.03 458.836 1296.11 461.279C1304.52 467.933 1315.88 468.846 1327.07 466.19C1329.38 465.641 1331.67 464.949 1333.93 464.119C1351.82 457.58 1367.52 442.796 1367.52 429.163C1367.52 416.792 1361.23 404.232 1353.45 389.806ZM1029.09 257.053C1060.09 269.613 1087.02 285.866 1107.28 303.108C1127.64 285.607 1154.89 269.088 1186.31 256.353C1189.48 255.066 1192.66 253.833 1195.82 252.661C1187.09 267.657 1181.72 288.028 1181.72 310.462C1181.72 314.877 1181.93 319.216 1182.33 323.449C1167.56 330.513 1154.25 338.392 1142.8 346.705C1142.6 346.393 1142.39 346.088 1142.14 345.791C1137.23 339.655 1123.8 335.248 1108 335.248C1091.18 335.248 1077.05 340.242 1073.02 347.009C1072.87 346.895 1072.71 346.796 1072.56 346.689C1061.17 338.909 1048.15 331.563 1033.85 324.994C1034.14 321.386 1034.29 317.701 1034.29 313.956C1034.29 289.817 1028.07 268.068 1018.13 252.836C1021.77 254.16 1025.43 255.568 1029.09 257.053Z" fill="url(#paint1_linear_1001_775)" stroke="#490B40" stroke-width="5" stroke-miterlimit="10"/>
<g style="mix-blend-mode:exclusion" opacity="0.15">
<path d="M1367.52 429.163C1367.52 442.796 1351.82 457.58 1333.93 464.119C1331.67 464.949 1329.38 465.641 1327.07 466.19C1315.88 468.846 1304.52 467.933 1296.11 461.279C1293.03 458.836 1289.7 456.476 1286.12 454.306C1275.13 447.623 1261.76 442.705 1245.81 442.599C1235.08 442.522 1223.17 444.616 1210.03 449.823C1201.59 453.165 1192.63 457.793 1183.16 463.944C1181.38 465.093 1179.59 466.296 1177.78 467.56C1153.44 484.497 1130.83 487.55 1113.03 485.563C1109.33 485.152 1105.84 484.528 1102.59 483.751C1091.99 481.262 1083.87 477.311 1079.18 474.624C1076.23 472.942 1074.64 471.754 1074.64 471.754C1074.64 471.754 1065.1 462.223 1048.04 455.631C1035.11 450.645 1017.85 447.349 997.145 451.185C984.242 453.568 969.999 458.722 954.624 467.971C952.988 468.953 951.345 469.98 949.687 471.054C927.58 485.388 910.244 491.676 896.794 492.521C889.031 493.008 882.558 491.676 877.21 489.034C860.221 480.668 854.49 459.095 854.49 440.33C854.49 416.929 860.725 420.195 870.009 395.873C873.44 386.898 877.282 374.17 881.376 354.964C882.587 343.591 884.389 332.439 886.761 321.553C888.527 313.37 890.624 305.339 893.017 297.475C898.935 277.964 906.698 259.496 916.054 242.361C916.926 240.747 917.82 239.148 918.728 237.557C918.988 237.101 919.254 236.644 919.521 236.187C938.298 203.758 962.878 176.422 991.479 156.279C995.09 153.737 998.766 151.308 1002.5 148.994C1015.21 141.138 1028.61 134.66 1042.58 129.72C1053.29 125.936 1064.32 123.051 1075.62 121.148C1074.29 124.87 1073.05 128.623 1071.94 132.369C1063.85 134.036 1055.9 136.236 1048.15 138.931C1035.05 143.49 1022.47 149.466 1010.55 156.713C1007.05 158.852 1003.6 161.09 1000.22 163.435C973.387 182.025 950.336 207.245 932.719 237.169C932.474 237.588 932.222 238.007 931.977 238.433C931.126 239.902 930.29 241.371 929.468 242.863C920.696 258.674 913.416 275.711 907.859 293.714C905.617 300.969 903.649 308.384 901.991 315.928C899.771 325.976 898.077 336.268 896.946 346.758C893.104 364.48 889.5 376.226 886.278 384.5C877.57 406.942 871.725 403.935 871.725 425.524C871.725 442.835 877.102 462.741 893.032 470.46C898.048 472.896 904.125 474.129 911.405 473.68C924.019 472.896 940.28 467.095 961.018 453.873C962.575 452.883 964.11 451.931 965.645 451.025C980.069 442.492 993.425 437.734 1005.53 435.542C1024.95 431.994 1041.14 435.039 1053.27 439.637C1069.28 445.72 1078.21 454.52 1078.21 454.52C1078.21 454.52 1079.71 455.608 1082.47 457.161C1086.88 459.643 1094.49 463.289 1104.44 465.588C1107.49 466.304 1110.76 466.875 1114.22 467.255C1130.93 469.09 1152.12 466.273 1174.96 450.645C1176.65 449.48 1178.34 448.369 1180.01 447.311C1188.89 441.632 1197.3 437.361 1205.21 434.278C1217.54 429.475 1228.71 427.549 1238.77 427.617C1253.73 427.716 1266.27 432.253 1276.58 438.419C1279.94 440.421 1283.06 442.599 1285.96 444.852C1293.83 450.987 1304.5 451.832 1314.99 449.381C1317.15 448.879 1319.31 448.239 1321.43 447.471C1338.2 441.441 1352.93 427.8 1352.93 415.217C1352.93 403.806 1347.03 392.219 1339.73 378.905C1333.82 368.149 1326.98 356.266 1321.59 342.442C1320.43 333.086 1318.83 323.89 1316.8 314.9C1316.56 313.773 1316.3 312.654 1316.04 311.543C1314.29 304.235 1312.29 297.056 1310 290.038C1303.83 270.984 1295.71 253.041 1285.93 236.537C1258.88 190.855 1219.1 156.211 1172.57 139.54C1172.83 136.251 1172.96 132.909 1172.94 129.552C1223.53 147.297 1266.8 185.237 1296.09 235.502C1306.51 253.391 1315.17 272.841 1321.75 293.494C1324.19 301.098 1326.33 308.878 1328.18 316.795C1328.46 318.006 1328.74 319.216 1329 320.434C1331.17 330.178 1332.87 340.143 1334.1 350.29C1339.85 365.271 1347.15 378.152 1353.45 389.806C1361.23 404.232 1367.52 416.792 1367.52 429.163Z" fill="#10FFE2"/>
</g>
<path d="M1284.95 221.533C1276.64 223.117 1256.45 216.174 1254.05 215.436C1242.5 211.881 1230.86 208.82 1219.14 206.065C1173.54 195.765 1126.77 192.027 1080.32 194.821C1025.51 198.125 971.129 210.548 919.729 232.061C922.345 211.416 933.95 193.131 948.647 180.251C963.344 167.371 980.983 159.355 998.794 153.044C1033.23 140.841 1069.3 134.424 1105.43 133.8C1133.94 133.305 1162.93 134.972 1190.67 142.782C1215.65 149.809 1240.54 153.6 1259.75 174.481C1270.47 186.143 1278.8 200.211 1287.05 214.164C1289.77 218.762 1288.37 220.871 1284.94 221.526L1284.95 221.533Z" fill="#6715FF" stroke="#490B40" stroke-width="5" stroke-miterlimit="10"/>
<path d="M1198.6 113.223C1187.4 114.487 1178.46 112.858 1171.18 107.217C1172.26 114.578 1172.91 122.115 1172.94 129.552C1173.04 159.766 1162.86 188.374 1129.18 197.006C1056.65 215.596 1059.62 166.054 1075.62 121.148C1064.32 123.051 1053.29 125.936 1042.58 129.72C1055.54 96.9252 1101.81 -7.34999 1162.9 3.25414C1235.29 15.8223 1226.37 110.08 1198.6 113.223Z" fill="url(#paint2_linear_1001_775)" stroke="#490B40" stroke-width="5" stroke-linecap="round" stroke-linejoin="round"/>
<g style="mix-blend-mode:difference" opacity="0.15">
<path d="M1198.6 113.223C1187.4 114.487 1178.46 112.858 1171.18 107.217C1172.26 114.578 1172.91 122.115 1172.94 129.552C1173.04 159.766 1162.86 188.373 1129.18 197.006C1056.65 215.596 1059.62 166.054 1075.62 121.148C1064.32 123.051 1053.29 125.936 1042.58 129.72C1045.25 122.967 1049.33 113.185 1054.66 101.995C1075.21 65.6304 1098.11 57.3633 1110.34 73.7681C1110.34 73.7681 1088.52 90.7058 1088.52 141.496C1088.52 192.286 1127.21 187.247 1140.09 176.056C1154.96 163.138 1173.81 123.691 1163.4 94.8926C1152.98 66.0872 1164.55 89.13 1186.04 102.399C1206.41 114.982 1242.53 6.74057 1132.69 7.0679C1142.26 3.01809 1152.36 1.42709 1162.9 3.25408C1235.29 15.8222 1226.37 110.079 1198.6 113.223Z" fill="#C401DB"/>
</g>
<path d="M1097.45 73.418C1090.84 85.2553 1082.14 102.817 1075.62 121.148" stroke="#490B40" stroke-width="5" stroke-linecap="round" stroke-linejoin="round"/>
<path d="M1147.44 62.4713C1154.67 73.8976 1164.29 90.9114 1171.78 108.831" stroke="#490B40" stroke-width="5" stroke-linecap="round" stroke-linejoin="round"/>
<path d="M1143.56 389.475C1148.17 382.713 1144.01 371.204 1134.24 363.77C1124.48 356.336 1112.83 355.79 1108.21 362.552C1103.59 369.314 1107.76 380.822 1117.52 388.257C1127.28 395.691 1138.94 396.237 1143.56 389.475Z" fill="url(#paint3_linear_1001_775)" stroke="#490B40" stroke-width="5" stroke-miterlimit="10"/>
<path d="M1096.94 387.705C1106.7 380.27 1110.87 368.762 1106.25 362C1101.63 355.238 1089.98 355.783 1080.22 363.218C1070.46 370.652 1066.29 382.161 1070.91 388.922C1075.52 395.684 1087.18 395.139 1096.94 387.705Z" fill="url(#paint4_linear_1001_775)" stroke="#490B40" stroke-width="5" stroke-miterlimit="10"/>
<path d="M1144.15 350.96C1144.15 355.9 1138.9 360.308 1130.7 363.193C1127.71 364.236 1124.33 365.081 1120.67 365.682C1117.03 366.269 1113.12 366.611 1109.04 366.664C1108.7 366.672 1108.35 366.672 1108 366.672C1107.66 366.672 1107.35 366.672 1107.02 366.664C1103.28 366.619 1099.69 366.33 1096.32 365.827C1092.57 365.279 1089.1 364.457 1086.02 363.429C1077.41 360.559 1071.86 356.045 1071.86 350.96C1071.86 349.597 1072.26 348.273 1073.02 347.009C1077.05 340.242 1091.18 335.248 1108 335.248C1123.8 335.248 1137.23 339.656 1142.14 345.791C1142.39 346.088 1142.6 346.393 1142.8 346.705C1143.63 347.991 1144.1 349.354 1144.14 350.754C1144.15 350.823 1144.15 350.891 1144.15 350.96Z" fill="url(#paint5_radial_1001_775)" stroke="#490B40" stroke-width="5" stroke-miterlimit="10"/>
<path d="M1181.72 310.462C1181.72 314.877 1181.93 319.216 1182.33 323.449C1167.56 330.513 1154.25 338.392 1142.8 346.705C1142.6 346.393 1142.39 346.088 1142.14 345.791C1137.22 339.656 1123.8 335.248 1108 335.248C1091.18 335.248 1077.04 340.242 1073.01 347.009C1072.86 346.895 1072.7 346.796 1072.55 346.689C1061.16 338.91 1048.15 331.563 1033.85 324.994C1034.13 321.386 1034.29 317.701 1034.29 313.956C1034.29 289.817 1028.07 268.068 1018.13 252.836C1021.77 254.16 1025.43 255.568 1029.09 257.053C1060.08 269.613 1087.02 285.866 1107.28 303.108C1127.64 285.607 1154.88 269.088 1186.3 256.353C1189.48 255.066 1192.65 253.833 1195.82 252.661C1187.09 267.657 1181.72 288.028 1181.72 310.462Z" fill="url(#paint6_linear_1001_775)" stroke="#490B40" stroke-width="5" stroke-miterlimit="10"/>
<path d="M1153.99 589.549L1113.49 633.458L1068.78 593.409L1109.27 466.654L1153.99 589.549Z" fill="url(#paint7_linear_1001_775)" stroke="#490B40" stroke-width="5" stroke-miterlimit="10"/>
<g style="mix-blend-mode:difference" opacity="0.2">
<path d="M1109.27 466.646L1068.78 593.409L1113.49 633.45L1153.98 589.549L1109.27 466.646ZM1112.94 615.355L1079.84 585.728L1110.34 491.303L1143.16 582.553L1112.94 615.355Z" fill="#39B54A"/>
</g>
<path d="M1152.89 482.244L1112.4 526.145L1067.69 486.104L1108.18 442.195L1152.89 482.244Z" fill="url(#paint8_linear_1001_775)" stroke="#490B40" stroke-width="5" stroke-miterlimit="10"/>
<g style="mix-blend-mode:difference" opacity="0.15">
<path d="M1152.89 482.237L1112.4 526.145L1067.69 486.104L1076.42 476.634L1112.4 508.865L1144.16 474.419L1152.89 482.237Z" fill="#39B54A"/>
<path d="M1152.89 482.237L1112.4 526.145L1067.69 486.104L1076.42 476.634L1112.4 508.865L1144.16 474.419L1152.89 482.237Z" stroke="#490B40" stroke-miterlimit="10"/>
</g>
<path d="M1024.94 685.717C1033.19 685.717 1039.89 673.611 1039.89 658.678C1039.89 643.744 1033.19 631.638 1024.94 631.638C1016.68 631.638 1009.99 643.744 1009.99 658.678C1009.99 673.611 1016.68 685.717 1024.94 685.717Z" fill="url(#paint9_linear_1001_775)" stroke="#490B40" stroke-width="5" stroke-miterlimit="10"/>
<path d="M976.676 685.337C984.911 684.703 990.753 672.115 989.725 657.221C988.696 642.327 981.187 630.767 972.953 631.401C964.718 632.035 958.877 644.623 959.905 659.517C960.933 674.411 968.442 685.971 976.676 685.337Z" fill="url(#paint10_linear_1001_775)" stroke="#490B40" stroke-width="5" stroke-miterlimit="10"/>
<path d="M1000.64 690.604C1010.23 690.604 1018 676.545 1018 659.203C1018 641.861 1010.23 627.802 1000.64 627.802C991.05 627.802 983.275 641.861 983.275 659.203C983.275 676.545 991.05 690.604 1000.64 690.604Z" fill="url(#paint11_linear_1001_775)" stroke="#490B40" stroke-width="5" stroke-miterlimit="10"/>
<path d="M1244.43 686.418C1252.69 686.418 1259.38 674.312 1259.38 659.378C1259.38 644.445 1252.69 632.339 1244.43 632.339C1236.18 632.339 1229.48 644.445 1229.48 659.378C1229.48 674.312 1236.18 686.418 1244.43 686.418Z" fill="url(#paint12_linear_1001_775)" stroke="#490B40" stroke-width="5" stroke-miterlimit="10"/>
<path d="M1196.83 687.448C1205.07 686.814 1210.91 674.226 1209.88 659.332C1208.85 644.438 1201.35 632.878 1193.11 633.512C1184.88 634.146 1179.03 646.734 1180.06 661.628C1181.09 676.522 1188.6 688.082 1196.83 687.448Z" fill="url(#paint13_linear_1001_775)" stroke="#490B40" stroke-width="5" stroke-miterlimit="10"/>
<path d="M1220.13 689.211C1229.72 689.211 1237.5 675.152 1237.5 657.81C1237.5 640.467 1229.72 626.408 1220.13 626.408C1210.54 626.408 1202.77 640.467 1202.77 657.81C1202.77 675.152 1210.54 689.211 1220.13 689.211Z" fill="url(#paint14_linear_1001_775)" stroke="#490B40" stroke-width="5" stroke-miterlimit="10"/>
<path d="M1291.3 521.047C1193.7 589.98 1123.43 400.324 1123.43 400.324C1123.43 400.324 1119.18 384.818 1130.24 387.172C1145.59 390.441 1273.14 463.658 1272.26 483.718" fill="url(#paint15_linear_1001_775)"/>
<path d="M1291.3 521.047C1193.7 589.98 1123.43 400.324 1123.43 400.324C1123.43 400.324 1119.18 384.818 1130.24 387.172C1145.59 390.441 1273.14 463.658 1272.26 483.718" stroke="#490B40" stroke-width="5" stroke-linecap="round" stroke-linejoin="round"/>
<path d="M1282.87 310.462C1282.87 331.937 1277.95 351.508 1269.88 366.299C1260.62 383.245 1247.21 393.902 1232.29 393.902C1226.97 393.902 1221.84 392.547 1217.03 390.027C1198.98 380.618 1185.32 354.957 1182.33 323.449C1181.93 319.216 1181.72 314.877 1181.72 310.462C1181.72 288.028 1187.09 267.657 1195.82 252.661C1205.02 236.865 1217.96 227.03 1232.29 227.03C1241 227.03 1249.2 230.661 1256.36 237.063C1269.44 248.756 1279.04 269.675 1281.94 294.537C1282.55 299.69 1282.87 305.019 1282.87 310.462Z" fill="white" stroke="#490B40" stroke-width="5" stroke-miterlimit="10"/>
<path d="M1034.29 313.948C1034.29 335.423 1029.36 354.995 1021.29 369.786C1012.03 386.731 998.627 397.388 983.706 397.388C978.387 397.388 973.255 396.033 968.44 393.514C950.391 384.105 936.732 358.443 933.747 326.935C933.344 322.703 933.135 318.364 933.135 313.948C933.135 291.514 938.505 271.144 947.234 256.147C956.438 240.351 969.377 230.516 983.706 230.516C992.414 230.516 1000.62 234.147 1007.77 240.549C1020.85 252.242 1030.45 273.161 1033.36 298.023C1033.97 303.177 1034.29 308.505 1034.29 313.948Z" fill="white" stroke="#490B40" stroke-width="5" stroke-miterlimit="10"/>
<path d="M1000.54 337.217C1000.54 349.884 998.789 361.432 995.913 370.164C992.611 380.159 987.84 386.454 982.52 386.454C980.624 386.454 978.801 385.655 977.078 384.163C970.648 378.614 965.783 363.472 964.723 344.883C964.572 342.386 964.5 339.82 964.5 337.217C964.5 323.979 966.41 311.959 969.524 303.113C972.804 293.796 977.417 287.987 982.52 287.987C985.627 287.987 988.546 290.134 991.098 293.91C992.525 296.026 993.844 298.66 995.004 301.728L985.324 326.149L998.947 316.991C999.517 320.409 999.942 324.04 1000.21 327.831C1000.42 330.876 1000.54 334.012 1000.54 337.225V337.217Z" fill="url(#paint16_linear_1001_775)" stroke="#490B40" stroke-width="5" stroke-miterlimit="10"/>
<path d="M1252.42 333.289C1252.42 345.576 1250.67 356.781 1247.8 365.246C1244.49 374.944 1239.72 381.042 1234.4 381.042C1232.51 381.042 1230.68 380.266 1228.96 378.819C1222.53 373.437 1217.67 358.753 1216.61 340.719C1216.45 338.298 1216.38 335.809 1216.38 333.282C1216.38 320.439 1218.29 308.785 1221.41 300.206C1224.69 291.17 1229.3 285.536 1234.4 285.536C1237.51 285.536 1240.43 287.622 1242.98 291.276C1244.41 293.331 1245.73 295.882 1246.89 298.858L1237.21 322.54L1250.83 313.657C1251.4 316.976 1251.82 320.493 1252.09 324.169C1252.31 327.123 1252.42 330.168 1252.42 333.282V333.289Z" fill="url(#paint17_linear_1001_775)" stroke="#490B40" stroke-width="5" stroke-miterlimit="10"/>
<path d="M1188.99 246.319L1297.02 310.995C1297.02 310.995 1272.63 161.433 1188.99 246.319Z" fill="url(#paint18_linear_1001_775)" stroke="#490B40" stroke-width="5" stroke-miterlimit="10"/>
<path d="M1027.45 249.334L921.48 317.694C921.48 317.694 941.245 167.371 1027.45 249.334Z" fill="url(#paint19_linear_1001_775)" stroke="#490B40" stroke-width="5" stroke-miterlimit="10"/>
<path d="M921.748 511.925C921.748 593.675 868.466 659.949 802.743 659.949C788.42 659.949 774.689 656.805 761.974 651.027C739.535 659.759 715.561 664.486 690.658 664.486C665.754 664.486 641.549 659.713 619.017 650.905C606.215 656.759 592.39 659.949 577.96 659.949C512.237 659.949 458.955 593.675 458.955 511.925C458.955 505.721 459.265 499.608 459.863 493.602C465.212 496.243 471.684 497.575 479.448 497.088C492.898 496.243 510.233 489.955 532.34 475.621C533.998 474.548 535.641 473.52 537.278 472.538C609.863 428.896 657.292 476.321 657.292 476.321C657.292 476.321 658.885 477.509 661.833 479.191C666.525 481.879 674.641 485.829 685.244 488.319C688.495 489.095 691.984 489.719 695.682 490.13C713.486 492.117 736.09 489.065 760.431 472.127C762.241 470.863 764.036 469.661 765.809 468.511C811.947 438.564 845.623 444.806 868.776 458.874C872.358 461.043 875.681 463.403 878.766 465.847C887.171 472.5 898.538 473.414 909.724 470.757C912.031 470.209 914.323 469.516 916.587 468.686C919.945 482.366 921.748 496.883 921.748 511.925Z" fill="url(#paint20_linear_1001_775)" stroke="#490B40" stroke-width="5" stroke-miterlimit="10"/>
<g style="mix-blend-mode:darken">
<path d="M921.748 511.925C921.748 593.675 868.466 659.949 802.743 659.949C788.42 659.949 774.689 656.805 761.974 651.027C739.535 659.759 715.561 664.486 690.658 664.486C665.754 664.486 641.549 659.713 619.017 650.905C606.215 656.759 592.39 659.949 577.96 659.949C512.237 659.949 458.955 593.675 458.955 511.925C458.955 505.721 459.265 499.608 459.863 493.602C465.212 496.243 471.684 497.576 479.448 497.088C481.156 496.982 482.929 496.784 484.767 496.495C485.783 520.009 488.321 551.601 494.656 562.898C505.238 581.746 501.266 546.143 506.557 542.649C511.848 539.155 515.812 530.081 524.411 564.991C533.003 599.902 549.531 619.451 555.478 618.75C561.432 618.058 548.825 587.928 557.467 590.128C575.978 594.84 574.983 604.789 605.725 623.638C647.9 649.497 755.804 652.268 802.08 615.964C848.355 579.653 841.082 597.809 837.118 614.564C833.153 631.319 882.074 586.633 883.394 539.155C884.72 491.676 901.248 534.268 898.603 553.124C896.13 570.731 919.045 564.588 900.52 472.089C903.554 471.944 906.647 471.488 909.724 470.757C912.031 470.209 914.323 469.516 916.587 468.686C919.945 482.366 921.748 496.883 921.748 511.925Z" fill="#CCCCCC"/>
</g>
<path d="M936.1 394.374C929.8 382.719 922.505 369.839 916.753 354.857C915.521 344.71 913.82 334.745 911.657 325.002C911.398 323.784 911.117 322.573 910.836 321.363C908.983 313.446 906.842 305.666 904.406 298.061C897.825 277.409 889.168 257.959 878.745 240.069C849.452 189.805 806.189 151.864 755.596 134.12C755.697 164.333 745.512 192.941 711.836 201.573C639.301 220.163 642.278 170.621 658.273 125.715C646.978 127.618 635.942 130.504 625.238 134.287C611.269 139.227 597.862 145.706 585.154 153.562C581.421 155.876 577.745 158.304 574.133 160.847C545.532 180.989 520.952 208.326 502.175 240.755C501.909 241.211 501.642 241.668 501.383 242.125C500.474 243.716 499.581 245.314 498.708 246.928C489.352 264.064 481.589 282.532 475.672 302.042C473.278 309.906 471.181 317.937 469.415 326.121C467.044 337.006 465.241 348.159 464.031 359.532C459.936 378.738 456.094 391.466 452.663 400.441C443.379 424.763 437.145 421.497 437.145 444.897C437.145 463.662 442.875 485.236 459.864 493.602C465.213 496.243 471.685 497.576 479.449 497.088C492.899 496.243 510.234 489.956 532.341 475.621C533.999 474.548 535.642 473.52 537.279 472.538C552.653 463.289 566.897 458.135 579.799 455.753C600.508 451.916 617.764 455.212 630.695 460.198C647.756 466.791 657.293 476.322 657.293 476.322C657.293 476.322 658.886 477.509 661.834 479.192C666.526 481.879 674.642 485.83 685.245 488.319C688.496 489.095 691.985 489.72 695.683 490.131C713.486 492.117 736.091 489.065 760.432 472.127C762.242 470.863 764.037 469.661 765.81 468.511C775.288 462.36 784.248 457.732 792.688 454.39C805.829 449.183 817.736 447.09 828.469 447.166C844.413 447.273 857.784 452.19 868.777 458.874C872.359 461.043 875.682 463.403 878.767 465.847C887.172 472.5 898.539 473.414 909.725 470.757C912.032 470.209 914.324 469.516 916.588 468.686C934.471 462.147 950.17 447.364 950.17 433.73C950.17 421.36 943.884 408.799 936.1 394.374ZM611.745 261.62C642.74 274.181 669.676 290.433 689.938 307.676C710.293 290.175 737.54 273.656 768.96 260.92C772.138 259.633 775.31 258.4 778.474 257.228C769.745 272.224 764.375 292.595 764.375 315.029C764.375 319.444 764.584 323.784 764.988 328.016C750.219 335.08 736.905 342.959 725.459 351.272C725.257 350.96 725.041 350.655 724.796 350.359C719.88 344.223 706.451 339.815 690.659 339.815C673.835 339.815 659.7 344.809 655.671 351.577C655.519 351.462 655.361 351.363 655.209 351.257C643.821 343.477 630.803 336.131 616.502 329.561C616.791 325.953 616.942 322.269 616.942 318.523C616.942 294.384 610.729 272.635 600.789 257.403C604.429 258.728 608.083 260.136 611.745 261.62Z" fill="url(#paint21_linear_1001_775)" stroke="#490B40" stroke-width="5" stroke-miterlimit="10"/>
<g style="mix-blend-mode:exclusion" opacity="0.15">
<path d="M950.17 433.73C950.17 447.364 934.471 462.147 916.588 468.686C914.324 469.516 912.032 470.209 909.725 470.757C898.539 473.414 887.172 472.5 878.767 465.847C875.682 463.403 872.359 461.043 868.777 458.874C857.784 452.19 844.413 447.273 828.469 447.166C817.736 447.09 805.829 449.183 792.688 454.39C784.248 457.732 775.288 462.36 765.81 468.511C764.037 469.661 762.242 470.863 760.432 472.127C736.091 489.065 713.486 492.117 695.683 490.131C691.985 489.72 688.496 489.095 685.245 488.319C674.642 485.83 666.526 481.879 661.834 479.192C658.886 477.509 657.293 476.322 657.293 476.322C657.293 476.322 647.756 466.791 630.695 460.198C617.764 455.212 600.508 451.916 579.799 455.753C566.897 458.135 552.653 463.289 537.279 472.538C535.642 473.52 533.999 474.548 532.341 475.621C510.234 489.956 492.899 496.243 479.449 497.088C471.685 497.576 465.213 496.243 459.864 493.602C442.875 485.236 437.145 463.662 437.145 444.897C437.145 421.497 443.379 424.763 452.663 400.441C456.094 391.466 459.936 378.738 464.031 359.532C465.241 348.159 467.044 337.006 469.415 326.121C471.181 317.937 473.278 309.906 475.672 302.042C481.589 282.532 489.352 264.064 498.708 246.928C499.581 245.314 500.474 243.716 501.383 242.125C501.642 241.668 501.909 241.211 502.175 240.755C520.952 208.326 545.532 180.989 574.133 160.847C577.745 158.304 581.421 155.876 585.154 153.562C597.862 145.706 611.269 139.227 625.238 134.287C635.942 130.504 646.978 127.618 658.273 125.715C656.947 129.438 655.707 133.191 654.597 136.936C646.502 138.603 638.559 140.803 630.803 143.498C617.706 148.058 605.128 154.034 593.206 161.281C589.703 163.42 586.257 165.658 582.87 168.002C556.041 186.592 532.99 211.812 515.373 241.737C515.128 242.155 514.876 242.574 514.631 243C513.78 244.469 512.944 245.939 512.123 247.431C503.35 263.242 496.07 280.278 490.513 298.282C488.271 305.536 486.303 312.951 484.646 320.495C482.425 330.543 480.732 340.835 479.6 351.325C475.758 369.047 472.154 380.793 468.932 389.068C460.225 411.509 454.379 408.502 454.379 430.091C454.379 447.402 459.756 467.308 475.686 475.028C480.703 477.463 486.779 478.697 494.059 478.248C506.673 477.464 522.935 471.663 543.672 458.44C545.229 457.45 546.764 456.499 548.3 455.593C562.723 447.059 576.08 442.302 588.182 440.109C607.608 436.562 623.797 439.607 635.921 444.205C651.93 450.287 660.868 459.087 660.868 459.087C660.868 459.087 662.367 460.176 665.128 461.729C669.532 464.21 677.144 467.857 687.091 470.156C690.14 470.871 693.412 471.442 696.879 471.823C713.58 473.657 734.779 470.841 757.614 455.212C759.308 454.048 760.995 452.936 762.66 451.878C771.547 446.199 779.952 441.929 787.866 438.846C800.192 434.042 811.364 432.116 821.427 432.185C836.384 432.284 848.926 436.821 859.233 442.987C862.599 444.989 865.713 447.166 868.611 449.419C876.489 455.555 887.15 456.4 897.645 453.949C899.807 453.446 901.962 452.807 904.082 452.038C920.855 446.009 935.581 432.367 935.581 419.784C935.581 408.373 929.685 396.787 922.383 383.473C916.472 372.716 909.632 360.833 904.24 347.009C903.08 337.653 901.487 328.458 899.454 319.467C899.216 318.341 898.949 317.222 898.69 316.11C896.946 308.802 894.942 301.624 892.657 294.605C886.487 275.551 878.363 257.609 868.589 241.105C841.53 195.423 801.756 160.778 755.228 144.107C755.488 140.818 755.61 137.477 755.596 134.12C806.189 151.864 849.452 189.805 878.745 240.069C889.168 257.959 897.825 277.409 904.406 298.061C906.842 305.666 908.983 313.446 910.836 321.363C911.117 322.573 911.398 323.784 911.657 325.002C913.82 334.745 915.521 344.71 916.753 354.857C922.505 369.839 929.8 382.719 936.1 394.374C943.884 408.799 950.17 421.36 950.17 433.73Z" fill="#10FFE2"/>
</g>
<path d="M878.28 237.618C869.508 239.202 848.18 232.259 845.643 231.521C833.439 227.966 821.142 224.905 808.759 222.15C760.595 211.85 711.191 208.112 662.119 210.906C604.231 214.21 546.775 226.633 492.484 248.146C495.245 227.501 507.506 209.216 523.032 196.336C538.558 183.456 557.191 175.44 576.004 169.129C612.383 156.926 650.477 150.509 688.644 149.885C718.759 149.39 749.379 151.057 778.687 158.868C805.068 165.894 831.363 169.685 851.654 190.566C862.985 202.228 871.786 216.296 880.501 230.249C883.369 234.847 881.892 236.956 878.266 237.611L878.28 237.618Z" fill="#ED1C24" stroke="#490B40" stroke-width="5" stroke-miterlimit="10"/>
<path d="M781.252 117.791C770.051 119.054 761.106 117.425 753.833 111.785C754.914 119.146 755.563 126.682 755.592 134.12C755.693 164.333 745.508 192.941 711.832 201.573C639.297 220.163 642.274 170.621 658.269 125.715C646.974 127.618 635.938 130.504 625.234 134.287C638.187 101.493 684.456 -2.78264 745.551 7.82149C817.941 20.3896 809.018 114.647 781.252 117.791Z" fill="url(#paint22_linear_1001_775)" stroke="#490B40" stroke-width="5" stroke-linecap="round" stroke-linejoin="round"/>
<g style="mix-blend-mode:difference" opacity="0.15">
<path d="M781.252 117.791C770.051 119.054 761.106 117.425 753.833 111.785C754.914 119.146 755.563 126.682 755.592 134.12C755.693 164.333 745.508 192.941 711.832 201.573C639.297 220.163 642.274 170.621 658.269 125.715C646.974 127.618 635.938 130.504 625.234 134.287C627.901 127.535 631.981 117.753 637.315 106.562C657.858 70.1978 680.758 61.9307 692.99 78.3355C692.99 78.3355 671.171 95.2732 671.171 146.063C671.171 196.854 709.857 191.814 722.745 180.624C737.615 167.706 756.457 128.258 746.048 99.4601C735.633 70.6546 747.202 93.6974 768.689 106.966C789.059 119.549 825.178 11.308 715.342 11.6353C724.907 7.58551 735.006 5.9945 745.551 7.82149C817.941 20.3896 809.018 114.647 781.252 117.791Z" fill="#C401DB"/>
</g>
<path d="M680.101 77.9854C673.491 89.8227 664.791 107.385 658.268 125.715" stroke="#490B40" stroke-width="5" stroke-linecap="round" stroke-linejoin="round"/>
<path d="M730.084 67.031C737.314 78.4573 746.936 95.4711 754.426 113.391" stroke="#490B40" stroke-width="5" stroke-linecap="round" stroke-linejoin="round"/>
<path d="M726.227 394.042C730.844 387.28 726.675 375.772 716.915 368.337C707.154 360.903 695.498 360.357 690.881 367.119C686.263 373.881 690.432 385.389 700.193 392.824C709.953 400.258 721.609 400.804 726.227 394.042Z" fill="url(#paint23_linear_1001_775)" stroke="#490B40" stroke-width="5" stroke-miterlimit="10"/>
<path d="M679.581 392.251C689.341 384.817 693.51 373.309 688.893 366.547C684.275 359.785 672.619 360.33 662.859 367.765C653.098 375.199 648.929 386.707 653.547 393.469C658.164 400.231 669.82 399.686 679.581 392.251Z" fill="url(#paint24_linear_1001_775)" stroke="#490B40" stroke-width="5" stroke-miterlimit="10"/>
<path d="M726.796 355.527C726.796 360.468 721.548 364.875 713.346 367.761C710.362 368.803 706.981 369.648 703.319 370.25C699.679 370.836 695.773 371.179 691.686 371.232C691.347 371.239 691.001 371.239 690.655 371.239C690.309 371.239 689.999 371.239 689.674 371.232C685.934 371.186 682.344 370.897 678.971 370.394C675.222 369.846 671.748 369.024 668.67 367.997C660.064 365.127 654.514 360.612 654.514 355.527C654.514 354.165 654.91 352.84 655.667 351.577C659.696 344.809 673.831 339.815 690.655 339.815C706.448 339.815 719.876 344.223 724.792 350.359C725.037 350.655 725.253 350.96 725.455 351.272C726.284 352.558 726.753 353.921 726.789 355.322C726.796 355.39 726.796 355.459 726.796 355.527Z" fill="url(#paint25_radial_1001_775)" stroke="#490B40" stroke-width="5" stroke-miterlimit="10"/>
<path d="M764.372 315.029C764.372 319.444 764.581 323.783 764.984 328.016C750.215 335.08 736.902 342.959 725.456 351.272C725.254 350.96 725.037 350.655 724.792 350.358C719.876 344.223 706.448 339.815 690.655 339.815C673.832 339.815 659.697 344.809 655.667 351.576C655.516 351.462 655.357 351.363 655.206 351.257C643.817 343.477 630.799 336.131 616.499 329.561C616.787 325.953 616.938 322.269 616.938 318.523C616.938 294.384 610.725 272.635 600.785 257.403C604.425 258.727 608.08 260.136 611.741 261.62C642.736 274.181 669.672 290.433 689.934 307.676C710.29 290.175 737.536 273.655 768.956 260.92C772.135 259.633 775.306 258.4 778.471 257.228C769.742 272.224 764.372 292.595 764.372 315.029Z" fill="url(#paint26_linear_1001_775)" stroke="#490B40" stroke-width="5" stroke-miterlimit="10"/>
<path d="M736.636 594.117L696.148 638.018L651.43 597.976L691.924 471.214L736.636 594.117Z" fill="url(#paint27_linear_1001_775)" stroke="#490B40" stroke-width="5" stroke-miterlimit="10"/>
<g style="mix-blend-mode:difference" opacity="0.2">
<path d="M691.924 471.214L651.43 597.976L696.148 638.018L736.636 594.117L691.924 471.214ZM695.593 619.923L662.494 590.295L692.991 495.87L725.817 587.121L695.593 619.923Z" fill="#39B54A"/>
</g>
<path d="M735.546 486.804L695.051 530.712L650.34 490.663L690.827 446.762L735.546 486.804Z" fill="url(#paint28_linear_1001_775)" stroke="#490B40" stroke-width="5" stroke-miterlimit="10"/>
<g style="mix-blend-mode:difference" opacity="0.15">
<path d="M735.546 486.804L695.051 530.712L650.34 490.671L659.069 481.201L695.051 513.432L726.817 478.986L735.546 486.804Z" fill="#39B54A"/>
<path d="M735.546 486.804L695.051 530.712L650.34 490.671L659.069 481.201L695.051 513.432L726.817 478.986L735.546 486.804Z" stroke="#490B40" stroke-miterlimit="10"/>
</g>
<path d="M607.588 690.285C615.845 690.285 622.538 678.179 622.538 663.245C622.538 648.312 615.845 636.206 607.588 636.206C599.332 636.206 592.639 648.312 592.639 663.245C592.639 678.179 599.332 690.285 607.588 690.285Z" fill="url(#paint29_linear_1001_775)" stroke="#490B40" stroke-width="5" stroke-miterlimit="10"/>
<path d="M559.325 689.893C567.559 689.259 573.401 676.671 572.373 661.777C571.345 646.883 563.836 635.323 555.601 635.957C547.367 636.591 541.525 649.179 542.553 664.073C543.581 678.967 551.09 690.527 559.325 689.893Z" fill="url(#paint30_linear_1001_775)" stroke="#490B40" stroke-width="5" stroke-miterlimit="10"/>
<path d="M583.292 695.172C592.882 695.172 600.656 681.113 600.656 663.77C600.656 646.428 592.882 632.369 583.292 632.369C573.702 632.369 565.928 646.428 565.928 663.77C565.928 681.113 573.702 695.172 583.292 695.172Z" fill="url(#paint31_linear_1001_775)" stroke="#490B40" stroke-width="5" stroke-miterlimit="10"/>
<path d="M827.084 690.985C835.341 690.985 842.034 678.879 842.034 663.945C842.034 649.012 835.341 636.906 827.084 636.906C818.828 636.906 812.135 649.012 812.135 663.945C812.135 678.879 818.828 690.985 827.084 690.985Z" fill="url(#paint32_linear_1001_775)" stroke="#490B40" stroke-width="5" stroke-miterlimit="10"/>
<path d="M779.481 691.996C787.716 691.362 793.557 678.774 792.529 663.881C791.501 648.987 783.992 637.427 775.758 638.061C767.523 638.695 761.681 651.283 762.709 666.177C763.738 681.071 771.247 692.63 779.481 691.996Z" fill="url(#paint33_linear_1001_775)" stroke="#490B40" stroke-width="5" stroke-miterlimit="10"/>
<path d="M802.786 693.771C812.376 693.771 820.15 679.712 820.15 662.37C820.15 645.027 812.376 630.968 802.786 630.968C793.196 630.968 785.422 645.027 785.422 662.37C785.422 679.712 793.196 693.771 802.786 693.771Z" fill="url(#paint34_linear_1001_775)" stroke="#490B40" stroke-width="5" stroke-miterlimit="10"/>
<path d="M865.522 315.029C865.522 336.504 860.598 356.075 852.525 370.866C843.27 387.812 829.863 398.469 814.943 398.469C809.623 398.469 804.491 397.114 799.676 394.594C781.627 385.185 767.968 359.524 764.984 328.016C764.58 323.783 764.371 319.444 764.371 315.029C764.371 292.595 769.741 272.224 778.47 257.228C787.675 241.432 800.613 231.597 814.943 231.597C823.65 231.597 831.853 235.228 839.01 241.63C852.086 253.323 861.687 274.242 864.592 299.104C865.204 304.258 865.522 309.586 865.522 315.029Z" fill="white" stroke="#490B40" stroke-width="5" stroke-miterlimit="10"/>
<path d="M850.686 328.729C850.686 342.835 848.19 355.692 844.091 365.413C839.394 376.543 832.594 383.546 825.016 383.546C822.315 383.546 819.717 382.655 817.272 380.996C808.117 374.815 801.181 357.961 799.674 337.262C799.462 334.484 799.359 331.629 799.359 328.729C799.359 313.991 802.08 300.609 806.513 290.758C811.19 280.382 817.754 273.919 825.016 273.919C829.443 273.919 833.594 276.31 837.232 280.512C839.266 282.872 841.146 285.802 842.801 289.213L829.013 316.397L848.415 306.204C849.223 310.01 849.833 314.052 850.212 318.269C850.519 321.657 850.68 325.151 850.68 328.729H850.686Z" fill="url(#paint35_linear_1001_775)" stroke="#490B40" stroke-width="5" stroke-miterlimit="10"/>
<path d="M616.94 318.516C616.94 339.99 612.016 359.562 603.943 374.353C594.688 391.298 581.281 401.956 566.361 401.956C561.041 401.956 555.909 400.601 551.094 398.081C533.045 388.672 519.386 363.01 516.402 331.503C515.998 327.27 515.789 322.931 515.789 318.516C515.789 296.082 521.159 275.711 529.888 260.714C539.093 244.919 552.031 235.083 566.361 235.083C575.068 235.083 583.271 238.715 590.428 245.117C603.504 256.809 613.105 277.728 616.01 302.591C616.622 307.744 616.94 313.073 616.94 318.516Z" fill="white" stroke="#490B40" stroke-width="5" stroke-miterlimit="10"/>
<path d="M581.827 332.535C581.827 346.641 579.331 359.498 575.231 369.219C570.535 380.349 563.734 387.352 556.157 387.352C553.456 387.352 550.858 386.462 548.413 384.802C539.258 378.621 532.322 361.767 530.814 341.069C530.603 338.29 530.5 335.435 530.5 332.535C530.5 317.797 533.22 304.415 537.654 294.564C542.331 284.188 548.894 277.725 556.157 277.725C560.584 277.725 564.735 280.116 568.373 284.318C570.407 286.678 572.286 289.608 573.942 293.019L560.154 320.203L579.556 310.01C580.364 313.816 580.974 317.858 581.352 322.076C581.66 325.463 581.82 328.957 581.82 332.535H581.827Z" fill="url(#paint36_linear_1001_775)" stroke="#490B40" stroke-width="5" stroke-miterlimit="10"/>
<path d="M884.823 526.056C776.522 595.094 698.551 405.149 698.551 405.149C698.551 405.149 693.83 389.619 706.1 391.977C723.141 395.251 864.673 468.58 863.704 488.67" fill="url(#paint37_linear_1001_775)"/>
<path d="M884.823 526.056C776.522 595.094 698.551 405.149 698.551 405.149C698.551 405.149 693.83 389.619 706.1 391.977C723.141 395.251 864.673 468.58 863.704 488.67" stroke="#490B40" stroke-width="5" stroke-linecap="round" stroke-linejoin="round"/>
<path d="M487.102 517.254C487.102 599.004 433.82 665.278 368.097 665.278C353.775 665.278 340.044 662.134 327.329 656.356C304.89 665.087 280.916 669.815 256.012 669.815C231.108 669.815 206.904 665.042 184.371 656.234C171.57 662.088 157.745 665.278 143.314 665.278C77.5914 665.278 24.3096 599.004 24.3096 517.254C24.3096 511.05 24.6195 504.937 25.2178 498.931C30.5662 501.572 37.039 502.904 44.802 502.417C58.2522 501.572 75.5876 495.284 97.6947 480.95C99.3525 479.877 100.996 478.849 102.632 477.867C175.217 434.225 222.646 481.65 222.646 481.65C222.646 481.65 224.239 482.838 227.187 484.52C231.88 487.207 239.996 491.158 250.599 493.648C253.85 494.424 257.338 495.048 261.036 495.459C278.84 497.446 301.444 494.394 325.786 477.456C327.595 476.192 329.39 474.99 331.163 473.84C377.302 443.893 410.978 450.135 434.13 464.203C437.713 466.372 441.035 468.732 444.12 471.176C452.525 477.829 463.892 478.742 475.079 476.086C477.386 475.538 479.678 474.845 481.941 474.015C485.3 487.695 487.102 502.212 487.102 517.254Z" fill="url(#paint38_linear_1001_775)" stroke="#490B40" stroke-width="5" stroke-miterlimit="10"/>
<g style="mix-blend-mode:darken">
<path d="M487.102 517.254C487.102 599.004 433.82 665.278 368.097 665.278C353.775 665.278 340.044 662.134 327.329 656.356C304.89 665.087 280.916 669.815 256.012 669.815C231.108 669.815 206.904 665.042 184.371 656.234C171.57 662.088 157.745 665.278 143.314 665.278C77.5914 665.278 24.3096 599.004 24.3096 517.254C24.3096 511.05 24.6195 504.937 25.2178 498.931C30.5662 501.572 37.039 502.904 44.802 502.417C46.5103 502.311 48.2835 502.113 50.1216 501.823C51.1379 525.338 53.6751 556.93 60.011 568.227C70.5924 587.075 66.6208 551.472 71.9115 547.978C77.2022 544.483 81.1666 535.409 89.7658 570.32C98.3578 605.231 114.886 624.779 120.832 624.079C126.786 623.386 114.179 593.256 122.822 595.456C141.332 600.168 140.337 610.118 171.08 628.966C213.254 654.826 321.158 657.597 367.434 621.293C413.71 584.982 406.437 603.137 402.472 619.892C398.508 636.647 447.429 591.962 448.748 544.483C450.074 497.005 466.602 539.596 463.957 558.452C461.485 576.06 484.399 569.917 465.874 477.418C468.909 477.273 472.001 476.816 475.079 476.086C477.386 475.538 479.678 474.845 481.941 474.015C485.3 487.695 487.102 502.212 487.102 517.254Z" fill="#CCCCCC"/>
</g>
<path d="M501.455 399.702C495.155 388.048 487.861 375.168 482.109 360.186C480.876 350.039 479.175 340.074 477.013 330.33C476.753 329.112 476.472 327.902 476.191 326.692C474.339 318.775 472.198 310.995 469.761 303.39C463.18 282.737 454.524 263.287 444.101 245.398C414.807 195.133 371.545 157.193 320.951 139.448C321.052 169.662 310.867 198.27 277.191 206.902C204.657 225.492 207.634 175.95 223.628 131.044C212.333 132.947 201.298 135.832 190.594 139.616C176.625 144.556 163.218 151.034 150.51 158.89C146.776 161.205 143.1 163.633 139.489 166.176C110.887 186.318 86.3079 213.654 67.531 246.083C67.2643 246.54 66.9976 246.997 66.7381 247.454C65.8299 249.045 64.9361 250.643 64.0639 252.257C54.7079 269.393 46.9448 287.86 41.027 307.371C38.6339 315.235 36.5364 323.266 34.7704 331.449C32.399 342.335 30.597 353.487 29.386 364.86C25.2918 384.066 21.4499 396.794 18.0189 405.77C8.73496 430.091 2.5 426.826 2.5 450.226C2.5 468.991 8.2304 490.565 25.2198 498.931C30.5681 501.572 37.0409 502.904 44.804 502.417C58.2542 501.572 75.5896 495.284 97.6966 480.95C99.3545 479.877 100.998 478.849 102.634 477.867C118.009 468.618 132.252 463.464 145.154 461.082C165.863 457.245 183.119 460.541 196.05 465.527C213.112 472.12 222.648 481.65 222.648 481.65C222.648 481.65 224.241 482.838 227.189 484.52C231.882 487.207 239.998 491.158 250.601 493.648C253.852 494.424 257.34 495.048 261.038 495.459C278.842 497.446 301.446 494.394 325.788 477.456C327.597 476.192 329.392 474.99 331.165 473.84C340.644 467.689 349.603 463.061 358.044 459.719C371.184 454.512 383.092 452.419 393.825 452.495C409.769 452.601 423.14 457.519 434.132 464.203C437.714 466.372 441.037 468.732 444.122 471.176C452.527 477.829 463.894 478.742 475.081 476.086C477.388 475.538 479.68 474.845 481.943 474.015C499.826 467.476 515.525 452.693 515.525 439.059C515.525 426.689 509.24 414.128 501.455 399.702ZM177.1 266.949C208.095 279.51 235.031 295.762 255.293 313.004C275.649 295.503 302.895 278.984 334.315 266.249C337.494 264.962 340.665 263.729 343.83 262.557C335.101 277.553 329.731 297.924 329.731 320.358C329.731 324.773 329.94 329.112 330.343 333.345C315.574 340.409 302.261 348.288 290.815 356.601C290.613 356.289 290.396 355.984 290.151 355.687C285.236 349.552 271.807 345.144 256.014 345.144C239.191 345.144 225.056 350.138 221.026 356.905C220.875 356.791 220.716 356.692 220.565 356.586C209.176 348.806 196.158 341.46 181.858 334.89C182.146 331.282 182.297 327.597 182.297 323.852C182.297 299.713 176.084 277.964 166.144 262.732C169.784 264.056 173.439 265.465 177.1 266.949Z" fill="url(#paint39_linear_1001_775)" stroke="#490B40" stroke-width="5" stroke-miterlimit="10"/>
<g style="mix-blend-mode:exclusion" opacity="0.15">
<path d="M515.525 439.059C515.525 452.693 499.826 467.476 481.943 474.015C479.68 474.845 477.388 475.538 475.081 476.086C463.894 478.742 452.527 477.829 444.122 471.176C441.037 468.732 437.714 466.372 434.132 464.203C423.14 457.519 409.769 452.601 393.825 452.495C383.092 452.419 371.184 454.512 358.044 459.719C349.603 463.061 340.644 467.689 331.165 473.84C329.392 474.99 327.597 476.192 325.788 477.456C301.446 494.394 278.842 497.446 261.038 495.459C257.34 495.048 253.852 494.424 250.601 493.648C239.998 491.158 231.882 487.207 227.189 484.52C224.241 482.838 222.648 481.65 222.648 481.65C222.648 481.65 213.112 472.12 196.05 465.527C183.119 460.541 165.863 457.245 145.154 461.082C132.252 463.464 118.009 468.618 102.634 477.867C100.998 478.849 99.3545 479.877 97.6966 480.95C75.5896 495.284 58.2542 501.572 44.804 502.417C37.0409 502.904 30.5681 501.572 25.2198 498.931C8.2304 490.565 2.5 468.991 2.5 450.226C2.5 426.826 8.73496 430.091 18.0189 405.77C21.4499 396.794 25.2918 384.066 29.386 364.86C30.597 353.487 32.399 342.335 34.7704 331.449C36.5364 323.266 38.6339 315.235 41.027 307.371C46.9448 287.86 54.7079 269.393 64.0639 252.257C64.9361 250.643 65.8299 249.045 66.7381 247.454C66.9976 246.997 67.2643 246.54 67.531 246.083C86.3079 213.654 110.887 186.318 139.489 166.176C143.1 163.633 146.776 161.205 150.51 158.89C163.218 151.034 176.625 144.556 190.594 139.616C201.298 135.832 212.333 132.947 223.628 131.044C222.302 134.767 221.062 138.52 219.952 142.265C211.858 143.932 203.914 146.132 196.158 148.827C183.061 153.387 170.483 159.362 158.561 166.609C155.058 168.749 151.613 170.987 148.225 173.331C121.397 191.921 98.3454 217.141 80.7289 247.065C80.4838 247.484 80.2315 247.903 79.9865 248.329C79.1359 249.798 78.2998 251.267 77.4781 252.76C68.7059 268.571 61.4258 285.607 55.8684 303.611C53.6267 310.865 51.6589 318.28 50.001 325.824C47.7809 335.872 46.087 346.164 44.9554 356.654C41.1135 374.376 37.5095 386.122 34.2875 394.397C25.5802 416.838 19.7344 413.831 19.7344 435.42C19.7344 452.731 25.1116 472.637 41.0414 480.356C46.0582 482.792 52.1346 484.025 59.4147 483.576C72.0288 482.792 88.2901 476.992 109.028 463.769C110.585 462.779 112.12 461.828 113.655 460.922C128.079 452.388 141.435 447.63 153.537 445.438C172.963 441.891 189.152 444.936 201.276 449.533C217.285 455.616 226.223 464.416 226.223 464.416C226.223 464.416 227.723 465.504 230.483 467.057C234.887 469.539 242.499 473.185 252.446 475.484C255.495 476.2 258.768 476.771 262.235 477.151C278.936 478.986 300.135 476.169 322.97 460.541C324.664 459.376 326.35 458.265 328.015 457.207C336.903 451.528 345.307 447.257 353.222 444.174C365.548 439.371 376.72 437.445 386.782 437.513C401.739 437.612 414.281 442.149 424.589 448.316C427.955 450.318 431.069 452.495 433.966 454.748C441.845 460.884 452.505 461.729 463 459.277C465.163 458.775 467.318 458.136 469.437 457.367C486.21 451.338 500.936 437.696 500.936 425.113C500.936 413.702 495.04 402.116 487.738 388.801C481.828 378.045 474.987 366.162 469.596 352.338C468.435 342.982 466.842 333.786 464.809 324.796C464.572 323.669 464.305 322.55 464.045 321.439C462.301 314.131 460.297 306.952 458.012 299.934C451.842 280.88 443.719 262.937 433.945 246.434C406.886 200.751 367.112 166.107 320.584 149.436C320.843 146.147 320.966 142.805 320.951 139.448C371.545 157.193 414.807 195.133 444.101 245.398C454.524 263.287 463.18 282.737 469.761 303.39C472.198 310.995 474.339 318.775 476.191 326.692C476.472 327.902 476.753 329.112 477.013 330.33C479.175 340.074 480.876 350.039 482.109 360.186C487.861 375.168 495.155 388.048 501.455 399.702C509.24 414.128 515.525 426.689 515.525 439.059Z" fill="#10FFE2"/>
</g>
<path d="M447.604 234.566C438.832 236.149 417.503 229.207 414.966 228.468C402.762 224.913 390.466 221.853 378.082 219.097C329.918 208.798 280.514 205.06 231.442 207.854C173.554 211.157 116.099 223.581 61.8076 245.094C64.5683 224.449 76.8292 206.164 92.3553 193.283C107.881 180.403 126.514 172.387 145.327 166.077C181.706 153.874 219.801 147.457 257.967 146.832C288.083 146.338 318.702 148.005 348.01 155.815C374.392 162.841 400.687 166.632 420.977 187.513C432.308 199.175 441.109 213.243 449.824 227.197C452.693 231.795 451.215 233.903 447.589 234.558L447.604 234.566Z" fill="#8AFF00" stroke="#490B40" stroke-width="5" stroke-miterlimit="10"/>
<path d="M346.612 123.12C335.411 124.383 326.465 122.754 319.192 117.113C320.274 124.475 320.922 132.011 320.951 139.448C321.052 169.662 310.867 198.27 277.191 206.902C204.657 225.492 207.634 175.95 223.628 131.044C212.333 132.947 201.298 135.832 190.594 139.616C203.547 106.821 249.815 2.54619 310.91 13.1503C383.301 25.7185 374.377 119.976 346.612 123.12Z" fill="url(#paint40_linear_1001_775)" stroke="#490B40" stroke-width="5" stroke-linecap="round" stroke-linejoin="round"/>
<g style="mix-blend-mode:difference" opacity="0.15">
<path d="M346.612 123.119C335.411 124.383 326.465 122.754 319.192 117.113C320.274 124.474 320.922 132.011 320.951 139.448C321.052 169.662 310.867 198.269 277.191 206.902C204.657 225.492 207.634 175.95 223.628 131.044C212.333 132.947 201.298 135.832 190.594 139.616C193.261 132.863 197.34 123.081 202.674 111.891C223.217 75.5265 246.117 67.2594 258.349 83.6642C258.349 83.6642 236.531 100.602 236.531 151.392C236.531 202.182 275.216 197.143 288.104 185.953C302.974 173.034 321.816 133.587 311.408 104.789C300.992 75.9832 312.561 99.0261 334.048 112.295C354.418 124.878 390.538 16.6366 280.702 16.964C290.267 12.9141 300.365 11.3231 310.91 13.1501C383.301 25.7183 374.377 119.976 346.612 123.119Z" fill="#C401DB"/>
</g>
<path d="M245.461 83.3141C238.851 95.1515 230.151 112.713 223.628 131.044" stroke="#490B40" stroke-width="5" stroke-linecap="round" stroke-linejoin="round"/>
<path d="M295.448 72.3674C302.678 83.7937 312.301 100.807 319.79 118.727" stroke="#490B40" stroke-width="5" stroke-linecap="round" stroke-linejoin="round"/>
<path d="M291.607 399.397C296.224 392.635 292.055 381.127 282.295 373.692C272.534 366.258 260.878 365.712 256.261 372.474C251.643 379.236 255.812 390.744 265.572 398.179C275.333 405.613 286.989 406.159 291.607 399.397Z" fill="url(#paint41_linear_1001_775)" stroke="#490B40" stroke-width="5" stroke-miterlimit="10"/>
<path d="M244.919 397.553C254.679 390.119 258.848 378.61 254.231 371.849C249.613 365.087 237.957 365.632 228.196 373.066C218.436 380.501 214.267 392.009 218.885 398.771C223.502 405.533 235.158 404.988 244.919 397.553Z" fill="url(#paint42_linear_1001_775)" stroke="#490B40" stroke-width="5" stroke-miterlimit="10"/>
<path d="M292.154 360.856C292.154 365.797 286.907 370.204 278.704 373.089C275.72 374.132 272.339 374.977 268.678 375.579C265.038 376.165 261.131 376.507 257.044 376.561C256.705 376.568 256.359 376.568 256.013 376.568C255.667 376.568 255.357 376.568 255.033 376.561C251.292 376.515 247.702 376.226 244.329 375.723C240.581 375.175 237.106 374.353 234.029 373.325C225.422 370.455 219.872 365.941 219.872 360.856C219.872 359.493 220.268 358.169 221.025 356.905C225.055 350.138 239.19 345.144 256.013 345.144C271.806 345.144 285.235 349.552 290.15 355.687C290.396 355.984 290.612 356.289 290.814 356.601C291.643 357.887 292.111 359.25 292.147 360.651C292.154 360.719 292.154 360.788 292.154 360.856Z" fill="url(#paint43_radial_1001_775)" stroke="#490B40" stroke-width="5" stroke-miterlimit="10"/>
<path d="M329.73 320.358C329.73 324.773 329.939 329.112 330.343 333.345C315.573 340.409 302.26 348.288 290.814 356.601C290.612 356.289 290.396 355.984 290.151 355.687C285.235 349.552 271.806 345.144 256.013 345.144C239.19 345.144 225.055 350.138 221.026 356.905C220.874 356.791 220.716 356.692 220.564 356.586C209.176 348.806 196.158 341.46 181.857 334.89C182.145 331.282 182.297 327.597 182.297 323.852C182.297 299.713 176.083 277.964 166.144 262.732C169.784 264.056 173.438 265.465 177.1 266.949C208.094 279.51 235.031 295.762 255.293 313.004C275.648 295.503 302.895 278.984 334.314 266.249C337.493 264.962 340.665 263.729 343.829 262.557C335.1 277.553 329.73 297.924 329.73 320.358Z" fill="url(#paint44_linear_1001_775)" stroke="#490B40" stroke-width="5" stroke-miterlimit="10"/>
<path d="M301.999 599.445L261.504 643.346L216.793 603.305L257.281 476.55L301.999 599.445Z" fill="url(#paint45_linear_1001_775)" stroke="#490B40" stroke-width="5" stroke-miterlimit="10"/>
<g style="mix-blend-mode:difference" opacity="0.2">
<path d="M257.282 476.543L216.787 603.305L261.506 643.346L301.993 599.445L257.282 476.543ZM260.951 625.252L227.851 595.624L258.349 501.199L291.174 592.45L260.951 625.252Z" fill="#39B54A"/>
</g>
<path d="M300.905 492.14L260.41 536.041L215.698 496L256.186 452.091L300.905 492.14Z" fill="url(#paint46_linear_1001_775)" stroke="#490B40" stroke-width="5" stroke-miterlimit="10"/>
<g style="mix-blend-mode:difference" opacity="0.15">
<path d="M300.905 492.133L260.41 536.041L215.698 496L224.427 486.53L260.41 518.761L292.176 484.315L300.905 492.133Z" fill="#39B54A"/>
<path d="M300.905 492.133L260.41 536.041L215.698 496L224.427 486.53L260.41 518.761L292.176 484.315L300.905 492.133Z" stroke="#490B40" stroke-miterlimit="10"/>
</g>
<path d="M172.947 695.613C181.203 695.613 187.896 683.507 187.896 668.574C187.896 653.64 181.203 641.535 172.947 641.535C164.69 641.535 157.997 653.64 157.997 668.574C157.997 683.507 164.69 695.613 172.947 695.613Z" fill="url(#paint47_linear_1001_775)" stroke="#490B40" stroke-width="5" stroke-miterlimit="10"/>
<path d="M124.683 695.202C132.918 694.568 138.76 681.98 137.731 667.086C136.703 652.192 129.194 640.632 120.96 641.266C112.725 641.9 106.883 654.488 107.912 669.382C108.94 684.276 116.449 695.836 124.683 695.202Z" fill="url(#paint48_linear_1001_775)" stroke="#490B40" stroke-width="5" stroke-miterlimit="10"/>
<path d="M148.648 700.501C158.238 700.501 166.013 686.442 166.013 669.099C166.013 651.757 158.238 637.698 148.648 637.698C139.058 637.698 131.284 651.757 131.284 669.099C131.284 686.442 139.058 700.501 148.648 700.501Z" fill="url(#paint49_linear_1001_775)" stroke="#490B40" stroke-width="5" stroke-miterlimit="10"/>
<path d="M392.441 696.314C400.697 696.314 407.39 684.208 407.39 669.274C407.39 654.341 400.697 642.235 392.441 642.235C384.184 642.235 377.491 654.341 377.491 669.274C377.491 684.208 384.184 696.314 392.441 696.314Z" fill="url(#paint50_linear_1001_775)" stroke="#490B40" stroke-width="5" stroke-miterlimit="10"/>
<path d="M344.84 697.305C353.075 696.671 358.917 684.083 357.889 669.189C356.86 654.295 349.351 642.736 341.117 643.37C332.882 644.004 327.041 656.592 328.069 671.485C329.097 686.379 336.606 697.939 344.84 697.305Z" fill="url(#paint51_linear_1001_775)" stroke="#490B40" stroke-width="5" stroke-miterlimit="10"/>
<path d="M368.141 699.1C377.731 699.1 385.506 685.041 385.506 667.698C385.506 650.356 377.731 636.297 368.141 636.297C358.552 636.297 350.777 650.356 350.777 667.698C350.777 685.041 358.552 699.1 368.141 699.1Z" fill="url(#paint52_linear_1001_775)" stroke="#490B40" stroke-width="5" stroke-miterlimit="10"/>
<path d="M442.189 527.898C333.747 596.831 255.674 407.175 255.674 407.175C255.674 407.175 250.947 391.669 263.233 394.023C280.296 397.292 422.013 470.509 421.042 490.569" fill="url(#paint53_linear_1001_775)"/>
<path d="M442.189 527.898C333.747 596.831 255.674 407.175 255.674 407.175C255.674 407.175 250.947 391.669 263.233 394.023C280.296 397.292 422.013 470.509 421.042 490.569" stroke="#490B40" stroke-width="5" stroke-linecap="round" stroke-linejoin="round"/>
<path d="M430.88 320.358C430.88 341.833 425.957 361.404 417.884 376.195C408.629 393.14 395.222 403.798 380.301 403.798C374.982 403.798 369.849 402.443 365.034 399.923C346.986 390.514 333.326 364.853 330.342 333.345C329.939 329.112 329.729 324.773 329.729 320.358C329.729 297.924 335.099 277.553 343.828 262.557C353.033 246.761 365.972 236.926 380.301 236.926C389.008 236.926 397.211 240.557 404.369 246.959C417.444 258.651 427.045 279.57 429.95 304.433C430.563 309.586 430.88 314.915 430.88 320.358Z" fill="white" stroke="#490B40" stroke-width="5" stroke-miterlimit="10"/>
<path d="M182.297 323.844C182.297 345.319 177.374 364.891 169.301 379.682C160.046 396.627 146.639 407.284 131.718 407.284C126.399 407.284 121.266 405.929 116.451 403.41C98.4025 394.001 84.7433 368.339 81.7592 336.831C81.3555 332.599 81.1465 328.26 81.1465 323.844C81.1465 301.411 86.5165 281.04 95.2454 266.043C104.45 250.247 117.389 240.412 131.718 240.412C140.425 240.412 148.628 244.043 155.786 250.445C168.861 262.138 178.462 283.057 181.367 307.919C181.98 313.073 182.297 318.402 182.297 323.844Z" fill="white" stroke="#490B40" stroke-width="5" stroke-miterlimit="10"/>
<path d="M149.54 347.439C149.54 360.106 147.789 371.654 144.913 380.386C141.611 390.381 136.84 396.676 131.52 396.676C129.624 396.676 127.801 395.877 126.078 394.385C119.648 388.836 114.783 373.695 113.723 355.105C113.572 352.608 113.5 350.043 113.5 347.439C113.5 334.201 115.41 322.181 118.524 313.335C121.804 304.018 126.417 298.21 131.52 298.21C134.627 298.21 137.546 300.356 140.098 304.132C141.525 306.248 142.844 308.882 144.004 311.95L134.324 336.371L147.947 327.213C148.517 330.631 148.942 334.262 149.209 338.053C149.425 341.098 149.54 344.234 149.54 347.447V347.439Z" fill="url(#paint54_linear_1001_775)" stroke="#490B40" stroke-width="5" stroke-miterlimit="10"/>
<path d="M399.443 347.356C399.443 359.642 397.691 370.848 394.815 379.313C391.514 389.011 386.742 395.108 381.422 395.108C379.527 395.108 377.703 394.332 375.98 392.886C369.551 387.504 364.685 372.819 363.626 354.785C363.474 352.365 363.402 349.875 363.402 347.348C363.402 334.506 365.312 322.851 368.426 314.272C371.706 305.236 376.319 299.603 381.422 299.603C384.529 299.603 387.448 301.688 390 305.342C391.427 307.398 392.746 309.948 393.907 312.924L384.226 336.607L397.85 327.723C398.419 331.042 398.844 334.559 399.111 338.236C399.327 341.189 399.443 344.234 399.443 347.348V347.356Z" fill="url(#paint55_linear_1001_775)" stroke="#490B40" stroke-width="5" stroke-miterlimit="10"/>
<path d="M83.1348 252.028L191.162 316.704C191.162 316.704 166.77 167.142 83.1348 252.028Z" fill="url(#paint56_linear_1001_775)" stroke="#490B40" stroke-width="5" stroke-miterlimit="10"/>
<path d="M425.365 248.055L319.393 316.415C319.393 316.415 339.157 166.092 425.365 248.055Z" fill="url(#paint57_linear_1001_775)" stroke="#490B40" stroke-width="5" stroke-miterlimit="10"/>
<defs>
<linearGradient id="paint0_linear_1001_775" x1="1107.7" y1="442.599" x2="1107.7" y2="659.919" gradientUnits="userSpaceOnUse">
<stop stop-color="#8AFF00"/>
<stop offset="0.16" stop-color="#8EFE04"/>
<stop offset="0.36" stop-color="#9DFC11"/>
<stop offset="0.57" stop-color="#B5F926"/>
<stop offset="0.78" stop-color="#D5F444"/>
<stop offset="1" stop-color="#FEEF69"/>
</linearGradient>
<linearGradient id="paint1_linear_1001_775" x1="1111" y1="492.62" x2="1111" y2="121.148" gradientUnits="userSpaceOnUse">
<stop stop-color="#FEEF69"/>
<stop offset="0.05" stop-color="#FEF288"/>
<stop offset="0.1" stop-color="#FEF5A8"/>
<stop offset="0.17" stop-color="#FEF8C3"/>
<stop offset="0.24" stop-color="#FEFBD9"/>
<stop offset="0.33" stop-color="#FEFCEA"/>
<stop offset="0.44" stop-color="#FEFEF6"/>
<stop offset="0.59" stop-color="#FEFEFD"/>
<stop offset="1" stop-color="white"/>
</linearGradient>
<linearGradient id="paint2_linear_1001_775" x1="1051.8" y1="151.484" x2="1222.32" y2="58.2579" gradientUnits="userSpaceOnUse">
<stop stop-color="#C401DB"/>
<stop offset="0.15" stop-color="#D807CF"/>
<stop offset="0.37" stop-color="#F310C0"/>
<stop offset="0.5" stop-color="#FD14BB"/>
<stop offset="0.62" stop-color="#FD16B9"/>
<stop offset="0.7" stop-color="#FD1FB6"/>
<stop offset="0.76" stop-color="#FD2DAF"/>
<stop offset="0.82" stop-color="#FD42A6"/>
<stop offset="0.87" stop-color="#FD5D9A"/>
<stop offset="0.92" stop-color="#FE7E8B"/>
<stop offset="0.96" stop-color="#FEA57A"/>
<stop offset="1" stop-color="#FFC96B"/>
</linearGradient>
<linearGradient id="paint3_linear_1001_775" x1="1143.57" y1="389.437" x2="1106.93" y2="364.414" gradientUnits="userSpaceOnUse">
<stop stop-color="#C401DB"/>
<stop offset="0.23" stop-color="#DC09CD"/>
<stop offset="0.46" stop-color="#EE0FC3"/>
<stop offset="0.72" stop-color="#F912BC"/>
<stop offset="1" stop-color="#FD14BB"/>
</linearGradient>
<linearGradient id="paint4_linear_1001_775" x1="1071.3" y1="389.506" x2="1107.95" y2="364.482" gradientUnits="userSpaceOnUse">
<stop stop-color="#C401DB"/>
<stop offset="0.23" stop-color="#DC09CD"/>
<stop offset="0.46" stop-color="#EE0FC3"/>
<stop offset="0.72" stop-color="#F912BC"/>
<stop offset="1" stop-color="#FD14BB"/>
</linearGradient>
<radialGradient id="paint5_radial_1001_775" cx="0" cy="0" r="1" gradientUnits="userSpaceOnUse" gradientTransform="translate(1108 350.96) scale(27.6356 29.1861)">
<stop stop-color="#FEEF69"/>
<stop offset="0.28" stop-color="#FEF447"/>
<stop offset="0.76" stop-color="#FEFB14"/>
<stop offset="1" stop-color="#FFFF00"/>
</radialGradient>
<linearGradient id="paint6_linear_1001_775" x1="1106.98" y1="252.661" x2="1106.98" y2="347.009" gradientUnits="userSpaceOnUse">
<stop stop-color="#FD14BB"/>
<stop offset="0.15" stop-color="#FD17B9"/>
<stop offset="0.28" stop-color="#FD22B5"/>
<stop offset="0.42" stop-color="#FD35AE"/>
<stop offset="0.55" stop-color="#FD4FA4"/>
<stop offset="0.67" stop-color="#FD7197"/>
<stop offset="0.8" stop-color="#FD9B88"/>
<stop offset="0.92" stop-color="#FDCB76"/>
<stop offset="1" stop-color="#FEEF69"/>
</linearGradient>
<linearGradient id="paint7_linear_1001_775" x1="1111.38" y1="633.458" x2="1111.38" y2="466.654" gradientUnits="userSpaceOnUse">
<stop stop-color="#10FFE2"/>
<stop offset="0.1" stop-color="#15FEDF"/>
<stop offset="0.23" stop-color="#25FDD6"/>
<stop offset="0.38" stop-color="#40FBC9"/>
<stop offset="0.53" stop-color="#65F9B6"/>
<stop offset="0.7" stop-color="#94F69E"/>
<stop offset="0.87" stop-color="#CDF281"/>
<stop offset="1" stop-color="#FEEF69"/>
</linearGradient>
<linearGradient id="paint8_linear_1001_775" x1="1110.29" y1="526.145" x2="1110.29" y2="442.195" gradientUnits="userSpaceOnUse">
<stop stop-color="#10FFE2"/>
<stop offset="0.1" stop-color="#15FEDF"/>
<stop offset="0.23" stop-color="#25FDD6"/>
<stop offset="0.38" stop-color="#40FBC9"/>
<stop offset="0.53" stop-color="#65F9B6"/>
<stop offset="0.7" stop-color="#94F69E"/>
<stop offset="0.87" stop-color="#CDF281"/>
<stop offset="1" stop-color="#FEEF69"/>
</linearGradient>
<linearGradient id="paint9_linear_1001_775" x1="1024.94" y1="685.717" x2="1024.94" y2="631.646" gradientUnits="userSpaceOnUse">
<stop stop-color="#FFFF00"/>
<stop offset="0.24" stop-color="#FEFB14"/>
<stop offset="0.72" stop-color="#FEF447"/>
<stop offset="1" stop-color="#FEEF69"/>
</linearGradient>
<linearGradient id="paint10_linear_1001_775" x1="974.846" y1="685.322" x2="974.846" y2="631.342" gradientUnits="userSpaceOnUse">
<stop stop-color="#FFFF00"/>
<stop offset="0.24" stop-color="#FEFB14"/>
<stop offset="0.72" stop-color="#FEF447"/>
<stop offset="1" stop-color="#FEEF69"/>
</linearGradient>
<linearGradient id="paint11_linear_1001_775" x1="1000.64" y1="690.604" x2="1000.64" y2="627.802" gradientUnits="userSpaceOnUse">
<stop stop-color="#FFFF00"/>
<stop offset="0.24" stop-color="#FEFB14"/>
<stop offset="0.72" stop-color="#FEF447"/>
<stop offset="1" stop-color="#FEEF69"/>
</linearGradient>
<linearGradient id="paint12_linear_1001_775" x1="1244.43" y1="686.418" x2="1244.43" y2="632.339" gradientUnits="userSpaceOnUse">
<stop stop-color="#FFFF00"/>
<stop offset="0.24" stop-color="#FEFB14"/>
<stop offset="0.72" stop-color="#FEF447"/>
<stop offset="1" stop-color="#FEEF69"/>
</linearGradient>
<linearGradient id="paint13_linear_1001_775" x1="1195" y1="687.412" x2="1195" y2="633.432" gradientUnits="userSpaceOnUse">
<stop stop-color="#FFFF00"/>
<stop offset="0.24" stop-color="#FEFB14"/>
<stop offset="0.72" stop-color="#FEF447"/>
<stop offset="1" stop-color="#FEEF69"/>
</linearGradient>
<linearGradient id="paint14_linear_1001_775" x1="1220.13" y1="689.211" x2="1220.13" y2="626.408" gradientUnits="userSpaceOnUse">
<stop stop-color="#FFFF00"/>
<stop offset="0.24" stop-color="#FEFB14"/>
<stop offset="0.72" stop-color="#FEF447"/>
<stop offset="1" stop-color="#FEEF69"/>
</linearGradient>
<linearGradient id="paint15_linear_1001_775" x1="1210.28" y1="381.185" x2="1201.7" y2="522.711" gradientUnits="userSpaceOnUse">
<stop stop-color="#FEEF69"/>
<stop offset="0.13" stop-color="#C8F638"/>
<stop offset="0.3" stop-color="#C1F731"/>
<stop offset="0.47" stop-color="#93FE08"/>
<stop offset="0.62" stop-color="#9CFC10"/>
<stop offset="0.77" stop-color="#9BFC10"/>
<stop offset="0.9" stop-color="#9CFD10"/>
<stop offset="1" stop-color="#9CFD10"/>
</linearGradient>
<linearGradient id="paint16_linear_1001_775" x1="982.52" y1="386.454" x2="982.52" y2="287.987" gradientUnits="userSpaceOnUse">
<stop stop-color="#101220"/>
<stop offset="0.42" stop-color="#111120"/>
<stop offset="0.57" stop-color="#181023"/>
<stop offset="0.68" stop-color="#240F28"/>
<stop offset="0.76" stop-color="#350D30"/>
<stop offset="0.84" stop-color="#4B0A39"/>
<stop offset="0.9" stop-color="#660745"/>
<stop offset="0.96" stop-color="#860352"/>
<stop offset="1" stop-color="#9E005D"/>
</linearGradient>
<linearGradient id="paint17_linear_1001_775" x1="1234.4" y1="381.05" x2="1234.4" y2="285.544" gradientUnits="userSpaceOnUse">
<stop stop-color="#101220"/>
<stop offset="0.42" stop-color="#111120"/>
<stop offset="0.57" stop-color="#181023"/>
<stop offset="0.68" stop-color="#240F28"/>
<stop offset="0.76" stop-color="#350D30"/>
<stop offset="0.84" stop-color="#4B0A39"/>
<stop offset="0.9" stop-color="#660745"/>
<stop offset="0.96" stop-color="#860352"/>
<stop offset="1" stop-color="#9E005D"/>
</linearGradient>
<linearGradient id="paint18_linear_1001_775" x1="1241.59" y1="307.849" x2="1246.39" y2="220.665" gradientUnits="userSpaceOnUse">
<stop stop-color="#FDEF6A"/>
<stop offset="0.09" stop-color="#FAEF8E"/>
<stop offset="0.18" stop-color="#F8F0AD"/>
<stop offset="0.29" stop-color="#F5F1C6"/>
<stop offset="0.4" stop-color="#F4F1D9"/>
<stop offset="0.53" stop-color="#F2F1E7"/>
<stop offset="0.7" stop-color="#F2F1EF"/>
<stop offset="1" stop-color="#F2F2F2"/>
</linearGradient>
<linearGradient id="paint19_linear_1001_775" x1="976.78" y1="312.542" x2="968.989" y2="225.596" gradientUnits="userSpaceOnUse">
<stop stop-color="#FDEF6A"/>
<stop offset="0.09" stop-color="#FAEF8E"/>
<stop offset="0.18" stop-color="#F8F0AD"/>
<stop offset="0.29" stop-color="#F5F1C6"/>
<stop offset="0.4" stop-color="#F4F1D9"/>
<stop offset="0.53" stop-color="#F2F1E7"/>
<stop offset="0.7" stop-color="#F2F1EF"/>
<stop offset="1" stop-color="#F2F2F2"/>
</linearGradient>
<linearGradient id="paint20_linear_1001_775" x1="690.355" y1="447.158" x2="690.355" y2="664.486" gradientUnits="userSpaceOnUse">
<stop stop-color="#10FFE2"/>
<stop offset="0.1" stop-color="#15FEDF"/>
<stop offset="0.23" stop-color="#25FDD6"/>
<stop offset="0.38" stop-color="#40FBC9"/>
<stop offset="0.53" stop-color="#65F9B6"/>
<stop offset="0.7" stop-color="#94F69E"/>
<stop offset="0.87" stop-color="#CDF281"/>
<stop offset="1" stop-color="#FEEF69"/>
</linearGradient>
<linearGradient id="paint21_linear_1001_775" x1="693.657" y1="497.187" x2="693.657" y2="125.715" gradientUnits="userSpaceOnUse">
<stop stop-color="#FEEF69"/>
<stop offset="0.02" stop-color="#EEF070"/>
<stop offset="0.08" stop-color="#C0F388"/>
<stop offset="0.15" stop-color="#96F59D"/>
<stop offset="0.22" stop-color="#72F8B0"/>
<stop offset="0.3" stop-color="#53FABF"/>
<stop offset="0.39" stop-color="#3AFCCC"/>
<stop offset="0.48" stop-color="#27FDD6"/>
<stop offset="0.59" stop-color="#1AFEDC"/>
<stop offset="0.73" stop-color="#12FEE0"/>
<stop offset="1" stop-color="#10FFE2"/>
</linearGradient>
<linearGradient id="paint22_linear_1001_775" x1="634.439" y1="156.051" x2="804.972" y2="62.8255" gradientUnits="userSpaceOnUse">
<stop stop-color="#C401DB"/>
<stop offset="0.15" stop-color="#D807CF"/>
<stop offset="0.37" stop-color="#F310C0"/>
<stop offset="0.5" stop-color="#FD14BB"/>
<stop offset="0.62" stop-color="#FD16B9"/>
<stop offset="0.7" stop-color="#FD1FB6"/>
<stop offset="0.76" stop-color="#FD2DAF"/>
<stop offset="0.82" stop-color="#FD42A6"/>
<stop offset="0.87" stop-color="#FD5D9A"/>
<stop offset="0.92" stop-color="#FE7E8B"/>
<stop offset="0.96" stop-color="#FEA57A"/>
<stop offset="1" stop-color="#FFC96B"/>
</linearGradient>
<linearGradient id="paint23_linear_1001_775" x1="726.751" y1="393.274" x2="690.108" y2="368.25" gradientUnits="userSpaceOnUse">
<stop stop-color="#C401DB"/>
<stop offset="0.23" stop-color="#DC09CD"/>
<stop offset="0.46" stop-color="#EE0FC3"/>
<stop offset="0.72" stop-color="#F912BC"/>
<stop offset="1" stop-color="#FD14BB"/>
</linearGradient>
<linearGradient id="paint24_linear_1001_775" x1="654.188" y1="394.409" x2="690.831" y2="369.385" gradientUnits="userSpaceOnUse">
<stop stop-color="#C401DB"/>
<stop offset="0.23" stop-color="#DC09CD"/>
<stop offset="0.46" stop-color="#EE0FC3"/>
<stop offset="0.72" stop-color="#F912BC"/>
<stop offset="1" stop-color="#FD14BB"/>
</linearGradient>
<radialGradient id="paint25_radial_1001_775" cx="0" cy="0" r="1" gradientUnits="userSpaceOnUse" gradientTransform="translate(690.655 355.527) scale(27.6356 29.1861)">
<stop stop-color="#FEEF69"/>
<stop offset="0.28" stop-color="#FEF447"/>
<stop offset="0.76" stop-color="#FEFB14"/>
<stop offset="1" stop-color="#FFFF00"/>
</radialGradient>
<linearGradient id="paint26_linear_1001_775" x1="689.632" y1="257.228" x2="689.632" y2="351.576" gradientUnits="userSpaceOnUse">
<stop stop-color="#FD14BB"/>
<stop offset="0.15" stop-color="#FD17B9"/>
<stop offset="0.28" stop-color="#FD22B5"/>
<stop offset="0.42" stop-color="#FD35AE"/>
<stop offset="0.55" stop-color="#FD4FA4"/>
<stop offset="0.67" stop-color="#FD7197"/>
<stop offset="0.8" stop-color="#FD9B88"/>
<stop offset="0.92" stop-color="#FDCB76"/>
<stop offset="1" stop-color="#FEEF69"/>
</linearGradient>
<linearGradient id="paint27_linear_1001_775" x1="694.036" y1="638.018" x2="694.036" y2="471.214" gradientUnits="userSpaceOnUse">
<stop stop-color="#8AFF00"/>
<stop offset="0.16" stop-color="#8FFE05"/>
<stop offset="0.36" stop-color="#9FFC13"/>
<stop offset="0.58" stop-color="#BAF82B"/>
<stop offset="0.82" stop-color="#DEF34C"/>
<stop offset="1" stop-color="#FEEF69"/>
</linearGradient>
<linearGradient id="paint28_linear_1001_775" x1="692.939" y1="530.712" x2="692.939" y2="446.762" gradientUnits="userSpaceOnUse">
<stop stop-color="#8AFF00"/>
<stop offset="0.16" stop-color="#8FFE05"/>
<stop offset="0.36" stop-color="#9FFC13"/>
<stop offset="0.58" stop-color="#BAF82B"/>
<stop offset="0.82" stop-color="#DEF34C"/>
<stop offset="1" stop-color="#FEEF69"/>
</linearGradient>
<linearGradient id="paint29_linear_1001_775" x1="607.588" y1="690.285" x2="607.588" y2="636.206" gradientUnits="userSpaceOnUse">
<stop stop-color="#FFFF00"/>
<stop offset="0.24" stop-color="#FEFB14"/>
<stop offset="0.72" stop-color="#FEF447"/>
<stop offset="1" stop-color="#FEEF69"/>
</linearGradient>
<linearGradient id="paint30_linear_1001_775" x1="557.495" y1="689.892" x2="557.495" y2="635.912" gradientUnits="userSpaceOnUse">
<stop stop-color="#FFFF00"/>
<stop offset="0.24" stop-color="#FEFB14"/>
<stop offset="0.72" stop-color="#FEF447"/>
<stop offset="1" stop-color="#FEEF69"/>
</linearGradient>
<linearGradient id="paint31_linear_1001_775" x1="583.292" y1="695.172" x2="583.292" y2="632.369" gradientUnits="userSpaceOnUse">
<stop stop-color="#FFFF00"/>
<stop offset="0.24" stop-color="#FEFB14"/>
<stop offset="0.72" stop-color="#FEF447"/>
<stop offset="1" stop-color="#FEEF69"/>
</linearGradient>
<linearGradient id="paint32_linear_1001_775" x1="827.084" y1="690.977" x2="827.084" y2="636.906" gradientUnits="userSpaceOnUse">
<stop stop-color="#FFFF00"/>
<stop offset="0.24" stop-color="#FEFB14"/>
<stop offset="0.72" stop-color="#FEF447"/>
<stop offset="1" stop-color="#FEEF69"/>
</linearGradient>
<linearGradient id="paint33_linear_1001_775" x1="777.652" y1="691.989" x2="777.652" y2="638.009" gradientUnits="userSpaceOnUse">
<stop stop-color="#FFFF00"/>
<stop offset="0.24" stop-color="#FEFB14"/>
<stop offset="0.72" stop-color="#FEF447"/>
<stop offset="1" stop-color="#FEEF69"/>
</linearGradient>
<linearGradient id="paint34_linear_1001_775" x1="802.786" y1="693.771" x2="802.786" y2="630.968" gradientUnits="userSpaceOnUse">
<stop stop-color="#FFFF00"/>
<stop offset="0.24" stop-color="#FEFB14"/>
<stop offset="0.72" stop-color="#FEF447"/>
<stop offset="1" stop-color="#FEEF69"/>
</linearGradient>
<linearGradient id="paint35_linear_1001_775" x1="825.023" y1="383.546" x2="825.023" y2="273.919" gradientUnits="userSpaceOnUse">
<stop stop-color="#101220"/>
<stop offset="0.42" stop-color="#111120"/>
<stop offset="0.57" stop-color="#181023"/>
<stop offset="0.68" stop-color="#240F28"/>
<stop offset="0.76" stop-color="#350D30"/>
<stop offset="0.84" stop-color="#4B0A39"/>
<stop offset="0.9" stop-color="#660745"/>
<stop offset="0.96" stop-color="#860352"/>
<stop offset="1" stop-color="#9E005D"/>
</linearGradient>
<linearGradient id="paint36_linear_1001_775" x1="556.163" y1="387.352" x2="556.163" y2="277.725" gradientUnits="userSpaceOnUse">
<stop stop-color="#101220"/>
<stop offset="0.42" stop-color="#111120"/>
<stop offset="0.57" stop-color="#181023"/>
<stop offset="0.68" stop-color="#240F28"/>
<stop offset="0.76" stop-color="#350D30"/>
<stop offset="0.84" stop-color="#4B0A39"/>
<stop offset="0.9" stop-color="#660745"/>
<stop offset="0.96" stop-color="#860352"/>
<stop offset="1" stop-color="#9E005D"/>
</linearGradient>
<linearGradient id="paint37_linear_1001_775" x1="794.921" y1="385.981" x2="787.156" y2="527.819" gradientUnits="userSpaceOnUse">
<stop stop-color="#FEEF69"/>
<stop offset="0.13" stop-color="#CDF281"/>
<stop offset="0.3" stop-color="#94F69E"/>
<stop offset="0.47" stop-color="#65F9B6"/>
<stop offset="0.62" stop-color="#40FBC9"/>
<stop offset="0.77" stop-color="#25FDD6"/>
<stop offset="0.9" stop-color="#15FEDF"/>
<stop offset="1" stop-color="#10FFE2"/>
</linearGradient>
<linearGradient id="paint38_linear_1001_775" x1="255.709" y1="452.495" x2="255.709" y2="669.815" gradientUnits="userSpaceOnUse">
<stop stop-color="white"/>
<stop offset="0.36" stop-color="#FEFEFC"/>
<stop offset="0.52" stop-color="#FEFEF5"/>
<stop offset="0.63" stop-color="#FEFCE9"/>
<stop offset="0.73" stop-color="#FEFAD7"/>
<stop offset="0.81" stop-color="#FEF8C0"/>
<stop offset="0.89" stop-color="#FEF5A3"/>
<stop offset="0.96" stop-color="#FEF182"/>
<stop offset="1" stop-color="#FEEF69"/>
</linearGradient>
<linearGradient id="paint39_linear_1001_775" x1="259.013" y1="502.516" x2="259.013" y2="131.044" gradientUnits="userSpaceOnUse">
<stop stop-color="#FEEF69"/>
<stop offset="0.06" stop-color="#FDC379"/>
<stop offset="0.13" stop-color="#FD9A88"/>
<stop offset="0.2" stop-color="#FD7596"/>
<stop offset="0.28" stop-color="#FD57A1"/>
<stop offset="0.37" stop-color="#FD3EAB"/>
<stop offset="0.47" stop-color="#FD2BB2"/>
<stop offset="0.58" stop-color="#FD1EB7"/>
<stop offset="0.73" stop-color="#FD16BA"/>
<stop offset="1" stop-color="#FD14BB"/>
</linearGradient>
<linearGradient id="paint40_linear_1001_775" x1="199.806" y1="161.38" x2="370.332" y2="68.1541" gradientUnits="userSpaceOnUse">
<stop stop-color="#6715FF"/>
<stop offset="0.06" stop-color="#7412F9"/>
<stop offset="0.26" stop-color="#9F08E9"/>
<stop offset="0.41" stop-color="#BA03DE"/>
<stop offset="0.5" stop-color="#C401DB"/>
<stop offset="0.62" stop-color="#C403D9"/>
<stop offset="0.69" stop-color="#C70CD4"/>
<stop offset="0.75" stop-color="#CB1ACC"/>
<stop offset="0.81" stop-color="#D12FC0"/>
<stop offset="0.86" stop-color="#D94AB1"/>
<stop offset="0.9" stop-color="#E36B9F"/>
<stop offset="0.95" stop-color="#EF9389"/>
<stop offset="0.99" stop-color="#FCBF70"/>
<stop offset="1" stop-color="#FFC96B"/>
</linearGradient>
<linearGradient id="paint41_linear_1001_775" x1="292.414" y1="398.201" x2="255.771" y2="373.178" gradientUnits="userSpaceOnUse">
<stop stop-color="#6715FF"/>
<stop offset="0.01" stop-color="#6914FD"/>
<stop offset="0.19" stop-color="#8A0DF1"/>
<stop offset="0.38" stop-color="#A307E7"/>
<stop offset="0.57" stop-color="#B504E0"/>
<stop offset="0.77" stop-color="#C001DC"/>
<stop offset="1" stop-color="#C401DB"/>
</linearGradient>
<linearGradient id="paint42_linear_1001_775" x1="220.029" y1="400.447" x2="256.672" y2="375.424" gradientUnits="userSpaceOnUse">
<stop stop-color="#6715FF"/>
<stop offset="0.01" stop-color="#6914FD"/>
<stop offset="0.19" stop-color="#8A0DF1"/>
<stop offset="0.38" stop-color="#A307E7"/>
<stop offset="0.57" stop-color="#B504E0"/>
<stop offset="0.77" stop-color="#C001DC"/>
<stop offset="1" stop-color="#C401DB"/>
</linearGradient>
<radialGradient id="paint43_radial_1001_775" cx="0" cy="0" r="1" gradientUnits="userSpaceOnUse" gradientTransform="translate(256.013 360.856) scale(27.6356 29.1861)">
<stop stop-color="#FEEF69"/>
<stop offset="0.28" stop-color="#FEF447"/>
<stop offset="0.76" stop-color="#FEFB14"/>
<stop offset="1" stop-color="#FFFF00"/>
</radialGradient>
<linearGradient id="paint44_linear_1001_775" x1="254.99" y1="262.557" x2="254.99" y2="356.905" gradientUnits="userSpaceOnUse">
<stop stop-color="#C401DB"/>
<stop offset="0.14" stop-color="#C404D9"/>
<stop offset="0.27" stop-color="#C70FD3"/>
<stop offset="0.4" stop-color="#CC22CA"/>
<stop offset="0.53" stop-color="#D23CBE"/>
<stop offset="0.65" stop-color="#DA5EAE"/>
<stop offset="0.77" stop-color="#E5889A"/>
<stop offset="0.89" stop-color="#F0B882"/>
<stop offset="1" stop-color="#FEEF69"/>
</linearGradient>
<linearGradient id="paint45_linear_1001_775" x1="259.392" y1="643.346" x2="259.392" y2="476.55" gradientUnits="userSpaceOnUse">
<stop stop-color="#10FFE2"/>
<stop offset="0.1" stop-color="#15FEDF"/>
<stop offset="0.23" stop-color="#25FDD6"/>
<stop offset="0.38" stop-color="#40FBC9"/>
<stop offset="0.53" stop-color="#65F9B6"/>
<stop offset="0.7" stop-color="#94F69E"/>
<stop offset="0.87" stop-color="#CDF281"/>
<stop offset="1" stop-color="#FEEF69"/>
</linearGradient>
<linearGradient id="paint46_linear_1001_775" x1="258.298" y1="536.041" x2="258.298" y2="452.091" gradientUnits="userSpaceOnUse">
<stop stop-color="#10FFE2"/>
<stop offset="0.1" stop-color="#15FEDF"/>
<stop offset="0.23" stop-color="#25FDD6"/>
<stop offset="0.38" stop-color="#40FBC9"/>
<stop offset="0.53" stop-color="#65F9B6"/>
<stop offset="0.7" stop-color="#94F69E"/>
<stop offset="0.87" stop-color="#CDF281"/>
<stop offset="1" stop-color="#FEEF69"/>
</linearGradient>
<linearGradient id="paint47_linear_1001_775" x1="172.947" y1="695.613" x2="172.947" y2="641.542" gradientUnits="userSpaceOnUse">
<stop stop-color="#FFFF00"/>
<stop offset="0.24" stop-color="#FEFB14"/>
<stop offset="0.72" stop-color="#FEF447"/>
<stop offset="1" stop-color="#FEEF69"/>
</linearGradient>
<linearGradient id="paint48_linear_1001_775" x1="122.853" y1="695.22" x2="122.853" y2="641.24" gradientUnits="userSpaceOnUse">
<stop stop-color="#FFFF00"/>
<stop offset="0.24" stop-color="#FEFB14"/>
<stop offset="0.72" stop-color="#FEF447"/>
<stop offset="1" stop-color="#FEEF69"/>
</linearGradient>
<linearGradient id="paint49_linear_1001_775" x1="148.648" y1="700.501" x2="148.648" y2="637.698" gradientUnits="userSpaceOnUse">
<stop stop-color="#FFFF00"/>
<stop offset="0.24" stop-color="#FEFB14"/>
<stop offset="0.72" stop-color="#FEF447"/>
<stop offset="1" stop-color="#FEEF69"/>
</linearGradient>
<linearGradient id="paint50_linear_1001_775" x1="392.441" y1="696.306" x2="392.441" y2="642.235" gradientUnits="userSpaceOnUse">
<stop stop-color="#FFFF00"/>
<stop offset="0.24" stop-color="#FEFB14"/>
<stop offset="0.72" stop-color="#FEF447"/>
<stop offset="1" stop-color="#FEEF69"/>
</linearGradient>
<linearGradient id="paint51_linear_1001_775" x1="343.011" y1="697.317" x2="343.011" y2="643.337" gradientUnits="userSpaceOnUse">
<stop stop-color="#FFFF00"/>
<stop offset="0.24" stop-color="#FEFB14"/>
<stop offset="0.72" stop-color="#FEF447"/>
<stop offset="1" stop-color="#FEEF69"/>
</linearGradient>
<linearGradient id="paint52_linear_1001_775" x1="368.142" y1="699.1" x2="368.142" y2="636.305" gradientUnits="userSpaceOnUse">
<stop stop-color="#FFFF00"/>
<stop offset="0.24" stop-color="#FEFB14"/>
<stop offset="0.72" stop-color="#FEF447"/>
<stop offset="1" stop-color="#FEEF69"/>
</linearGradient>
<linearGradient id="paint53_linear_1001_775" x1="232.796" y1="376.652" x2="450.318" y2="531.57" gradientUnits="userSpaceOnUse">
<stop stop-color="#FEEF69"/>
<stop offset="0.692308" stop-color="#FFFFFD"/>
</linearGradient>
<linearGradient id="paint54_linear_1001_775" x1="131.52" y1="396.676" x2="131.52" y2="298.21" gradientUnits="userSpaceOnUse">
<stop stop-color="#101220"/>
<stop offset="0.42" stop-color="#111120"/>
<stop offset="0.57" stop-color="#181023"/>
<stop offset="0.68" stop-color="#240F28"/>
<stop offset="0.76" stop-color="#350D30"/>
<stop offset="0.84" stop-color="#4B0A39"/>
<stop offset="0.9" stop-color="#660745"/>
<stop offset="0.96" stop-color="#860352"/>
<stop offset="1" stop-color="#9E005D"/>
</linearGradient>
<linearGradient id="paint55_linear_1001_775" x1="381.422" y1="395.108" x2="381.422" y2="299.603" gradientUnits="userSpaceOnUse">
<stop stop-color="#101220"/>
<stop offset="0.42" stop-color="#111120"/>
<stop offset="0.57" stop-color="#181023"/>
<stop offset="0.68" stop-color="#240F28"/>
<stop offset="0.76" stop-color="#350D30"/>
<stop offset="0.84" stop-color="#4B0A39"/>
<stop offset="0.9" stop-color="#660745"/>
<stop offset="0.96" stop-color="#860352"/>
<stop offset="1" stop-color="#9E005D"/>
</linearGradient>
<linearGradient id="paint56_linear_1001_775" x1="135.737" y1="313.64" x2="140.53" y2="226.448" gradientUnits="userSpaceOnUse">
<stop stop-color="#FEEF69"/>
<stop offset="0.03" stop-color="#FDC678"/>
<stop offset="0.06" stop-color="#FD9C87"/>
<stop offset="0.09" stop-color="#FD7795"/>
<stop offset="0.13" stop-color="#FD58A1"/>
<stop offset="0.17" stop-color="#FD3FAA"/>
<stop offset="0.21" stop-color="#FD2CB2"/>
<stop offset="0.27" stop-color="#FD1EB7"/>
<stop offset="0.33" stop-color="#FD16BA"/>
<stop offset="0.45" stop-color="#FD14BB"/>
<stop offset="0.6" stop-color="#F210C1"/>
<stop offset="0.86" stop-color="#D506D1"/>
<stop offset="1" stop-color="#C401DB"/>
</linearGradient>
<linearGradient id="paint57_linear_1001_775" x1="374.695" y1="311.239" x2="366.903" y2="224.285" gradientUnits="userSpaceOnUse">
<stop stop-color="#FEEF69"/>
<stop offset="0.03" stop-color="#FDC678"/>
<stop offset="0.06" stop-color="#FD9C87"/>
<stop offset="0.09" stop-color="#FD7795"/>
<stop offset="0.13" stop-color="#FD58A1"/>
<stop offset="0.17" stop-color="#FD3FAA"/>
<stop offset="0.21" stop-color="#FD2CB2"/>
<stop offset="0.27" stop-color="#FD1EB7"/>
<stop offset="0.33" stop-color="#FD16BA"/>
<stop offset="0.45" stop-color="#FD14BB"/>
<stop offset="0.6" stop-color="#F210C1"/>
<stop offset="0.86" stop-color="#D506D1"/>
<stop offset="1" stop-color="#C401DB"/>
</linearGradient>
</defs>
</svg>
