<svg width="915" height="1149" viewBox="0 0 915 1149" fill="none" xmlns="http://www.w3.org/2000/svg">
<path d="M862.4 841.664C862.4 977.544 768.87 1087.7 653.5 1087.7C628.36 1087.7 604.25 1082.47 581.93 1072.87C542.54 1087.38 500.46 1095.24 456.74 1095.24C413.02 1095.24 370.53 1087.31 330.98 1072.67C308.51 1082.4 284.24 1087.7 258.91 1087.7C143.54 1087.7 50.01 977.544 50.01 841.664C50.01 831.354 50.55 821.194 51.6 811.204C60.99 815.594 72.35 817.804 85.98 817.004C109.59 815.604 140.02 805.144 178.83 781.324C181.74 779.544 184.63 777.834 187.5 776.204C314.92 703.664 398.18 782.494 398.18 782.494C398.18 782.494 400.98 784.464 406.15 787.264C414.39 791.734 428.63 798.294 447.25 802.434C452.96 803.724 459.08 804.764 465.57 805.444C496.82 808.744 536.5 803.674 579.23 775.524C582.41 773.424 585.56 771.424 588.67 769.514C669.66 719.734 728.78 730.114 769.42 753.494C775.71 757.104 781.54 761.024 786.96 765.084C801.71 776.144 821.67 777.664 841.31 773.244C845.36 772.334 849.38 771.184 853.36 769.804C859.26 792.544 862.42 816.674 862.42 841.674L862.4 841.664Z" fill="url(#paint0_linear_831_197)" stroke="#490B40" stroke-width="5" stroke-miterlimit="10"/>
<g style="mix-blend-mode:darken">
<path d="M862.4 841.665C862.4 977.545 768.87 1087.7 653.5 1087.7C628.36 1087.7 604.25 1082.47 581.93 1072.87C542.54 1087.38 500.46 1095.24 456.74 1095.24C413.02 1095.24 370.53 1087.31 330.98 1072.67C308.51 1082.4 284.24 1087.7 258.91 1087.7C143.54 1087.7 50.01 977.545 50.01 841.665C50.01 831.355 50.55 821.195 51.6 811.205C60.99 815.595 72.35 817.805 85.98 817.005C88.98 816.825 92.09 816.495 95.32 816.015C97.1 855.105 101.56 907.615 112.68 926.385C131.25 957.715 124.28 898.535 133.57 892.725C142.86 886.915 149.82 871.835 164.91 929.865C179.99 987.895 209.01 1020.38 219.45 1019.22C229.9 1018.07 207.78 967.995 222.94 971.645C255.43 979.475 253.69 996.015 307.66 1027.35C381.69 1070.34 571.11 1074.93 652.34 1014.59C733.57 954.235 720.81 984.415 713.85 1012.26C706.89 1040.11 792.77 965.845 795.08 886.925C797.41 808.005 826.42 878.805 821.78 910.145C817.44 939.415 857.66 929.205 825.15 775.455C830.48 775.215 835.91 774.455 841.31 773.245C845.36 772.335 849.38 771.185 853.36 769.805C859.26 792.545 862.42 816.675 862.42 841.675L862.4 841.665Z" fill="#CCCCCC"/>
</g>
<path d="M887.59 646.275C876.53 626.905 863.73 605.495 853.63 580.595C851.47 563.725 848.48 547.165 844.68 530.965C844.22 528.945 843.73 526.925 843.24 524.915C839.99 511.755 836.23 498.825 831.95 486.185C820.4 451.855 805.2 419.525 786.9 389.795C735.48 306.245 659.53 243.185 570.72 213.685C570.9 263.905 553.02 311.455 493.9 325.805C366.57 356.705 371.8 274.355 399.87 199.715C380.04 202.875 360.67 207.675 341.88 213.965C317.36 222.175 293.82 232.945 271.52 246.005C264.97 249.855 258.51 253.885 252.17 258.115C201.96 291.595 158.81 337.035 125.85 390.935C125.38 391.695 124.91 392.455 124.46 393.215C122.87 395.855 121.3 398.515 119.77 401.195C103.35 429.675 89.72 460.375 79.33 492.805C75.13 505.875 71.45 519.225 68.35 532.825C64.19 550.915 61.02 569.455 58.9 588.355C51.71 620.275 44.97 641.435 38.95 656.355C22.65 696.785 11.71 691.355 11.71 730.245C11.71 761.435 21.77 797.295 51.59 811.195C60.98 815.585 72.34 817.795 85.97 816.995C109.58 815.595 140.01 805.135 178.82 781.315C181.73 779.535 184.62 777.825 187.49 776.195C214.48 760.825 239.48 752.255 262.13 748.295C298.48 741.915 328.77 747.395 351.47 755.685C381.42 766.645 398.16 782.485 398.16 782.485C398.16 782.485 400.96 784.455 406.13 787.255C414.37 791.725 428.61 798.285 447.23 802.425C452.94 803.715 459.06 804.755 465.55 805.435C496.8 808.735 536.48 803.665 579.21 775.515C582.39 773.415 585.54 771.415 588.65 769.505C605.29 759.285 621.02 751.585 635.83 746.035C658.9 737.385 679.8 733.905 698.64 734.025C726.63 734.205 750.1 742.375 769.4 753.485C775.69 757.095 781.52 761.015 786.94 765.075C801.69 776.135 821.65 777.655 841.29 773.235C845.34 772.325 849.36 771.175 853.34 769.795C884.73 758.925 912.29 734.355 912.29 711.695C912.29 691.135 901.26 670.255 887.59 646.275ZM318.21 425.615C372.62 446.495 419.9 473.505 455.47 502.165C491.2 473.075 539.03 445.615 594.19 424.445C599.77 422.305 605.34 420.255 610.89 418.305C595.57 443.235 586.14 477.095 586.14 514.385C586.14 521.725 586.51 528.935 587.22 535.975C561.29 547.715 537.92 560.815 517.83 574.635C517.48 574.115 517.1 573.615 516.67 573.115C508.04 562.915 484.47 555.595 456.74 555.595C427.21 555.595 402.39 563.895 395.32 575.145C395.05 574.955 394.78 574.795 394.51 574.615C374.52 561.685 351.67 549.475 326.56 538.555C327.07 532.555 327.33 526.435 327.33 520.205C327.33 480.085 316.42 443.935 298.97 418.615C305.36 420.815 311.77 423.155 318.2 425.625L318.21 425.615Z" fill="url(#paint1_linear_831_197)" stroke="#490B40" stroke-width="5" stroke-miterlimit="10"/>
<g style="mix-blend-mode:exclusion" opacity="0.15">
<path d="M912.29 711.695C912.29 734.355 884.73 758.925 853.34 769.795C849.37 771.175 845.34 772.325 841.29 773.235C821.65 777.655 801.7 776.135 786.94 765.075C781.52 761.015 775.69 757.095 769.4 753.485C750.1 742.375 726.63 734.205 698.64 734.025C679.8 733.895 658.9 737.375 635.83 746.035C621.01 751.585 605.29 759.285 588.65 769.505C585.54 771.415 582.39 773.415 579.21 775.515C536.48 803.665 496.8 808.745 465.55 805.435C459.06 804.755 452.93 803.715 447.23 802.425C428.62 798.285 414.37 791.725 406.13 787.255C400.95 784.455 398.16 782.485 398.16 782.485C398.16 782.485 381.42 766.645 351.47 755.685C328.77 747.395 298.48 741.915 262.13 748.295C239.48 752.255 214.48 760.825 187.49 776.195C184.62 777.825 181.73 779.535 178.82 781.315C140.01 805.145 109.58 815.595 85.97 816.995C72.34 817.805 60.98 815.595 51.59 811.195C21.77 797.285 11.71 761.435 11.71 730.245C11.71 691.345 22.66 696.775 38.95 656.355C44.97 641.435 51.72 620.285 58.9 588.355C61.03 569.455 64.19 550.915 68.35 532.825C71.45 519.225 75.13 505.875 79.33 492.805C89.72 460.375 103.35 429.675 119.77 401.195C121.3 398.515 122.87 395.855 124.46 393.215C124.92 392.455 125.38 391.695 125.85 390.935C158.81 337.035 201.96 291.595 252.17 258.115C258.51 253.885 264.96 249.855 271.52 246.005C293.83 232.945 317.36 222.175 341.88 213.965C360.67 207.675 380.04 202.885 399.87 199.715C397.54 205.905 395.37 212.145 393.42 218.365C379.21 221.135 365.27 224.795 351.65 229.275C328.66 236.855 306.58 246.785 285.65 258.835C279.5 262.395 273.45 266.115 267.51 270.005C220.41 300.905 179.95 342.825 149.03 392.565C148.6 393.265 148.16 393.955 147.73 394.665C146.24 397.105 144.77 399.545 143.33 402.025C127.93 428.305 115.15 456.625 105.4 486.545C101.46 498.605 98.01 510.925 95.1 523.465C91.2 540.165 88.23 557.275 86.24 574.715C79.5 604.175 73.17 623.695 67.51 637.445C52.22 674.745 41.96 669.745 41.96 705.635C41.96 734.405 51.4 767.495 79.36 780.325C88.17 784.375 98.83 786.425 111.61 785.675C133.75 784.375 162.3 774.725 198.7 752.755C201.43 751.115 204.13 749.525 206.82 748.025C232.14 733.845 255.59 725.935 276.83 722.285C310.93 716.385 339.35 721.445 360.63 729.095C388.73 739.205 404.42 753.835 404.42 753.835C404.42 753.835 407.05 755.645 411.9 758.225C419.63 762.345 432.99 768.415 450.45 772.235C455.8 773.425 461.55 774.375 467.63 775.005C496.95 778.055 534.16 773.375 574.25 747.395C577.22 745.455 580.18 743.615 583.11 741.855C598.71 732.415 613.46 725.315 627.36 720.195C649 712.215 668.61 709.005 686.27 709.125C712.53 709.285 734.54 716.835 752.64 727.075C758.55 730.405 764.02 734.025 769.1 737.765C782.93 747.965 801.64 749.365 820.07 745.295C823.87 744.455 827.65 743.395 831.37 742.115C860.81 732.095 886.66 709.415 886.66 688.505C886.66 669.535 876.31 650.275 863.49 628.145C853.11 610.265 841.11 590.515 831.64 567.535C829.6 551.985 826.81 536.695 823.24 521.755C822.82 519.885 822.35 518.025 821.9 516.175C818.84 504.025 815.32 492.095 811.31 480.425C800.48 448.755 786.22 418.935 769.06 391.495C721.56 315.565 651.74 257.975 570.06 230.265C570.52 224.795 570.73 219.245 570.71 213.665C659.52 243.155 735.47 306.225 786.89 389.775C805.19 419.505 820.38 451.835 831.94 486.165C836.22 498.805 839.97 511.735 843.23 524.895C843.72 526.905 844.22 528.915 844.67 530.945C848.47 547.145 851.45 563.705 853.62 580.575C863.72 605.475 876.52 626.885 887.58 646.255C901.25 670.235 912.28 691.115 912.28 711.675L912.29 711.695Z" fill="#10FFE2"/>
</g>
<path d="M615.78 186.545C596.12 188.645 580.41 185.935 567.65 176.565C569.55 188.805 570.69 201.325 570.74 213.685C570.92 263.905 553.04 311.455 493.92 325.805C366.59 356.705 371.82 274.355 399.89 199.715C380.06 202.875 360.69 207.675 341.9 213.965C364.64 159.455 445.86 -13.8653 553.11 3.75469C680.19 24.6447 664.52 181.315 615.78 186.545Z" fill="url(#paint2_linear_831_197)" stroke="#490B40" stroke-width="5" stroke-linecap="round" stroke-linejoin="round"/>
<g style="mix-blend-mode:difference" opacity="0.15">
<path d="M615.78 186.544C596.12 188.644 580.41 185.934 567.65 176.564C569.55 188.804 570.69 201.324 570.74 213.684C570.92 263.904 553.04 311.454 493.92 325.804C366.59 356.704 371.82 274.354 399.89 199.714C380.06 202.874 360.69 207.674 341.9 213.964C346.58 202.744 353.74 186.484 363.11 167.884C399.17 107.444 439.38 93.6944 460.85 120.974C460.85 120.974 422.55 149.124 422.55 233.544C422.55 317.964 490.46 309.594 513.08 290.994C539.18 269.524 572.26 203.954 553.99 156.084C535.71 108.204 556.01 146.504 593.73 168.564C629.49 189.484 692.89 9.56438 500.08 10.1044C516.87 3.37438 534.6 0.724385 553.11 3.76438C680.19 24.6544 664.52 181.324 615.78 186.554V186.544Z" fill="#C401DB"/>
</g>
<path d="M438.22 120.385C426.62 140.065 411.34 169.255 399.89 199.725" stroke="#490B40" stroke-width="5" stroke-linecap="round" stroke-linejoin="round"/>
<path d="M525.96 102.185C538.65 121.175 555.54 149.465 568.69 179.235" stroke="#490B40" stroke-width="5" stroke-linecap="round" stroke-linejoin="round"/>
<path d="M252.19 258.115C201.27 292.065 157.62 338.315 124.48 393.215L82.02 358.245C82.02 358.245 97.94 257.605 198.66 214.035L252.2 258.115H252.19Z" fill="url(#paint3_linear_831_197)" stroke="#490B40" stroke-width="5" stroke-miterlimit="10"/>
<g style="mix-blend-mode:difference" opacity="0.75">
<path d="M252.19 258.114C201.27 292.064 157.62 338.314 124.48 393.214L82.02 358.244C82.02 358.244 83.25 350.484 87.17 338.364L122.19 369.164C153.78 320.464 193.76 279.114 239.61 247.774L252.19 258.124V258.114Z" fill="#101220"/>
</g>
<path d="M288.53 166.864C288.53 166.864 284.13 201.424 271.54 246.014C264.99 249.864 258.53 253.894 252.19 258.124L198.65 214.044C97.93 257.604 82.01 358.254 82.01 358.254L124.47 393.224C122.88 395.864 121.31 398.524 119.78 401.204C85.89 404.314 45.62 404.964 6.57999 398.194C6.57999 398.194 18.47 219.814 91.81 146.244C91.81 146.244 233.88 132.504 288.52 166.864H288.53Z" fill="url(#paint4_linear_831_197)" stroke="#490B40" stroke-width="5" stroke-miterlimit="10"/>
<path d="M519.219 645.773C527.325 634.534 520.006 615.406 502.872 603.049C485.739 590.691 465.278 589.785 457.173 601.023C449.067 612.262 456.386 631.391 473.519 643.748C490.653 656.105 511.113 657.012 519.219 645.773Z" fill="url(#paint5_linear_831_197)" stroke="#490B40" stroke-width="5" stroke-miterlimit="10"/>
<path d="M437.282 642.696C454.416 630.338 461.734 611.21 453.629 599.971C445.523 588.733 425.063 589.639 407.929 601.996C390.795 614.354 383.477 633.482 391.582 644.721C399.688 655.959 420.149 655.053 437.282 642.696Z" fill="url(#paint6_linear_831_197)" stroke="#490B40" stroke-width="5" stroke-miterlimit="10"/>
<path d="M520.18 581.705C520.18 589.915 510.97 597.245 496.57 602.035C491.33 603.765 485.4 605.175 478.97 606.175C472.58 607.145 465.72 607.715 458.55 607.805C457.96 607.815 457.35 607.815 456.74 607.815C456.13 607.815 455.59 607.815 455.02 607.805C448.45 607.725 442.15 607.245 436.23 606.415C429.65 605.505 423.55 604.135 418.15 602.425C403.04 597.655 393.3 590.155 393.3 581.695C393.3 579.435 394 577.225 395.32 575.125C402.39 563.875 427.21 555.575 456.74 555.575C484.46 555.575 508.04 562.905 516.67 573.095C517.1 573.585 517.48 574.095 517.83 574.615C519.29 576.755 520.11 579.015 520.17 581.345C520.18 581.455 520.18 581.575 520.18 581.685V581.705Z" fill="url(#paint7_radial_831_197)" stroke="#490B40" stroke-width="5" stroke-miterlimit="10"/>
<path d="M586.14 514.394C586.14 521.734 586.51 528.944 587.22 535.984C561.29 547.724 537.92 560.824 517.83 574.644C517.48 574.124 517.1 573.624 516.67 573.124C508.04 562.924 484.47 555.604 456.74 555.604C427.21 555.604 402.39 563.904 395.32 575.154C395.05 574.964 394.78 574.804 394.51 574.624C374.52 561.694 351.67 549.484 326.56 538.564C327.07 532.564 327.33 526.444 327.33 520.214C327.33 480.094 316.42 443.944 298.97 418.624C305.36 420.824 311.77 423.164 318.2 425.634C372.61 446.514 419.89 473.524 455.46 502.184C491.19 473.094 539.02 445.634 594.18 424.464C599.76 422.324 605.33 420.274 610.88 418.324C595.56 443.254 586.13 477.114 586.13 514.404L586.14 514.394Z" fill="url(#paint8_linear_831_197)" stroke="#490B40" stroke-width="5" stroke-miterlimit="10"/>
<path d="M537.46 978.275L466.38 1051.25L387.89 984.695L458.97 774.005L537.46 978.275Z" fill="url(#paint9_linear_831_197)" stroke="#490B40" stroke-width="5" stroke-miterlimit="10"/>
<g style="mix-blend-mode:difference" opacity="0.2">
<path d="M458.97 773.995L387.88 984.695L466.38 1051.26L537.45 978.285L458.96 773.995H458.97ZM465.41 1021.18L407.31 971.925L460.85 814.975L518.47 966.645L465.42 1021.17L465.41 1021.18Z" fill="#39B54A"/>
</g>
<path d="M535.54 799.914L464.46 872.894L385.97 806.334L457.05 733.354L535.54 799.914Z" fill="url(#paint10_linear_831_197)" stroke="#490B40" stroke-width="5" stroke-miterlimit="10"/>
<g style="mix-blend-mode:difference" opacity="0.15">
<path d="M535.54 799.915L464.46 872.895L385.97 806.335L401.29 790.595L464.46 844.175L520.22 786.915L535.54 799.915Z" fill="#39B54A"/>
<path d="M535.54 799.915L464.46 872.895L385.97 806.335L401.29 790.595L464.46 844.175L520.22 786.915L535.54 799.915Z" stroke="#490B40" stroke-miterlimit="10"/>
</g>
<path d="M310.92 1138.13C325.412 1138.13 337.16 1118 337.16 1093.19C337.16 1068.37 325.412 1048.25 310.92 1048.25C296.428 1048.25 284.68 1068.37 284.68 1093.19C284.68 1118 296.428 1138.13 310.92 1138.13Z" fill="url(#paint11_linear_831_197)" stroke="#490B40" stroke-width="5" stroke-miterlimit="10"/>
<path d="M226.209 1137.44C240.663 1136.38 250.916 1115.46 249.112 1090.71C247.307 1065.95 234.127 1046.74 219.673 1047.8C205.22 1048.85 194.966 1069.77 196.771 1094.52C198.575 1119.28 211.755 1138.49 226.209 1137.44Z" fill="url(#paint12_linear_831_197)" stroke="#490B40" stroke-width="5" stroke-miterlimit="10"/>
<path d="M268.27 1146.24C285.104 1146.24 298.75 1122.88 298.75 1094.05C298.75 1065.23 285.104 1041.86 268.27 1041.86C251.436 1041.86 237.79 1065.23 237.79 1094.05C237.79 1122.88 251.436 1146.24 268.27 1146.24Z" fill="url(#paint13_linear_831_197)" stroke="#490B40" stroke-width="5" stroke-miterlimit="10"/>
<path d="M696.22 1139.28C710.712 1139.28 722.46 1119.16 722.46 1094.34C722.46 1069.52 710.712 1049.4 696.22 1049.4C681.728 1049.4 669.98 1069.52 669.98 1094.34C669.98 1119.16 681.728 1139.28 696.22 1139.28Z" fill="url(#paint14_linear_831_197)" stroke="#490B40" stroke-width="5" stroke-miterlimit="10"/>
<path d="M612.669 1140.94C627.123 1139.88 637.376 1118.96 635.572 1094.21C633.767 1069.45 620.587 1050.24 606.133 1051.29C591.68 1052.35 581.426 1073.27 583.231 1098.02C585.035 1122.78 598.215 1141.99 612.669 1140.94Z" fill="url(#paint15_linear_831_197)" stroke="#490B40" stroke-width="5" stroke-miterlimit="10"/>
<path d="M653.57 1143.92C670.404 1143.92 684.05 1120.56 684.05 1091.73C684.05 1062.91 670.404 1039.54 653.57 1039.54C636.736 1039.54 623.09 1062.91 623.09 1091.73C623.09 1120.56 636.736 1143.92 653.57 1143.92Z" fill="url(#paint16_linear_831_197)" stroke="#490B40" stroke-width="5" stroke-miterlimit="10"/>
<path d="M763.71 514.395C763.71 550.085 755.07 582.625 740.9 607.205C724.65 635.375 701.12 653.085 674.93 653.085C665.59 653.085 656.58 650.835 648.13 646.645C616.45 631.005 592.47 588.355 587.23 535.985C586.52 528.945 586.15 521.735 586.15 514.395C586.15 477.105 595.58 443.245 610.9 418.315C627.06 392.055 649.77 375.715 674.92 375.715C690.21 375.715 704.6 381.755 717.17 392.395C740.12 411.835 756.98 446.605 762.08 487.925C763.16 496.495 763.71 505.345 763.71 514.395Z" fill="white" stroke="#490B40" stroke-width="5" stroke-miterlimit="10"/>
<path d="M747.05 521.344C747.05 544.324 741.93 565.274 733.52 581.114C723.88 599.244 709.93 610.654 694.39 610.654C688.85 610.654 683.52 609.204 678.5 606.504C659.72 596.434 645.49 568.974 642.4 535.254C641.97 530.724 641.75 526.074 641.75 521.354C641.75 497.344 647.33 475.544 656.43 459.494C666.02 442.594 679.48 432.064 694.39 432.064C703.47 432.064 711.99 435.954 719.46 442.804C723.63 446.644 727.49 451.424 730.88 456.984L702.59 501.274L742.4 484.664C744.06 490.864 745.31 497.454 746.09 504.324C746.72 509.844 747.05 515.534 747.05 521.364V521.344Z" fill="url(#paint17_linear_831_197)" stroke="#490B40" stroke-width="5" stroke-miterlimit="10"/>
<path d="M327.34 520.185C327.34 555.875 318.7 588.415 304.53 612.995C288.28 641.165 264.75 658.875 238.56 658.875C229.22 658.875 220.21 656.625 211.76 652.435C180.08 636.795 156.1 594.145 150.86 541.775C150.15 534.735 149.78 527.525 149.78 520.185C149.78 482.895 159.21 449.035 174.53 424.105C190.69 397.845 213.4 381.505 238.55 381.505C253.84 381.505 268.23 387.545 280.8 398.185C303.75 417.625 320.61 452.395 325.71 493.715C326.79 502.285 327.34 511.135 327.34 520.185Z" fill="white" stroke="#490B40" stroke-width="5" stroke-miterlimit="10"/>
<path d="M269.94 530.335C269.94 553.315 264.82 574.265 256.41 590.105C246.77 608.235 232.82 619.645 217.28 619.645C211.74 619.645 206.41 618.195 201.39 615.495C182.61 605.425 168.38 577.965 165.29 544.245C164.86 539.715 164.64 535.065 164.64 530.345C164.64 506.335 170.22 484.535 179.32 468.485C188.91 451.585 202.37 441.055 217.28 441.055C226.36 441.055 234.88 444.945 242.35 451.795C246.52 455.635 250.38 460.415 253.77 465.975L225.48 510.265L265.29 493.655C266.95 499.855 268.2 506.445 268.98 513.315C269.61 518.835 269.94 524.525 269.94 530.355V530.335Z" fill="url(#paint18_linear_831_197)" stroke="#490B40" stroke-width="5" stroke-miterlimit="10"/>
<path opacity="0.25" d="M210.23 724.074C320.814 724.074 410.46 634.428 410.46 523.844C410.46 413.26 320.814 323.614 210.23 323.614C99.646 323.614 10 413.26 10 523.844C10 634.428 99.646 724.074 210.23 724.074Z" fill="#00FFFF"/>
<path opacity="0.25" d="M698.55 717.314C809.134 717.314 898.78 627.668 898.78 517.085C898.78 406.501 809.134 316.854 698.55 316.854C587.966 316.854 498.32 406.501 498.32 517.085C498.32 627.668 587.966 717.314 698.55 717.314Z" fill="#00FFFF"/>
<path d="M210.23 724.074C320.814 724.074 410.46 634.428 410.46 523.844C410.46 413.26 320.814 323.614 210.23 323.614C99.646 323.614 10 413.26 10 523.844C10 634.428 99.646 724.074 210.23 724.074Z" stroke="#101220" stroke-width="20" stroke-miterlimit="10"/>
<path d="M698.55 717.314C809.134 717.314 898.78 627.668 898.78 517.085C898.78 406.501 809.134 316.854 698.55 316.854C587.966 316.854 498.32 406.501 498.32 517.085C498.32 627.668 587.966 717.314 698.55 717.314Z" stroke="#101220" stroke-width="20" stroke-miterlimit="10"/>
<defs>
<linearGradient id="paint0_linear_831_197" x1="456.2" y1="734.014" x2="456.2" y2="1095.24" gradientUnits="userSpaceOnUse">
<stop stop-color="#10FFE2"/>
<stop offset="0.1" stop-color="#15FEDF"/>
<stop offset="0.23" stop-color="#25FDD6"/>
<stop offset="0.38" stop-color="#40FBC9"/>
<stop offset="0.53" stop-color="#65F9B6"/>
<stop offset="0.7" stop-color="#94F69E"/>
<stop offset="0.87" stop-color="#CDF281"/>
<stop offset="1" stop-color="#FEEF69"/>
</linearGradient>
<linearGradient id="paint1_linear_831_197" x1="462" y1="817.165" x2="462" y2="199.725" gradientUnits="userSpaceOnUse">
<stop stop-color="#FEEF69"/>
<stop offset="0.02" stop-color="#EEF070"/>
<stop offset="0.08" stop-color="#C0F388"/>
<stop offset="0.15" stop-color="#96F59D"/>
<stop offset="0.22" stop-color="#72F8B0"/>
<stop offset="0.3" stop-color="#53FABF"/>
<stop offset="0.39" stop-color="#3AFCCC"/>
<stop offset="0.48" stop-color="#27FDD6"/>
<stop offset="0.59" stop-color="#1AFEDC"/>
<stop offset="0.73" stop-color="#12FEE0"/>
<stop offset="1" stop-color="#10FFE2"/>
</linearGradient>
<linearGradient id="paint2_linear_831_197" x1="358.06" y1="250.135" x2="649.68" y2="81.7747" gradientUnits="userSpaceOnUse">
<stop stop-color="#C401DB"/>
<stop offset="0.15" stop-color="#D807CF"/>
<stop offset="0.37" stop-color="#F310C0"/>
<stop offset="0.5" stop-color="#FD14BB"/>
<stop offset="0.62" stop-color="#FD16B9"/>
<stop offset="0.7" stop-color="#FD1FB6"/>
<stop offset="0.76" stop-color="#FD2DAF"/>
<stop offset="0.82" stop-color="#FD42A6"/>
<stop offset="0.87" stop-color="#FD5D9A"/>
<stop offset="0.92" stop-color="#FE7E8B"/>
<stop offset="0.96" stop-color="#FEA57A"/>
<stop offset="1" stop-color="#FFC96B"/>
</linearGradient>
<linearGradient id="paint3_linear_831_197" x1="133.54" y1="250.045" x2="193.27" y2="353.495" gradientUnits="userSpaceOnUse">
<stop stop-color="#C401DB"/>
<stop offset="0.11" stop-color="#B603E0"/>
<stop offset="0.51" stop-color="#8B0DF0"/>
<stop offset="0.82" stop-color="#7012FB"/>
<stop offset="1" stop-color="#6715FF"/>
</linearGradient>
<linearGradient id="paint4_linear_831_197" x1="218.7" y1="126.484" x2="48.02" y2="422.104" gradientUnits="userSpaceOnUse">
<stop stop-color="#C401DB"/>
<stop offset="0.11" stop-color="#B603E0"/>
<stop offset="0.51" stop-color="#8B0DF0"/>
<stop offset="0.82" stop-color="#7012FB"/>
<stop offset="1" stop-color="#6715FF"/>
</linearGradient>
<linearGradient id="paint5_linear_831_197" x1="520.673" y1="643.757" x2="458.627" y2="599.007" gradientUnits="userSpaceOnUse">
<stop stop-color="#C401DB"/>
<stop offset="0.23" stop-color="#DC09CD"/>
<stop offset="0.46" stop-color="#EE0FC3"/>
<stop offset="0.72" stop-color="#F912BC"/>
<stop offset="1" stop-color="#FD14BB"/>
</linearGradient>
<linearGradient id="paint6_linear_831_197" x1="387.699" y1="639.336" x2="449.745" y2="594.587" gradientUnits="userSpaceOnUse">
<stop stop-color="#C401DB"/>
<stop offset="0.23" stop-color="#DC09CD"/>
<stop offset="0.46" stop-color="#EE0FC3"/>
<stop offset="0.72" stop-color="#F912BC"/>
<stop offset="1" stop-color="#FD14BB"/>
</linearGradient>
<radialGradient id="paint7_radial_831_197" cx="0" cy="0" r="1" gradientUnits="userSpaceOnUse" gradientTransform="translate(456.74 581.705) scale(48.51 48.51)">
<stop stop-color="#FEEF69"/>
<stop offset="0.28" stop-color="#FEF447"/>
<stop offset="0.76" stop-color="#FEFB14"/>
<stop offset="1" stop-color="#FFFF00"/>
</radialGradient>
<linearGradient id="paint8_linear_831_197" x1="454.94" y1="418.314" x2="454.94" y2="575.134" gradientUnits="userSpaceOnUse">
<stop stop-color="#FD14BB"/>
<stop offset="0.15" stop-color="#FD17B9"/>
<stop offset="0.28" stop-color="#FD22B5"/>
<stop offset="0.42" stop-color="#FD35AE"/>
<stop offset="0.55" stop-color="#FD4FA4"/>
<stop offset="0.67" stop-color="#FD7197"/>
<stop offset="0.8" stop-color="#FD9B88"/>
<stop offset="0.92" stop-color="#FDCB76"/>
<stop offset="1" stop-color="#FEEF69"/>
</linearGradient>
<linearGradient id="paint9_linear_831_197" x1="462.67" y1="1051.25" x2="462.67" y2="774.005" gradientUnits="userSpaceOnUse">
<stop stop-color="#8AFF00"/>
<stop offset="0.16" stop-color="#8FFE05"/>
<stop offset="0.36" stop-color="#9FFC13"/>
<stop offset="0.58" stop-color="#BAF82B"/>
<stop offset="0.82" stop-color="#DEF34C"/>
<stop offset="1" stop-color="#FEEF69"/>
</linearGradient>
<linearGradient id="paint10_linear_831_197" x1="460.75" y1="872.894" x2="460.75" y2="733.354" gradientUnits="userSpaceOnUse">
<stop stop-color="#8AFF00"/>
<stop offset="0.16" stop-color="#8FFE05"/>
<stop offset="0.36" stop-color="#9FFC13"/>
<stop offset="0.58" stop-color="#BAF82B"/>
<stop offset="0.82" stop-color="#DEF34C"/>
<stop offset="1" stop-color="#FEEF69"/>
</linearGradient>
<linearGradient id="paint11_linear_831_197" x1="310.92" y1="1138.13" x2="310.92" y2="1048.25" gradientUnits="userSpaceOnUse">
<stop stop-color="#FFFF00"/>
<stop offset="0.24" stop-color="#FEFB14"/>
<stop offset="0.72" stop-color="#FEF447"/>
<stop offset="1" stop-color="#FEEF69"/>
</linearGradient>
<linearGradient id="paint12_linear_831_197" x1="222.983" y1="1137.46" x2="222.983" y2="1047.74" gradientUnits="userSpaceOnUse">
<stop stop-color="#FFFF00"/>
<stop offset="0.24" stop-color="#FEFB14"/>
<stop offset="0.72" stop-color="#FEF447"/>
<stop offset="1" stop-color="#FEEF69"/>
</linearGradient>
<linearGradient id="paint13_linear_831_197" x1="268.27" y1="1146.24" x2="268.27" y2="1041.86" gradientUnits="userSpaceOnUse">
<stop stop-color="#FFFF00"/>
<stop offset="0.24" stop-color="#FEFB14"/>
<stop offset="0.72" stop-color="#FEF447"/>
<stop offset="1" stop-color="#FEEF69"/>
</linearGradient>
<linearGradient id="paint14_linear_831_197" x1="696.22" y1="1139.28" x2="696.22" y2="1049.4" gradientUnits="userSpaceOnUse">
<stop stop-color="#FFFF00"/>
<stop offset="0.24" stop-color="#FEFB14"/>
<stop offset="0.72" stop-color="#FEF447"/>
<stop offset="1" stop-color="#FEEF69"/>
</linearGradient>
<linearGradient id="paint15_linear_831_197" x1="609.446" y1="1140.94" x2="609.446" y2="1051.22" gradientUnits="userSpaceOnUse">
<stop stop-color="#FFFF00"/>
<stop offset="0.24" stop-color="#FEFB14"/>
<stop offset="0.72" stop-color="#FEF447"/>
<stop offset="1" stop-color="#FEEF69"/>
</linearGradient>
<linearGradient id="paint16_linear_831_197" x1="653.57" y1="1143.92" x2="653.57" y2="1039.54" gradientUnits="userSpaceOnUse">
<stop stop-color="#FFFF00"/>
<stop offset="0.24" stop-color="#FEFB14"/>
<stop offset="0.72" stop-color="#FEF447"/>
<stop offset="1" stop-color="#FEEF69"/>
</linearGradient>
<linearGradient id="paint17_linear_831_197" x1="694.4" y1="610.654" x2="694.4" y2="432.054" gradientUnits="userSpaceOnUse">
<stop stop-color="#101220"/>
<stop offset="0.42" stop-color="#111120"/>
<stop offset="0.57" stop-color="#181023"/>
<stop offset="0.68" stop-color="#240F28"/>
<stop offset="0.76" stop-color="#350D30"/>
<stop offset="0.84" stop-color="#4B0A39"/>
<stop offset="0.9" stop-color="#660745"/>
<stop offset="0.96" stop-color="#860352"/>
<stop offset="1" stop-color="#9E005D"/>
</linearGradient>
<linearGradient id="paint18_linear_831_197" x1="217.29" y1="619.645" x2="217.29" y2="441.035" gradientUnits="userSpaceOnUse">
<stop stop-color="#101220"/>
<stop offset="0.42" stop-color="#111120"/>
<stop offset="0.57" stop-color="#181023"/>
<stop offset="0.68" stop-color="#240F28"/>
<stop offset="0.76" stop-color="#350D30"/>
<stop offset="0.84" stop-color="#4B0A39"/>
<stop offset="0.9" stop-color="#660745"/>
<stop offset="0.96" stop-color="#860352"/>
<stop offset="1" stop-color="#9E005D"/>
</linearGradient>
</defs>
</svg>
