<svg width="1440" height="558" viewBox="0 0 1440 558" fill="none" xmlns="http://www.w3.org/2000/svg">
<g clip-path="url(#clip0_994_312)">
<path d="M11.8368 90.92C102.398 66.6542 195.483 120.397 219.749 210.958C227.471 239.775 227.29 268.847 220.542 295.876C261.541 316.363 293.913 353.643 306.708 401.396C330.428 489.918 277.895 580.907 189.373 604.627C119.422 623.37 47.9325 594.5 9.31015 537.883C-10.3223 560.623 -36.7468 577.919 -67.9524 586.281C-123.634 601.201 -180.359 583.879 -218.307 545.759C-237.003 564.61 -260.784 578.914 -288.278 586.281C-371.113 608.476 -456.257 559.319 -478.452 476.484C-500.647 393.65 -451.49 308.506 -368.655 286.31C-356.055 282.934 -343.401 281.211 -330.923 281.004C-317.791 227.875 -276.915 183.318 -220.313 168.151C-177.571 156.698 -134.213 164.243 -99.2069 185.61C-79.0463 140.586 -39.5281 104.683 11.8368 90.92Z" fill="white"/>
<path d="M1419.34 75.9584C1327.21 58.5531 1238.42 119.126 1221.01 211.252C1215.47 240.567 1217.83 269.543 1226.59 295.99C1187.24 319.494 1157.76 359.097 1148.58 407.675C1131.57 497.727 1190.78 584.52 1280.83 601.534C1351.99 614.978 1421.11 580.827 1455.38 521.473C1476.66 542.676 1504.31 557.942 1536.05 563.94C1592.7 574.642 1647.96 553.114 1682.94 512.256C1703 529.651 1727.79 542.131 1755.76 547.416C1840.02 563.336 1921.24 507.931 1937.16 423.665C1953.08 339.399 1897.68 258.182 1813.41 242.261C1800.59 239.84 1787.84 239.071 1775.39 239.8C1758.31 187.806 1714.2 146.439 1656.62 135.561C1613.14 127.346 1570.47 138.121 1537.17 162.054C1513.69 118.669 1471.59 85.8304 1419.34 75.9584Z" fill="white"/>
<path d="M436.98 115.032C488.914 115.032 534.169 143.627 557.861 185.93C573.625 179.691 590.808 176.262 608.791 176.262C675.8 176.262 731.688 223.866 744.488 287.099C766.479 308.441 780.144 338.313 780.145 371.377C780.145 436.234 727.567 488.812 662.71 488.812C641.789 488.812 622.147 483.34 605.134 473.751C580.532 496.164 547.823 509.831 511.92 509.831C467.713 509.831 428.344 489.112 402.995 456.856C379.003 476.809 348.164 488.812 314.52 488.812C238.054 488.812 176.066 426.824 176.065 350.359C176.065 277.169 232.855 217.246 304.773 212.244C322.325 155.921 374.878 115.033 436.98 115.032Z" fill="white"/>
<path d="M997.199 131.889C945.411 135.784 902.429 167.692 881.976 211.653C865.788 206.613 848.397 204.483 830.464 205.832C763.644 210.857 711.484 262.519 703.462 326.534C683.134 349.465 671.747 380.278 674.227 413.249C679.091 477.924 735.464 526.409 800.139 521.545C821.001 519.976 840.177 513.047 856.423 502.209C882.636 522.714 916.279 533.889 952.08 531.196C996.163 527.881 1033.87 504.267 1056.73 470.2C1082.15 488.299 1113.8 497.954 1147.35 495.431C1223.6 489.696 1280.76 423.234 1275.03 346.983C1269.54 274 1208.42 218.505 1136.32 218.911C1114.6 164.063 1059.13 127.231 997.199 131.889Z" fill="white"/>
<rect y="452" width="1440" height="174" fill="white"/>
</g>
<defs>
<clipPath id="clip0_994_312">
<rect width="1440" height="608" fill="white"/>
</clipPath>
</defs>
</svg>
