<svg width="2547" height="588" viewBox="0 0 2547 588" fill="none" xmlns="http://www.w3.org/2000/svg">
<g clip-path="url(#clip0_339_541)">
<path d="M553.837 52.9197C644.398 28.6539 737.483 82.3968 761.749 172.958C769.471 201.775 769.29 230.846 762.542 257.876C803.541 278.362 835.913 315.642 848.708 363.395C872.428 451.918 819.895 542.907 731.373 566.627C661.422 585.37 589.932 556.499 551.31 499.883C531.678 522.622 505.253 539.919 474.048 548.281C418.366 563.201 361.641 545.878 323.693 507.759C304.997 526.609 281.216 540.914 253.722 548.281C170.887 570.476 85.7434 521.318 63.5479 438.484C41.3525 355.649 90.5104 270.505 173.345 248.31C185.945 244.934 198.599 243.211 211.077 243.004C224.209 189.875 265.085 145.317 321.687 130.151C364.429 118.698 407.787 126.243 442.793 147.61C462.954 102.586 502.472 66.6829 553.837 52.9197Z" fill="white"/>
<path d="M1961.34 37.9582C1869.21 20.5529 1780.42 81.1258 1763.01 173.252C1757.47 202.567 1759.83 231.543 1768.59 257.99C1729.24 281.494 1699.76 321.097 1690.58 369.675C1673.57 459.727 1732.78 546.52 1822.83 563.533C1893.99 576.977 1963.11 542.827 1997.38 483.473C2018.66 504.676 2046.31 519.942 2078.05 525.94C2134.7 536.642 2189.96 515.114 2224.94 474.255C2245 491.651 2269.79 504.131 2297.76 509.415C2382.02 525.336 2463.24 469.93 2479.16 385.665C2495.08 301.399 2439.68 220.181 2355.41 204.261C2342.59 201.839 2329.85 201.07 2317.39 201.8C2300.31 149.806 2256.2 108.439 2198.62 97.5604C2155.14 89.3455 2112.47 100.121 2079.17 124.053C2055.69 80.6684 2013.59 47.8302 1961.34 37.9582Z" fill="white"/>
<path d="M978.98 77.0322C1030.91 77.0322 1076.17 105.627 1099.86 147.93C1115.63 141.691 1132.81 138.262 1150.79 138.262C1217.8 138.262 1273.69 185.865 1286.49 249.099C1308.48 270.441 1322.14 300.313 1322.14 333.377C1322.14 398.234 1269.57 450.812 1204.71 450.812C1183.79 450.812 1164.15 445.34 1147.13 435.751C1122.53 458.164 1089.82 471.831 1053.92 471.831C1009.71 471.831 970.344 451.112 944.995 418.855C921.003 438.809 890.164 450.812 856.52 450.812C780.054 450.811 718.066 388.824 718.065 312.358C718.065 239.169 774.855 179.246 846.773 174.244C864.325 117.92 916.878 77.0324 978.98 77.0322Z" fill="white"/>
<path d="M1539.2 93.8886C1487.41 97.7836 1444.43 129.692 1423.97 173.652C1407.79 168.613 1390.4 166.483 1372.46 167.831C1305.64 172.857 1253.48 224.518 1245.46 288.534C1225.13 311.465 1213.75 342.277 1216.23 375.249C1221.09 439.923 1277.46 488.409 1342.14 483.545C1363 481.976 1382.18 475.046 1398.42 464.209C1424.64 484.714 1458.28 495.889 1494.08 493.196C1538.16 489.88 1575.87 466.267 1598.72 432.2C1624.15 450.298 1655.8 459.954 1689.35 457.43C1765.6 451.695 1822.76 385.234 1817.03 308.983C1811.54 236 1750.41 180.504 1678.32 180.911C1656.6 126.062 1601.13 89.231 1539.2 93.8886Z" fill="white"/>
</g>
<defs>
<clipPath id="clip0_339_541">
<rect width="2547" height="588" fill="white"/>
</clipPath>
</defs>
</svg>
