<?xml version="1.0" encoding="UTF-8"?>
<svg xmlns="http://www.w3.org/2000/svg" id="Layer_1" data-name="Layer 1" viewBox="0 0 24 24">
  <path d="M11.994,3.212C6.644,3.212,1.155,4.343,1,12.323c.047,2.322,.562,5.382,1.607,6.983,.667,1.021,1.849,1.567,3.089,1.426,1.23-.14,2.254-.932,2.671-2.067,.6-1.639,1.757-2.41,3.625-2.424,1.845,.015,3.02,.829,3.643,2.472,.804,2.121,2.912,2.077,3.041,2.077,1.09,0,2.099-.53,2.696-1.438,1.06-1.607,1.581-4.688,1.628-7.067-.152-7.984-6.09-9.072-11.006-9.072ZM7.206,12.965l-.849-.849-.849,.849c-.39,.39-1.023,.391-1.414,0s-.39-1.024,0-1.414l.849-.849-.849-.849c-.391-.391-.39-1.024,0-1.414s1.023-.391,1.414,0l.849,.849,.849-.849c.39-.39,1.023-.391,1.414,0s.39,1.024,0,1.414l-.849,.849,.849,.849c.391,.391,.39,1.024,0,1.414s-1.023,.391-1.414,0Zm9.239-6.668c.831,0,1.505,.674,1.505,1.505s-.674,1.505-1.505,1.505-1.505-.674-1.505-1.505,.674-1.505,1.505-1.505Zm-2.895,5.909c-.831,0-1.505-.674-1.505-1.505s.674-1.505,1.505-1.505,1.505,.674,1.505,1.505-.674,1.505-1.505,1.505Zm2.895,2.9c-.831,0-1.505-.674-1.505-1.505s.674-1.505,1.505-1.505,1.505,.674,1.505,1.505-.674,1.505-1.505,1.505Zm2.895-2.9c-.831,0-1.505-.674-1.505-1.505s.674-1.505,1.505-1.505,1.505,.674,1.505,1.505-.674,1.505-1.505,1.505Z"/>
</svg>
