<svg width="700" height="500" viewBox="0 0 700 500" fill="none" xmlns="http://www.w3.org/2000/svg">
<path d="M39.86 101.88V226.7H75.74V197.18L125.82 255.47L169.54 209.13L93.3 163.92L163.94 102.63L123.57 57.04L74.25 138.88V100.01L39.86 101.88Z" fill="#8AFF00" stroke="#8AFF00" stroke-width="3" stroke-miterlimit="10"/>
<path d="M128.43 379.94H158.13V358.15L197.4 417.66L236.67 385.79L185.85 332.46L248.55 295.39L206.64 260.92L161.76 309.7V280.44H133.71L128.43 379.94Z" fill="#8AFF00" stroke="#8AFF00" stroke-width="3" stroke-miterlimit="10"/>
<path d="M223.36 114.96V131.4C223.36 131.4 186.36 83.95 127.69 166.16L162.07 187.83C162.07 187.83 173.65 147.85 188.23 146.34C202.8 144.85 205.42 163.9 205.42 163.9C205.42 163.9 158.71 176.12 180.29 208C199.06 235.75 230.45 201.64 230.45 201.64V217.71L252.88 213.6V106.72L223.36 114.93V114.96ZM202.05 193.06C193.42 181.78 216.08 178.34 216.08 178.34L220.04 184.97C220.04 184.97 209.92 203.35 202.05 193.06Z" fill="#8AFF00" stroke="#8AFF00" stroke-width="3" stroke-miterlimit="10"/>
<path d="M263.71 109.73V215.11L286.88 204.28V154.57H302.58V211L329.11 213.62V115.33L263.71 109.73Z" fill="#8AFF00" stroke="#8AFF00" stroke-width="3" stroke-miterlimit="10"/>
<path d="M401.61 115.7V138.5C401.61 138.5 386.48 96.83 339.48 114.11V159.24C339.48 159.24 384.05 118.88 386.56 161.21C386.56 161.21 329 156.96 344.43 200.17C355.65 231.56 400.02 199.33 400.02 199.33V213.63H429.17V111.22L401.61 115.71V115.7ZM372.57 182.55C372.07 175.81 389.89 175.78 389.89 175.78L392.18 182.12C383.04 190.8 373.33 192.91 372.57 182.55Z" fill="#8AFF00" stroke="#8AFF00" stroke-width="3" stroke-miterlimit="10"/>
<path d="M443.47 110.48V214.74H473.36L470.37 159.8H490.93L489.06 214.74H518.21V121.31L443.47 110.48Z" fill="#8AFF00" stroke="#8AFF00" stroke-width="3" stroke-miterlimit="10"/>
<path d="M343.13 296.58L285.39 297.7L304.17 361.17L284.25 363.43L263.52 304.42L210.83 336.93C210.83 336.93 266.76 403.93 297.79 405.48C339.2 407.56 344.96 349.96 343.12 296.57L343.13 296.58Z" fill="#8AFF00" stroke="#8AFF00" stroke-width="3" stroke-miterlimit="10"/>
<path d="M451.32 406.17L455.8 293.5L428.41 297.08V308.13C428.41 308.13 402.55 279.77 354.34 298.82L353.22 337.5C353.22 337.5 400.31 301.62 391.58 337.23C391.58 337.23 326.32 360.41 361.63 399.44C396.94 438.46 421.29 371.05 421.29 371.05V411.7L451.32 406.16V406.17ZM391.78 376.31C382.17 371.75 381.26 363.74 401.47 352.25L405.55 355.76C405.55 355.76 401.39 380.85 391.77 376.31H391.78Z" fill="#8AFF00" stroke="#8AFF00" stroke-width="3" stroke-miterlimit="10"/>
<path d="M467.8 292.75V394.7L498.49 398.11L493.05 344.95H517.8L516.31 397.14L549.97 390.8V291.78L467.8 292.75Z" fill="#8AFF00" stroke="#8AFF00" stroke-width="3" stroke-miterlimit="10"/>
<path d="M74.61 246.88V264.5L46.59 255.1L74.61 246.88Z" fill="#8AFF00" stroke="#8AFF00" stroke-width="3" stroke-miterlimit="10"/>
<path d="M651.43 80.21L595.37 95.9L603.22 107.67C570.71 109.91 532.59 98.7 533.72 167.09C534.83 235.48 598.74 191.76 598.74 191.76C598.74 191.76 603.04 222.57 520.83 223.15L141.99 229.2L162.16 239.5L138.62 255.48L163.01 266.69L137.44 283.69C177.79 283.64 424.61 283.18 543.82 277.53C673.88 271.36 651.45 80.21 651.45 80.21H651.43ZM598.24 156.48C570.71 176.25 572.57 164.11 570.04 153.07C566.61 138.13 599.75 144.12 599.75 144.12L598.23 156.48H598.24Z" fill="#8AFF00" stroke="#8AFF00" stroke-width="3" stroke-miterlimit="10"/>
<path d="M163 266.69L137.43 283.69H131.8L74.62 264.5V246.89L134.6 229.33L142 229.21L162.17 239.51L138.63 255.49L163.02 266.7L163 266.69Z" fill="white" stroke="#8AFF00" stroke-width="3" stroke-miterlimit="10"/>
</svg>
