<svg width="406" height="406" viewBox="0 0 406 406" fill="none" xmlns="http://www.w3.org/2000/svg">
<path d="M52.7151 96.2707V274.164H103.847V232.086L175.222 315.178L237.534 249.13L128.881 184.681L229.544 97.3344L172.022 32.3582L101.719 149.002V93.6073L52.7151 96.2707Z" fill="#FD14BB" stroke="#FD14BB" stroke-width="3" stroke-miterlimit="10"/>
<path d="M320.082 319.969V284.273L256.706 381.746L193.329 329.55L275.341 242.203L174.15 181.49L171.031 176.042L185.331 177.325L179.143 149.002L208.781 152.729L202.805 123.026L233.206 127.508L232.143 120.452L241.789 125.032L314.228 204.924V156.984H359.505L368.023 319.969H320.082Z" fill="#FD14BB" stroke="#FD14BB" stroke-width="3" stroke-miterlimit="10"/>
<path d="M137.845 75.5891L124.634 94.7686L104.659 59.7876L137.845 75.5891Z" fill="#FD14BB" stroke="#FD14BB" stroke-width="3" stroke-miterlimit="10"/>
<path d="M208.781 152.729L179.143 149.002L185.331 177.325L171.031 176.042L124.634 94.7686L137.845 75.5891L232.143 120.452L233.206 127.508L202.805 123.026L208.781 152.729Z" fill="white" stroke="#FD14BB" stroke-width="3" stroke-miterlimit="10"/>
</svg>
