<svg xmlns="http://www.w3.org/2000/svg" xmlns:xlink="http://www.w3.org/1999/xlink" width="200" zoomAndPan="magnify" viewBox="0 0 150 149.999998" height="200" preserveAspectRatio="xMidYMid meet" version="1.0"><defs><clipPath id="944211b449"><path d="M 62 129 L 88 129 L 88 137.375 L 62 137.375 Z M 62 129 " clip-rule="nonzero"/></clipPath><clipPath id="87d81280ee"><path d="M 36.5625 12.875 L 113.8125 12.875 L 113.8125 109 L 36.5625 109 Z M 36.5625 12.875 " clip-rule="nonzero"/></clipPath></defs><g clip-path="url(#944211b449)"><path fill="#e4ff00" d="M 62.0625 129.433594 C 64.558594 134.011719 69.414062 137.117188 75 137.117188 C 80.582031 137.117188 85.4375 134.011719 87.9375 129.433594 Z M 62.0625 129.433594 " fill-opacity="1" fill-rule="nonzero"/></g><g clip-path="url(#87d81280ee)"><path fill="#e4ff00" d="M 89.085938 108.941406 C 91.648438 108.941406 94.210938 106.378906 94.210938 103.816406 C 94.210938 82.042969 113.425781 79.085938 113.425781 51.300781 C 113.425781 30.078125 96.21875 12.875 75 12.875 C 53.777344 12.875 36.574219 30.078125 36.574219 51.300781 C 36.574219 79.085938 55.785156 82.042969 55.785156 103.816406 C 55.785156 106.378906 58.347656 108.941406 60.910156 108.941406 Z M 89.085938 108.941406 " fill-opacity="1" fill-rule="nonzero"/></g><path fill="#e4ff00" d="M 91.648438 119.1875 C 91.648438 121.300781 89.921875 123.027344 87.808594 123.027344 L 62.191406 123.027344 C 60.078125 123.027344 58.347656 121.300781 58.347656 119.1875 C 58.347656 117.074219 60.078125 115.34375 62.191406 115.34375 L 87.808594 115.34375 C 89.921875 115.34375 91.648438 117.074219 91.648438 119.1875 Z M 91.648438 119.1875 " fill-opacity="1" fill-rule="nonzero"/></svg>