<svg xmlns="http://www.w3.org/2000/svg" xmlns:xlink="http://www.w3.org/1999/xlink" width="1920" zoomAndPan="magnify" viewBox="0 0 1440 809.999993" height="1080" preserveAspectRatio="xMidYMid meet" version="1.0"><defs><clipPath id="123b7cca30"><path d="M 0 286.277344 L 533 286.277344 L 533 799 L 0 799 Z M 0 286.277344 " clip-rule="nonzero"/></clipPath><clipPath id="7b03a523e2"><path d="M 103 475.476562 L 763.515625 475.476562 L 763.515625 810 L 103 810 Z M 103 475.476562 " clip-rule="nonzero"/></clipPath><clipPath id="f4a5c8df50"><path d="M 1 0.476562 L 660.515625 0.476562 L 660.515625 335 L 1 335 Z M 1 0.476562 " clip-rule="nonzero"/></clipPath><clipPath id="c77cd561f6"><rect x="0" width="661" y="0" height="335"/></clipPath><clipPath id="f0e6fdfc3f"><path d="M 968 297.765625 L 1440 297.765625 L 1440 810 L 968 810 Z M 968 297.765625 " clip-rule="nonzero"/></clipPath><clipPath id="a3dec579ee"><path d="M 2 1 L 472 1 L 472 513 L 2 513 Z M 2 1 " clip-rule="nonzero"/></clipPath><clipPath id="3266a6f540"><rect x="0" width="472" y="0" height="513"/></clipPath><clipPath id="97d39dc658"><path d="M 751 475.476562 L 1386.0625 475.476562 L 1386.0625 810 L 751 810 Z M 751 475.476562 " clip-rule="nonzero"/></clipPath><clipPath id="cba8b311c1"><path d="M 1 0.476562 L 635.0625 0.476562 L 635.0625 335 L 1 335 Z M 1 0.476562 " clip-rule="nonzero"/></clipPath><clipPath id="8c5b5a3d7f"><rect x="0" width="636" y="0" height="335"/></clipPath><clipPath id="a96615e65e"><path d="M 488 515.117188 L 1045.136719 515.117188 L 1045.136719 810 L 488 810 Z M 488 515.117188 " clip-rule="nonzero"/></clipPath><clipPath id="8a05b32aa0"><path d="M 1 0.117188 L 556.949219 0.117188 L 556.949219 295 L 1 295 Z M 1 0.117188 " clip-rule="nonzero"/></clipPath><clipPath id="113e332bad"><rect x="0" width="558" y="0" height="295"/></clipPath><clipPath id="c84a69e7b0"><path d="M 0 564.894531 L 482.355469 564.894531 L 482.355469 810 L 0 810 Z M 0 564.894531 " clip-rule="nonzero"/></clipPath><clipPath id="81d7339f1c"><path d="M 0 1 L 482.355469 1 L 482.355469 246 L 0 246 Z M 0 1 " clip-rule="nonzero"/></clipPath><clipPath id="c8b52a593e"><rect x="0" width="483" y="0" height="246"/></clipPath></defs><g clip-path="url(#123b7cca30)"><path fill="#ffffff" d="M 530.378906 554.957031 C 522.34375 508.695312 477.21875 482.214844 435.570312 472.683594 C 426.3125 470.558594 417.214844 469.277344 408.742188 468.804688 C 404.277344 468.546875 399.976562 468.527344 395.914062 468.710938 C 389.527344 444.867188 375.144531 423.878906 355.492188 408.195312 C 348.519531 402.597656 340.871094 397.691406 332.675781 393.574219 C 314.0625 384.1875 292.632812 378.84375 269.816406 378.84375 C 268.792969 378.84375 267.765625 378.898438 266.742188 378.917969 C 253.933594 326.089844 202.074219 286.542969 140 286.542969 C 107.59375 286.542969 77.96875 297.339844 55.222656 315.164062 C 48.066406 320.78125 41.589844 327.09375 35.933594 333.992188 C 27.738281 343.964844 21.222656 355.164062 16.8125 367.222656 C -4.195312 353.957031 -29.703125 346.144531 -57.226562 346.144531 C -127.605469 346.144531 -184.882812 396.980469 -186.984375 460.402344 C -187.023438 461.59375 -187.042969 462.78125 -187.042969 463.988281 C -188.835938 463.570312 -190.644531 463.183594 -192.476562 462.835938 L -192.496094 462.835938 C -201.3125 461.097656 -210.445312 460.203125 -219.832031 460.203125 C -230.484375 460.203125 -240.839844 461.375 -250.742188 463.570312 L -250.757812 463.570312 C -258.644531 465.308594 -266.238281 467.722656 -273.484375 470.726562 L -273.503906 470.726562 C -305.070312 483.753906 -329.847656 507.871094 -341.816406 537.609375 L -341.816406 537.625 C -344.359375 543.957031 -346.316406 550.546875 -347.652344 557.335938 C -348.96875 564.050781 -349.648438 570.96875 -349.648438 578.03125 C -349.648438 590.765625 -347.414062 603.046875 -343.296875 614.539062 L -330.726562 639.296875 C -315.464844 662.042969 -291.914062 679.71875 -263.878906 688.886719 C -261.480469 689.675781 -259.046875 690.40625 -256.578125 691.066406 C -255.847656 698.878906 -254.289062 706.472656 -251.964844 713.773438 C -243.273438 741.222656 -223.859375 764.574219 -198.113281 779.835938 C -191.359375 783.839844 -184.167969 787.28125 -176.609375 790.097656 C -161.402344 795.789062 -144.734375 798.921875 -127.277344 798.921875 C -96.222656 798.921875 -67.730469 789 -45.386719 772.476562 C -44.839844 772.074219 -44.289062 771.671875 -43.742188 771.25 C -36.660156 776.667969 -28.917969 781.425781 -20.648438 785.378906 C -2.605469 794.015625 17.964844 798.921875 39.796875 798.921875 C 63.75 798.921875 86.183594 793.007812 105.453125 782.726562 C 110.941406 779.796875 116.15625 776.523438 121.097656 772.917969 C 124.757812 775.589844 128.582031 778.09375 132.554688 780.402344 C 152.71875 792.113281 176.691406 798.921875 202.402344 798.921875 C 221.761719 798.921875 243.082031 796.15625 263.742188 790.757812 C 270.074219 789.113281 276.332031 787.226562 282.460938 785.085938 C 324.402344 770.5 359.976562 744.699219 365.191406 709.179688 C 378.953125 710.882812 393.773438 710.296875 408.726562 707.550781 C 417.671875 705.921875 426.675781 703.527344 435.496094 700.359375 C 492.808594 679.976562 543.132812 628.519531 530.378906 554.957031 Z M 530.378906 554.957031 " fill-opacity="1" fill-rule="nonzero"/></g><g clip-path="url(#7b03a523e2)"><g transform="matrix(1, 0, 0, 1, 103, 475)"><g clip-path="url(#c77cd561f6)"><g clip-path="url(#f4a5c8df50)"><path fill="#ffffff" d="M 3.320312 201.207031 C 9.324219 166.644531 43.035156 146.863281 74.152344 139.742188 C 81.070312 138.15625 87.863281 137.199219 94.195312 136.84375 C 97.527344 136.652344 100.742188 136.636719 103.777344 136.773438 C 108.546875 118.960938 119.292969 103.28125 133.976562 91.5625 C 139.1875 87.378906 144.898438 83.714844 151.023438 80.640625 C 164.929688 73.628906 180.9375 69.636719 197.984375 69.636719 C 198.75 69.636719 199.515625 69.675781 200.28125 69.691406 C 209.851562 30.222656 248.597656 0.675781 294.96875 0.675781 C 319.179688 0.675781 341.3125 8.742188 358.308594 22.058594 C 363.652344 26.257812 368.492188 30.972656 372.71875 36.125 C 378.84375 43.578125 383.710938 51.945312 387.003906 60.953125 C 402.699219 51.042969 421.757812 45.203125 442.316406 45.203125 C 494.898438 45.203125 537.6875 83.183594 539.261719 130.566406 C 539.289062 131.457031 539.300781 132.34375 539.300781 133.246094 C 540.640625 132.933594 541.996094 132.644531 543.363281 132.386719 L 543.375 132.386719 C 549.964844 131.085938 556.789062 130.417969 563.800781 130.417969 C 571.757812 130.417969 579.496094 131.292969 586.890625 132.933594 L 586.90625 132.933594 C 592.796875 134.230469 598.46875 136.035156 603.882812 138.277344 L 603.898438 138.277344 C 627.480469 148.011719 645.992188 166.03125 654.933594 188.246094 L 654.933594 188.261719 C 656.832031 192.992188 658.296875 197.914062 659.292969 202.984375 C 660.277344 208.003906 660.785156 213.167969 660.785156 218.445312 C 660.785156 227.960938 659.117188 237.136719 656.039062 245.71875 L 646.648438 264.21875 C 635.246094 281.210938 617.652344 294.417969 596.707031 301.265625 C 594.914062 301.855469 593.097656 302.402344 591.253906 302.894531 C 590.707031 308.730469 589.542969 314.40625 587.808594 319.859375 C 581.3125 340.367188 566.808594 357.8125 547.574219 369.214844 C 542.527344 372.207031 537.15625 374.777344 531.507812 376.882812 C 520.148438 381.132812 507.695312 383.472656 494.652344 383.472656 C 471.453125 383.472656 450.164062 376.0625 433.472656 363.71875 C 433.0625 363.417969 432.652344 363.117188 432.242188 362.800781 C 426.949219 366.847656 421.167969 370.402344 414.988281 373.355469 C 401.507812 379.808594 386.140625 383.472656 369.832031 383.472656 C 351.9375 383.472656 335.175781 379.054688 320.78125 371.375 C 316.679688 369.1875 312.78125 366.738281 309.089844 364.046875 C 306.355469 366.042969 303.5 367.914062 300.535156 369.636719 C 285.46875 378.386719 267.558594 383.472656 248.351562 383.472656 C 233.886719 383.472656 217.957031 381.40625 202.523438 377.375 C 197.792969 376.144531 193.117188 374.734375 188.539062 373.136719 C 157.203125 362.242188 130.628906 342.964844 126.730469 316.429688 C 116.449219 317.699219 105.375 317.261719 94.207031 315.210938 C 87.523438 313.996094 80.796875 312.203125 74.207031 309.839844 C 31.386719 294.609375 -6.207031 256.164062 3.320312 201.207031 Z M 3.320312 201.207031 " fill-opacity="1" fill-rule="nonzero"/></g></g></g></g><g clip-path="url(#f0e6fdfc3f)"><g transform="matrix(1, 0, 0, 1, 968, 297)"><g clip-path="url(#3266a6f540)"><g clip-path="url(#a3dec579ee)"><path fill="#ffffff" d="M 4.753906 316.1875 C 14.183594 261.878906 67.160156 230.792969 116.054688 219.597656 C 126.925781 217.105469 137.605469 215.601562 147.550781 215.042969 C 152.792969 214.742188 157.839844 214.722656 162.609375 214.9375 C 170.105469 186.945312 186.992188 162.304688 210.066406 143.894531 C 218.25 137.320312 227.230469 131.5625 236.855469 126.730469 C 258.703125 115.707031 283.859375 109.433594 310.648438 109.433594 C 311.851562 109.433594 313.054688 109.5 314.257812 109.519531 C 329.296875 47.5 390.175781 1.074219 463.046875 1.074219 C 501.09375 1.074219 535.875 13.75 562.578125 34.675781 C 570.976562 41.269531 578.582031 48.679688 585.21875 56.78125 C 594.84375 68.488281 602.492188 81.636719 607.671875 95.792969 C 632.332031 80.21875 662.28125 71.046875 694.589844 71.046875 C 777.210938 71.046875 844.453125 130.722656 846.925781 205.183594 C 846.96875 206.582031 846.988281 207.976562 846.988281 209.394531 C 849.09375 208.902344 851.21875 208.449219 853.367188 208.042969 L 853.390625 208.042969 C 863.746094 206 874.464844 204.949219 885.484375 204.949219 C 897.988281 204.949219 910.148438 206.324219 921.769531 208.902344 L 921.792969 208.902344 C 931.050781 210.941406 939.964844 213.777344 948.472656 217.300781 L 948.496094 217.300781 C 985.554688 232.597656 1014.640625 260.910156 1028.691406 295.820312 L 1028.691406 295.839844 C 1031.675781 303.273438 1033.976562 311.007812 1035.542969 318.980469 C 1037.089844 326.863281 1037.886719 334.984375 1037.886719 343.277344 C 1037.886719 358.226562 1035.265625 372.644531 1030.429688 386.132812 L 1015.671875 415.199219 C 997.753906 441.902344 970.109375 462.65625 937.195312 473.417969 C 934.378906 474.34375 931.523438 475.203125 928.625 475.976562 C 927.765625 485.148438 925.9375 494.0625 923.210938 502.636719 C 913.003906 534.859375 890.210938 562.273438 859.984375 580.1875 C 852.058594 584.894531 843.617188 588.933594 834.742188 592.242188 C 816.890625 598.921875 797.320312 602.59375 776.824219 602.59375 C 740.371094 602.59375 706.921875 590.953125 680.691406 571.550781 C 680.046875 571.078125 679.402344 570.609375 678.757812 570.113281 C 670.441406 576.472656 661.355469 582.058594 651.644531 586.699219 C 630.464844 596.839844 606.316406 602.59375 580.6875 602.59375 C 552.566406 602.59375 526.226562 595.65625 503.609375 583.582031 C 497.164062 580.144531 491.039062 576.300781 485.238281 572.066406 C 480.941406 575.203125 476.453125 578.148438 471.792969 580.855469 C 448.117188 594.605469 419.972656 602.59375 389.789062 602.59375 C 367.0625 602.59375 342.035156 599.351562 317.78125 593.015625 C 310.347656 591.082031 303 588.867188 295.804688 586.355469 C 246.5625 569.230469 204.800781 538.941406 198.679688 497.242188 C 182.523438 499.242188 165.125 498.554688 147.570312 495.332031 C 137.066406 493.417969 126.496094 490.605469 116.140625 486.886719 C 48.859375 462.957031 -10.21875 402.546875 4.753906 316.1875 Z M 4.753906 316.1875 " fill-opacity="1" fill-rule="nonzero"/></g></g></g></g><g clip-path="url(#97d39dc658)"><g transform="matrix(1, 0, 0, 1, 751, 475)"><g clip-path="url(#8c5b5a3d7f)"><g clip-path="url(#cba8b311c1)"><path fill="#ffffff" d="M 3.003906 193.542969 C 8.777344 160.300781 41.203125 141.273438 71.132812 134.421875 C 77.785156 132.894531 84.320312 131.976562 90.410156 131.632812 C 93.617188 131.449219 96.707031 131.4375 99.628906 131.566406 C 104.214844 114.433594 114.550781 99.351562 128.675781 88.082031 C 133.683594 84.058594 139.179688 80.535156 145.070312 77.574219 C 158.445312 70.828125 173.84375 66.988281 190.242188 66.988281 C 190.976562 66.988281 191.714844 67.027344 192.449219 67.042969 C 201.65625 29.078125 238.921875 0.664062 283.523438 0.664062 C 306.8125 0.664062 328.101562 8.421875 344.445312 21.230469 C 349.585938 25.265625 354.242188 29.804688 358.304688 34.761719 C 364.195312 41.925781 368.878906 49.972656 372.046875 58.640625 C 387.140625 49.105469 405.472656 43.492188 425.25 43.492188 C 475.824219 43.492188 516.980469 80.019531 518.492188 125.597656 C 518.519531 126.453125 518.53125 127.308594 518.53125 128.175781 C 519.820312 127.871094 521.121094 127.597656 522.4375 127.347656 L 522.449219 127.347656 C 528.789062 126.097656 535.351562 125.453125 542.097656 125.453125 C 549.75 125.453125 557.191406 126.292969 564.304688 127.871094 L 564.320312 127.871094 C 569.988281 129.121094 575.445312 130.855469 580.652344 133.015625 L 580.664062 133.015625 C 603.347656 142.375 621.152344 159.707031 629.75 181.074219 L 629.75 181.089844 C 631.578125 185.636719 632.984375 190.371094 633.945312 195.25 C 634.890625 200.078125 635.378906 205.046875 635.378906 210.121094 C 635.378906 219.273438 633.773438 228.097656 630.816406 236.355469 L 621.78125 254.148438 C 610.816406 270.492188 593.894531 283.195312 573.746094 289.78125 C 572.023438 290.347656 570.277344 290.875 568.5 291.347656 C 567.976562 296.960938 566.855469 302.417969 565.1875 307.664062 C 558.941406 327.390625 544.988281 344.167969 526.488281 355.136719 C 521.636719 358.015625 516.46875 360.488281 511.035156 362.511719 C 500.109375 366.601562 488.128906 368.851562 475.585938 368.851562 C 453.273438 368.851562 432.796875 361.722656 416.742188 349.851562 C 416.347656 349.5625 415.953125 349.269531 415.558594 348.96875 C 410.46875 352.859375 404.90625 356.28125 398.964844 359.121094 C 386 365.328125 371.21875 368.851562 355.53125 368.851562 C 338.316406 368.851562 322.195312 364.605469 308.351562 357.214844 C 304.40625 355.109375 300.65625 352.753906 297.105469 350.164062 C 294.476562 352.085938 291.730469 353.886719 288.875 355.542969 C 274.386719 363.960938 257.160156 368.851562 238.683594 368.851562 C 224.773438 368.851562 209.453125 366.867188 194.605469 362.984375 C 190.054688 361.800781 185.558594 360.449219 181.152344 358.910156 C 151.015625 348.429688 125.453125 329.890625 121.707031 304.367188 C 111.816406 305.589844 101.167969 305.167969 90.421875 303.195312 C 83.992188 302.023438 77.523438 300.300781 71.183594 298.027344 C 30 283.378906 -6.160156 246.402344 3.003906 193.542969 Z M 3.003906 193.542969 " fill-opacity="1" fill-rule="nonzero"/></g></g></g></g><g clip-path="url(#a96615e65e)"><g transform="matrix(1, 0, 0, 1, 488, 515)"><g clip-path="url(#113e332bad)"><g clip-path="url(#8a05b32aa0)"><path fill="#ffffff" d="M 2.691406 169.335938 C 7.75 140.203125 36.171875 123.523438 62.402344 117.519531 C 68.234375 116.183594 73.964844 115.375 79.300781 115.078125 C 82.113281 114.914062 84.820312 114.902344 87.378906 115.019531 C 91.402344 100.003906 100.460938 86.78125 112.835938 76.90625 C 117.230469 73.378906 122.046875 70.289062 127.210938 67.695312 C 138.929688 61.785156 152.425781 58.417969 166.796875 58.417969 C 167.445312 58.417969 168.089844 58.453125 168.734375 58.464844 C 176.800781 25.191406 209.464844 0.285156 248.558594 0.285156 C 268.96875 0.285156 287.628906 7.085938 301.953125 18.3125 C 306.460938 21.851562 310.539062 25.824219 314.101562 30.171875 C 319.265625 36.453125 323.367188 43.503906 326.144531 51.101562 C 339.375 42.746094 355.441406 37.824219 372.777344 37.824219 C 417.101562 37.824219 453.175781 69.839844 454.5 109.785156 C 454.523438 110.535156 454.535156 111.285156 454.535156 112.046875 C 455.664062 111.78125 456.804688 111.539062 457.957031 111.320312 L 457.96875 111.320312 C 463.523438 110.226562 469.277344 109.660156 475.1875 109.660156 C 481.894531 109.660156 488.417969 110.398438 494.65625 111.78125 L 494.664062 111.78125 C 499.632812 112.875 504.417969 114.398438 508.980469 116.289062 L 508.992188 116.289062 C 528.871094 124.492188 544.476562 139.683594 552.015625 158.410156 L 552.015625 158.421875 C 553.617188 162.410156 554.851562 166.558594 555.691406 170.835938 C 556.519531 175.066406 556.949219 179.421875 556.949219 183.871094 C 556.949219 191.890625 555.542969 199.625 552.949219 206.863281 L 545.03125 222.457031 C 535.417969 236.78125 520.585938 247.917969 502.929688 253.691406 C 501.417969 254.1875 499.886719 254.648438 498.332031 255.0625 C 497.871094 259.984375 496.890625 264.765625 495.425781 269.363281 C 489.953125 286.652344 477.722656 301.359375 461.507812 310.96875 C 457.253906 313.496094 452.726562 315.660156 447.964844 317.4375 C 438.386719 321.019531 427.890625 322.992188 416.894531 322.992188 C 397.335938 322.992188 379.390625 316.746094 365.320312 306.335938 C 364.972656 306.082031 364.628906 305.832031 364.28125 305.566406 C 359.820312 308.976562 354.945312 311.972656 349.738281 314.460938 C 338.375 319.902344 325.417969 322.992188 311.667969 322.992188 C 296.582031 322.992188 282.453125 319.269531 270.316406 312.792969 C 266.859375 310.945312 263.574219 308.882812 260.464844 306.613281 C 258.15625 308.296875 255.75 309.875 253.25 311.328125 C 240.546875 318.703125 225.449219 322.992188 209.257812 322.992188 C 197.0625 322.992188 183.636719 321.25 170.625 317.851562 C 166.636719 316.8125 162.695312 315.625 158.835938 314.277344 C 132.417969 305.09375 110.015625 288.84375 106.730469 266.472656 C 98.0625 267.542969 88.726562 267.175781 79.308594 265.445312 C 73.675781 264.421875 68.003906 262.910156 62.449219 260.917969 C 26.351562 248.078125 -5.339844 215.667969 2.691406 169.335938 Z M 2.691406 169.335938 " fill-opacity="1" fill-rule="nonzero"/></g></g></g></g><g clip-path="url(#c84a69e7b0)"><g transform="matrix(1, 0, 0, 1, 0, 564)"><g clip-path="url(#c8b52a593e)"><g clip-path="url(#81d7339f1c)"><path fill="#ffffff" d="M -174.835938 201.625 C -168.835938 167.0625 -135.121094 147.28125 -104.007812 140.160156 C -97.089844 138.574219 -90.292969 137.617188 -83.964844 137.261719 C -80.628906 137.070312 -77.417969 137.054688 -74.382812 137.191406 C -69.609375 119.378906 -58.863281 103.699219 -44.179688 91.980469 C -38.972656 87.796875 -33.257812 84.132812 -27.132812 81.058594 C -13.230469 74.046875 2.78125 70.054688 19.828125 70.054688 C 20.59375 70.054688 21.359375 70.09375 22.125 70.109375 C 31.695312 30.640625 70.4375 1.09375 116.8125 1.09375 C 141.023438 1.09375 163.15625 9.160156 180.148438 22.476562 C 185.496094 26.675781 190.335938 31.390625 194.558594 36.542969 C 200.683594 43.996094 205.550781 52.363281 208.847656 61.371094 C 224.539062 51.460938 243.597656 45.621094 264.160156 45.621094 C 316.738281 45.621094 359.53125 83.601562 361.101562 130.984375 C 361.128906 131.875 361.144531 132.761719 361.144531 133.664062 C 362.484375 133.351562 363.835938 133.0625 365.203125 132.804688 L 365.21875 132.804688 C 371.804688 131.503906 378.628906 130.835938 385.640625 130.835938 C 393.597656 130.835938 401.335938 131.710938 408.734375 133.351562 L 408.746094 133.351562 C 414.640625 134.648438 420.3125 136.453125 425.726562 138.695312 L 425.738281 138.695312 C 449.324219 148.429688 467.832031 166.449219 476.773438 188.664062 L 476.773438 188.679688 C 478.675781 193.410156 480.136719 198.332031 481.136719 203.402344 C 482.121094 208.417969 482.625 213.585938 482.625 218.863281 C 482.625 228.378906 480.957031 237.554688 477.882812 246.136719 L 468.488281 264.636719 C 457.085938 281.628906 439.492188 294.835938 418.546875 301.683594 C 416.757812 302.273438 414.941406 302.820312 413.09375 303.3125 C 412.546875 309.148438 411.386719 314.824219 409.648438 320.277344 C 403.15625 340.785156 388.648438 358.230469 369.414062 369.632812 C 364.371094 372.625 358.996094 375.195312 353.351562 377.300781 C 341.988281 381.550781 329.535156 383.890625 316.492188 383.890625 C 293.292969 383.890625 272.007812 376.480469 255.3125 364.136719 C 254.902344 363.835938 254.492188 363.535156 254.082031 363.21875 C 248.792969 367.265625 243.011719 370.820312 236.832031 373.773438 C 223.351562 380.226562 207.984375 383.890625 191.675781 383.890625 C 173.777344 383.890625 157.019531 379.472656 142.621094 371.792969 C 138.519531 369.605469 134.625 367.15625 130.933594 364.464844 C 128.199219 366.460938 125.34375 368.332031 122.375 370.054688 C 107.308594 378.804688 89.398438 383.890625 70.191406 383.890625 C 55.726562 383.890625 39.800781 381.824219 24.367188 377.792969 C 19.636719 376.5625 14.960938 375.152344 10.378906 373.554688 C -20.953125 362.660156 -47.53125 343.382812 -51.425781 316.847656 C -61.707031 318.117188 -72.78125 317.679688 -83.953125 315.628906 C -90.636719 314.414062 -97.363281 312.621094 -103.953125 310.257812 C -146.769531 295.027344 -184.367188 256.582031 -174.835938 201.625 Z M -174.835938 201.625 " fill-opacity="1" fill-rule="nonzero"/></g></g></g></g></svg>