<svg xmlns="http://www.w3.org/2000/svg" xmlns:xlink="http://www.w3.org/1999/xlink" width="1920" zoomAndPan="magnify" viewBox="0 0 1440 809.999993" height="1080" preserveAspectRatio="xMidYMid meet" version="1.0"><defs><clipPath id="d7c1771da1"><path d="M 1155 574.835938 L 1440 574.835938 L 1440 810 L 1155 810 Z M 1155 574.835938 " clip-rule="nonzero"/></clipPath><clipPath id="88cb6990a5"><path d="M 1 1 L 285 1 L 285 236 L 1 236 Z M 1 1 " clip-rule="nonzero"/></clipPath><clipPath id="bb71d17bc6"><rect x="0" width="285" y="0" height="236"/></clipPath><clipPath id="ed6ec79c0b"><path d="M 812 709.855469 L 1342.332031 709.855469 L 1342.332031 810 L 812 810 Z M 812 709.855469 " clip-rule="nonzero"/></clipPath><clipPath id="b06dd68a0d"><path d="M 2 1 L 530.332031 1 L 530.332031 101 L 2 101 Z M 2 1 " clip-rule="nonzero"/></clipPath><clipPath id="1cfabb0d73"><rect x="0" width="531" y="0" height="101"/></clipPath></defs><g clip-path="url(#d7c1771da1)"><g transform="matrix(1, 0, 0, 1, 1155, 574)"><g clip-path="url(#bb71d17bc6)"><g clip-path="url(#88cb6990a5)"><path fill="#ffffff" d="M 3.308594 198.0625 C 9.207031 164.105469 42.332031 144.667969 72.90625 137.667969 C 79.703125 136.113281 86.378906 135.171875 92.597656 134.824219 C 95.875 134.632812 99.03125 134.621094 102.011719 134.753906 C 106.703125 117.253906 117.261719 101.84375 131.6875 90.332031 C 136.804688 86.222656 142.417969 82.621094 148.4375 79.601562 C 162.097656 72.710938 177.828125 68.785156 194.578125 68.785156 C 195.332031 68.785156 196.082031 68.828125 196.835938 68.839844 C 206.238281 30.058594 244.308594 1.03125 289.871094 1.03125 C 313.660156 1.03125 335.40625 8.957031 352.105469 22.039062 C 357.355469 26.164062 362.113281 30.800781 366.261719 35.863281 C 372.28125 43.183594 377.0625 51.40625 380.300781 60.257812 C 395.71875 50.519531 414.445312 44.78125 434.648438 44.78125 C 486.3125 44.78125 528.355469 82.097656 529.898438 128.65625 C 529.925781 129.53125 529.941406 130.402344 529.941406 131.289062 C 531.257812 130.980469 532.585938 130.699219 533.929688 130.441406 L 533.941406 130.441406 C 540.417969 129.167969 547.121094 128.507812 554.011719 128.507812 C 561.828125 128.507812 569.433594 129.367188 576.699219 130.980469 L 576.710938 130.980469 C 582.503906 132.257812 588.078125 134.03125 593.394531 136.234375 L 593.410156 136.234375 C 616.582031 145.796875 634.769531 163.5 643.554688 185.328125 L 643.554688 185.34375 C 645.421875 189.992188 646.859375 194.828125 647.839844 199.808594 C 648.804688 204.738281 649.304688 209.816406 649.304688 215.003906 C 649.304688 224.351562 647.664062 233.363281 644.640625 241.800781 L 635.414062 259.976562 C 624.210938 276.671875 606.921875 289.648438 586.34375 296.378906 C 584.585938 296.957031 582.796875 297.492188 580.984375 297.976562 C 580.449219 303.710938 579.304688 309.285156 577.601562 314.644531 C 571.21875 334.796875 556.96875 351.933594 538.066406 363.136719 C 533.109375 366.078125 527.832031 368.605469 522.285156 370.675781 C 511.121094 374.851562 498.882812 377.148438 486.070312 377.148438 C 463.273438 377.148438 442.359375 369.867188 425.957031 357.738281 C 425.554688 357.441406 425.152344 357.148438 424.75 356.839844 C 419.550781 360.816406 413.867188 364.308594 407.796875 367.207031 C 394.550781 373.546875 379.453125 377.148438 363.429688 377.148438 C 345.84375 377.148438 329.375 372.808594 315.230469 365.261719 C 311.203125 363.113281 307.375 360.707031 303.746094 358.0625 C 301.058594 360.023438 298.253906 361.863281 295.339844 363.554688 C 280.535156 372.152344 262.9375 377.148438 244.066406 377.148438 C 229.851562 377.148438 214.203125 375.121094 199.039062 371.15625 C 194.390625 369.949219 189.796875 368.566406 185.296875 366.992188 C 154.507812 356.289062 128.394531 337.347656 124.566406 311.273438 C 114.464844 312.523438 103.585938 312.09375 92.609375 310.078125 C 86.042969 308.882812 79.433594 307.125 72.957031 304.800781 C 30.886719 289.835938 -6.050781 252.0625 3.308594 198.0625 Z M 3.308594 198.0625 " fill-opacity="1" fill-rule="nonzero"/></g></g></g></g><g clip-path="url(#ed6ec79c0b)"><g transform="matrix(1, 0, 0, 1, 812, 709)"><g clip-path="url(#1cfabb0d73)"><g clip-path="url(#b06dd68a0d)"><path fill="#ffffff" d="M 3.242188 161.78125 C 8.054688 134.074219 35.082031 118.214844 60.027344 112.503906 C 65.574219 111.230469 71.023438 110.464844 76.097656 110.179688 C 78.769531 110.027344 81.347656 110.015625 83.777344 110.125 C 87.605469 95.84375 96.21875 83.273438 107.992188 73.878906 C 112.167969 70.527344 116.746094 67.589844 121.65625 65.121094 C 132.804688 59.5 145.640625 56.300781 159.304688 56.300781 C 159.921875 56.300781 160.535156 56.332031 161.148438 56.34375 C 168.820312 24.699219 199.882812 1.015625 237.058594 1.015625 C 256.46875 1.015625 274.214844 7.484375 287.835938 18.15625 C 292.121094 21.523438 296.003906 25.304688 299.390625 29.4375 C 304.300781 35.410156 308.203125 42.117188 310.84375 49.339844 C 323.425781 41.394531 338.703125 36.714844 355.1875 36.714844 C 397.339844 36.714844 431.644531 67.160156 432.90625 105.148438 C 432.929688 105.863281 432.941406 106.574219 432.941406 107.296875 C 434.015625 107.046875 435.097656 106.816406 436.195312 106.605469 L 436.207031 106.605469 C 441.488281 105.566406 446.957031 105.027344 452.582031 105.027344 C 458.960938 105.027344 465.164062 105.730469 471.09375 107.046875 L 471.101562 107.046875 C 475.828125 108.085938 480.375 109.53125 484.714844 111.332031 L 484.726562 111.332031 C 503.632812 119.132812 518.472656 133.578125 525.640625 151.390625 L 525.640625 151.402344 C 527.164062 155.195312 528.335938 159.140625 529.136719 163.207031 C 529.925781 167.226562 530.332031 171.371094 530.332031 175.601562 C 530.332031 183.230469 528.996094 190.585938 526.527344 197.46875 L 519 212.296875 C 509.859375 225.917969 495.753906 236.507812 478.960938 242 C 477.527344 242.46875 476.070312 242.90625 474.589844 243.304688 C 474.148438 247.984375 473.21875 252.53125 471.828125 256.90625 C 466.621094 273.34375 454.992188 287.328125 439.570312 296.472656 C 435.527344 298.871094 431.21875 300.929688 426.691406 302.621094 C 417.585938 306.027344 407.597656 307.902344 397.144531 307.902344 C 378.542969 307.902344 361.480469 301.960938 348.097656 292.066406 C 347.769531 291.824219 347.4375 291.582031 347.109375 291.332031 C 342.867188 294.574219 338.230469 297.425781 333.277344 299.792969 C 322.472656 304.964844 310.152344 307.902344 297.078125 307.902344 C 282.730469 307.902344 269.292969 304.363281 257.75 298.203125 C 254.464844 296.449219 251.339844 294.488281 248.378906 292.328125 C 246.1875 293.929688 243.898438 295.429688 241.519531 296.8125 C 229.441406 303.824219 215.082031 307.902344 199.683594 307.902344 C 188.089844 307.902344 175.320312 306.246094 162.945312 303.015625 C 159.152344 302.027344 155.40625 300.898438 151.734375 299.617188 C 126.613281 290.882812 105.304688 275.425781 102.179688 254.152344 C 93.9375 255.171875 85.0625 254.820312 76.105469 253.179688 C 70.746094 252.203125 65.355469 250.765625 60.074219 248.871094 C 25.746094 236.660156 -4.394531 205.839844 3.242188 161.78125 Z M 3.242188 161.78125 " fill-opacity="1" fill-rule="nonzero"/></g></g></g></g></svg>