<svg xmlns="http://www.w3.org/2000/svg" xmlns:xlink="http://www.w3.org/1999/xlink" width="200" zoomAndPan="magnify" viewBox="0 0 150 149.999998" height="200" preserveAspectRatio="xMidYMid meet" version="1.0"><defs><clipPath id="b90fb52980"><path d="M 13 18 L 137 18 L 137 132 L 13 132 Z M 13 18 " clip-rule="nonzero"/></clipPath><clipPath id="d24e646ced"><path d="M 12.515625 18.8125 L 137.007812 18.578125 L 137.21875 131.1875 L 12.730469 131.425781 Z M 12.515625 18.8125 " clip-rule="nonzero"/></clipPath><clipPath id="2b8b4c7f82"><path d="M 135.226562 42.375 C 131.285156 29.078125 118.613281 18.613281 103.65625 18.640625 C 91.101562 18.664062 80.203125 25.769531 74.707031 36.1875 C 69.171875 25.789062 58.25 18.726562 45.691406 18.75 C 30.046875 18.777344 16.382812 29.292969 13.726562 44.523438 C 6.984375 83.144531 50.222656 113.28125 74.984375 131.304688 C 97.8125 114.554688 146.503906 80.398438 135.226562 42.375 Z M 135.226562 42.375 " clip-rule="nonzero"/></clipPath><clipPath id="41af374ec4"><path d="M 0 0.480469 L 124 0.480469 L 124 113.519531 L 0 113.519531 Z M 0 0.480469 " clip-rule="nonzero"/></clipPath><clipPath id="f8e8c0b7bb"><path d="M -0.484375 0.8125 L 124.007812 0.578125 L 124.21875 113.1875 L -0.269531 113.425781 Z M -0.484375 0.8125 " clip-rule="nonzero"/></clipPath><clipPath id="ef762758cf"><path d="M 122.226562 24.375 C 118.285156 11.078125 105.613281 0.613281 90.65625 0.640625 C 78.101562 0.664062 67.203125 7.769531 61.707031 18.1875 C 56.171875 7.789062 45.25 0.726562 32.691406 0.75 C 17.046875 0.777344 3.382812 11.292969 0.726562 26.523438 C -6.015625 65.144531 37.222656 95.28125 61.984375 113.304688 C 84.8125 96.554688 133.503906 62.398438 122.226562 24.375 Z M 122.226562 24.375 " clip-rule="nonzero"/></clipPath><clipPath id="483bc0bb0b"><rect x="0" width="124" y="0" height="114"/></clipPath></defs><g clip-path="url(#b90fb52980)"><g clip-path="url(#d24e646ced)"><g clip-path="url(#2b8b4c7f82)"><g transform="matrix(1, 0, 0, 1, 13, 18)"><g clip-path="url(#483bc0bb0b)"><g clip-path="url(#41af374ec4)"><g clip-path="url(#f8e8c0b7bb)"><g clip-path="url(#ef762758cf)"><path fill="#ff3500" d="M -0.0429688 0.808594 L 124.007812 0.578125 L 124.21875 113.1875 L 0.167969 113.421875 Z M -0.0429688 0.808594 " fill-opacity="1" fill-rule="nonzero"/></g></g></g></g></g></g></g></g></svg>