<svg xmlns="http://www.w3.org/2000/svg" xmlns:xlink="http://www.w3.org/1999/xlink" width="200" zoomAndPan="magnify" viewBox="0 0 150 149.999998" height="200" preserveAspectRatio="xMidYMid meet" version="1.0"><defs><clipPath id="950bbb1b2f"><path d="M 41.410156 4.207031 L 108.910156 4.207031 L 108.910156 145.957031 L 41.410156 145.957031 Z M 41.410156 4.207031 " clip-rule="nonzero"/></clipPath><clipPath id="409ffaddd3"><path d="M 0.410156 0.207031 L 67.71875 0.207031 L 67.71875 141.792969 L 0.410156 141.792969 Z M 0.410156 0.207031 " clip-rule="nonzero"/></clipPath><clipPath id="9aff5c3c0b"><rect x="0" width="68" y="0" height="142"/></clipPath></defs><g clip-path="url(#950bbb1b2f)"><g transform="matrix(1, 0, 0, 1, 41, 4)"><g clip-path="url(#9aff5c3c0b)"><g clip-path="url(#409ffaddd3)"><path fill="#fff514" d="M 16.558594 129.578125 L 16.558594 62.265625 C 6.898438 56.375 0.445312 45.738281 0.445312 33.59375 C 0.445312 15.0625 15.464844 0.0429688 33.996094 0.0429688 C 52.527344 0.0429688 67.550781 15.0625 67.550781 33.59375 C 67.550781 45.738281 61.097656 56.375 51.433594 62.265625 L 51.4375 62.265625 L 51.4375 75.949219 L 40.046875 86.398438 L 49.125 94.375 L 40.046875 102.078125 L 49.398438 110.050781 L 40.046875 118.578125 L 49.125 126.003906 L 31.523438 141.957031 Z M 41.972656 19.019531 C 41.972656 14.613281 38.402344 11.042969 33.996094 11.042969 C 29.59375 11.042969 26.023438 14.613281 26.023438 19.019531 C 26.023438 23.421875 29.59375 26.992188 33.996094 26.992188 C 38.402344 26.992188 41.972656 23.421875 41.972656 19.019531 Z M 41.972656 19.019531 " fill-opacity="1" fill-rule="nonzero"/></g></g></g></g></svg>