<svg xmlns="http://www.w3.org/2000/svg" xmlns:xlink="http://www.w3.org/1999/xlink" width="200" zoomAndPan="magnify" viewBox="0 0 150 149.999998" height="200" preserveAspectRatio="xMidYMid meet" version="1.0"><defs><clipPath id="8f3557def6"><path d="M 67 54 L 85 54 L 85 145.957031 L 67 145.957031 Z M 67 54 " clip-rule="nonzero"/></clipPath><clipPath id="2da869659f"><path d="M 75 129 L 100 129 L 100 145.957031 L 75 145.957031 Z M 75 129 " clip-rule="nonzero"/></clipPath><clipPath id="5a88529a8a"><path d="M 45.839844 4.207031 L 104.339844 4.207031 L 104.339844 63 L 45.839844 63 Z M 45.839844 4.207031 " clip-rule="nonzero"/></clipPath></defs><g clip-path="url(#8f3557def6)"><path fill="#fff514" d="M 67.574219 145.804688 L 67.574219 54.171875 L 84.234375 54.171875 L 84.234375 145.804688 Z M 67.574219 145.804688 " fill-opacity="1" fill-rule="evenodd"/></g><g clip-path="url(#2da869659f)"><path fill="#fff514" d="M 75.90625 145.804688 L 75.90625 129.144531 L 99.15625 129.144531 L 99.15625 145.804688 Z M 75.90625 145.804688 " fill-opacity="1" fill-rule="evenodd"/></g><path fill="#fff514" d="M 75.90625 120.816406 L 75.90625 104.15625 L 99.15625 104.15625 L 99.15625 120.816406 Z M 75.90625 120.816406 " fill-opacity="1" fill-rule="evenodd"/><g clip-path="url(#5a88529a8a)"><path fill="#fff514" d="M 62.429688 33.347656 C 62.429688 40.246094 68.027344 45.84375 74.925781 45.84375 C 81.828125 45.84375 87.421875 40.246094 87.421875 33.347656 C 87.421875 26.445312 81.828125 20.851562 74.925781 20.851562 C 68.027344 20.851562 62.429688 26.445312 62.429688 33.347656 Z M 74.925781 62.503906 C 58.824219 62.503906 45.769531 49.449219 45.769531 33.347656 C 45.769531 17.242188 58.824219 4.191406 74.925781 4.191406 C 91.027344 4.191406 104.082031 17.242188 104.082031 33.347656 C 104.082031 49.449219 91.027344 62.503906 74.925781 62.503906 Z M 74.925781 62.503906 " fill-opacity="1" fill-rule="evenodd"/></g></svg>