<svg width="214" height="263" viewBox="0 0 214 263" fill="none" xmlns="http://www.w3.org/2000/svg">
<path d="M199.922 191.795C199.922 222.447 178.215 247.296 151.44 247.296C145.606 247.296 140.012 246.117 134.832 243.951C125.691 247.224 115.924 248.997 105.778 248.997C95.6329 248.997 85.7723 247.207 76.5929 243.905C71.3778 246.1 65.7456 247.296 59.8668 247.296C33.0921 247.296 11.3857 222.447 11.3857 191.795C11.3857 189.469 11.512 187.177 11.7557 184.925C13.9346 185.915 16.5716 186.415 19.7341 186.232C25.2136 185.915 32.2758 183.558 41.2819 178.183C41.9573 177.781 42.6268 177.395 43.2934 177.027C72.8636 160.664 92.1855 178.446 92.1855 178.446C92.1855 178.446 92.8345 178.891 94.0355 179.522C95.9471 180.529 99.2536 182.011 103.573 182.944C104.898 183.235 106.319 183.469 107.825 183.623C115.078 184.368 124.287 183.224 134.203 176.873C134.94 176.399 135.672 175.948 136.394 175.517C155.19 164.289 168.91 166.629 178.341 171.904C179.801 172.717 181.155 173.602 182.411 174.518C185.835 177.013 190.466 177.356 195.023 176.359C195.963 176.154 196.897 175.894 197.819 175.583C199.187 180.712 199.922 186.155 199.922 191.795Z" fill="url(#paint0_linear_656_3)" stroke="#490B40" stroke-width="5" stroke-miterlimit="10"/>
<g style="mix-blend-mode:darken">
<path d="M199.922 191.795C199.922 222.447 178.215 247.296 151.44 247.296C145.606 247.296 140.012 246.117 134.832 243.951C125.691 247.224 115.924 248.997 105.778 248.997C95.6329 248.997 85.7723 247.207 76.5929 243.905C71.3778 246.1 65.7456 247.296 59.8668 247.296C33.0921 247.296 11.3857 222.447 11.3857 191.795C11.3857 189.469 11.512 187.177 11.7557 184.925C13.9346 185.915 16.5716 186.415 19.7341 186.232C20.4301 186.192 21.1524 186.118 21.9012 186.01C22.3153 194.826 23.3489 206.671 25.9301 210.907C30.2408 217.974 28.6228 204.625 30.7782 203.315C32.9335 202.005 34.5486 198.602 38.0518 211.692C41.5521 224.781 48.2854 232.111 50.708 231.849C53.1335 231.589 47.9976 220.292 51.5184 221.117C59.0593 222.883 58.654 226.614 71.1781 233.681C88.3593 243.377 132.318 244.416 151.17 230.804C170.022 217.189 167.06 223.997 165.444 230.279C163.829 236.561 183.759 219.807 184.297 202.005C184.837 184.203 191.57 200.172 190.493 207.242C189.485 213.844 198.82 211.541 191.274 176.859C192.51 176.805 193.77 176.633 195.023 176.359C195.963 176.154 196.897 175.894 197.819 175.583C199.187 180.712 199.922 186.155 199.922 191.795Z" fill="#CCCCCC"/>
</g>
<path d="M205.768 147.72C203.202 143.35 200.23 138.521 197.887 132.904C197.384 129.099 196.691 125.363 195.81 121.709C195.705 121.253 195.59 120.799 195.476 120.345C194.721 117.377 193.849 114.46 192.856 111.608C190.175 103.865 186.649 96.5721 182.403 89.8646C170.469 71.0181 152.844 56.7926 132.233 50.1394C132.274 61.4678 128.125 72.194 114.406 75.4307C84.8561 82.4008 86.0689 63.8254 92.5849 46.9883C87.9835 47.7018 83.4877 48.7836 79.1271 50.2022C73.4362 52.0546 67.9744 54.4835 62.7974 57.4291C61.2763 58.2968 59.7787 59.2073 58.3075 60.1606C46.6556 67.7129 36.6423 77.9624 28.9928 90.1215C28.8841 90.2927 28.7755 90.464 28.6698 90.6352C28.2998 91.2318 27.9357 91.8312 27.5804 92.4363C23.7688 98.8612 20.6063 105.786 18.1954 113.101C17.2205 116.049 16.366 119.061 15.6466 122.129C14.6805 126.21 13.9464 130.392 13.453 134.656C11.7851 141.857 10.22 146.63 8.82222 149.995C5.04005 159.114 2.5 157.89 2.5 166.664C2.5 173.699 4.8345 181.788 11.7557 184.925C13.9346 185.915 16.5716 186.415 19.7341 186.232C25.2136 185.915 32.2758 183.558 41.2819 178.183C41.9573 177.781 42.6268 177.395 43.2934 177.027C49.5569 173.559 55.3593 171.627 60.6156 170.734C69.0521 169.295 76.082 170.531 81.35 172.401C88.3006 174.872 92.1855 178.446 92.1855 178.446C92.1855 178.446 92.8345 178.891 94.0355 179.522C95.9471 180.529 99.2536 182.011 103.573 182.944C104.898 183.235 106.319 183.469 107.825 183.623C115.078 184.368 124.287 183.224 134.203 176.873C134.94 176.399 135.672 175.948 136.394 175.517C140.255 173.211 143.906 171.476 147.344 170.223C152.697 168.27 157.548 167.486 161.921 167.514C168.416 167.554 173.863 169.398 178.341 171.904C179.801 172.717 181.155 173.602 182.411 174.518C185.835 177.013 190.466 177.355 195.024 176.359C195.963 176.154 196.897 175.894 197.819 175.583C205.104 173.131 211.5 167.588 211.5 162.476C211.5 157.838 208.939 153.129 205.768 147.72ZM73.63 97.9449C86.2568 102.654 97.2304 108.748 105.485 115.213C113.777 108.651 124.877 102.457 137.677 97.6824C138.972 97.2 140.264 96.7376 141.553 96.2981C137.997 101.921 135.81 109.559 135.81 117.97C135.81 119.626 135.895 121.253 136.059 122.84C130.042 125.488 124.619 128.442 119.956 131.559C119.873 131.442 119.785 131.328 119.686 131.217C117.683 128.916 112.212 127.264 105.778 127.264C98.9247 127.264 93.1663 129.136 91.5248 131.673C91.4632 131.631 91.3986 131.594 91.3369 131.554C86.6973 128.637 81.394 125.882 75.5681 123.419C75.6855 122.066 75.7472 120.685 75.7472 119.28C75.7472 110.23 73.216 102.075 69.1666 96.3637C70.6495 96.8603 72.1383 97.3884 73.63 97.9449Z" fill="url(#paint1_linear_656_3)" stroke="#490B40" stroke-width="5" stroke-miterlimit="10"/>
<g style="mix-blend-mode:exclusion" opacity="0.15">
<path d="M211.5 162.476C211.5 167.588 205.104 173.131 197.819 175.583C196.897 175.894 195.963 176.154 195.024 176.359C190.466 177.355 185.835 177.013 182.411 174.518C181.155 173.602 179.801 172.717 178.341 171.904C173.863 169.398 168.416 167.554 161.921 167.514C157.548 167.486 152.697 168.27 147.344 170.223C143.906 171.476 140.255 173.211 136.394 175.517C135.672 175.948 134.94 176.399 134.203 176.873C124.287 183.224 115.078 184.368 107.825 183.623C106.319 183.469 104.898 183.235 103.573 182.944C99.2536 182.011 95.9471 180.529 94.0355 179.522C92.8345 178.891 92.1855 178.446 92.1855 178.446C92.1855 178.446 88.3006 174.872 81.35 172.401C76.082 170.531 69.0521 169.295 60.6156 170.734C55.3593 171.627 49.5569 173.559 43.2934 177.027C42.6268 177.395 41.9573 177.781 41.2819 178.183C32.2758 183.558 25.2136 185.915 19.7341 186.232C16.5716 186.415 13.9346 185.915 11.7557 184.925C4.8345 181.788 2.5 173.699 2.5 166.664C2.5 157.89 5.04005 159.114 8.82222 149.995C10.22 146.63 11.7851 141.857 13.453 134.656C13.9464 130.392 14.6805 126.21 15.6466 122.129C16.366 119.061 17.2205 116.049 18.1954 113.101C20.6063 105.786 23.7688 98.8612 27.5804 92.4363C27.9357 91.8312 28.2998 91.2318 28.6698 90.6352C28.7755 90.464 28.8841 90.2927 28.9928 90.1215C36.6423 77.9624 46.6556 67.7129 58.3075 60.1606C59.7787 59.2073 61.2763 58.2968 62.7974 57.4291C67.9744 54.4835 73.4362 52.0546 79.1271 50.2022C83.4877 48.7836 87.9835 47.7018 92.5849 46.9883C92.0446 48.384 91.5395 49.7911 91.0873 51.1954C87.7897 51.8205 84.5537 52.6454 81.394 53.6558C76.0585 55.3655 70.9343 57.606 66.0774 60.3233C64.6503 61.1253 63.2467 61.9645 61.8665 62.8436C50.937 69.8136 41.5462 79.2697 34.3695 90.4897C34.2696 90.6467 34.1668 90.8036 34.067 90.9635C33.7205 91.5144 33.3799 92.0652 33.0451 92.6247C29.4714 98.5529 26.5056 104.941 24.2416 111.691C23.3284 114.411 22.5267 117.191 21.8513 120.02C20.9469 123.787 20.2568 127.646 19.7958 131.579C18.2307 138.224 16.7624 142.628 15.4498 145.731C11.9026 154.145 9.5211 153.017 9.5211 161.112C9.5211 167.603 11.7117 175.066 18.2013 177.961C20.2451 178.874 22.7205 179.336 25.6863 179.168C30.8251 178.874 37.4498 176.699 45.898 171.741C46.5323 171.37 47.1578 171.013 47.7832 170.674C53.6591 167.474 59.1004 165.69 64.0307 164.868C71.9445 163.538 78.5398 164.68 83.4789 166.404C90.0008 168.684 93.642 171.984 93.642 171.984C93.642 171.984 94.2528 172.392 95.3775 172.974C97.1717 173.905 100.273 175.272 104.325 176.134C105.567 176.402 106.9 176.616 108.313 176.759C115.116 177.447 123.753 176.391 133.055 170.531C133.745 170.094 134.432 169.678 135.111 169.281C138.731 167.152 142.155 165.55 145.38 164.394C150.401 162.593 154.952 161.871 159.052 161.897C165.145 161.934 170.254 163.635 174.454 165.947C175.825 166.698 177.093 167.514 178.274 168.359C181.483 170.659 185.826 170.976 190.102 170.057C190.983 169.869 191.861 169.629 192.724 169.341C199.557 167.08 205.557 161.965 205.557 157.247C205.557 152.969 203.155 148.625 200.18 143.633C197.772 139.6 194.985 135.144 192.789 129.961C192.316 126.453 191.667 123.005 190.839 119.634C190.742 119.212 190.634 118.792 190.528 118.376C189.817 115.635 189.001 112.944 188.07 110.312C185.556 103.168 182.247 96.4408 178.265 90.2528C167.242 73.1245 151.038 60.1349 132.083 53.8841C132.189 52.6511 132.239 51.3981 132.233 50.1394C152.844 56.7926 170.469 71.0181 182.403 89.8646C186.649 96.5721 190.175 103.865 192.856 111.608C193.849 114.46 194.721 117.377 195.476 120.345C195.59 120.799 195.705 121.253 195.81 121.709C196.691 125.363 197.384 129.099 197.887 132.904C200.23 138.521 203.202 143.35 205.768 147.72C208.939 153.129 211.5 157.838 211.5 162.476Z" fill="#10FFE2"/>
</g>
<path d="M177.863 84.6271C174.48 85.2208 166.255 82.6177 165.277 82.3409C160.573 81.0079 155.828 79.8605 151.053 78.8273C132.477 74.9655 113.422 73.5641 94.4995 74.6116C72.1735 75.8503 50.0179 80.5084 29.0779 88.5745C30.1439 80.8338 34.8716 73.978 40.859 69.1486C46.8465 64.3192 54.032 61.3137 61.2881 58.9476C75.3185 54.3722 90.0096 51.9661 104.73 51.7321C116.344 51.5465 128.154 52.1716 139.457 55.1C149.632 57.7345 159.771 59.1559 167.597 66.9851C171.966 71.3578 175.361 76.6324 178.72 81.8642C179.827 83.5882 179.258 84.3788 177.86 84.6243L177.863 84.6271Z" fill="#6715FF" stroke="#490B40" stroke-width="5" stroke-miterlimit="10"/>
<path d="M142.687 44.0168C138.124 44.4906 134.479 43.8798 131.517 41.7648C131.957 44.5248 132.221 47.3505 132.233 50.1391C132.274 61.4676 128.125 72.1938 114.406 75.4305C84.8561 82.4005 86.0689 63.8252 92.5849 46.988C87.9834 47.7016 83.4877 48.7833 79.1271 50.2019C84.4039 37.9059 103.253 -1.19145 128.143 2.7845C157.633 7.49684 153.998 42.838 142.687 44.0168Z" fill="url(#paint2_linear_656_3)" stroke="#490B40" stroke-width="5" stroke-linecap="round" stroke-linejoin="round"/>
<g style="mix-blend-mode:difference" opacity="0.15">
<path d="M142.687 44.0171C138.124 44.4909 134.479 43.8801 131.517 41.7651C131.957 44.5252 132.221 47.3509 132.233 50.1394C132.274 61.4679 128.125 72.1941 114.406 75.4308C84.8561 82.4009 86.0689 63.8255 92.5849 46.9884C87.9834 47.7019 83.4877 48.7837 79.1271 50.2022C80.2136 47.6705 81.8756 44.0028 84.0486 39.8071C92.4175 26.1724 101.747 23.0727 106.73 29.2236C106.73 29.2236 97.8412 35.5743 97.8412 54.6177C97.8412 73.6612 113.601 71.7717 118.852 67.576C124.909 62.7323 132.585 47.9417 128.345 37.1441C124.102 26.3437 128.815 34.9835 137.569 39.9584C145.867 44.6764 160.582 4.09207 115.836 4.2148C119.732 2.69635 123.846 2.09981 128.143 2.78483C157.633 7.49717 153.998 42.8383 142.687 44.0171Z" fill="#C401DB"/>
</g>
<path d="M101.479 29.0918C98.7867 33.5301 95.2424 40.1148 92.5849 46.9878" stroke="#490B40" stroke-width="5" stroke-linecap="round" stroke-linejoin="round"/>
<path d="M121.844 24.9873C124.789 29.2715 128.709 35.6507 131.76 42.3696" stroke="#490B40" stroke-width="5" stroke-linecap="round" stroke-linejoin="round"/>
<path d="M120.263 147.596C122.144 145.06 120.445 140.745 116.469 137.958C112.493 135.17 107.744 134.966 105.863 137.501C103.982 140.037 105.68 144.352 109.657 147.139C113.633 149.927 118.382 150.131 120.263 147.596Z" fill="url(#paint3_linear_656_3)" stroke="#490B40" stroke-width="5" stroke-miterlimit="10"/>
<path d="M101.271 146.932C105.247 144.144 106.946 139.829 105.064 137.294C103.183 134.759 98.4347 134.963 94.4584 137.751C90.4821 140.538 88.7837 144.853 90.6649 147.388C92.5461 149.924 97.2945 149.719 101.271 146.932Z" fill="url(#paint4_linear_656_3)" stroke="#490B40" stroke-width="5" stroke-miterlimit="10"/>
<path d="M120.502 133.155C120.502 135.007 118.364 136.66 115.022 137.742C113.807 138.133 112.43 138.449 110.938 138.675C109.455 138.895 107.863 139.023 106.198 139.043C106.06 139.046 105.919 139.046 105.778 139.046C105.637 139.046 105.511 139.046 105.379 139.043C103.855 139.026 102.393 138.918 101.018 138.729C99.4915 138.524 98.0761 138.215 96.8222 137.83C93.3161 136.754 91.055 135.061 91.055 133.155C91.055 132.644 91.2165 132.147 91.5249 131.673C93.1663 129.136 98.9247 127.264 105.778 127.264C112.212 127.264 117.683 128.916 119.686 131.217C119.785 131.328 119.873 131.442 119.956 131.559C120.293 132.042 120.484 132.553 120.499 133.078C120.502 133.103 120.502 133.129 120.502 133.155Z" fill="url(#paint5_radial_656_3)" stroke="#490B40" stroke-width="5" stroke-miterlimit="10"/>
<path d="M135.81 117.97C135.81 119.626 135.895 121.252 136.059 122.839C130.042 125.488 124.619 128.442 119.956 131.559C119.873 131.442 119.785 131.328 119.686 131.217C117.683 128.916 112.212 127.263 105.778 127.263C98.9247 127.263 93.1663 129.136 91.5248 131.673C91.4632 131.63 91.3986 131.593 91.3369 131.553C86.6973 128.636 81.394 125.882 75.5681 123.419C75.6855 122.066 75.7472 120.684 75.7472 119.28C75.7472 110.229 73.216 102.075 69.1666 96.3635C70.6495 96.8601 72.1383 97.3882 73.63 97.9447C86.2568 102.654 97.2304 108.748 105.485 115.213C113.777 108.651 124.877 102.457 137.677 97.6822C138.972 97.1998 140.264 96.7374 141.553 96.2979C137.997 101.921 135.81 109.559 135.81 117.97Z" fill="url(#paint6_linear_656_3)" stroke="#490B40" stroke-width="5" stroke-miterlimit="10"/>
<path d="M124.513 222.612L108.016 239.075L89.8011 224.059L106.295 176.533L124.513 222.612Z" fill="url(#paint7_linear_656_3)" stroke="#490B40" stroke-width="5" stroke-miterlimit="10"/>
<g style="mix-blend-mode:difference" opacity="0.2">
<path d="M106.295 176.53L89.7982 224.059L108.016 239.072L124.51 222.612L106.295 176.53ZM107.79 232.288L94.3057 221.179L106.73 185.775L120.102 219.989L107.79 232.288Z" fill="#39B54A"/>
</g>
<path d="M124.067 182.378L107.57 198.839L89.3548 183.826L105.849 167.362L124.067 182.378Z" fill="url(#paint8_linear_656_3)" stroke="#490B40" stroke-width="5" stroke-miterlimit="10"/>
<g style="mix-blend-mode:difference" opacity="0.15">
<path d="M124.067 182.376L107.57 198.839L89.3548 183.826L92.9109 180.275L107.57 192.36L120.511 179.444L124.067 182.376Z" fill="#39B54A"/>
<path d="M124.067 182.376L107.57 198.839L89.3548 183.826L92.9109 180.275L107.57 192.36L120.511 179.444L124.067 182.376Z" stroke="#490B40" stroke-miterlimit="10"/>
</g>
<path d="M71.9386 258.669C75.3021 258.669 78.0288 254.13 78.0288 248.531C78.0288 242.932 75.3021 238.393 71.9386 238.393C68.575 238.393 65.8484 242.932 65.8484 248.531C65.8484 254.13 68.575 258.669 71.9386 258.669Z" fill="url(#paint9_linear_656_3)" stroke="#490B40" stroke-width="5" stroke-miterlimit="10"/>
<path d="M52.2781 258.527C55.6327 258.289 58.0126 253.569 57.5937 247.985C57.1749 242.4 54.1158 238.066 50.7612 238.304C47.4065 238.542 45.0266 243.261 45.4455 248.846C45.8644 254.43 48.9234 258.764 52.2781 258.527Z" fill="url(#paint10_linear_656_3)" stroke="#490B40" stroke-width="5" stroke-miterlimit="10"/>
<path d="M62.0398 260.502C65.9466 260.502 69.1137 255.23 69.1137 248.728C69.1137 242.225 65.9466 236.954 62.0398 236.954C58.133 236.954 54.9659 242.225 54.9659 248.728C54.9659 255.23 58.133 260.502 62.0398 260.502Z" fill="url(#paint11_linear_656_3)" stroke="#490B40" stroke-width="5" stroke-miterlimit="10"/>
<path d="M161.357 258.932C164.72 258.932 167.447 254.393 167.447 248.794C167.447 243.194 164.72 238.655 161.357 238.655C157.993 238.655 155.267 243.194 155.267 248.794C155.267 254.393 157.993 258.932 161.357 258.932Z" fill="url(#paint12_linear_656_3)" stroke="#490B40" stroke-width="5" stroke-miterlimit="10"/>
<path d="M141.967 259.319C145.322 259.081 147.702 254.361 147.283 248.777C146.864 243.192 143.805 238.858 140.45 239.096C137.096 239.334 134.716 244.053 135.135 249.638C135.553 255.222 138.613 259.556 141.967 259.319Z" fill="url(#paint13_linear_656_3)" stroke="#490B40" stroke-width="5" stroke-miterlimit="10"/>
<path d="M151.458 259.98C155.365 259.98 158.532 254.709 158.532 248.206C158.532 241.704 155.365 236.433 151.458 236.433C147.551 236.433 144.384 241.704 144.384 248.206C144.384 254.709 147.551 259.98 151.458 259.98Z" fill="url(#paint14_linear_656_3)" stroke="#490B40" stroke-width="5" stroke-miterlimit="10"/>
<path d="M177.017 117.97C177.017 126.022 175.011 133.36 171.723 138.906C167.952 145.259 162.49 149.255 156.412 149.255C154.245 149.255 152.154 148.747 150.192 147.802C142.84 144.275 137.275 134.653 136.059 122.839C135.895 121.252 135.81 119.625 135.81 117.97C135.81 109.558 137.997 101.921 141.553 96.2977C145.303 90.3752 150.574 86.6875 156.412 86.6875C159.959 86.6875 163.301 88.049 166.217 90.4494C171.544 94.8335 175.455 102.677 176.638 111.999C176.888 113.931 177.017 115.929 177.017 117.97Z" fill="white" stroke="#490B40" stroke-width="5" stroke-miterlimit="10"/>
<path d="M75.7472 119.278C75.7472 127.329 73.7416 134.668 70.4528 140.213C66.6823 146.567 61.2205 150.563 55.142 150.563C52.9749 150.563 50.8841 150.055 48.9226 149.11C41.5697 145.582 36.0051 135.961 34.7894 124.147C34.6249 122.56 34.5398 120.933 34.5398 119.278C34.5398 110.866 36.7274 103.228 40.2835 97.6053C44.0334 91.6828 49.3043 87.9951 55.142 87.9951C58.6893 87.9951 62.031 89.3566 64.9469 91.757C70.2736 96.1411 74.185 103.985 75.3684 113.306C75.618 115.239 75.7472 117.237 75.7472 119.278Z" fill="white" stroke="#490B40" stroke-width="5" stroke-miterlimit="10"/>
<path d="M62.2218 121.829C62.2218 126.579 61.5083 130.909 60.3366 134.183C58.9917 137.93 57.0478 140.291 54.8807 140.291C54.1084 140.291 53.3655 139.991 52.6636 139.432C50.0443 137.351 48.0622 131.674 47.6306 124.704C47.5689 123.767 47.5395 122.806 47.5395 121.829C47.5395 116.866 48.3177 112.359 49.5862 109.042C50.9223 105.549 52.8017 103.371 54.8807 103.371C56.1463 103.371 57.3356 104.176 58.3751 105.592C58.9565 106.385 59.4939 107.373 59.9667 108.523L56.023 117.679L61.5729 114.246C61.8049 115.527 61.9781 116.889 62.0868 118.31C62.1749 119.452 62.2218 120.628 62.2218 121.832V121.829Z" fill="url(#paint15_linear_656_3)" stroke="#490B40" stroke-width="5" stroke-miterlimit="10"/>
<path d="M164.837 120.356C164.837 124.963 164.123 129.164 162.951 132.338C161.607 135.974 159.663 138.26 157.495 138.26C156.723 138.26 155.98 137.969 155.278 137.427C152.659 135.409 150.677 129.903 150.245 123.142C150.184 122.234 150.154 121.301 150.154 120.353C150.154 115.538 150.932 111.168 152.201 107.951C153.537 104.563 155.416 102.451 157.495 102.451C158.761 102.451 159.95 103.233 160.99 104.603C161.571 105.374 162.109 106.33 162.581 107.446L158.638 116.326L164.188 112.995C164.42 114.239 164.593 115.558 164.702 116.936C164.79 118.044 164.837 119.186 164.837 120.353V120.356Z" fill="url(#paint16_linear_656_3)" stroke="#490B40" stroke-width="5" stroke-miterlimit="10"/>
<path d="M138.773 93.9203L182.781 118.17C182.781 118.17 172.844 62.0927 138.773 93.9203Z" fill="url(#paint17_linear_656_3)" stroke="#490B40" stroke-width="5" stroke-miterlimit="10"/>
<path d="M72.9634 95.0508L29.7915 120.682C29.7915 120.682 37.8433 64.3192 72.9634 95.0508Z" fill="url(#paint18_linear_656_3)" stroke="#490B40" stroke-width="5" stroke-miterlimit="10"/>
<defs>
<linearGradient id="paint0_linear_656_3" x1="105.655" y1="167.514" x2="105.655" y2="248.997" gradientUnits="userSpaceOnUse">
<stop stop-color="#8AFF00"/>
<stop offset="0.16" stop-color="#8EFE04"/>
<stop offset="0.36" stop-color="#9DFC11"/>
<stop offset="0.57" stop-color="#B5F926"/>
<stop offset="0.78" stop-color="#D5F444"/>
<stop offset="1" stop-color="#FEEF69"/>
</linearGradient>
<linearGradient id="paint1_linear_656_3" x1="107" y1="186.269" x2="107" y2="46.9883" gradientUnits="userSpaceOnUse">
<stop stop-color="#FEEF69"/>
<stop offset="0.05" stop-color="#FEF288"/>
<stop offset="0.1" stop-color="#FEF5A8"/>
<stop offset="0.17" stop-color="#FEF8C3"/>
<stop offset="0.24" stop-color="#FEFBD9"/>
<stop offset="0.33" stop-color="#FEFCEA"/>
<stop offset="0.44" stop-color="#FEFEF6"/>
<stop offset="0.59" stop-color="#FEFEFD"/>
<stop offset="1" stop-color="white"/>
</linearGradient>
<linearGradient id="paint2_linear_656_3" x1="82.8799" y1="58.3622" x2="149.579" y2="18.7428" gradientUnits="userSpaceOnUse">
<stop stop-color="#C401DB"/>
<stop offset="0.15" stop-color="#D807CF"/>
<stop offset="0.37" stop-color="#F310C0"/>
<stop offset="0.5" stop-color="#FD14BB"/>
<stop offset="0.62" stop-color="#FD16B9"/>
<stop offset="0.7" stop-color="#FD1FB6"/>
<stop offset="0.76" stop-color="#FD2DAF"/>
<stop offset="0.82" stop-color="#FD42A6"/>
<stop offset="0.87" stop-color="#FD5D9A"/>
<stop offset="0.92" stop-color="#FE7E8B"/>
<stop offset="0.96" stop-color="#FEA57A"/>
<stop offset="1" stop-color="#FFC96B"/>
</linearGradient>
<linearGradient id="paint3_linear_656_3" x1="120.269" y1="147.582" x2="106.152" y2="137.107" gradientUnits="userSpaceOnUse">
<stop stop-color="#C401DB"/>
<stop offset="0.23" stop-color="#DC09CD"/>
<stop offset="0.46" stop-color="#EE0FC3"/>
<stop offset="0.72" stop-color="#F912BC"/>
<stop offset="1" stop-color="#FD14BB"/>
</linearGradient>
<linearGradient id="paint4_linear_656_3" x1="90.8271" y1="147.607" x2="104.944" y2="137.132" gradientUnits="userSpaceOnUse">
<stop stop-color="#C401DB"/>
<stop offset="0.23" stop-color="#DC09CD"/>
<stop offset="0.46" stop-color="#EE0FC3"/>
<stop offset="0.72" stop-color="#F912BC"/>
<stop offset="1" stop-color="#FD14BB"/>
</linearGradient>
<radialGradient id="paint5_radial_656_3" cx="0" cy="0" r="1" gradientUnits="userSpaceOnUse" gradientTransform="translate(105.778 133.155) scale(11.2584 10.9431)">
<stop stop-color="#FEEF69"/>
<stop offset="0.28" stop-color="#FEF447"/>
<stop offset="0.76" stop-color="#FEFB14"/>
<stop offset="1" stop-color="#FFFF00"/>
</radialGradient>
<linearGradient id="paint6_linear_656_3" x1="105.361" y1="96.2979" x2="105.361" y2="131.673" gradientUnits="userSpaceOnUse">
<stop stop-color="#FD14BB"/>
<stop offset="0.15" stop-color="#FD17B9"/>
<stop offset="0.28" stop-color="#FD22B5"/>
<stop offset="0.42" stop-color="#FD35AE"/>
<stop offset="0.55" stop-color="#FD4FA4"/>
<stop offset="0.67" stop-color="#FD7197"/>
<stop offset="0.8" stop-color="#FD9B88"/>
<stop offset="0.92" stop-color="#FDCB76"/>
<stop offset="1" stop-color="#FEEF69"/>
</linearGradient>
<linearGradient id="paint7_linear_656_3" x1="107.156" y1="239.075" x2="107.156" y2="176.533" gradientUnits="userSpaceOnUse">
<stop stop-color="#10FFE2"/>
<stop offset="0.1" stop-color="#15FEDF"/>
<stop offset="0.23" stop-color="#25FDD6"/>
<stop offset="0.38" stop-color="#40FBC9"/>
<stop offset="0.53" stop-color="#65F9B6"/>
<stop offset="0.7" stop-color="#94F69E"/>
<stop offset="0.87" stop-color="#CDF281"/>
<stop offset="1" stop-color="#FEEF69"/>
</linearGradient>
<linearGradient id="paint8_linear_656_3" x1="106.709" y1="198.839" x2="106.709" y2="167.362" gradientUnits="userSpaceOnUse">
<stop stop-color="#10FFE2"/>
<stop offset="0.1" stop-color="#15FEDF"/>
<stop offset="0.23" stop-color="#25FDD6"/>
<stop offset="0.38" stop-color="#40FBC9"/>
<stop offset="0.53" stop-color="#65F9B6"/>
<stop offset="0.7" stop-color="#94F69E"/>
<stop offset="0.87" stop-color="#CDF281"/>
<stop offset="1" stop-color="#FEEF69"/>
</linearGradient>
<linearGradient id="paint9_linear_656_3" x1="71.9386" y1="258.669" x2="71.9386" y2="238.395" gradientUnits="userSpaceOnUse">
<stop stop-color="#FFFF00"/>
<stop offset="0.24" stop-color="#FEFB14"/>
<stop offset="0.72" stop-color="#FEF447"/>
<stop offset="1" stop-color="#FEEF69"/>
</linearGradient>
<linearGradient id="paint10_linear_656_3" x1="51.5324" y1="258.521" x2="51.5324" y2="238.282" gradientUnits="userSpaceOnUse">
<stop stop-color="#FFFF00"/>
<stop offset="0.24" stop-color="#FEFB14"/>
<stop offset="0.72" stop-color="#FEF447"/>
<stop offset="1" stop-color="#FEEF69"/>
</linearGradient>
<linearGradient id="paint11_linear_656_3" x1="62.0398" y1="260.502" x2="62.0398" y2="236.954" gradientUnits="userSpaceOnUse">
<stop stop-color="#FFFF00"/>
<stop offset="0.24" stop-color="#FEFB14"/>
<stop offset="0.72" stop-color="#FEF447"/>
<stop offset="1" stop-color="#FEEF69"/>
</linearGradient>
<linearGradient id="paint12_linear_656_3" x1="161.357" y1="258.932" x2="161.357" y2="238.655" gradientUnits="userSpaceOnUse">
<stop stop-color="#FFFF00"/>
<stop offset="0.24" stop-color="#FEFB14"/>
<stop offset="0.72" stop-color="#FEF447"/>
<stop offset="1" stop-color="#FEEF69"/>
</linearGradient>
<linearGradient id="paint13_linear_656_3" x1="141.221" y1="259.305" x2="141.221" y2="239.066" gradientUnits="userSpaceOnUse">
<stop stop-color="#FFFF00"/>
<stop offset="0.24" stop-color="#FEFB14"/>
<stop offset="0.72" stop-color="#FEF447"/>
<stop offset="1" stop-color="#FEEF69"/>
</linearGradient>
<linearGradient id="paint14_linear_656_3" x1="151.458" y1="259.98" x2="151.458" y2="236.433" gradientUnits="userSpaceOnUse">
<stop stop-color="#FFFF00"/>
<stop offset="0.24" stop-color="#FEFB14"/>
<stop offset="0.72" stop-color="#FEF447"/>
<stop offset="1" stop-color="#FEEF69"/>
</linearGradient>
<linearGradient id="paint15_linear_656_3" x1="54.8807" y1="140.291" x2="54.8807" y2="103.371" gradientUnits="userSpaceOnUse">
<stop stop-color="#101220"/>
<stop offset="0.42" stop-color="#111120"/>
<stop offset="0.57" stop-color="#181023"/>
<stop offset="0.68" stop-color="#240F28"/>
<stop offset="0.76" stop-color="#350D30"/>
<stop offset="0.84" stop-color="#4B0A39"/>
<stop offset="0.9" stop-color="#660745"/>
<stop offset="0.96" stop-color="#860352"/>
<stop offset="1" stop-color="#9E005D"/>
</linearGradient>
<linearGradient id="paint16_linear_656_3" x1="157.495" y1="138.263" x2="157.495" y2="102.454" gradientUnits="userSpaceOnUse">
<stop stop-color="#101220"/>
<stop offset="0.42" stop-color="#111120"/>
<stop offset="0.57" stop-color="#181023"/>
<stop offset="0.68" stop-color="#240F28"/>
<stop offset="0.76" stop-color="#350D30"/>
<stop offset="0.84" stop-color="#4B0A39"/>
<stop offset="0.9" stop-color="#660745"/>
<stop offset="0.96" stop-color="#860352"/>
<stop offset="1" stop-color="#9E005D"/>
</linearGradient>
<linearGradient id="paint17_linear_656_3" x1="160.202" y1="116.99" x2="161.857" y2="84.2861" gradientUnits="userSpaceOnUse">
<stop stop-color="#FDEF6A"/>
<stop offset="0.09" stop-color="#FAEF8E"/>
<stop offset="0.18" stop-color="#F8F0AD"/>
<stop offset="0.29" stop-color="#F5F1C6"/>
<stop offset="0.4" stop-color="#F4F1D9"/>
<stop offset="0.53" stop-color="#F2F1E7"/>
<stop offset="0.7" stop-color="#F2F1EF"/>
<stop offset="1" stop-color="#F2F2F2"/>
</linearGradient>
<linearGradient id="paint18_linear_656_3" x1="52.32" y1="118.75" x2="49.628" y2="86.1107" gradientUnits="userSpaceOnUse">
<stop stop-color="#FDEF6A"/>
<stop offset="0.09" stop-color="#FAEF8E"/>
<stop offset="0.18" stop-color="#F8F0AD"/>
<stop offset="0.29" stop-color="#F5F1C6"/>
<stop offset="0.4" stop-color="#F4F1D9"/>
<stop offset="0.53" stop-color="#F2F1E7"/>
<stop offset="0.7" stop-color="#F2F1EF"/>
<stop offset="1" stop-color="#F2F2F2"/>
</linearGradient>
</defs>
</svg>
