<?xml version="1.0" encoding="UTF-8"?>
<svg xmlns="http://www.w3.org/2000/svg" width="1440" height="900" xmlns:xlink="http://www.w3.org/1999/xlink" viewBox="0 0 1440 900">
  <defs>
    <style>
      .cls-1 {
        fill: url(#linear-gradient-3);
      }

      .cls-1, .cls-2, .cls-3, .cls-4, .cls-5, .cls-6, .cls-7, .cls-8, .cls-9, .cls-10, .cls-11, .cls-12, .cls-13, .cls-14, .cls-15, .cls-16 {
        stroke: #490b40;
      }

      .cls-1, .cls-2, .cls-3, .cls-4, .cls-6, .cls-7, .cls-8, .cls-9, .cls-10, .cls-11, .cls-12, .cls-13, .cls-14, .cls-15, .cls-16 {
        stroke-width: 5px;
      }

      .cls-1, .cls-6 {
        stroke-linecap: round;
        stroke-linejoin: round;
      }

      .cls-2 {
        fill: url(#linear-gradient-9);
      }

      .cls-2, .cls-3, .cls-4, .cls-5, .cls-7, .cls-8, .cls-9, .cls-10, .cls-11, .cls-12, .cls-13, .cls-14, .cls-15, .cls-16 {
        stroke-miterlimit: 10;
      }

      .cls-3 {
        fill: url(#linear-gradient);
      }

      .cls-17 {
        opacity: .2;
      }

      .cls-17, .cls-5 {
        fill: #39b54a;
      }

      .cls-17, .cls-5, .cls-18, .cls-19 {
        mix-blend-mode: difference;
      }

      .cls-4 {
        fill: url(#linear-gradient-2);
      }

      .cls-5, .cls-18, .cls-20 {
        opacity: .15;
      }

      .cls-6, .cls-21 {
        fill: none;
      }

      .cls-18 {
        fill: #c401db;
      }

      .cls-7 {
        fill: url(#linear-gradient-7);
      }

      .cls-8 {
        fill: #fff;
      }

      .cls-22 {
        isolation: isolate;
      }

      .cls-9 {
        fill: url(#linear-gradient-6);
      }

      .cls-10 {
        fill: url(#radial-gradient);
      }

      .cls-11 {
        fill: url(#linear-gradient-11);
      }

      .cls-23 {
        fill: #ccc;
        mix-blend-mode: darken;
      }

      .cls-20 {
        fill: #10ffe2;
        mix-blend-mode: exclusion;
      }

      .cls-12 {
        fill: url(#linear-gradient-10);
      }

      .cls-19 {
        fill: #101220;
        opacity: .75;
      }

      .cls-13 {
        fill: url(#linear-gradient-5);
      }

      .cls-14 {
        fill: url(#linear-gradient-12);
      }

      .cls-15 {
        fill: url(#linear-gradient-8);
      }

      .cls-16 {
        fill: url(#linear-gradient-4);
      }
    </style>
    <linearGradient id="linear-gradient" x1="719.57" y1="744.21" x2="719.57" y2="1029.7" gradientUnits="userSpaceOnUse">
      <stop offset="0" stop-color="#10ffe2"/>
      <stop offset=".1" stop-color="#15fedf"/>
      <stop offset=".23" stop-color="#25fdd6"/>
      <stop offset=".38" stop-color="#40fbc9"/>
      <stop offset=".53" stop-color="#65f9b6"/>
      <stop offset=".7" stop-color="#94f69e"/>
      <stop offset=".87" stop-color="#cdf281"/>
      <stop offset="1" stop-color="#feef69"/>
    </linearGradient>
    <linearGradient id="linear-gradient-2" x1="724.16" y1="809.93" x2="724.16" y2="321.95" gradientUnits="userSpaceOnUse">
      <stop offset="0" stop-color="#feef69"/>
      <stop offset=".02" stop-color="#eef070"/>
      <stop offset=".08" stop-color="#c0f388"/>
      <stop offset=".15" stop-color="#96f59d"/>
      <stop offset=".22" stop-color="#72f8b0"/>
      <stop offset=".3" stop-color="#53fabf"/>
      <stop offset=".39" stop-color="#3afccc"/>
      <stop offset=".48" stop-color="#27fdd6"/>
      <stop offset=".59" stop-color="#1afedc"/>
      <stop offset=".73" stop-color="#12fee0"/>
      <stop offset="1" stop-color="#10ffe2"/>
    </linearGradient>
    <linearGradient id="linear-gradient-3" x1="642.01" y1="361.8" x2="872.48" y2="228.74" gradientUnits="userSpaceOnUse">
      <stop offset="0" stop-color="#c401db"/>
      <stop offset=".15" stop-color="#d807cf"/>
      <stop offset=".37" stop-color="#f310c0"/>
      <stop offset=".5" stop-color="#fd14bb"/>
      <stop offset=".62" stop-color="#fd16b9"/>
      <stop offset=".7" stop-color="#fd1fb6"/>
      <stop offset=".76" stop-color="#fd2daf"/>
      <stop offset=".82" stop-color="#fd42a6"/>
      <stop offset=".87" stop-color="#fd5d9a"/>
      <stop offset=".92" stop-color="#fe7e8b"/>
      <stop offset=".96" stop-color="#fea57a"/>
      <stop offset="1" stop-color="#ffc96b"/>
    </linearGradient>
    <linearGradient id="linear-gradient-4" x1="464.57" y1="361.72" x2="511.77" y2="443.48" gradientUnits="userSpaceOnUse">
      <stop offset="0" stop-color="#c401db"/>
      <stop offset=".11" stop-color="#b603e0"/>
      <stop offset=".51" stop-color="#8b0df0"/>
      <stop offset=".82" stop-color="#7012fb"/>
      <stop offset="1" stop-color="#6715ff"/>
    </linearGradient>
    <linearGradient id="linear-gradient-5" x1="531.87" y1="264.07" x2="396.98" y2="497.7" xlink:href="#linear-gradient-4"/>
    <linearGradient id="linear-gradient-6" x1="727.08" y1="693.88" x2="727.08" y2="633.42" gradientTransform="translate(-71.75 -6.82) scale(1.12 1)" gradientUnits="userSpaceOnUse">
      <stop offset="0" stop-color="#c401db"/>
      <stop offset=".23" stop-color="#dc09cd"/>
      <stop offset=".46" stop-color="#ee0fc3"/>
      <stop offset=".72" stop-color="#f912bc"/>
      <stop offset="1" stop-color="#fd14bb"/>
    </linearGradient>
    <linearGradient id="linear-gradient-7" x1="721.69" y1="683.92" x2="721.69" y2="623.46" gradientTransform="translate(1346.72 1466.47) rotate(-90) scale(1.12 -1)" xlink:href="#linear-gradient-6"/>
    <radialGradient id="radial-gradient" cx="720" cy="623.84" fx="720" fy="623.84" r="38.34" gradientUnits="userSpaceOnUse">
      <stop offset="0" stop-color="#feef69"/>
      <stop offset=".28" stop-color="#fef447"/>
      <stop offset=".76" stop-color="#fefb14"/>
      <stop offset="1" stop-color="#ff0"/>
    </radialGradient>
    <linearGradient id="linear-gradient-8" x1="718.58" y1="494.71" x2="718.58" y2="618.65" gradientUnits="userSpaceOnUse">
      <stop offset="0" stop-color="#fd14bb"/>
      <stop offset=".15" stop-color="#fd17b9"/>
      <stop offset=".28" stop-color="#fd22b5"/>
      <stop offset=".42" stop-color="#fd35ae"/>
      <stop offset=".55" stop-color="#fd4fa4"/>
      <stop offset=".67" stop-color="#fd7197"/>
      <stop offset=".8" stop-color="#fd9b88"/>
      <stop offset=".92" stop-color="#fdcb76"/>
      <stop offset="1" stop-color="#feef69"/>
    </linearGradient>
    <linearGradient id="linear-gradient-9" x1="724.69" y1="994.93" x2="724.69" y2="775.81" gradientUnits="userSpaceOnUse">
      <stop offset="0" stop-color="#8aff00"/>
      <stop offset=".16" stop-color="#8ffe05"/>
      <stop offset=".36" stop-color="#9ffc13"/>
      <stop offset=".58" stop-color="#baf82b"/>
      <stop offset=".82" stop-color="#def34c"/>
      <stop offset="1" stop-color="#feef69"/>
    </linearGradient>
    <linearGradient id="linear-gradient-10" x1="723.17" y1="853.97" x2="723.17" y2="743.69" xlink:href="#linear-gradient-9"/>
    <linearGradient id="linear-gradient-11" x1="892.43" y1="642.65" x2="892.43" y2="498.64" gradientUnits="userSpaceOnUse">
      <stop offset="0" stop-color="#101220"/>
      <stop offset=".42" stop-color="#111120"/>
      <stop offset=".57" stop-color="#181023"/>
      <stop offset=".68" stop-color="#240f28"/>
      <stop offset=".76" stop-color="#350d30"/>
      <stop offset=".84" stop-color="#4b0a39"/>
      <stop offset=".9" stop-color="#660745"/>
      <stop offset=".96" stop-color="#860352"/>
      <stop offset="1" stop-color="#9e005d"/>
    </linearGradient>
    <linearGradient id="linear-gradient-12" x1="547.57" y1="647.23" x2="547.57" y2="503.22" xlink:href="#linear-gradient-11"/>
  </defs>
  <g class="cls-22">
    <g id="mascot">
      <rect id="artboard-ref" class="cls-21" x="-.43" y="1.87" width="1440" height="900"/>
      <g id="mascot-base">
        <path class="cls-3" d="M1040.6,829.29c0,107.39-73.92,194.45-165.1,194.45-19.87,0-38.92-4.13-56.56-11.72-31.13,11.47-64.39,17.68-98.94,17.68s-68.13-6.27-99.39-17.84c-17.76,7.69-36.94,11.88-56.96,11.88-91.18,0-165.1-87.06-165.1-194.45,0-8.15.43-16.18,1.26-24.07,7.42,3.47,16.4,5.22,27.17,4.58,18.66-1.11,42.71-9.37,73.38-28.2,2.3-1.41,4.58-2.76,6.85-4.05,100.7-57.33,166.5,4.97,166.5,4.97,0,0,2.21,1.56,6.3,3.77,6.51,3.53,17.77,8.72,32.48,11.99,4.51,1.02,9.35,1.84,14.48,2.38,24.7,2.61,56.06-1.4,89.83-23.65,2.51-1.66,5-3.24,7.46-4.75,64.01-39.34,110.73-31.14,142.85-12.66,4.97,2.85,9.58,5.95,13.86,9.16,11.66,8.74,27.43,9.94,42.95,6.45,3.2-.72,6.38-1.63,9.52-2.72,4.66,17.97,7.16,37.04,7.16,56.8Z"/>
        <path class="cls-23" d="M1040.6,829.29c0,107.39-73.92,194.45-165.1,194.45-19.87,0-38.92-4.13-56.56-11.72-31.13,11.47-64.39,17.68-98.94,17.68s-68.13-6.27-99.39-17.84c-17.76,7.69-36.94,11.88-56.96,11.88-91.18,0-165.1-87.06-165.1-194.45,0-8.15.43-16.18,1.26-24.07,7.42,3.47,16.4,5.22,27.17,4.58,2.37-.14,4.83-.4,7.38-.78,1.41,30.89,4.93,72.39,13.72,87.23,14.68,24.76,9.17-22.01,16.51-26.6,7.34-4.59,12.84-16.51,24.77,29.35,11.92,45.86,34.85,71.54,43.1,70.62,8.26-.91-9.23-40.49,2.76-37.6,25.68,6.19,24.3,19.26,66.95,44.02,58.51,33.97,208.21,37.61,272.41-10.08,64.2-47.7,54.11-23.85,48.61-1.84s62.37-36.69,64.2-99.06c1.84-62.37,24.77-6.42,21.1,18.35-3.43,23.13,28.36,15.06,2.66-106.45,4.21-.19,8.5-.79,12.77-1.75,3.2-.72,6.38-1.63,9.52-2.72,4.66,17.97,7.16,37.04,7.16,56.8Z"/>
        <path class="cls-4" d="M1060.51,674.87c-8.74-15.31-18.86-32.23-26.84-51.91-1.71-13.33-4.07-26.42-7.07-39.22-.36-1.6-.75-3.19-1.14-4.78-2.57-10.4-5.54-20.62-8.92-30.61-9.13-27.13-21.14-52.68-35.6-76.18-40.64-66.03-100.66-115.87-170.85-139.18.14,39.69-13.99,77.27-60.71,88.61-100.63,24.42-96.5-40.66-74.31-99.65-15.67,2.5-30.98,6.29-45.83,11.26-19.38,6.49-37.98,15-55.61,25.32-5.18,3.04-10.28,6.23-15.29,9.57-39.68,26.46-73.78,62.37-99.83,104.97-.37.6-.74,1.2-1.1,1.8-1.26,2.09-2.5,4.19-3.71,6.31-12.98,22.51-23.75,46.77-31.96,72.4-3.32,10.33-6.23,20.88-8.68,31.63-3.29,14.3-5.79,28.95-7.47,43.89-5.68,25.23-11.01,41.95-15.77,53.74-12.88,31.95-21.53,27.66-21.53,58.4,0,24.65,7.95,52.99,31.52,63.98,7.42,3.47,16.4,5.22,27.17,4.58,18.66-1.11,42.71-9.37,73.38-28.2,2.3-1.41,4.58-2.76,6.85-4.05,21.33-12.15,41.09-18.92,58.99-22.05,28.73-5.04,52.67-.71,70.61,5.84,23.67,8.66,36.9,21.18,36.9,21.18,0,0,2.21,1.56,6.3,3.77,6.51,3.53,17.77,8.72,32.48,11.99,4.51,1.02,9.35,1.84,14.48,2.38,24.7,2.61,56.06-1.4,89.83-23.65,2.51-1.66,5-3.24,7.46-4.75,13.15-8.08,25.58-14.16,37.29-18.55,18.23-6.84,34.75-9.59,49.64-9.49,22.12.14,40.67,6.6,55.92,15.38,4.97,2.85,9.58,5.95,13.86,9.16,11.66,8.74,27.43,9.94,42.95,6.45,3.2-.72,6.38-1.63,9.52-2.72,24.81-8.59,46.59-28.01,46.59-45.92,0-16.25-8.72-32.75-19.52-51.7ZM610.52,500.48c43,16.5,80.37,37.85,108.48,60.5,28.24-22.99,66.04-44.69,109.63-61.42,4.41-1.69,8.81-3.31,13.2-4.85-12.11,19.7-19.56,46.46-19.56,75.93,0,5.8.29,11.5.85,17.06-20.49,9.28-38.96,19.63-54.84,30.55-.28-.41-.58-.81-.92-1.2-6.82-8.06-25.45-13.85-47.36-13.85-23.34,0-42.95,6.56-48.54,15.45-.21-.15-.43-.28-.64-.42-15.8-10.22-33.86-19.87-53.7-28.5.4-4.74.61-9.58.61-14.5,0-31.71-8.62-60.28-22.41-80.29,5.05,1.74,10.12,3.59,15.2,5.54Z"/>
        <path class="cls-20" d="M1080.03,726.57c0,17.91-21.78,37.33-46.59,45.92-3.14,1.09-6.32,2-9.52,2.72-15.52,3.49-31.29,2.29-42.95-6.45-4.28-3.21-8.89-6.31-13.86-9.16-15.25-8.78-33.8-15.24-55.92-15.38-14.89-.1-31.41,2.65-49.64,9.49-11.71,4.39-24.14,10.47-37.29,18.55-2.46,1.51-4.95,3.09-7.46,4.75-33.77,22.25-65.13,26.26-89.83,23.65-5.13-.54-9.97-1.36-14.48-2.38-14.71-3.27-25.97-8.46-32.48-11.99-4.09-2.21-6.3-3.77-6.3-3.77,0,0-13.23-12.52-36.9-21.18-17.94-6.55-41.88-10.88-70.61-5.84-17.9,3.13-37.66,9.9-58.99,22.05-2.27,1.29-4.55,2.64-6.85,4.05-30.67,18.83-54.72,27.09-73.38,28.2-10.77.64-19.75-1.11-27.17-4.58-23.57-10.99-31.52-39.33-31.52-63.98,0-30.74,8.65-26.45,21.53-58.4,4.76-11.79,10.09-28.51,15.77-53.74,1.68-14.94,4.18-29.59,7.47-43.89,2.45-10.75,5.36-21.3,8.68-31.63,8.21-25.63,18.98-49.89,31.96-72.4,1.21-2.12,2.45-4.22,3.71-6.31.36-.6.73-1.2,1.1-1.8,26.05-42.6,60.15-78.51,99.83-104.97,5.01-3.34,10.11-6.53,15.29-9.57,17.63-10.32,36.23-18.83,55.61-25.32,14.85-4.97,30.16-8.76,45.83-11.26-1.84,4.89-3.56,9.82-5.1,14.74-11.23,2.19-22.25,5.08-33.01,8.62-18.17,5.99-35.62,13.84-52.16,23.36-4.86,2.81-9.64,5.75-14.34,8.83-37.22,24.42-69.2,57.55-93.64,96.86-.34.55-.69,1.1-1.03,1.66-1.18,1.93-2.34,3.86-3.48,5.82-12.17,20.77-22.27,43.15-29.98,66.8-3.11,9.53-5.84,19.27-8.14,29.18-3.08,13.2-5.43,26.72-7,40.5-5.33,23.28-10.33,38.71-14.8,49.58-12.08,29.48-20.19,25.53-20.19,53.89,0,22.74,7.46,48.89,29.56,59.03,6.96,3.2,15.39,4.82,25.49,4.23,17.5-1.03,40.06-8.65,68.83-26.02,2.16-1.3,4.29-2.55,6.42-3.74,20.01-11.21,38.54-17.46,55.33-20.34,26.95-4.66,49.41-.66,66.23,5.38,22.21,7.99,34.61,19.55,34.61,19.55,0,0,2.08,1.43,5.91,3.47,6.11,3.26,16.67,8.05,30.47,11.07,4.23.94,8.77,1.69,13.58,2.19,23.17,2.41,52.58-1.29,84.26-21.82,2.35-1.53,4.69-2.99,7-4.38,12.33-7.46,23.99-13.07,34.97-17.12,17.1-6.31,32.6-8.84,46.56-8.75,20.75.13,38.15,6.09,52.45,14.19,4.67,2.63,8.99,5.49,13.01,8.45,10.93,8.06,25.72,9.17,40.28,5.95,3-.66,5.99-1.5,8.93-2.51,23.27-7.92,43.7-25.84,43.7-42.37,0-14.99-8.18-30.21-18.31-47.7-8.2-14.13-17.69-29.74-25.17-47.9-1.61-12.29-3.82-24.37-6.64-36.18-.33-1.48-.7-2.95-1.06-4.41-2.42-9.6-5.2-19.03-8.37-28.25-8.56-25.03-19.83-48.6-33.39-70.28-37.54-60.01-92.72-105.52-157.27-127.42.36-4.32.53-8.71.51-13.12,70.19,23.31,130.21,73.15,170.85,139.18,14.46,23.5,26.47,49.05,35.6,76.18,3.38,9.99,6.35,20.21,8.92,30.61.39,1.59.78,3.18,1.14,4.78,3,12.8,5.36,25.89,7.07,39.22,7.98,19.68,18.1,36.6,26.84,51.91,10.8,18.95,19.52,35.45,19.52,51.7Z"/>
        <path class="cls-1" d="M845.69,311.54c-15.54,1.66-27.95-.48-38.04-7.89,1.5,9.67,2.4,19.57,2.44,29.34.14,39.69-13.99,77.27-60.71,88.61-100.63,24.42-96.5-40.66-74.31-99.65-15.67,2.5-30.98,6.29-45.83,11.26,17.97-43.08,82.16-180.06,166.92-166.13,100.43,16.51,88.05,140.33,49.53,144.46Z"/>
        <path class="cls-18" d="M845.69,311.54c-15.54,1.66-27.95-.48-38.04-7.89,1.5,9.67,2.4,19.57,2.44,29.34.14,39.69-13.99,77.27-60.71,88.61-100.63,24.42-96.5-40.66-74.31-99.65-15.67,2.5-30.98,6.29-45.83,11.26,3.7-8.87,9.36-21.72,16.76-36.42,28.5-47.77,60.27-58.63,77.24-37.08,0,0-30.27,22.25-30.27,88.97s53.67,60.1,71.55,45.4c20.63-16.97,46.77-68.79,32.33-106.62-14.45-37.84,1.6-7.57,31.41,9.86,28.26,16.53,78.37-125.66-74.01-125.23,13.27-5.32,27.28-7.41,41.91-5.01,100.43,16.51,88.05,140.33,49.53,144.46Z"/>
        <path class="cls-6" d="M705.36,259.25c-9.17,15.55-21.24,38.62-30.29,62.7"/>
        <path class="cls-6" d="M774.7,244.86c10.03,15.01,23.38,37.36,33.77,60.9"/>
        <path class="cls-16" d="M558.34,368.1c-40.24,26.83-74.74,63.38-100.93,106.77l-33.56-27.64s12.58-79.54,92.18-113.97l42.31,34.84Z"/>
        <path class="cls-19" d="M558.34,368.1c-40.24,26.83-74.74,63.38-100.93,106.77l-33.56-27.64s.97-6.13,4.07-15.71l27.68,24.34c24.97-38.49,56.56-71.17,92.8-95.94l9.94,8.18Z"/>
        <path class="cls-13" d="M587.06,295.98s-3.48,27.31-13.43,62.55c-5.18,3.04-10.28,6.23-15.29,9.57l-42.31-34.84c-79.6,34.43-92.18,113.97-92.18,113.97l33.56,27.64c-1.26,2.09-2.5,4.19-3.71,6.31-26.78,2.46-58.61,2.97-89.46-2.38,0,0,9.4-140.98,67.36-199.12,0,0,112.28-10.86,155.46,16.3Z"/>
        <ellipse class="cls-9" cx="744.86" cy="656.83" rx="19.83" ry="30.23" transform="translate(-223.6 876.68) rotate(-54.2)"/>
        <ellipse class="cls-7" cx="693.03" cy="655.92" rx="30.23" ry="19.83" transform="translate(-252.75 529.38) rotate(-35.8)"/>
        <path class="cls-10" d="M770.14,623.84c0,6.49-7.28,12.28-18.66,16.07-4.14,1.37-8.83,2.48-13.91,3.27-5.05.77-10.47,1.22-16.14,1.29-.47.01-.95.01-1.43.01s-.91,0-1.36-.01c-5.19-.06-10.17-.44-14.85-1.1-5.2-.72-10.02-1.8-14.29-3.15-11.94-3.77-19.64-9.7-19.64-16.38,0-1.79.55-3.53,1.6-5.19,5.59-8.89,25.2-15.45,48.54-15.45,21.91,0,40.54,5.79,47.36,13.85.34.39.64.79.92,1.2,1.15,1.69,1.8,3.48,1.85,5.32.01.09.01.18.01.27Z"/>
        <path class="cls-15" d="M822.27,570.64c0,5.8.29,11.5.85,17.06-20.49,9.28-38.96,19.63-54.84,30.55-.28-.41-.58-.81-.92-1.2-6.82-8.06-25.45-13.85-47.36-13.85-23.34,0-42.95,6.56-48.54,15.45-.21-.15-.43-.28-.64-.42-15.8-10.22-33.86-19.87-53.7-28.5.4-4.74.61-9.58.61-14.5,0-31.71-8.62-60.28-22.41-80.29,5.05,1.74,10.12,3.59,15.2,5.54,43,16.5,80.37,37.85,108.48,60.5,28.24-22.99,66.04-44.69,109.63-61.42,4.41-1.69,8.81-3.31,13.2-4.85-12.11,19.7-19.56,46.46-19.56,75.93Z"/>
        <polygon class="cls-2" points="783.79 937.26 727.62 994.93 665.58 942.33 721.76 775.81 783.79 937.26"/>
        <path class="cls-17" d="M721.76,775.81l-56.18,166.52,62.04,52.6,56.17-57.67-62.03-161.45ZM726.85,971.16l-45.92-38.92,42.31-124.04,45.54,119.87-41.93,43.09Z"/>
        <polygon class="cls-12" points="782.28 796.29 726.1 853.97 664.07 801.37 720.24 743.69 782.28 796.29"/>
        <polygon class="cls-5" points="782.28 796.29 726.1 853.97 664.07 801.37 676.18 788.93 726.1 831.27 770.17 786.02 782.28 796.29"/>
      </g>
      <g id="eyes">
        <g id="eye-right">
          <g id="eye-right-sclera">
            <path class="cls-8" d="M962.6,570.64c0,28.21-6.83,53.92-18.03,73.35-12.84,22.26-31.44,36.26-52.14,36.26-7.38,0-14.5-1.78-21.18-5.09-25.04-12.36-43.99-46.07-48.13-87.46-.56-5.56-.85-11.26-.85-17.06,0-29.47,7.45-56.23,19.56-75.93,12.77-20.75,30.72-33.67,50.6-33.67,12.08,0,23.46,4.77,33.39,13.18,18.14,15.36,31.46,42.84,35.49,75.5.85,6.77,1.29,13.77,1.29,20.92Z"/>
          </g>
          <g id="eye-right-pupil">
            <path class="cls-11" d="M924.11,570.64c0,18.53-3.08,35.42-8.14,48.19-5.8,14.62-14.19,23.82-23.54,23.82-3.33,0-6.54-1.17-9.56-3.35-11.3-8.12-19.86-30.26-21.72-57.45-.26-3.65-.39-7.4-.39-11.21,0-19.36,3.36-36.94,8.83-49.88,5.77-13.63,13.87-22.12,22.84-22.12,5.46,0,10.59,3.14,15.08,8.66,2.51,3.1,4.83,6.95,6.87,11.43l-17.02,35.71,23.95-13.39c1,5,1.75,10.31,2.22,15.85.38,4.45.58,9.04.58,13.74Z"/>
          </g>
          <g id="eye-right-anchor">
            <circle class="cls-21" cx="892.43" cy="570.64" r=".5"/>
          </g>
        </g>
        <g id="eye-left">
          <g id="eye-left-sclera">
            <path class="cls-8" d="M617.73,575.22c0,28.21-6.83,53.92-18.03,73.35-12.84,22.26-31.44,36.26-52.14,36.26-7.38,0-14.5-1.78-21.18-5.09-25.04-12.36-43.99-46.07-48.13-87.46-.56-5.56-.85-11.26-.85-17.06,0-29.47,7.45-56.23,19.56-75.93,12.77-20.75,30.72-33.67,50.6-33.67,12.08,0,23.46,4.77,33.39,13.18,18.14,15.36,31.46,42.84,35.49,75.5.85,6.77,1.29,13.77,1.29,20.92Z"/>
          </g>
          <g id="eye-left-pupil">
            <path class="cls-14" d="M579.24,575.22c0,18.53-3.08,35.42-8.14,48.19-5.8,14.62-14.19,23.82-23.54,23.82-3.33,0-6.54-1.17-9.56-3.35-11.3-8.12-19.86-30.26-21.72-57.45-.26-3.65-.39-7.4-.39-11.21,0-19.36,3.36-36.94,8.83-49.88,5.77-13.63,13.87-22.12,22.84-22.12,5.46,0,10.59,3.14,15.08,8.66,2.51,3.1,4.83,6.95,6.87,11.43l-17.02,35.71,23.95-13.39c1,5,1.75,10.31,2.22,15.85.38,4.45.58,9.04.58,13.74Z"/>
          </g>
          <g id="eye-left-anchor">
            <circle class="cls-21" cx="547.57" cy="575.22" r=".5"/>
          </g>
        </g>
      </g>
    </g>
  </g>
</svg>