<svg width="717" height="909" viewBox="0 0 717 909" fill="none" xmlns="http://www.w3.org/2000/svg">
<path d="M7.2636 601.487C7.2636 601.487 -25.3664 770.117 80.1736 783.207C185.704 796.297 51.0136 559.557 7.2636 601.487Z" fill="url(#paint0_linear_848_239)" stroke="#490B40" stroke-width="5" stroke-linecap="round" stroke-linejoin="round"/>
<path d="M674.81 665.702C674.81 773.092 600.89 860.152 509.71 860.152C489.84 860.152 470.79 856.022 453.15 848.432C422.02 859.902 388.76 866.112 354.21 866.112C319.66 866.112 286.08 859.842 254.82 848.272C237.06 855.962 217.88 860.152 197.86 860.152C106.68 860.152 32.76 773.092 32.76 665.702C32.76 657.552 33.19 649.522 34.02 641.632C41.44 645.102 50.4201 646.852 61.1901 646.212C79.8501 645.102 103.9 636.842 134.57 618.012C136.87 616.602 139.15 615.252 141.42 613.962C242.12 556.632 307.92 618.932 307.92 618.932C307.92 618.932 310.13 620.492 314.22 622.702C320.73 626.232 331.99 631.422 346.7 634.692C351.21 635.712 356.05 636.532 361.18 637.072C385.88 639.682 417.24 635.672 451.01 613.422C453.52 611.762 456.01 610.182 458.47 608.672C522.48 569.332 569.2 577.532 601.32 596.012C606.29 598.862 610.9 601.962 615.18 605.172C626.84 613.912 642.61 615.112 658.13 611.622C661.33 610.902 664.51 609.992 667.65 608.902C672.31 626.872 674.81 645.942 674.81 665.702Z" fill="url(#paint1_linear_848_239)" stroke="#490B40" stroke-width="5" stroke-miterlimit="10"/>
<g style="mix-blend-mode:darken">
<path d="M674.81 665.702C674.81 773.092 600.89 860.152 509.71 860.152C489.84 860.152 470.79 856.022 453.15 848.432C422.02 859.902 388.76 866.112 354.21 866.112C319.66 866.112 286.08 859.842 254.82 848.272C237.06 855.962 217.88 860.152 197.86 860.152C106.68 860.152 32.76 773.092 32.76 665.702C32.76 657.552 33.19 649.522 34.02 641.632C41.44 645.102 50.4201 646.852 61.1901 646.212C63.5601 646.072 66.0201 645.812 68.5701 645.432C69.9801 676.322 73.5 717.822 82.29 732.662C96.97 757.422 91.46 710.652 98.8 706.062C106.14 701.472 111.64 689.552 123.57 735.412C135.49 781.272 158.42 806.952 166.67 806.032C174.93 805.122 157.44 765.542 169.43 768.432C195.11 774.622 193.73 787.692 236.38 812.452C294.89 846.422 444.59 850.062 508.79 802.372C572.99 754.672 562.9 778.522 557.4 800.532C551.9 822.542 619.77 763.842 621.6 701.472C623.44 639.102 646.37 695.052 642.7 719.822C639.27 742.952 671.06 734.882 645.36 613.372C649.57 613.182 653.86 612.582 658.13 611.622C661.33 610.902 664.51 609.992 667.65 608.902C672.31 626.872 674.81 645.942 674.81 665.702Z" fill="#CCCCCC"/>
</g>
<path d="M694.72 511.282C685.98 495.972 675.86 479.052 667.88 459.372C666.17 446.042 663.81 432.952 660.81 420.152C660.45 418.552 660.06 416.962 659.67 415.372C657.1 404.972 654.13 394.752 650.75 384.762C641.62 357.632 629.61 332.082 615.15 308.582C574.51 242.552 514.49 192.712 444.3 169.402C444.44 209.092 430.31 246.672 383.59 258.012C282.96 282.432 287.09 217.352 309.28 158.362C293.61 160.862 278.3 164.652 263.45 169.622C244.07 176.112 225.47 184.622 207.84 194.942C202.66 197.982 197.56 201.172 192.55 204.512C152.87 230.972 118.77 266.882 92.72 309.482C92.35 310.082 91.98 310.682 91.62 311.282C90.36 313.372 89.12 315.472 87.91 317.592C74.93 340.102 64.1601 364.362 55.9501 389.992C52.6301 400.322 49.72 410.872 47.27 421.622C43.98 435.922 41.48 450.572 39.8 465.512C34.12 490.742 28.79 507.462 24.03 519.252C11.15 551.202 2.5 546.912 2.5 577.652C2.5 602.302 10.45 630.642 34.02 641.632C41.44 645.102 50.4201 646.852 61.1901 646.212C79.8501 645.102 103.9 636.842 134.57 618.012C136.87 616.602 139.15 615.252 141.42 613.962C162.75 601.812 182.51 595.042 200.41 591.912C229.14 586.872 253.08 591.202 271.02 597.752C294.69 606.412 307.92 618.932 307.92 618.932C307.92 618.932 310.13 620.492 314.22 622.702C320.73 626.232 331.99 631.422 346.7 634.692C351.21 635.712 356.05 636.532 361.18 637.072C385.88 639.682 417.24 635.672 451.01 613.422C453.52 611.762 456.01 610.182 458.47 608.672C471.62 600.592 484.05 594.512 495.76 590.122C513.99 583.282 530.51 580.532 545.4 580.632C567.52 580.772 586.07 587.232 601.32 596.012C606.29 598.862 610.9 601.962 615.18 605.172C626.84 613.912 642.61 615.112 658.13 611.622C661.33 610.902 664.51 609.992 667.65 608.902C692.46 600.312 714.24 580.892 714.24 562.982C714.24 546.732 705.52 530.232 694.72 511.282ZM244.73 336.892C287.73 353.392 325.1 374.742 353.21 397.392C381.45 374.402 419.25 352.702 462.84 335.972C467.25 334.282 471.65 332.662 476.04 331.122C463.93 350.822 456.48 377.582 456.48 407.052C456.48 412.852 456.77 418.552 457.33 424.112C436.84 433.392 418.37 443.742 402.49 454.662C402.21 454.252 401.91 453.852 401.57 453.462C394.75 445.402 376.12 439.612 354.21 439.612C330.87 439.612 311.26 446.172 305.67 455.062C305.46 454.912 305.24 454.782 305.03 454.642C289.23 444.422 271.17 434.772 251.33 426.142C251.73 421.402 251.94 416.562 251.94 411.642C251.94 379.932 243.32 351.362 229.53 331.352C234.58 333.092 239.65 334.942 244.73 336.892Z" fill="url(#paint2_linear_848_239)" stroke="#490B40" stroke-width="5" stroke-miterlimit="10"/>
<g style="mix-blend-mode:exclusion" opacity="0.15">
<path d="M714.24 562.982C714.24 580.892 692.46 600.312 667.65 608.902C664.51 609.992 661.33 610.902 658.13 611.622C642.61 615.112 626.84 613.912 615.18 605.172C610.9 601.962 606.29 598.862 601.32 596.012C586.07 587.232 567.52 580.772 545.4 580.632C530.51 580.532 513.99 583.282 495.76 590.122C484.05 594.512 471.62 600.592 458.47 608.672C456.01 610.182 453.52 611.762 451.01 613.422C417.24 635.672 385.88 639.682 361.18 637.072C356.05 636.532 351.21 635.712 346.7 634.692C331.99 631.422 320.73 626.232 314.22 622.702C310.13 620.492 307.92 618.932 307.92 618.932C307.92 618.932 294.69 606.412 271.02 597.752C253.08 591.202 229.14 586.872 200.41 591.912C182.51 595.042 162.75 601.812 141.42 613.962C139.15 615.252 136.87 616.602 134.57 618.012C103.9 636.842 79.8501 645.102 61.1901 646.212C50.4201 646.852 41.44 645.102 34.02 641.632C10.45 630.642 2.5 602.302 2.5 577.652C2.5 546.912 11.15 551.202 24.03 519.252C28.79 507.462 34.12 490.742 39.8 465.512C41.48 450.572 43.98 435.922 47.27 421.622C49.72 410.872 52.6301 400.322 55.9501 389.992C64.1601 364.362 74.93 340.102 87.91 317.592C89.12 315.472 90.36 313.372 91.62 311.282C91.98 310.682 92.35 310.082 92.72 309.482C118.77 266.882 152.87 230.972 192.55 204.512C197.56 201.172 202.66 197.982 207.84 194.942C225.47 184.622 244.07 176.112 263.45 169.622C278.3 164.652 293.61 160.862 309.28 158.362C307.44 163.252 305.72 168.182 304.18 173.102C292.95 175.292 281.93 178.182 271.17 181.722C253 187.712 235.55 195.562 219.01 205.082C214.15 207.892 209.37 210.832 204.67 213.912C167.45 238.332 135.47 271.462 111.03 310.772C110.69 311.322 110.34 311.872 110 312.432C108.82 314.362 107.66 316.292 106.52 318.252C94.35 339.022 84.25 361.402 76.54 385.052C73.43 394.582 70.7 404.322 68.4 414.232C65.32 427.432 62.97 440.952 61.4 454.732C56.07 478.012 51.07 493.442 46.6 504.312C34.52 533.792 26.41 529.842 26.41 558.202C26.41 580.942 33.87 607.092 55.97 617.232C62.93 620.432 71.36 622.052 81.46 621.462C98.96 620.432 121.52 612.812 150.29 595.442C152.45 594.142 154.58 592.892 156.71 591.702C176.72 580.492 195.25 574.242 212.04 571.362C238.99 566.702 261.45 570.702 278.27 576.742C300.48 584.732 312.88 596.292 312.88 596.292C312.88 596.292 314.96 597.722 318.79 599.762C324.9 603.022 335.46 607.812 349.26 610.832C353.49 611.772 358.03 612.522 362.84 613.022C386.01 615.432 415.42 611.732 447.1 591.202C449.45 589.672 451.79 588.212 454.1 586.822C466.43 579.362 478.09 573.752 489.07 569.702C506.17 563.392 521.67 560.862 535.63 560.952C556.38 561.082 573.78 567.042 588.08 575.142C592.75 577.772 597.07 580.632 601.09 583.592C612.02 591.652 626.81 592.762 641.37 589.542C644.37 588.882 647.36 588.042 650.3 587.032C673.57 579.112 694 561.192 694 544.662C694 529.672 685.82 514.452 675.69 496.962C667.49 482.832 658 467.222 650.52 449.062C648.91 436.772 646.7 424.692 643.88 412.882C643.55 411.402 643.18 409.932 642.82 408.472C640.4 398.872 637.62 389.442 634.45 380.222C625.89 355.192 614.62 331.622 601.06 309.942C563.52 249.932 508.34 204.422 443.79 182.522C444.15 178.202 444.32 173.812 444.3 169.402C514.49 192.712 574.51 242.552 615.15 308.582C629.61 332.082 641.62 357.632 650.75 384.762C654.13 394.752 657.1 404.972 659.67 415.372C660.06 416.962 660.45 418.552 660.81 420.152C663.81 432.952 666.17 446.042 667.88 459.372C675.86 479.052 685.98 495.972 694.72 511.282C705.52 530.232 714.24 546.732 714.24 562.982Z" fill="#10FFE2"/>
</g>
<path d="M599.69 290.232C588.17 292.312 560.16 283.192 556.83 282.222C540.81 277.552 524.65 273.532 508.39 269.912C445.13 256.382 380.24 251.472 315.8 255.142C239.77 259.482 164.32 275.802 93.01 304.062C96.64 276.942 112.74 252.922 133.13 236.002C153.52 219.082 177.99 208.552 202.7 200.262C250.48 184.232 300.51 175.802 350.64 174.982C390.19 174.332 430.41 176.522 468.9 186.782C503.55 196.012 538.08 200.992 564.73 228.422C579.61 243.742 591.17 262.222 602.61 280.552C606.38 286.592 604.44 289.362 599.68 290.222L599.69 290.232Z" fill="#6715FF" stroke="#490B40" stroke-width="5" stroke-miterlimit="10"/>
<path d="M479.9 147.952C464.36 149.612 451.95 147.472 441.86 140.062C443.36 149.732 444.26 159.632 444.3 169.402C444.44 209.092 430.31 246.672 383.59 258.012C282.96 282.432 287.09 217.352 309.28 158.362C293.61 160.862 278.3 164.652 263.45 169.622C281.42 126.542 345.61 -10.4377 430.37 3.49235C530.8 20.0023 518.42 143.822 479.9 147.952Z" fill="url(#paint3_linear_848_239)" stroke="#490B40" stroke-width="5" stroke-linecap="round" stroke-linejoin="round"/>
<g style="mix-blend-mode:difference" opacity="0.15">
<path d="M479.9 147.953C464.36 149.613 451.95 147.473 441.86 140.063C443.36 149.733 444.26 159.633 444.3 169.403C444.44 209.093 430.31 246.673 383.59 258.013C282.96 282.433 287.09 217.353 309.28 158.363C293.61 160.863 278.3 164.653 263.45 169.623C267.15 160.753 272.81 147.903 280.21 133.203C308.71 85.4325 340.48 74.5725 357.45 96.1225C357.45 96.1225 327.18 118.373 327.18 185.093C327.18 251.813 380.85 245.193 398.73 230.493C419.36 213.523 445.5 161.703 431.06 123.873C416.61 86.0325 432.66 116.303 462.47 133.733C490.73 150.263 540.84 8.07253 388.46 8.50253C401.73 3.18253 415.74 1.09254 430.37 3.49254C530.8 20.0025 518.42 143.823 479.9 147.953Z" fill="#C401DB"/>
</g>
<path d="M339.57 95.6621C330.4 111.212 318.33 134.282 309.28 158.362" stroke="#490B40" stroke-width="5" stroke-linecap="round" stroke-linejoin="round"/>
<path d="M408.92 81.2822C418.95 96.2922 432.3 118.642 442.69 142.182" stroke="#490B40" stroke-width="5" stroke-linecap="round" stroke-linejoin="round"/>
<path d="M403.536 510.847C409.942 501.964 404.158 486.846 390.617 477.08C377.076 467.314 360.905 466.597 354.499 475.48C348.092 484.363 353.876 499.481 367.417 509.247C380.959 519.013 397.129 519.729 403.536 510.847Z" fill="url(#paint4_linear_848_239)" stroke="#490B40" stroke-width="5" stroke-miterlimit="10"/>
<path d="M338.859 508.522C352.401 498.755 358.185 483.638 351.778 474.755C345.372 465.872 329.201 466.589 315.66 476.355C302.119 486.121 296.335 501.239 302.741 510.121C309.148 519.004 325.318 518.288 338.859 508.522Z" fill="url(#paint5_linear_848_239)" stroke="#490B40" stroke-width="5" stroke-miterlimit="10"/>
<path d="M404.35 460.252C404.35 466.742 397.07 472.532 385.69 476.322C381.55 477.692 376.86 478.802 371.78 479.592C366.73 480.362 361.31 480.812 355.64 480.882C355.17 480.892 354.69 480.892 354.21 480.892C353.73 480.892 353.3 480.892 352.85 480.882C347.66 480.822 342.68 480.442 338 479.782C332.8 479.062 327.98 477.982 323.71 476.632C311.77 472.862 304.07 466.932 304.07 460.252C304.07 458.462 304.62 456.722 305.67 455.062C311.26 446.172 330.87 439.612 354.21 439.612C376.12 439.612 394.75 445.402 401.57 453.462C401.91 453.852 402.21 454.252 402.49 454.662C403.64 456.352 404.29 458.142 404.34 459.982C404.35 460.072 404.35 460.162 404.35 460.252Z" fill="url(#paint6_radial_848_239)" stroke="#490B40" stroke-width="5" stroke-miterlimit="10"/>
<path d="M456.48 407.053C456.48 412.853 456.77 418.553 457.33 424.113C436.84 433.393 418.37 443.743 402.49 454.663C402.21 454.253 401.91 453.853 401.57 453.463C394.75 445.403 376.12 439.613 354.21 439.613C330.87 439.613 311.26 446.173 305.67 455.063C305.46 454.913 305.24 454.783 305.03 454.643C289.23 444.423 271.17 434.773 251.33 426.143C251.73 421.403 251.94 416.563 251.94 411.643C251.94 379.933 243.32 351.363 229.53 331.353C234.58 333.093 239.65 334.943 244.73 336.893C287.73 353.393 325.1 374.743 353.21 397.393C381.45 374.403 419.25 352.703 462.84 335.973C467.25 334.283 471.65 332.663 476.04 331.123C463.93 350.823 456.48 377.583 456.48 407.053Z" fill="url(#paint7_linear_848_239)" stroke="#490B40" stroke-width="5" stroke-miterlimit="10"/>
<path d="M418.01 773.672L361.83 831.352L299.8 778.742L355.97 612.232L418.01 773.672Z" fill="url(#paint8_linear_848_239)" stroke="#490B40" stroke-width="5" stroke-miterlimit="10"/>
<g style="mix-blend-mode:difference" opacity="0.2">
<path d="M355.97 612.222L299.79 778.742L361.83 831.342L418 773.672L355.97 612.222ZM361.06 807.572L315.14 768.652L357.45 644.612L402.99 764.482L361.06 807.572Z" fill="#39B54A"/>
</g>
<path d="M416.49 632.713L360.31 690.383L298.28 637.783L354.45 580.103L416.49 632.713Z" fill="url(#paint9_linear_848_239)" stroke="#490B40" stroke-width="5" stroke-miterlimit="10"/>
<g style="mix-blend-mode:difference" opacity="0.15">
<path d="M416.49 632.702L360.31 690.382L298.28 637.782L310.39 625.342L360.31 667.682L404.38 622.432L416.49 632.702Z" fill="#39B54A"/>
<path d="M416.49 632.702L360.31 690.382L298.28 637.782L310.39 625.342L360.31 667.682L404.38 622.432L416.49 632.702Z" stroke="#490B40" stroke-miterlimit="10"/>
</g>
<path d="M238.97 900.002C250.424 900.002 259.71 884.1 259.71 864.482C259.71 844.865 250.424 828.962 238.97 828.962C227.516 828.962 218.23 844.865 218.23 864.482C218.23 884.1 227.516 900.002 238.97 900.002Z" fill="url(#paint10_linear_848_239)" stroke="#490B40" stroke-width="5" stroke-miterlimit="10"/>
<path d="M172.017 899.503C183.441 898.67 191.546 882.134 190.119 862.568C188.693 843.003 178.275 827.818 166.851 828.651C155.427 829.483 147.322 846.019 148.749 865.585C150.175 885.15 160.593 900.335 172.017 899.503Z" fill="url(#paint11_linear_848_239)" stroke="#490B40" stroke-width="5" stroke-miterlimit="10"/>
<path d="M205.26 906.422C218.564 906.422 229.35 887.954 229.35 865.172C229.35 842.391 218.564 823.922 205.26 823.922C191.955 823.922 181.17 842.391 181.17 865.172C181.17 887.954 191.955 906.422 205.26 906.422Z" fill="url(#paint12_linear_848_239)" stroke="#490B40" stroke-width="5" stroke-miterlimit="10"/>
<path d="M543.48 900.922C554.935 900.922 564.22 885.02 564.22 865.402C564.22 845.785 554.935 829.882 543.48 829.882C532.026 829.882 522.74 845.785 522.74 865.402C522.74 885.02 532.026 900.922 543.48 900.922Z" fill="url(#paint13_linear_848_239)" stroke="#490B40" stroke-width="5" stroke-miterlimit="10"/>
<path d="M477.449 902.275C488.873 901.443 496.978 884.907 495.551 865.341C494.125 845.776 483.707 830.591 472.283 831.424C460.859 832.256 452.755 848.792 454.181 868.358C455.607 887.923 466.025 903.108 477.449 902.275Z" fill="url(#paint14_linear_848_239)" stroke="#490B40" stroke-width="5" stroke-miterlimit="10"/>
<path d="M509.77 904.592C523.075 904.592 533.86 886.124 533.86 863.342C533.86 840.561 523.075 822.092 509.77 822.092C496.466 822.092 485.68 840.561 485.68 863.342C485.68 886.124 496.466 904.592 509.77 904.592Z" fill="url(#paint15_linear_848_239)" stroke="#490B40" stroke-width="5" stroke-miterlimit="10"/>
<path d="M596.81 407.053C596.81 435.263 589.98 460.973 578.78 480.403C565.94 502.663 547.34 516.663 526.64 516.663C519.26 516.663 512.14 514.883 505.46 511.573C480.42 499.213 461.47 465.503 457.33 424.113C456.77 418.553 456.48 412.853 456.48 407.053C456.48 377.583 463.93 350.823 476.04 331.123C488.81 310.373 506.76 297.453 526.64 297.453C538.72 297.453 550.1 302.223 560.03 310.633C578.17 325.993 591.49 353.473 595.52 386.133C596.37 392.903 596.81 399.903 596.81 407.053Z" fill="white" stroke="#490B40" stroke-width="5" stroke-miterlimit="10"/>
<path d="M251.94 411.632C251.94 439.842 245.11 465.552 233.91 484.982C221.07 507.242 202.47 521.242 181.77 521.242C174.39 521.242 167.27 519.462 160.59 516.152C135.55 503.792 116.6 470.082 112.46 428.692C111.9 423.132 111.61 417.432 111.61 411.632C111.61 382.162 119.06 355.402 131.17 335.702C143.94 314.952 161.89 302.032 181.77 302.032C193.85 302.032 205.23 306.802 215.16 315.212C233.3 330.572 246.62 358.052 250.65 390.712C251.5 397.482 251.94 404.482 251.94 411.632Z" fill="white" stroke="#490B40" stroke-width="5" stroke-miterlimit="10"/>
<path d="M204.5 441.392C204.5 458.032 202.07 473.202 198.08 484.672C193.5 497.802 186.88 506.072 179.5 506.072C176.87 506.072 174.34 505.022 171.95 503.062C163.03 495.772 156.28 475.882 154.81 451.462C154.6 448.182 154.5 444.812 154.5 441.392C154.5 424.002 157.15 408.212 161.47 396.592C166.02 384.352 172.42 376.722 179.5 376.722C183.81 376.722 187.86 379.542 191.4 384.502C193.38 387.282 195.21 390.742 196.82 394.772L183.39 426.852L202.29 414.822C203.08 419.312 203.67 424.082 204.04 429.062C204.34 433.062 204.5 437.182 204.5 441.402V441.392Z" fill="url(#paint16_linear_848_239)" stroke="#490B40" stroke-width="5" stroke-miterlimit="10"/>
<path d="M553.95 436.232C553.95 452.372 551.52 467.092 547.53 478.212C542.95 490.952 536.33 498.962 528.95 498.962C526.32 498.962 523.79 497.942 521.4 496.042C512.48 488.972 505.73 469.682 504.26 445.992C504.05 442.812 503.95 439.542 503.95 436.222C503.95 419.352 506.6 404.042 510.92 392.772C515.47 380.902 521.87 373.502 528.95 373.502C533.26 373.502 537.31 376.242 540.85 381.042C542.83 383.742 544.66 387.092 546.27 391.002L532.84 422.112L551.74 410.442C552.53 414.802 553.12 419.422 553.49 424.252C553.79 428.132 553.95 432.132 553.95 436.222V436.232Z" fill="url(#paint17_linear_848_239)" stroke="#490B40" stroke-width="5" stroke-miterlimit="10"/>
<path d="M650.5 693.831C487.324 806.561 369.845 496.408 369.845 496.408C369.845 496.408 362.732 471.05 381.219 474.9C406.894 480.246 620.139 599.981 618.68 632.786" fill="url(#paint18_linear_848_239)"/>
<path d="M650.5 693.831C487.324 806.561 369.845 496.408 369.845 496.408C369.845 496.408 362.732 471.05 381.219 474.9C406.894 480.246 620.139 599.981 618.68 632.786" stroke="#490B40" stroke-width="5" stroke-linecap="round" stroke-linejoin="round"/>
<defs>
<linearGradient id="paint0_linear_848_239" x1="45.2469" y1="578.424" x2="68.6279" y2="771.635" gradientUnits="userSpaceOnUse">
<stop stop-color="#FEEF69"/>
<stop offset="0.13" stop-color="#CBF53B"/>
<stop offset="0.3" stop-color="#BBF82C"/>
<stop offset="0.47" stop-color="#A1FB15"/>
<stop offset="0.62" stop-color="#9BFC0F"/>
<stop offset="0.77" stop-color="#A0FB13"/>
<stop offset="0.9" stop-color="#AAFA1D"/>
<stop offset="1" stop-color="#AFF921"/>
</linearGradient>
<linearGradient id="paint1_linear_848_239" x1="353.79" y1="580.632" x2="353.79" y2="866.112" gradientUnits="userSpaceOnUse">
<stop stop-color="#8AFF00"/>
<stop offset="0.16" stop-color="#8EFE04"/>
<stop offset="0.36" stop-color="#9DFC11"/>
<stop offset="0.57" stop-color="#B5F926"/>
<stop offset="0.78" stop-color="#D5F444"/>
<stop offset="1" stop-color="#FEEF69"/>
</linearGradient>
<linearGradient id="paint2_linear_848_239" x1="358.37" y1="646.342" x2="358.37" y2="158.362" gradientUnits="userSpaceOnUse">
<stop stop-color="#FEEF69"/>
<stop offset="0.05" stop-color="#FEF288"/>
<stop offset="0.1" stop-color="#FEF5A8"/>
<stop offset="0.17" stop-color="#FEF8C3"/>
<stop offset="0.24" stop-color="#FEFBD9"/>
<stop offset="0.33" stop-color="#FEFCEA"/>
<stop offset="0.44" stop-color="#FEFEF6"/>
<stop offset="0.59" stop-color="#FEFEFD"/>
<stop offset="1" stop-color="white"/>
</linearGradient>
<linearGradient id="paint3_linear_848_239" x1="276.23" y1="198.212" x2="506.69" y2="65.1524" gradientUnits="userSpaceOnUse">
<stop stop-color="#C401DB"/>
<stop offset="0.15" stop-color="#D807CF"/>
<stop offset="0.37" stop-color="#F310C0"/>
<stop offset="0.5" stop-color="#FD14BB"/>
<stop offset="0.62" stop-color="#FD16B9"/>
<stop offset="0.7" stop-color="#FD1FB6"/>
<stop offset="0.76" stop-color="#FD2DAF"/>
<stop offset="0.82" stop-color="#FD42A6"/>
<stop offset="0.87" stop-color="#FD5D9A"/>
<stop offset="0.92" stop-color="#FE7E8B"/>
<stop offset="0.96" stop-color="#FEA57A"/>
<stop offset="1" stop-color="#FFC96B"/>
</linearGradient>
<linearGradient id="paint4_linear_848_239" x1="403.559" y1="510.798" x2="354.522" y2="475.431" gradientUnits="userSpaceOnUse">
<stop stop-color="#C401DB"/>
<stop offset="0.23" stop-color="#DC09CD"/>
<stop offset="0.46" stop-color="#EE0FC3"/>
<stop offset="0.72" stop-color="#F912BC"/>
<stop offset="1" stop-color="#FD14BB"/>
</linearGradient>
<linearGradient id="paint5_linear_848_239" x1="303.294" y1="510.887" x2="352.331" y2="475.521" gradientUnits="userSpaceOnUse">
<stop stop-color="#C401DB"/>
<stop offset="0.23" stop-color="#DC09CD"/>
<stop offset="0.46" stop-color="#EE0FC3"/>
<stop offset="0.72" stop-color="#F912BC"/>
<stop offset="1" stop-color="#FD14BB"/>
</linearGradient>
<radialGradient id="paint6_radial_848_239" cx="0" cy="0" r="1" gradientUnits="userSpaceOnUse" gradientTransform="translate(354.21 460.252) scale(38.34 38.34)">
<stop stop-color="#FEEF69"/>
<stop offset="0.28" stop-color="#FEF447"/>
<stop offset="0.76" stop-color="#FEFB14"/>
<stop offset="1" stop-color="#FFFF00"/>
</radialGradient>
<linearGradient id="paint7_linear_848_239" x1="352.79" y1="331.123" x2="352.79" y2="455.063" gradientUnits="userSpaceOnUse">
<stop stop-color="#FD14BB"/>
<stop offset="0.15" stop-color="#FD17B9"/>
<stop offset="0.28" stop-color="#FD22B5"/>
<stop offset="0.42" stop-color="#FD35AE"/>
<stop offset="0.55" stop-color="#FD4FA4"/>
<stop offset="0.67" stop-color="#FD7197"/>
<stop offset="0.8" stop-color="#FD9B88"/>
<stop offset="0.92" stop-color="#FDCB76"/>
<stop offset="1" stop-color="#FEEF69"/>
</linearGradient>
<linearGradient id="paint8_linear_848_239" x1="358.9" y1="831.352" x2="358.9" y2="612.232" gradientUnits="userSpaceOnUse">
<stop stop-color="#10FFE2"/>
<stop offset="0.1" stop-color="#15FEDF"/>
<stop offset="0.23" stop-color="#25FDD6"/>
<stop offset="0.38" stop-color="#40FBC9"/>
<stop offset="0.53" stop-color="#65F9B6"/>
<stop offset="0.7" stop-color="#94F69E"/>
<stop offset="0.87" stop-color="#CDF281"/>
<stop offset="1" stop-color="#FEEF69"/>
</linearGradient>
<linearGradient id="paint9_linear_848_239" x1="357.38" y1="690.383" x2="357.38" y2="580.103" gradientUnits="userSpaceOnUse">
<stop stop-color="#10FFE2"/>
<stop offset="0.1" stop-color="#15FEDF"/>
<stop offset="0.23" stop-color="#25FDD6"/>
<stop offset="0.38" stop-color="#40FBC9"/>
<stop offset="0.53" stop-color="#65F9B6"/>
<stop offset="0.7" stop-color="#94F69E"/>
<stop offset="0.87" stop-color="#CDF281"/>
<stop offset="1" stop-color="#FEEF69"/>
</linearGradient>
<linearGradient id="paint10_linear_848_239" x1="238.97" y1="900.002" x2="238.97" y2="828.972" gradientUnits="userSpaceOnUse">
<stop stop-color="#FFFF00"/>
<stop offset="0.24" stop-color="#FEFB14"/>
<stop offset="0.72" stop-color="#FEF447"/>
<stop offset="1" stop-color="#FEEF69"/>
</linearGradient>
<linearGradient id="paint11_linear_848_239" x1="169.477" y1="899.483" x2="169.477" y2="828.573" gradientUnits="userSpaceOnUse">
<stop stop-color="#FFFF00"/>
<stop offset="0.24" stop-color="#FEFB14"/>
<stop offset="0.72" stop-color="#FEF447"/>
<stop offset="1" stop-color="#FEEF69"/>
</linearGradient>
<linearGradient id="paint12_linear_848_239" x1="205.26" y1="906.422" x2="205.26" y2="823.922" gradientUnits="userSpaceOnUse">
<stop stop-color="#FFFF00"/>
<stop offset="0.24" stop-color="#FEFB14"/>
<stop offset="0.72" stop-color="#FEF447"/>
<stop offset="1" stop-color="#FEEF69"/>
</linearGradient>
<linearGradient id="paint13_linear_848_239" x1="543.48" y1="900.922" x2="543.48" y2="829.882" gradientUnits="userSpaceOnUse">
<stop stop-color="#FFFF00"/>
<stop offset="0.24" stop-color="#FEFB14"/>
<stop offset="0.72" stop-color="#FEF447"/>
<stop offset="1" stop-color="#FEEF69"/>
</linearGradient>
<linearGradient id="paint14_linear_848_239" x1="474.909" y1="902.228" x2="474.909" y2="831.318" gradientUnits="userSpaceOnUse">
<stop stop-color="#FFFF00"/>
<stop offset="0.24" stop-color="#FEFB14"/>
<stop offset="0.72" stop-color="#FEF447"/>
<stop offset="1" stop-color="#FEEF69"/>
</linearGradient>
<linearGradient id="paint15_linear_848_239" x1="509.77" y1="904.592" x2="509.77" y2="822.092" gradientUnits="userSpaceOnUse">
<stop stop-color="#FFFF00"/>
<stop offset="0.24" stop-color="#FEFB14"/>
<stop offset="0.72" stop-color="#FEF447"/>
<stop offset="1" stop-color="#FEEF69"/>
</linearGradient>
<linearGradient id="paint16_linear_848_239" x1="179.5" y1="506.072" x2="179.5" y2="376.722" gradientUnits="userSpaceOnUse">
<stop stop-color="#101220"/>
<stop offset="0.42" stop-color="#111120"/>
<stop offset="0.57" stop-color="#181023"/>
<stop offset="0.68" stop-color="#240F28"/>
<stop offset="0.76" stop-color="#350D30"/>
<stop offset="0.84" stop-color="#4B0A39"/>
<stop offset="0.9" stop-color="#660745"/>
<stop offset="0.96" stop-color="#860352"/>
<stop offset="1" stop-color="#9E005D"/>
</linearGradient>
<linearGradient id="paint17_linear_848_239" x1="528.95" y1="498.972" x2="528.95" y2="373.512" gradientUnits="userSpaceOnUse">
<stop stop-color="#101220"/>
<stop offset="0.42" stop-color="#111120"/>
<stop offset="0.57" stop-color="#181023"/>
<stop offset="0.68" stop-color="#240F28"/>
<stop offset="0.76" stop-color="#350D30"/>
<stop offset="0.84" stop-color="#4B0A39"/>
<stop offset="0.9" stop-color="#660745"/>
<stop offset="0.96" stop-color="#860352"/>
<stop offset="1" stop-color="#9E005D"/>
</linearGradient>
<linearGradient id="paint18_linear_848_239" x1="515.046" y1="465.11" x2="501.312" y2="696.589" gradientUnits="userSpaceOnUse">
<stop stop-color="#FEEF69"/>
<stop offset="0.13" stop-color="#C8F638"/>
<stop offset="0.3" stop-color="#C1F731"/>
<stop offset="0.47" stop-color="#93FE08"/>
<stop offset="0.62" stop-color="#9CFC10"/>
<stop offset="0.77" stop-color="#9BFC10"/>
<stop offset="0.9" stop-color="#9CFD10"/>
<stop offset="1" stop-color="#9CFD10"/>
</linearGradient>
</defs>
</svg>
