<svg width="1080" height="1200" viewBox="0 0 1080 1200" fill="none" xmlns="http://www.w3.org/2000/svg">
<g clip-path="url(#clip0_715_204)">
<path d="M14.4902 791.845C14.4902 791.845 -18.1398 960.475 87.4002 973.565C192.93 986.655 58.2402 749.915 14.4902 791.845Z" fill="url(#paint0_linear_715_204)" stroke="#490B40" stroke-width="5" stroke-linecap="round" stroke-linejoin="round"/>
<path d="M768.69 839.725C768.69 961.775 684.68 1060.71 581.05 1060.71C558.47 1060.71 536.82 1056.02 516.77 1047.39C481.39 1060.43 443.59 1067.48 404.32 1067.48C365.05 1067.48 326.89 1060.35 291.36 1047.2C271.18 1055.94 249.38 1060.7 226.62 1060.7C122.99 1060.7 38.98 961.765 38.98 839.715C38.98 830.455 39.47 821.325 40.41 812.355C48.84 816.295 59.05 818.285 71.29 817.565C92.5 816.305 119.83 806.915 154.69 785.515C157.3 783.915 159.9 782.375 162.48 780.915C276.93 715.755 351.71 786.565 351.71 786.565C351.71 786.565 354.22 788.335 358.87 790.845C366.27 794.855 379.07 800.755 395.78 804.475C400.91 805.635 406.41 806.565 412.24 807.175C440.31 810.145 475.95 805.585 514.33 780.295C517.18 778.405 520.01 776.615 522.81 774.895C595.56 730.185 648.65 739.505 685.16 760.505C690.81 763.745 696.05 767.265 700.91 770.915C714.16 780.845 732.08 782.215 749.72 778.245C753.36 777.425 756.97 776.395 760.54 775.155C765.84 795.575 768.68 817.255 768.68 839.705L768.69 839.725Z" fill="url(#paint1_linear_715_204)" stroke="#490B40" stroke-width="5" stroke-miterlimit="10"/>
<g style="mix-blend-mode:darken">
<path d="M768.69 839.725C768.69 961.775 684.68 1060.71 581.05 1060.71C558.47 1060.71 536.82 1056.03 516.77 1047.4C481.39 1060.44 443.59 1067.48 404.32 1067.48C365.05 1067.48 326.89 1060.36 291.36 1047.21C271.18 1055.95 249.38 1060.71 226.62 1060.71C122.99 1060.71 38.98 961.765 38.98 839.715C38.98 830.455 39.47 821.325 40.41 812.355C48.84 816.295 59.05 818.285 71.29 817.565C73.98 817.405 76.78 817.115 79.68 816.675C81.28 851.785 85.28 898.945 95.27 915.815C111.95 943.955 105.69 890.805 114.03 885.585C122.37 880.365 128.62 866.825 142.18 918.945C155.73 971.065 181.79 1000.26 191.16 999.205C200.55 998.175 180.67 953.185 194.3 956.475C223.48 963.515 221.92 978.365 270.39 1006.51C336.88 1045.11 507.02 1049.25 579.98 995.045C652.94 940.835 641.48 967.935 635.23 992.955C628.98 1017.97 706.11 951.255 708.19 880.375C710.28 809.495 736.34 873.075 732.17 901.225C728.27 927.515 764.4 918.345 735.19 780.245C739.97 780.025 744.85 779.345 749.7 778.255C753.34 777.435 756.95 776.405 760.52 775.165C765.82 795.585 768.66 817.265 768.66 839.715L768.69 839.725Z" fill="#CCCCCC"/>
</g>
<path d="M791.32 664.225C781.39 646.825 769.89 627.595 760.82 605.225C758.88 590.075 756.19 575.195 752.78 560.655C752.37 558.835 751.93 557.025 751.48 555.225C748.56 543.405 745.18 531.795 741.34 520.435C730.96 489.605 717.31 460.565 700.88 433.855C654.69 358.815 586.48 302.165 506.71 275.675C506.87 320.785 490.81 363.495 437.71 376.385C323.34 404.135 328.04 330.175 353.26 263.135C335.45 265.975 318.05 270.285 301.17 275.935C279.14 283.315 258.01 292.985 237.97 304.715C232.08 308.175 226.29 311.795 220.59 315.595C175.49 345.665 136.74 386.475 107.13 434.895C106.71 435.575 106.29 436.255 105.88 436.945C104.45 439.325 103.04 441.705 101.66 444.115C86.9101 469.695 74.6701 497.265 65.3401 526.395C61.5701 538.135 58.2601 550.125 55.4801 562.345C51.7401 578.595 48.9001 595.245 46.9901 612.225C40.5301 640.895 34.4801 659.905 29.0701 673.305C14.4301 709.615 4.6001 704.745 4.6001 739.675C4.6001 767.685 13.6401 799.895 40.4201 812.385C48.8501 816.325 59.0601 818.315 71.3001 817.595C92.5101 816.335 119.84 806.945 154.7 785.545C157.31 783.945 159.91 782.405 162.49 780.945C186.73 767.135 209.19 759.445 229.53 755.885C262.18 750.155 289.39 755.075 309.78 762.525C336.68 772.365 351.72 786.595 351.72 786.595C351.72 786.595 354.23 788.365 358.88 790.875C366.28 794.885 379.08 800.785 395.79 804.505C400.92 805.665 406.42 806.595 412.25 807.205C440.32 810.175 475.96 805.615 514.34 780.325C517.19 778.435 520.02 776.645 522.82 774.925C537.76 765.745 551.89 758.835 565.2 753.845C585.92 746.075 604.69 742.945 621.62 743.055C646.76 743.215 667.84 750.555 685.17 760.535C690.82 763.775 696.06 767.295 700.92 770.945C714.17 780.875 732.09 782.245 749.73 778.275C753.37 777.455 756.98 776.425 760.55 775.185C788.75 765.425 813.5 743.355 813.5 722.995C813.5 704.525 803.59 685.775 791.32 664.235V664.225ZM279.9 466.025C328.77 484.775 371.24 509.045 403.19 534.785C435.28 508.655 478.24 483.995 527.78 464.985C532.79 463.065 537.79 461.225 542.78 459.475C529.02 481.865 520.55 512.275 520.55 545.765C520.55 552.355 520.88 558.835 521.52 565.155C498.23 575.705 477.24 587.465 459.19 599.875C458.87 599.405 458.53 598.955 458.14 598.515C450.39 589.355 429.22 582.775 404.32 582.775C377.79 582.775 355.51 590.235 349.15 600.335C348.91 600.165 348.66 600.015 348.42 599.855C330.46 588.235 309.94 577.275 287.39 567.465C287.84 562.075 288.08 556.575 288.08 550.985C288.08 514.945 278.28 482.475 262.61 459.735C268.35 461.715 274.11 463.815 279.88 466.035L279.9 466.025Z" fill="url(#paint2_linear_715_204)" stroke="#490B40" stroke-width="5" stroke-miterlimit="10"/>
<g style="mix-blend-mode:exclusion" opacity="0.15">
<path d="M813.5 722.975C813.5 743.325 788.75 765.405 760.55 775.165C756.98 776.405 753.37 777.435 749.73 778.255C732.09 782.225 714.17 780.855 700.92 770.925C696.06 767.275 690.82 763.755 685.17 760.515C667.84 750.535 646.76 743.195 621.62 743.035C604.7 742.925 585.92 746.045 565.2 753.825C551.89 758.815 537.76 765.725 522.82 774.905C520.02 776.625 517.19 778.415 514.34 780.305C475.96 805.595 440.32 810.145 412.25 807.185C406.42 806.575 400.92 805.635 395.79 804.485C379.07 800.765 366.28 794.875 358.88 790.855C354.23 788.345 351.72 786.575 351.72 786.575C351.72 786.575 336.68 772.345 309.78 762.505C289.39 755.065 262.18 750.135 229.53 755.865C209.19 759.425 186.73 767.115 162.49 780.925C159.91 782.395 157.32 783.925 154.7 785.525C119.84 806.925 92.5101 816.315 71.3001 817.575C59.0601 818.305 48.8501 816.315 40.4201 812.365C13.6301 799.875 4.6001 767.665 4.6001 739.655C4.6001 704.715 14.4301 709.595 29.0701 673.285C34.4801 659.885 40.5401 640.885 46.9901 612.205C48.9001 595.225 51.7401 578.575 55.4801 562.325C58.2601 550.105 61.5701 538.115 65.3401 526.375C74.6701 497.245 86.9101 469.675 101.66 444.095C103.04 441.685 104.44 439.295 105.88 436.925C106.29 436.245 106.71 435.565 107.13 434.875C136.74 386.455 175.49 345.645 220.59 315.575C226.28 311.775 232.08 308.155 237.97 304.695C258.01 292.965 279.15 283.295 301.17 275.915C318.05 270.265 335.45 265.955 353.26 263.115C351.17 268.675 349.21 274.275 347.46 279.865C334.7 282.355 322.17 285.635 309.94 289.665C289.29 296.475 269.46 305.395 250.66 316.215C245.14 319.405 239.7 322.745 234.36 326.255C192.06 354.005 155.71 391.665 127.94 436.335C127.55 436.965 127.16 437.585 126.77 438.225C125.43 440.415 124.11 442.615 122.81 444.835C108.98 468.445 97.5001 493.875 88.7401 520.755C85.2101 531.585 82.1001 542.655 79.4901 553.915C75.9901 568.915 73.3201 584.285 71.5301 599.945C65.4701 626.405 59.7901 643.935 54.7101 656.295C40.9801 689.795 31.7601 685.305 31.7601 717.545C31.7601 743.385 40.2401 773.105 65.3601 784.635C73.2701 788.275 82.8501 790.115 94.3301 789.445C114.22 788.275 139.86 779.615 172.56 759.875C175.01 758.395 177.44 756.975 179.86 755.625C202.6 742.885 223.66 735.785 242.74 732.505C273.37 727.205 298.89 731.755 318.01 738.615C343.25 747.695 357.34 760.835 357.34 760.835C357.34 760.835 359.7 762.465 364.06 764.775C371 768.485 383.01 773.925 398.69 777.355C403.5 778.425 408.66 779.275 414.12 779.845C440.45 782.585 473.88 778.375 509.88 755.045C512.55 753.305 515.21 751.645 517.84 750.065C531.85 741.585 545.1 735.215 557.58 730.605C577.01 723.435 594.63 720.555 610.5 720.665C634.08 720.815 653.86 727.585 670.11 736.795C675.42 739.785 680.33 743.035 684.9 746.395C697.32 755.555 714.13 756.815 730.68 753.155C734.09 752.405 737.49 751.455 740.83 750.305C767.28 741.305 790.5 720.935 790.5 702.155C790.5 685.115 781.2 667.825 769.69 647.945C760.37 631.885 749.59 614.145 741.08 593.505C739.25 579.535 736.74 565.805 733.53 552.385C733.16 550.705 732.73 549.035 732.33 547.375C729.58 536.465 726.42 525.745 722.82 515.265C713.09 486.815 700.28 460.035 684.87 435.395C642.21 367.195 579.49 315.475 506.13 290.585C506.54 285.675 506.73 280.685 506.71 275.675C586.48 302.165 654.69 358.815 700.88 433.855C717.31 460.565 730.96 489.605 741.34 520.435C745.18 531.785 748.56 543.405 751.48 555.225C751.92 557.035 752.37 558.835 752.78 560.655C756.19 575.205 758.87 590.075 760.82 605.225C769.89 627.595 781.39 646.825 791.32 664.225C803.59 685.765 813.5 704.515 813.5 722.985V722.975Z" fill="#10FFE2"/>
</g>
<path d="M547.17 251.295C529.51 253.185 515.4 250.745 503.94 242.325C505.64 253.315 506.67 264.565 506.71 275.675C506.87 320.785 490.81 363.495 437.71 376.385C323.34 404.135 328.04 330.175 353.26 263.135C335.45 265.975 318.05 270.285 301.17 275.935C321.59 226.975 394.55 71.2948 490.88 87.1248C605.02 105.885 590.95 246.615 547.17 251.305V251.295Z" fill="url(#paint3_linear_715_204)" stroke="#490B40" stroke-width="5" stroke-linecap="round" stroke-linejoin="round"/>
<g style="mix-blend-mode:difference" opacity="0.15">
<path d="M547.17 251.295C529.51 253.185 515.4 250.745 503.94 242.325C505.64 253.315 506.67 264.565 506.71 275.675C506.87 320.785 490.81 363.495 437.71 376.385C323.34 404.135 328.04 330.175 353.26 263.135C335.45 265.975 318.05 270.285 301.17 275.935C305.38 265.855 311.81 251.255 320.22 234.545C352.61 180.255 388.72 167.915 408.01 192.405C408.01 192.405 373.61 217.685 373.61 293.515C373.61 369.345 434.61 361.815 454.93 345.115C478.38 325.825 508.08 266.935 491.67 223.945C475.25 180.935 493.49 215.345 527.37 235.155C559.49 253.945 616.44 92.3449 443.26 92.8349C458.34 86.7849 474.26 84.4149 490.89 87.1449C605.03 105.905 590.96 246.635 547.18 251.325L547.17 251.295Z" fill="#C401DB"/>
</g>
<path d="M387.69 191.865C377.27 209.535 363.55 235.755 353.27 263.125" stroke="#490B40" stroke-width="5" stroke-linecap="round" stroke-linejoin="round"/>
<path d="M466.5 175.515C477.9 192.575 493.07 217.975 504.88 244.725" stroke="#490B40" stroke-width="5" stroke-linecap="round" stroke-linejoin="round"/>
<path d="M220.6 315.575C174.87 346.065 135.66 387.605 105.89 436.915L67.75 405.505C67.75 405.505 82.05 315.105 172.51 275.975L220.6 315.575Z" fill="url(#paint4_linear_715_204)" stroke="#490B40" stroke-width="5" stroke-miterlimit="10"/>
<g style="mix-blend-mode:difference" opacity="0.75">
<path d="M220.6 315.575C174.87 346.065 135.66 387.605 105.89 436.915L67.75 405.505C67.75 405.505 68.85 398.535 72.38 387.655L103.84 415.315C132.22 371.575 168.12 334.435 209.31 306.275L220.61 315.575H220.6Z" fill="#101220"/>
</g>
<path d="M253.24 233.615C253.24 233.615 249.28 264.655 237.98 304.705C232.09 308.165 226.3 311.785 220.6 315.585L172.51 275.985C82.04 315.115 67.75 405.515 67.75 405.515L105.89 436.925C104.46 439.305 103.05 441.685 101.67 444.095C71.23 446.895 35.06 447.475 0 441.395C0 441.395 10.68 281.175 76.55 215.095C76.55 215.095 204.16 202.755 253.23 233.615H253.24Z" fill="url(#paint5_linear_715_204)" stroke="#490B40" stroke-width="5" stroke-miterlimit="10"/>
<path d="M460.435 663.761C467.717 653.664 461.143 636.481 445.752 625.38C430.361 614.28 411.981 613.466 404.699 623.562C397.417 633.659 403.991 650.842 419.382 661.943C434.773 673.043 453.154 673.857 460.435 663.761Z" fill="url(#paint6_linear_715_204)" stroke="#490B40" stroke-width="5" stroke-miterlimit="10"/>
<path d="M386.843 661.022C402.234 649.921 408.808 632.738 401.526 622.641C394.244 612.545 375.864 613.359 360.473 624.459C345.081 635.559 338.508 652.743 345.789 662.839C353.071 672.936 371.451 672.122 386.843 661.022Z" fill="url(#paint7_linear_715_204)" stroke="#490B40" stroke-width="5" stroke-miterlimit="10"/>
<path d="M461.31 606.225C461.31 613.605 453.04 620.185 440.1 624.485C435.39 626.045 430.06 627.305 424.29 628.205C418.55 629.085 412.39 629.595 405.95 629.675C405.42 629.685 404.87 629.685 404.32 629.685C403.77 629.685 403.29 629.685 402.77 629.675C396.87 629.605 391.21 629.175 385.89 628.425C379.98 627.605 374.5 626.375 369.65 624.845C356.08 620.565 347.33 613.825 347.33 606.225C347.33 604.195 347.96 602.215 349.15 600.325C355.5 590.225 377.79 582.765 404.32 582.765C429.22 582.765 450.39 589.345 458.14 598.505C458.53 598.945 458.87 599.405 459.19 599.865C460.5 601.785 461.24 603.825 461.29 605.915C461.3 606.015 461.3 606.115 461.3 606.225H461.31Z" fill="url(#paint8_radial_715_204)" stroke="#490B40" stroke-width="5" stroke-miterlimit="10"/>
<path d="M520.55 545.765C520.55 552.355 520.88 558.835 521.52 565.155C498.23 575.705 477.24 587.465 459.19 599.875C458.87 599.405 458.53 598.955 458.14 598.515C450.39 589.355 429.22 582.775 404.32 582.775C377.79 582.775 355.51 590.235 349.15 600.335C348.91 600.165 348.66 600.015 348.42 599.855C330.46 588.235 309.94 577.275 287.39 567.465C287.84 562.075 288.08 556.575 288.08 550.985C288.08 514.945 278.28 482.475 262.61 459.735C268.35 461.715 274.11 463.815 279.88 466.035C328.75 484.785 371.22 509.055 403.17 534.795C435.26 508.665 478.22 484.005 527.76 464.995C532.77 463.075 537.77 461.235 542.76 459.485C529 481.875 520.53 512.285 520.53 545.775L520.55 545.765Z" fill="url(#paint9_linear_715_204)" stroke="#490B40" stroke-width="5" stroke-miterlimit="10"/>
<path d="M476.83 962.425L412.98 1027.97L342.48 968.185L406.33 778.945L476.83 962.425Z" fill="url(#paint10_linear_715_204)" stroke="#490B40" stroke-width="5" stroke-miterlimit="10"/>
<g style="mix-blend-mode:difference" opacity="0.2">
<path d="M406.32 778.945L342.47 968.195L412.98 1027.97L476.82 962.435L406.32 778.945ZM412.11 1000.95L359.92 956.725L408.01 815.755L459.77 951.985L412.12 1000.95H412.11Z" fill="#39B54A"/>
</g>
<path d="M475.1 802.225L411.26 867.775L340.76 807.985L404.6 742.435L475.1 802.225Z" fill="url(#paint11_linear_715_204)" stroke="#490B40" stroke-width="5" stroke-miterlimit="10"/>
<g style="mix-blend-mode:difference" opacity="0.15">
<path d="M475.11 802.215L411.26 867.765L340.76 807.985L354.52 793.855L411.26 841.975L461.34 790.545L475.11 802.215Z" fill="#39B54A"/>
<path d="M475.11 802.215L411.26 867.765L340.76 807.985L354.52 793.855L411.26 841.975L461.34 790.545L475.11 802.215Z" stroke="#490B40" stroke-miterlimit="10"/>
</g>
<path d="M273.35 1105.99C286.367 1105.99 296.92 1087.93 296.92 1065.63C296.92 1043.34 286.367 1025.27 273.35 1025.27C260.332 1025.27 249.78 1043.34 249.78 1065.63C249.78 1087.93 260.332 1105.99 273.35 1105.99Z" fill="url(#paint12_linear_715_204)" stroke="#490B40" stroke-width="5" stroke-miterlimit="10"/>
<path d="M197.265 1105.39C210.248 1104.45 219.459 1085.66 217.838 1063.43C216.217 1041.2 204.378 1023.94 191.395 1024.89C178.412 1025.83 169.202 1044.62 170.823 1066.85C172.443 1089.09 184.282 1106.34 197.265 1105.39Z" fill="url(#paint13_linear_715_204)" stroke="#490B40" stroke-width="5" stroke-miterlimit="10"/>
<path d="M235.04 1113.29C250.162 1113.29 262.42 1092.31 262.42 1066.41C262.42 1040.52 250.162 1019.53 235.04 1019.53C219.919 1019.53 207.66 1040.52 207.66 1066.41C207.66 1092.31 219.919 1113.29 235.04 1113.29Z" fill="url(#paint14_linear_715_204)" stroke="#490B40" stroke-width="5" stroke-miterlimit="10"/>
<path d="M619.43 1107.03C632.447 1107.03 643 1088.97 643 1066.67C643 1044.38 632.447 1026.31 619.43 1026.31C606.413 1026.31 595.86 1044.38 595.86 1066.67C595.86 1088.97 606.413 1107.03 619.43 1107.03Z" fill="url(#paint15_linear_715_204)" stroke="#490B40" stroke-width="5" stroke-miterlimit="10"/>
<path d="M544.384 1108.53C557.366 1107.59 566.577 1088.8 564.956 1066.57C563.336 1044.34 551.497 1027.08 538.514 1028.03C525.531 1028.97 516.32 1047.76 517.941 1069.99C519.562 1092.23 531.401 1109.48 544.384 1108.53Z" fill="url(#paint16_linear_715_204)" stroke="#490B40" stroke-width="5" stroke-miterlimit="10"/>
<path d="M581.12 1111.21C596.242 1111.21 608.5 1090.23 608.5 1064.34C608.5 1038.44 596.242 1017.46 581.12 1017.46C565.999 1017.46 553.74 1038.44 553.74 1064.34C553.74 1090.23 565.999 1111.21 581.12 1111.21Z" fill="url(#paint17_linear_715_204)" stroke="#490B40" stroke-width="5" stroke-miterlimit="10"/>
<path d="M744.07 870.305C551.82 985.665 413.41 668.275 413.41 668.275C413.41 668.275 405.03 642.325 426.81 646.265C457.06 651.735 708.3 774.265 706.58 807.835" fill="url(#paint18_linear_715_204)"/>
<path d="M744.07 870.305C551.82 985.665 413.41 668.275 413.41 668.275C413.41 668.275 405.03 642.325 426.81 646.265C457.06 651.735 708.3 774.265 706.58 807.835" stroke="#490B40" stroke-width="5" stroke-linecap="round" stroke-linejoin="round"/>
<path d="M680.04 545.765C680.04 577.825 672.28 607.045 659.55 629.125C644.96 654.425 623.82 670.335 600.29 670.335C591.9 670.335 583.81 668.315 576.22 664.555C547.76 650.505 526.23 612.195 521.52 565.155C520.88 558.835 520.55 552.355 520.55 545.765C520.55 512.275 529.02 481.855 542.78 459.475C557.29 435.895 577.69 421.205 600.29 421.205C614.02 421.205 626.95 426.625 638.24 436.185C658.86 453.645 673.99 484.875 678.57 521.995C679.54 529.685 680.04 537.645 680.04 545.775V545.765Z" fill="white" stroke="#490B40" stroke-width="5" stroke-miterlimit="10"/>
<path d="M605.02 497.215C605.02 510.145 602.26 521.935 597.72 530.855C592.52 541.065 584.99 547.485 576.6 547.485C573.61 547.485 570.73 546.665 568.02 545.145C557.88 539.475 550.21 524.025 548.54 505.045C548.31 502.495 548.19 499.875 548.19 497.225C548.19 483.715 551.2 471.445 556.11 462.405C561.29 452.895 568.55 446.965 576.6 446.965C581.5 446.965 586.1 449.155 590.13 453.005C592.38 455.165 594.46 457.855 596.29 460.985L581.02 485.915L602.5 476.565C603.4 480.055 604.07 483.765 604.49 487.625C604.83 490.735 605.01 493.935 605.01 497.215H605.02Z" fill="url(#paint19_linear_715_204)" stroke="#490B40" stroke-width="5" stroke-miterlimit="10"/>
<path d="M288.09 550.965C288.09 583.025 280.33 612.245 267.6 634.325C253.01 659.625 231.87 675.535 208.34 675.535C199.95 675.535 191.86 673.515 184.27 669.755C155.81 655.705 134.28 617.395 129.57 570.355C128.93 564.035 128.6 557.555 128.6 550.965C128.6 517.475 137.07 487.055 150.83 464.675C165.34 441.095 185.74 426.405 208.34 426.405C222.07 426.405 235 431.825 246.29 441.385C266.91 458.845 282.04 490.075 286.62 527.195C287.59 534.885 288.09 542.845 288.09 550.975V550.965Z" fill="white" stroke="#490B40" stroke-width="5" stroke-miterlimit="10"/>
<path d="M214.99 498.635C214.99 511.565 212.23 523.355 207.69 532.275C202.49 542.485 194.96 548.905 186.57 548.905C183.58 548.905 180.7 548.085 177.99 546.565C167.85 540.895 160.18 525.445 158.51 506.465C158.28 503.915 158.16 501.295 158.16 498.645C158.16 485.135 161.17 472.865 166.08 463.825C171.26 454.315 178.52 448.385 186.57 448.385C191.47 448.385 196.07 450.575 200.1 454.425C202.35 456.585 204.43 459.275 206.26 462.405L190.99 487.335L212.47 477.985C213.37 481.475 214.04 485.185 214.46 489.045C214.8 492.155 214.98 495.355 214.98 498.635H214.99Z" fill="url(#paint20_linear_715_204)" stroke="#490B40" stroke-width="5" stroke-miterlimit="10"/>
<path d="M561.915 948.33C489.588 953.77 428.909 989.699 399.384 1038.32C376.918 1033.17 352.707 1031.23 327.663 1033.11C234.341 1040.13 160.411 1097.91 147.773 1168.22C118.899 1193.81 102.318 1227.82 105.03 1263.89C110.351 1334.63 187.887 1386.47 278.212 1379.68C307.348 1377.49 334.255 1369.46 357.161 1357.22C393.262 1379.09 439.938 1390.57 489.939 1386.81C551.506 1382.18 604.634 1355.46 637.29 1317.62C672.339 1336.87 716.273 1346.73 763.128 1343.21C869.62 1335.2 950.864 1261.09 944.591 1177.68C938.586 1097.85 854.58 1038.44 754.011 1040.52C724.946 980.918 648.403 941.825 561.915 948.33Z" fill="white"/>
<path d="M221.64 999.326C128.318 1006.35 54.3879 1064.12 41.7498 1134.44C12.8756 1160.02 -3.70522 1194.03 -0.99279 1230.1C4.32802 1300.84 81.8642 1352.69 172.189 1345.89C201.325 1343.7 228.232 1335.67 251.138 1323.43C287.239 1345.3 333.915 1356.78 383.916 1353.02C445.483 1348.39 498.61 1321.67 531.267 1283.83C566.316 1303.08 610.25 1312.94 657.105 1309.42C763.597 1301.41 844.841 1227.3 838.568 1143.9C832.295 1060.49 740.88 999.37 634.388 1007.38C572.822 1012.01 519.695 1038.73 487.039 1076.57C457.438 1060.31 421.5 1050.75 382.817 1050.3C344.941 1014.93 286.049 994.482 221.64 999.326Z" fill="white"/>
<path d="M980.665 889.309C908.225 894.755 847.738 934.561 818.59 988.913C796.027 982.917 771.744 980.514 746.66 982.4C653.191 989.428 579.621 1053.66 567.598 1132.53C538.894 1161 522.587 1199.06 525.635 1239.6C531.614 1319.12 609.798 1378.07 700.264 1371.27C729.446 1369.07 756.341 1360.3 779.187 1346.76C815.569 1371.66 862.454 1384.99 912.533 1381.22C974.196 1376.59 1027.2 1347.06 1059.58 1304.85C1094.89 1326.8 1139.01 1338.28 1185.94 1334.75C1292.6 1326.73 1373.35 1244.23 1366.3 1150.47C1359.55 1060.74 1274.81 993.222 1174.04 994.633C1144.36 927.415 1067.29 882.795 980.665 889.309Z" fill="white"/>
</g>
<defs>
<linearGradient id="paint0_linear_715_204" x1="52.4735" y1="768.782" x2="75.8545" y2="961.992" gradientUnits="userSpaceOnUse">
<stop stop-color="#FEEF69"/>
<stop offset="0.13" stop-color="#CDF281"/>
<stop offset="0.3" stop-color="#94F69E"/>
<stop offset="0.47" stop-color="#65F9B6"/>
<stop offset="0.62" stop-color="#40FBC9"/>
<stop offset="0.77" stop-color="#25FDD6"/>
<stop offset="0.9" stop-color="#15FEDF"/>
<stop offset="1" stop-color="#10FFE2"/>
</linearGradient>
<linearGradient id="paint1_linear_715_204" x1="403.84" y1="743.035" x2="403.84" y2="1067.48" gradientUnits="userSpaceOnUse">
<stop stop-color="#10FFE2"/>
<stop offset="0.1" stop-color="#15FEDF"/>
<stop offset="0.23" stop-color="#25FDD6"/>
<stop offset="0.38" stop-color="#40FBC9"/>
<stop offset="0.53" stop-color="#65F9B6"/>
<stop offset="0.7" stop-color="#94F69E"/>
<stop offset="0.87" stop-color="#CDF281"/>
<stop offset="1" stop-color="#FEEF69"/>
</linearGradient>
<linearGradient id="paint2_linear_715_204" x1="409.05" y1="817.715" x2="409.05" y2="263.125" gradientUnits="userSpaceOnUse">
<stop stop-color="#FEEF69"/>
<stop offset="0.02" stop-color="#EEF070"/>
<stop offset="0.08" stop-color="#C0F388"/>
<stop offset="0.15" stop-color="#96F59D"/>
<stop offset="0.22" stop-color="#72F8B0"/>
<stop offset="0.3" stop-color="#53FABF"/>
<stop offset="0.39" stop-color="#3AFCCC"/>
<stop offset="0.48" stop-color="#27FDD6"/>
<stop offset="0.59" stop-color="#1AFEDC"/>
<stop offset="0.73" stop-color="#12FEE0"/>
<stop offset="1" stop-color="#10FFE2"/>
</linearGradient>
<linearGradient id="paint3_linear_715_204" x1="315.69" y1="308.415" x2="577.62" y2="157.195" gradientUnits="userSpaceOnUse">
<stop stop-color="#C401DB"/>
<stop offset="0.15" stop-color="#D807CF"/>
<stop offset="0.37" stop-color="#F310C0"/>
<stop offset="0.5" stop-color="#FD14BB"/>
<stop offset="0.62" stop-color="#FD16B9"/>
<stop offset="0.7" stop-color="#FD1FB6"/>
<stop offset="0.76" stop-color="#FD2DAF"/>
<stop offset="0.82" stop-color="#FD42A6"/>
<stop offset="0.87" stop-color="#FD5D9A"/>
<stop offset="0.92" stop-color="#FE7E8B"/>
<stop offset="0.96" stop-color="#FEA57A"/>
<stop offset="1" stop-color="#FFC96B"/>
</linearGradient>
<linearGradient id="paint4_linear_715_204" x1="114.03" y1="308.335" x2="167.68" y2="401.245" gradientUnits="userSpaceOnUse">
<stop stop-color="#C401DB"/>
<stop offset="0.11" stop-color="#B603E0"/>
<stop offset="0.51" stop-color="#8B0DF0"/>
<stop offset="0.82" stop-color="#7012FB"/>
<stop offset="1" stop-color="#6715FF"/>
</linearGradient>
<linearGradient id="paint5_linear_715_204" x1="190.51" y1="197.345" x2="37.21" y2="462.875" gradientUnits="userSpaceOnUse">
<stop stop-color="#C401DB"/>
<stop offset="0.11" stop-color="#B603E0"/>
<stop offset="0.51" stop-color="#8B0DF0"/>
<stop offset="0.82" stop-color="#7012FB"/>
<stop offset="1" stop-color="#6715FF"/>
</linearGradient>
<linearGradient id="paint6_linear_715_204" x1="460.562" y1="663.585" x2="404.826" y2="623.387" gradientUnits="userSpaceOnUse">
<stop stop-color="#C401DB"/>
<stop offset="0.23" stop-color="#DC09CD"/>
<stop offset="0.46" stop-color="#EE0FC3"/>
<stop offset="0.72" stop-color="#F912BC"/>
<stop offset="1" stop-color="#FD14BB"/>
</linearGradient>
<linearGradient id="paint7_linear_715_204" x1="345.687" y1="662.68" x2="401.415" y2="622.487" gradientUnits="userSpaceOnUse">
<stop stop-color="#C401DB"/>
<stop offset="0.23" stop-color="#DC09CD"/>
<stop offset="0.46" stop-color="#EE0FC3"/>
<stop offset="0.72" stop-color="#F912BC"/>
<stop offset="1" stop-color="#FD14BB"/>
</linearGradient>
<radialGradient id="paint8_radial_715_204" cx="0" cy="0" r="1" gradientUnits="userSpaceOnUse" gradientTransform="translate(404.32 606.225) scale(43.57 43.57)">
<stop stop-color="#FEEF69"/>
<stop offset="0.28" stop-color="#FEF447"/>
<stop offset="0.76" stop-color="#FEFB14"/>
<stop offset="1" stop-color="#FFFF00"/>
</radialGradient>
<linearGradient id="paint9_linear_715_204" x1="402.71" y1="459.465" x2="402.71" y2="600.325" gradientUnits="userSpaceOnUse">
<stop stop-color="#FD14BB"/>
<stop offset="0.15" stop-color="#FD17B9"/>
<stop offset="0.28" stop-color="#FD22B5"/>
<stop offset="0.42" stop-color="#FD35AE"/>
<stop offset="0.55" stop-color="#FD4FA4"/>
<stop offset="0.67" stop-color="#FD7197"/>
<stop offset="0.8" stop-color="#FD9B88"/>
<stop offset="0.92" stop-color="#FDCB76"/>
<stop offset="1" stop-color="#FEEF69"/>
</linearGradient>
<linearGradient id="paint10_linear_715_204" x1="409.65" y1="1027.97" x2="409.65" y2="778.945" gradientUnits="userSpaceOnUse">
<stop stop-color="#8AFF00"/>
<stop offset="0.16" stop-color="#8FFE05"/>
<stop offset="0.36" stop-color="#9FFC13"/>
<stop offset="0.58" stop-color="#BAF82B"/>
<stop offset="0.82" stop-color="#DEF34C"/>
<stop offset="1" stop-color="#FEEF69"/>
</linearGradient>
<linearGradient id="paint11_linear_715_204" x1="407.93" y1="867.775" x2="407.93" y2="742.435" gradientUnits="userSpaceOnUse">
<stop stop-color="#8AFF00"/>
<stop offset="0.16" stop-color="#8FFE05"/>
<stop offset="0.36" stop-color="#9FFC13"/>
<stop offset="0.58" stop-color="#BAF82B"/>
<stop offset="0.82" stop-color="#DEF34C"/>
<stop offset="1" stop-color="#FEEF69"/>
</linearGradient>
<linearGradient id="paint12_linear_715_204" x1="273.35" y1="1105.99" x2="273.35" y2="1025.27" gradientUnits="userSpaceOnUse">
<stop stop-color="#FFFF00"/>
<stop offset="0.24" stop-color="#FEFB14"/>
<stop offset="0.72" stop-color="#FEF447"/>
<stop offset="1" stop-color="#FEEF69"/>
</linearGradient>
<linearGradient id="paint13_linear_715_204" x1="194.375" y1="1105.41" x2="194.375" y2="1024.82" gradientUnits="userSpaceOnUse">
<stop stop-color="#FFFF00"/>
<stop offset="0.24" stop-color="#FEFB14"/>
<stop offset="0.72" stop-color="#FEF447"/>
<stop offset="1" stop-color="#FEEF69"/>
</linearGradient>
<linearGradient id="paint14_linear_715_204" x1="235.04" y1="1113.29" x2="235.04" y2="1019.53" gradientUnits="userSpaceOnUse">
<stop stop-color="#FFFF00"/>
<stop offset="0.24" stop-color="#FEFB14"/>
<stop offset="0.72" stop-color="#FEF447"/>
<stop offset="1" stop-color="#FEEF69"/>
</linearGradient>
<linearGradient id="paint15_linear_715_204" x1="619.43" y1="1107.04" x2="619.43" y2="1026.31" gradientUnits="userSpaceOnUse">
<stop stop-color="#FFFF00"/>
<stop offset="0.24" stop-color="#FEFB14"/>
<stop offset="0.72" stop-color="#FEF447"/>
<stop offset="1" stop-color="#FEEF69"/>
</linearGradient>
<linearGradient id="paint16_linear_715_204" x1="541.496" y1="1108.54" x2="541.496" y2="1027.95" gradientUnits="userSpaceOnUse">
<stop stop-color="#FFFF00"/>
<stop offset="0.24" stop-color="#FEFB14"/>
<stop offset="0.72" stop-color="#FEF447"/>
<stop offset="1" stop-color="#FEEF69"/>
</linearGradient>
<linearGradient id="paint17_linear_715_204" x1="581.12" y1="1111.21" x2="581.12" y2="1017.46" gradientUnits="userSpaceOnUse">
<stop stop-color="#FFFF00"/>
<stop offset="0.24" stop-color="#FEFB14"/>
<stop offset="0.72" stop-color="#FEF447"/>
<stop offset="1" stop-color="#FEEF69"/>
</linearGradient>
<linearGradient id="paint18_linear_715_204" x1="584.481" y1="636.246" x2="572.263" y2="873.331" gradientUnits="userSpaceOnUse">
<stop stop-color="#FEEF69"/>
<stop offset="0.13" stop-color="#CDF281"/>
<stop offset="0.3" stop-color="#94F69E"/>
<stop offset="0.47" stop-color="#65F9B6"/>
<stop offset="0.62" stop-color="#40FBC9"/>
<stop offset="0.77" stop-color="#25FDD6"/>
<stop offset="0.9" stop-color="#15FEDF"/>
<stop offset="1" stop-color="#10FFE2"/>
</linearGradient>
<linearGradient id="paint19_linear_715_204" x1="576.61" y1="547.485" x2="576.61" y2="446.965" gradientUnits="userSpaceOnUse">
<stop stop-color="#101220"/>
<stop offset="0.42" stop-color="#111120"/>
<stop offset="0.57" stop-color="#181023"/>
<stop offset="0.68" stop-color="#240F28"/>
<stop offset="0.76" stop-color="#350D30"/>
<stop offset="0.84" stop-color="#4B0A39"/>
<stop offset="0.9" stop-color="#660745"/>
<stop offset="0.96" stop-color="#860352"/>
<stop offset="1" stop-color="#9E005D"/>
</linearGradient>
<linearGradient id="paint20_linear_715_204" x1="186.58" y1="548.895" x2="186.58" y2="448.375" gradientUnits="userSpaceOnUse">
<stop stop-color="#101220"/>
<stop offset="0.42" stop-color="#111120"/>
<stop offset="0.57" stop-color="#181023"/>
<stop offset="0.68" stop-color="#240F28"/>
<stop offset="0.76" stop-color="#350D30"/>
<stop offset="0.84" stop-color="#4B0A39"/>
<stop offset="0.9" stop-color="#660745"/>
<stop offset="0.96" stop-color="#860352"/>
<stop offset="1" stop-color="#9E005D"/>
</linearGradient>
<clipPath id="clip0_715_204">
<rect width="1080" height="1200" fill="white"/>
</clipPath>
</defs>
</svg>
