<svg width="1249" height="568" viewBox="0 0 1249 568" fill="none" xmlns="http://www.w3.org/2000/svg">
<path d="M750.589 528.162C767.002 506.286 752.182 469.054 717.488 445.001C682.793 420.948 641.362 419.183 624.949 441.059C608.536 462.935 623.355 500.168 658.05 524.221C692.744 548.274 734.175 550.039 750.589 528.162Z" fill="url(#paint0_linear_672_197)" stroke="black" stroke-width="5" stroke-miterlimit="10"/>
<path d="M584.672 522.173C619.366 498.12 634.186 460.888 617.773 439.011C601.359 417.135 559.928 418.9 525.234 442.953C490.539 467.006 475.72 504.239 492.133 526.115C508.546 547.991 549.977 546.226 584.672 522.173Z" fill="url(#paint1_linear_672_197)" stroke="black" stroke-width="5" stroke-miterlimit="10"/>
<path d="M752.535 403.456C752.535 419.437 733.885 433.705 704.726 443.028C694.115 446.396 682.107 449.14 669.087 451.087C656.148 452.975 642.257 454.084 627.738 454.259C626.543 454.279 625.308 454.279 624.073 454.279C622.838 454.279 621.744 454.279 620.59 454.259C607.286 454.104 594.529 453.169 582.542 451.554C569.218 449.783 556.866 447.116 545.931 443.787C515.334 434.503 495.611 419.904 495.611 403.437C495.611 399.038 497.029 394.736 499.702 390.648C514.018 368.75 564.277 352.595 624.073 352.595C680.204 352.595 727.952 366.862 745.427 386.697C746.298 387.651 747.067 388.643 747.776 389.656C750.732 393.821 752.393 398.22 752.514 402.756C752.535 402.97 752.535 403.203 752.535 403.417V403.456Z" fill="url(#paint2_radial_672_197)" stroke="black" stroke-width="5" stroke-miterlimit="10"/>
<path d="M886.099 272.437C886.099 286.724 886.849 300.758 888.286 314.461C835.78 337.313 788.457 362.812 747.776 389.712C747.067 388.7 746.298 387.727 745.427 386.754C727.952 366.899 680.224 352.651 624.073 352.651C564.277 352.651 514.018 368.807 499.702 390.705C499.155 390.335 498.608 390.024 498.062 389.673C457.583 364.505 411.314 340.739 360.468 319.483C361.5 307.804 362.027 295.892 362.027 283.765C362.027 205.673 339.935 135.307 304.6 86.0225C317.539 90.3047 330.519 94.8594 343.539 99.6672C453.716 140.31 549.454 192.884 621.481 248.67C693.832 192.047 790.684 138.597 902.38 97.3899C913.679 93.2244 924.958 89.2341 936.196 85.4385C905.174 133.964 886.079 199.872 886.079 272.456L886.099 272.437Z" fill="url(#paint3_linear_672_197)" stroke="black" stroke-width="5" stroke-miterlimit="10"/>
<path d="M1245.67 272.438C1245.67 341.908 1228.17 405.246 1199.48 453.091C1166.57 507.923 1118.93 542.395 1065.89 542.395C1046.98 542.395 1028.73 538.016 1011.62 529.86C947.474 499.417 898.917 416.4 888.306 314.462C886.868 300.759 886.119 286.725 886.119 272.438C886.119 199.854 905.214 133.946 936.236 85.42C968.959 34.3054 1014.95 2.5 1065.87 2.5C1096.83 2.5 1125.97 14.2567 1151.43 34.9673C1197.9 72.8068 1232.04 140.486 1242.37 220.914C1244.55 237.596 1245.67 254.822 1245.67 272.438Z" fill="white" stroke="black" stroke-width="5" stroke-miterlimit="10"/>
<path d="M1211.93 285.965C1211.93 330.695 1201.56 371.474 1184.53 402.306C1165.01 437.596 1136.77 459.805 1105.3 459.805C1094.08 459.805 1083.29 456.983 1073.12 451.728C1035.09 432.126 1006.28 378.676 1000.02 313.041C999.151 304.223 998.705 295.172 998.705 285.985C998.705 239.25 1010 196.817 1028.43 165.576C1047.85 132.68 1075.11 112.184 1105.3 112.184C1123.68 112.184 1140.94 119.755 1156.06 133.089C1164.51 140.563 1172.32 149.867 1179.19 160.69L1121.9 246.9L1202.51 214.569C1205.88 226.637 1208.41 239.464 1209.99 252.836C1211.26 263.581 1211.93 274.656 1211.93 286.004V285.965Z" fill="url(#paint4_linear_672_197)" stroke="black" stroke-width="5" stroke-miterlimit="10"/>
<path d="M1065.89 271.712C1066.34 271.712 1066.67 272.056 1066.67 272.438C1066.67 272.821 1066.34 273.164 1065.89 273.164C1065.45 273.164 1065.12 272.821 1065.12 272.438C1065.12 272.056 1065.45 271.712 1065.89 271.712Z" stroke="black"/>
<path d="M362.047 283.708C362.047 353.178 344.551 416.517 315.858 464.361C282.953 519.193 235.306 553.666 182.273 553.666C163.361 553.666 145.116 549.286 128.005 541.13C63.8554 510.687 15.2976 427.67 4.68693 325.733C3.24923 312.03 2.5 297.996 2.5 283.708C2.5 211.124 21.5951 145.216 52.6171 96.6906C85.34 45.576 131.326 13.7705 182.253 13.7705C213.214 13.7705 242.353 25.5273 267.806 46.2378C314.279 84.0774 348.419 151.757 358.746 232.185C360.933 248.866 362.047 266.093 362.047 283.708Z" fill="white" stroke="black" stroke-width="5" stroke-miterlimit="10"/>
<path d="M245.816 303.464C245.816 348.194 235.448 388.973 218.419 419.805C198.898 455.095 170.651 477.304 139.183 477.304C127.965 477.304 117.172 474.482 107.007 469.226C68.9788 449.625 40.1641 396.175 33.907 330.54C33.0363 321.722 32.5908 312.671 32.5908 303.484C32.5908 256.749 43.8899 214.316 62.3168 183.075C81.7359 150.179 108.991 129.683 139.183 129.683C157.57 129.683 174.822 137.254 189.948 150.588C198.392 158.062 206.208 167.366 213.073 178.189L155.788 264.398L236.4 232.067C239.761 244.136 242.293 256.963 243.872 270.335C245.148 281.08 245.816 292.155 245.816 303.503V303.464Z" fill="url(#paint5_linear_672_197)" stroke="black" stroke-width="5" stroke-miterlimit="10"/>
<path d="M182.273 283.001C182.72 283.001 183.049 283.345 183.049 283.728C183.049 284.11 182.72 284.453 182.273 284.453C181.826 284.453 181.498 284.11 181.498 283.728C181.498 283.345 181.826 283.001 182.273 283.001Z" stroke="black"/>
<defs>
<linearGradient id="paint0_linear_672_197" x1="753.533" y1="524.238" x2="631.332" y2="432.552" gradientUnits="userSpaceOnUse">
<stop stop-color="#C401DB"/>
<stop offset="0.23" stop-color="#DC09CD"/>
<stop offset="0.46" stop-color="#EE0FC3"/>
<stop offset="0.72" stop-color="#F912BC"/>
<stop offset="1" stop-color="#FD14BB"/>
</linearGradient>
<linearGradient id="paint1_linear_672_197" x1="484.269" y1="515.634" x2="606.47" y2="423.947" gradientUnits="userSpaceOnUse">
<stop stop-color="#C401DB"/>
<stop offset="0.23" stop-color="#DC09CD"/>
<stop offset="0.46" stop-color="#EE0FC3"/>
<stop offset="0.72" stop-color="#F912BC"/>
<stop offset="1" stop-color="#FD14BB"/>
</linearGradient>
<radialGradient id="paint2_radial_672_197" cx="0" cy="0" r="1" gradientUnits="userSpaceOnUse" gradientTransform="translate(624.073 403.456) scale(98.2294 94.4237)">
<stop stop-color="#FEEF69"/>
<stop offset="0.28" stop-color="#FEF447"/>
<stop offset="0.76" stop-color="#FEFB14"/>
<stop offset="1" stop-color="#FFFF00"/>
</radialGradient>
<linearGradient id="paint3_linear_672_197" x1="620.428" y1="85.419" x2="620.428" y2="390.666" gradientUnits="userSpaceOnUse">
<stop stop-color="#FD14BB"/>
<stop offset="0.15" stop-color="#FD17B9"/>
<stop offset="0.28" stop-color="#FD22B5"/>
<stop offset="0.42" stop-color="#FD35AE"/>
<stop offset="0.55" stop-color="#FD4FA4"/>
<stop offset="0.67" stop-color="#FD7197"/>
<stop offset="0.8" stop-color="#FD9B88"/>
<stop offset="0.92" stop-color="#FDCB76"/>
<stop offset="1" stop-color="#FEEF69"/>
</linearGradient>
<linearGradient id="paint4_linear_672_197" x1="1105.32" y1="459.805" x2="1105.32" y2="112.164" gradientUnits="userSpaceOnUse">
<stop stop-color="#101220"/>
<stop offset="0.42" stop-color="#111120"/>
<stop offset="0.57" stop-color="#181023"/>
<stop offset="0.68" stop-color="#240F28"/>
<stop offset="0.76" stop-color="#350D30"/>
<stop offset="0.84" stop-color="#4B0A39"/>
<stop offset="0.9" stop-color="#660745"/>
<stop offset="0.96" stop-color="#860352"/>
<stop offset="1" stop-color="#9E005D"/>
</linearGradient>
<linearGradient id="paint5_linear_672_197" x1="139.203" y1="477.304" x2="139.203" y2="129.644" gradientUnits="userSpaceOnUse">
<stop stop-color="#101220"/>
<stop offset="0.42" stop-color="#111120"/>
<stop offset="0.57" stop-color="#181023"/>
<stop offset="0.68" stop-color="#240F28"/>
<stop offset="0.76" stop-color="#350D30"/>
<stop offset="0.84" stop-color="#4B0A39"/>
<stop offset="0.9" stop-color="#660745"/>
<stop offset="0.96" stop-color="#860352"/>
<stop offset="1" stop-color="#9E005D"/>
</linearGradient>
</defs>
</svg>
