<svg width="915" height="1149" viewBox="0 0 915 1149" fill="none" xmlns="http://www.w3.org/2000/svg">
<path d="M862.4 841.664C862.4 977.544 768.87 1087.7 653.5 1087.7C628.36 1087.7 604.25 1082.47 581.93 1072.87C542.54 1087.38 500.46 1095.24 456.74 1095.24C413.02 1095.24 370.53 1087.31 330.98 1072.67C308.51 1082.4 284.24 1087.7 258.91 1087.7C143.54 1087.7 50.0098 977.544 50.0098 841.664C50.0098 831.354 50.5498 821.194 51.5998 811.204C60.9898 815.594 72.3498 817.804 85.9798 817.004C109.59 815.604 140.02 805.144 178.83 781.324C181.74 779.544 184.63 777.834 187.5 776.204C314.92 703.664 398.18 782.494 398.18 782.494C398.18 782.494 400.98 784.464 406.15 787.264C414.39 791.734 428.63 798.294 447.25 802.434C452.96 803.724 459.08 804.764 465.57 805.444C496.82 808.744 536.5 803.674 579.23 775.524C582.41 773.424 585.56 771.424 588.67 769.514C669.66 719.734 728.78 730.114 769.42 753.494C775.71 757.104 781.54 761.024 786.96 765.084C801.71 776.144 821.67 777.664 841.31 773.244C845.36 772.334 849.38 771.184 853.36 769.804C859.26 792.544 862.42 816.674 862.42 841.674L862.4 841.664Z" fill="url(#paint0_linear_1164_663)" stroke="#490B40" stroke-width="5" stroke-miterlimit="10"/>
<g style="mix-blend-mode:darken">
<path d="M862.4 841.664C862.4 977.544 768.87 1087.7 653.5 1087.7C628.36 1087.7 604.25 1082.47 581.93 1072.87C542.54 1087.38 500.46 1095.24 456.74 1095.24C413.02 1095.24 370.53 1087.31 330.98 1072.67C308.51 1082.4 284.24 1087.7 258.91 1087.7C143.54 1087.7 50.0098 977.544 50.0098 841.664C50.0098 831.354 50.5498 821.194 51.5998 811.204C60.9898 815.594 72.3498 817.804 85.9798 817.004C88.9798 816.824 92.0898 816.494 95.3198 816.014C97.0998 855.104 101.56 907.614 112.68 926.384C131.25 957.714 124.28 898.534 133.57 892.724C142.86 886.914 149.82 871.834 164.91 929.864C179.99 987.894 209.01 1020.38 219.45 1019.22C229.9 1018.07 207.78 967.994 222.94 971.644C255.43 979.474 253.69 996.014 307.66 1027.35C381.69 1070.34 571.11 1074.93 652.34 1014.59C733.57 954.234 720.81 984.415 713.85 1012.26C706.89 1040.11 792.77 965.844 795.08 886.924C797.41 808.004 826.42 878.804 821.78 910.144C817.44 939.414 857.66 929.204 825.15 775.454C830.48 775.214 835.91 774.454 841.31 773.244C845.36 772.334 849.38 771.184 853.36 769.804C859.26 792.544 862.42 816.674 862.42 841.674L862.4 841.664Z" fill="#CCCCCC"/>
</g>
<path d="M887.59 646.274C876.53 626.904 863.73 605.494 853.63 580.594C851.47 563.724 848.48 547.164 844.68 530.964C844.22 528.944 843.73 526.924 843.24 524.914C839.99 511.754 836.23 498.824 831.95 486.184C820.4 451.854 805.2 419.524 786.9 389.794C735.48 306.244 659.53 243.184 570.72 213.684C570.9 263.904 553.02 311.454 493.9 325.804C366.57 356.704 371.8 274.354 399.87 199.714C380.04 202.874 360.67 207.674 341.88 213.964C317.36 222.174 293.82 232.944 271.52 246.004C264.97 249.854 258.51 253.884 252.17 258.114C201.96 291.594 158.81 337.034 125.85 390.934C125.38 391.694 124.91 392.454 124.46 393.214C122.87 395.854 121.3 398.514 119.77 401.194C103.35 429.674 89.72 460.374 79.33 492.804C75.13 505.874 71.45 519.224 68.35 532.824C64.19 550.914 61.02 569.454 58.9 588.354C51.71 620.274 44.97 641.434 38.95 656.354C22.65 696.784 11.71 691.354 11.71 730.244C11.71 761.434 21.77 797.294 51.59 811.194C60.98 815.584 72.34 817.794 85.97 816.994C109.58 815.594 140.01 805.134 178.82 781.314C181.73 779.534 184.62 777.824 187.49 776.194C214.48 760.824 239.48 752.254 262.13 748.294C298.48 741.914 328.77 747.394 351.47 755.684C381.42 766.644 398.16 782.484 398.16 782.484C398.16 782.484 400.96 784.454 406.13 787.254C414.37 791.724 428.61 798.284 447.23 802.424C452.94 803.714 459.06 804.754 465.55 805.434C496.8 808.734 536.48 803.664 579.21 775.514C582.39 773.414 585.54 771.414 588.65 769.504C605.29 759.284 621.02 751.584 635.83 746.034C658.9 737.384 679.8 733.904 698.64 734.024C726.63 734.204 750.1 742.374 769.4 753.484C775.69 757.094 781.52 761.014 786.94 765.074C801.69 776.134 821.65 777.654 841.29 773.234C845.34 772.324 849.36 771.174 853.34 769.794C884.73 758.924 912.29 734.354 912.29 711.694C912.29 691.134 901.26 670.254 887.59 646.274ZM318.21 425.614C372.62 446.494 419.9 473.504 455.47 502.164C491.2 473.074 539.03 445.614 594.19 424.444C599.77 422.304 605.34 420.254 610.89 418.304C595.57 443.234 586.14 477.094 586.14 514.384C586.14 521.724 586.51 528.934 587.22 535.974C561.29 547.714 537.92 560.814 517.83 574.634C517.48 574.114 517.1 573.614 516.67 573.114C508.04 562.914 484.47 555.594 456.74 555.594C427.21 555.594 402.39 563.894 395.32 575.144C395.05 574.954 394.78 574.794 394.51 574.614C374.52 561.684 351.67 549.474 326.56 538.554C327.07 532.554 327.33 526.434 327.33 520.204C327.33 480.084 316.42 443.934 298.97 418.614C305.36 420.814 311.77 423.154 318.2 425.624L318.21 425.614Z" fill="url(#paint1_linear_1164_663)" stroke="#490B40" stroke-width="5" stroke-miterlimit="10"/>
<g style="mix-blend-mode:exclusion" opacity="0.15">
<path d="M912.29 711.694C912.29 734.354 884.73 758.924 853.34 769.794C849.37 771.174 845.34 772.324 841.29 773.234C821.65 777.654 801.7 776.134 786.94 765.074C781.52 761.014 775.69 757.094 769.4 753.484C750.1 742.374 726.63 734.204 698.64 734.024C679.8 733.894 658.9 737.374 635.83 746.034C621.01 751.584 605.29 759.284 588.65 769.504C585.54 771.414 582.39 773.414 579.21 775.514C536.48 803.664 496.8 808.744 465.55 805.434C459.06 804.754 452.93 803.714 447.23 802.424C428.62 798.284 414.37 791.724 406.13 787.254C400.95 784.454 398.16 782.484 398.16 782.484C398.16 782.484 381.42 766.644 351.47 755.684C328.77 747.394 298.48 741.914 262.13 748.294C239.48 752.254 214.48 760.824 187.49 776.194C184.62 777.824 181.73 779.534 178.82 781.314C140.01 805.144 109.58 815.594 85.97 816.994C72.34 817.804 60.98 815.594 51.59 811.194C21.77 797.284 11.71 761.434 11.71 730.244C11.71 691.344 22.66 696.774 38.95 656.354C44.97 641.434 51.72 620.284 58.9 588.354C61.03 569.454 64.19 550.914 68.35 532.824C71.45 519.224 75.13 505.874 79.33 492.804C89.72 460.374 103.35 429.674 119.77 401.194C121.3 398.514 122.87 395.854 124.46 393.214C124.92 392.454 125.38 391.694 125.85 390.934C158.81 337.034 201.96 291.594 252.17 258.114C258.51 253.884 264.96 249.854 271.52 246.004C293.83 232.944 317.36 222.174 341.88 213.964C360.67 207.674 380.04 202.884 399.87 199.714C397.54 205.904 395.37 212.144 393.42 218.364C379.21 221.134 365.27 224.794 351.65 229.274C328.66 236.854 306.58 246.784 285.65 258.834C279.5 262.394 273.45 266.114 267.51 270.004C220.41 300.904 179.95 342.824 149.03 392.564C148.6 393.264 148.16 393.954 147.73 394.664C146.24 397.104 144.77 399.544 143.33 402.024C127.93 428.304 115.15 456.624 105.4 486.544C101.46 498.604 98.01 510.924 95.1 523.464C91.2 540.164 88.23 557.274 86.24 574.714C79.5 604.174 73.17 623.694 67.51 637.444C52.22 674.744 41.96 669.744 41.96 705.634C41.96 734.404 51.4 767.494 79.36 780.324C88.17 784.374 98.83 786.424 111.61 785.674C133.75 784.374 162.3 774.724 198.7 752.754C201.43 751.114 204.13 749.524 206.82 748.024C232.14 733.844 255.59 725.934 276.83 722.284C310.93 716.384 339.35 721.444 360.63 729.094C388.73 739.204 404.42 753.834 404.42 753.834C404.42 753.834 407.05 755.644 411.9 758.224C419.63 762.344 432.99 768.414 450.45 772.234C455.8 773.424 461.55 774.374 467.63 775.004C496.95 778.054 534.16 773.374 574.25 747.394C577.22 745.454 580.18 743.614 583.11 741.854C598.71 732.414 613.46 725.314 627.36 720.194C649 712.214 668.61 709.004 686.27 709.124C712.53 709.284 734.54 716.834 752.64 727.074C758.55 730.404 764.02 734.024 769.1 737.764C782.93 747.964 801.64 749.364 820.07 745.294C823.87 744.454 827.65 743.394 831.37 742.114C860.81 732.094 886.66 709.414 886.66 688.504C886.66 669.534 876.31 650.274 863.49 628.144C853.11 610.264 841.11 590.514 831.64 567.534C829.6 551.984 826.81 536.694 823.24 521.754C822.82 519.884 822.35 518.024 821.9 516.174C818.84 504.024 815.32 492.094 811.31 480.424C800.48 448.754 786.22 418.934 769.06 391.494C721.56 315.564 651.74 257.974 570.06 230.264C570.52 224.794 570.73 219.244 570.71 213.664C659.52 243.154 735.47 306.224 786.89 389.774C805.19 419.504 820.38 451.834 831.94 486.164C836.22 498.804 839.97 511.734 843.23 524.894C843.72 526.904 844.22 528.914 844.67 530.944C848.47 547.144 851.45 563.704 853.62 580.574C863.72 605.474 876.52 626.884 887.58 646.254C901.25 670.234 912.28 691.114 912.28 711.674L912.29 711.694Z" fill="#10FFE2"/>
</g>
<path d="M615.78 186.544C596.12 188.644 580.41 185.934 567.65 176.564C569.55 188.804 570.69 201.324 570.74 213.684C570.92 263.904 553.04 311.454 493.92 325.804C366.59 356.704 371.82 274.354 399.89 199.714C380.06 202.874 360.69 207.674 341.9 213.964C364.64 159.454 445.86 -13.8656 553.11 3.75444C680.19 24.6444 664.52 181.314 615.78 186.544Z" fill="url(#paint2_linear_1164_663)" stroke="#490B40" stroke-width="5" stroke-linecap="round" stroke-linejoin="round"/>
<g style="mix-blend-mode:difference" opacity="0.15">
<path d="M615.78 186.544C596.12 188.644 580.41 185.934 567.65 176.564C569.55 188.804 570.69 201.324 570.74 213.684C570.92 263.904 553.04 311.454 493.92 325.804C366.59 356.704 371.82 274.354 399.89 199.714C380.06 202.874 360.69 207.674 341.9 213.964C346.58 202.744 353.74 186.484 363.11 167.884C399.17 107.444 439.38 93.6944 460.85 120.974C460.85 120.974 422.55 149.124 422.55 233.544C422.55 317.964 490.46 309.594 513.08 290.994C539.18 269.524 572.26 203.954 553.99 156.084C535.71 108.204 556.01 146.504 593.73 168.564C629.49 189.484 692.89 9.56438 500.08 10.1044C516.87 3.37438 534.6 0.724385 553.11 3.76438C680.19 24.6544 664.52 181.324 615.78 186.554V186.544Z" fill="#C401DB"/>
</g>
<path d="M438.22 120.385C426.62 140.065 411.34 169.255 399.89 199.725" stroke="#490B40" stroke-width="5" stroke-linecap="round" stroke-linejoin="round"/>
<path d="M525.96 102.184C538.65 121.174 555.54 149.464 568.69 179.234" stroke="#490B40" stroke-width="5" stroke-linecap="round" stroke-linejoin="round"/>
<path d="M252.191 258.114C201.271 292.064 157.621 338.314 124.481 393.214L82.0205 358.244C82.0205 358.244 97.9405 257.604 198.661 214.034L252.201 258.114H252.191Z" fill="url(#paint3_linear_1164_663)" stroke="#490B40" stroke-width="5" stroke-miterlimit="10"/>
<g style="mix-blend-mode:difference" opacity="0.75">
<path d="M252.191 258.114C201.271 292.064 157.621 338.314 124.481 393.214L82.0205 358.244C82.0205 358.244 83.2505 350.484 87.1705 338.364L122.191 369.164C153.781 320.464 193.761 279.114 239.611 247.774L252.191 258.124V258.114Z" fill="#101220"/>
</g>
<path d="M288.53 166.864C288.53 166.864 284.13 201.424 271.54 246.014C264.99 249.864 258.53 253.894 252.19 258.124L198.65 214.044C97.9301 257.604 82.0101 358.254 82.0101 358.254L124.47 393.224C122.88 395.864 121.31 398.524 119.78 401.204C85.8901 404.314 45.6201 404.964 6.58008 398.194C6.58008 398.194 18.4701 219.814 91.8101 146.244C91.8101 146.244 233.88 132.504 288.52 166.864H288.53Z" fill="url(#paint4_linear_1164_663)" stroke="#490B40" stroke-width="5" stroke-miterlimit="10"/>
<path d="M519.219 645.772C527.325 634.534 520.006 615.405 502.872 603.048C485.739 590.691 465.278 589.784 457.173 601.023C449.067 612.262 456.386 631.39 473.519 643.747C490.653 656.105 511.113 657.011 519.219 645.772Z" fill="url(#paint5_linear_1164_663)" stroke="#490B40" stroke-width="5" stroke-miterlimit="10"/>
<path d="M437.282 642.696C454.416 630.339 461.734 611.21 453.629 599.972C445.523 588.733 425.063 589.64 407.929 601.997C390.795 614.354 383.477 633.482 391.582 644.721C399.688 655.96 420.148 655.053 437.282 642.696Z" fill="url(#paint6_linear_1164_663)" stroke="#490B40" stroke-width="5" stroke-miterlimit="10"/>
<path d="M520.18 581.704C520.18 589.914 510.97 597.244 496.57 602.034C491.33 603.764 485.4 605.174 478.97 606.174C472.58 607.144 465.72 607.714 458.55 607.804C457.96 607.814 457.35 607.814 456.74 607.814C456.13 607.814 455.59 607.814 455.02 607.804C448.45 607.724 442.15 607.244 436.23 606.414C429.65 605.504 423.55 604.134 418.15 602.424C403.04 597.654 393.3 590.154 393.3 581.694C393.3 579.434 394 577.224 395.32 575.124C402.39 563.874 427.21 555.574 456.74 555.574C484.46 555.574 508.04 562.904 516.67 573.094C517.1 573.584 517.48 574.094 517.83 574.614C519.29 576.754 520.11 579.014 520.17 581.344C520.18 581.454 520.18 581.574 520.18 581.684V581.704Z" fill="url(#paint7_radial_1164_663)" stroke="#490B40" stroke-width="5" stroke-miterlimit="10"/>
<path d="M586.14 514.394C586.14 521.734 586.51 528.944 587.22 535.984C561.29 547.724 537.92 560.824 517.83 574.644C517.48 574.124 517.1 573.624 516.67 573.124C508.04 562.924 484.47 555.604 456.74 555.604C427.21 555.604 402.39 563.904 395.32 575.154C395.05 574.964 394.78 574.804 394.51 574.624C374.52 561.694 351.67 549.484 326.56 538.564C327.07 532.564 327.33 526.444 327.33 520.214C327.33 480.094 316.42 443.944 298.97 418.624C305.36 420.824 311.77 423.164 318.2 425.634C372.61 446.514 419.89 473.524 455.46 502.184C491.19 473.094 539.02 445.634 594.18 424.464C599.76 422.324 605.33 420.274 610.88 418.324C595.56 443.254 586.13 477.114 586.13 514.404L586.14 514.394Z" fill="url(#paint8_linear_1164_663)" stroke="#490B40" stroke-width="5" stroke-miterlimit="10"/>
<path d="M537.46 978.275L466.38 1051.25L387.89 984.695L458.97 774.005L537.46 978.275Z" fill="url(#paint9_linear_1164_663)" stroke="#490B40" stroke-width="5" stroke-miterlimit="10"/>
<g style="mix-blend-mode:difference" opacity="0.2">
<path d="M458.97 773.994L387.88 984.694L466.38 1051.25L537.45 978.284L458.96 773.994H458.97ZM465.41 1021.17L407.31 971.924L460.85 814.974L518.47 966.644L465.42 1021.16L465.41 1021.17Z" fill="#39B54A"/>
</g>
<path d="M535.54 799.914L464.46 872.894L385.97 806.334L457.05 733.354L535.54 799.914Z" fill="url(#paint10_linear_1164_663)" stroke="#490B40" stroke-width="5" stroke-miterlimit="10"/>
<g style="mix-blend-mode:difference" opacity="0.15">
<path d="M535.54 799.914L464.46 872.894L385.97 806.334L401.29 790.594L464.46 844.174L520.22 786.914L535.54 799.914Z" fill="#39B54A"/>
<path d="M535.54 799.914L464.46 872.894L385.97 806.334L401.29 790.594L464.46 844.174L520.22 786.914L535.54 799.914Z" stroke="#490B40" stroke-miterlimit="10"/>
</g>
<path d="M310.92 1138.12C325.412 1138.12 337.16 1118 337.16 1093.18C337.16 1068.36 325.412 1048.24 310.92 1048.24C296.428 1048.24 284.68 1068.36 284.68 1093.18C284.68 1118 296.428 1138.12 310.92 1138.12Z" fill="url(#paint11_linear_1164_663)" stroke="#490B40" stroke-width="5" stroke-miterlimit="10"/>
<path d="M226.209 1137.44C240.663 1136.38 250.917 1115.46 249.112 1090.71C247.307 1065.95 234.127 1046.74 219.673 1047.79C205.22 1048.85 194.966 1069.77 196.771 1094.52C198.576 1119.28 211.756 1138.49 226.209 1137.44Z" fill="url(#paint12_linear_1164_663)" stroke="#490B40" stroke-width="5" stroke-miterlimit="10"/>
<path d="M268.27 1146.24C285.104 1146.24 298.75 1122.88 298.75 1094.05C298.75 1065.23 285.104 1041.86 268.27 1041.86C251.436 1041.86 237.79 1065.23 237.79 1094.05C237.79 1122.88 251.436 1146.24 268.27 1146.24Z" fill="url(#paint13_linear_1164_663)" stroke="#490B40" stroke-width="5" stroke-miterlimit="10"/>
<path d="M696.22 1139.28C710.712 1139.28 722.46 1119.16 722.46 1094.34C722.46 1069.52 710.712 1049.4 696.22 1049.4C681.728 1049.4 669.98 1069.52 669.98 1094.34C669.98 1119.16 681.728 1139.28 696.22 1139.28Z" fill="url(#paint14_linear_1164_663)" stroke="#490B40" stroke-width="5" stroke-miterlimit="10"/>
<path d="M612.669 1140.94C627.123 1139.88 637.377 1118.96 635.572 1094.21C633.767 1069.45 620.587 1050.24 606.133 1051.29C591.68 1052.35 581.426 1073.27 583.231 1098.02C585.036 1122.78 598.216 1141.99 612.669 1140.94Z" fill="url(#paint15_linear_1164_663)" stroke="#490B40" stroke-width="5" stroke-miterlimit="10"/>
<path d="M653.57 1143.92C670.403 1143.92 684.05 1120.56 684.05 1091.73C684.05 1062.91 670.403 1039.54 653.57 1039.54C636.736 1039.54 623.09 1062.91 623.09 1091.73C623.09 1120.56 636.736 1143.92 653.57 1143.92Z" fill="url(#paint16_linear_1164_663)" stroke="#490B40" stroke-width="5" stroke-miterlimit="10"/>
<path d="M763.71 514.395C763.71 550.085 755.07 582.625 740.9 607.205C724.65 635.375 701.12 653.085 674.93 653.085C665.59 653.085 656.58 650.835 648.13 646.645C616.45 631.005 592.47 588.355 587.23 535.985C586.52 528.945 586.15 521.735 586.15 514.395C586.15 477.105 595.58 443.245 610.9 418.315C627.06 392.055 649.77 375.715 674.92 375.715C690.21 375.715 704.6 381.755 717.17 392.395C740.12 411.835 756.98 446.605 762.08 487.925C763.16 496.495 763.71 505.345 763.71 514.395Z" fill="white" stroke="#490B40" stroke-width="5" stroke-miterlimit="10"/>
<path d="M747.051 521.345C747.051 544.325 741.931 565.275 733.521 581.115C723.881 599.245 709.931 610.655 694.391 610.655C688.851 610.655 683.52 609.205 678.5 606.505C659.72 596.435 645.491 568.975 642.401 535.255C641.971 530.725 641.75 526.075 641.75 521.355C641.75 497.345 647.33 475.545 656.43 459.495C666.02 442.595 679.481 432.065 694.391 432.065C703.471 432.065 711.991 435.955 719.461 442.805C723.631 446.645 727.49 451.425 730.88 456.985L702.591 501.275L742.401 484.665C744.061 490.865 745.311 497.455 746.091 504.325C746.721 509.845 747.051 515.535 747.051 521.365V521.345Z" fill="url(#paint17_linear_1164_663)" stroke="#490B40" stroke-width="5" stroke-miterlimit="10"/>
<path d="M327.34 520.185C327.34 555.875 318.7 588.415 304.53 612.995C288.28 641.165 264.75 658.875 238.56 658.875C229.22 658.875 220.21 656.625 211.76 652.435C180.08 636.795 156.1 594.145 150.86 541.775C150.15 534.735 149.78 527.525 149.78 520.185C149.78 482.895 159.21 449.035 174.53 424.105C190.69 397.845 213.4 381.505 238.55 381.505C253.84 381.505 268.23 387.545 280.8 398.185C303.75 417.625 320.61 452.395 325.71 493.715C326.79 502.285 327.34 511.135 327.34 520.185Z" fill="white" stroke="#490B40" stroke-width="5" stroke-miterlimit="10"/>
<path d="M269.94 530.334C269.94 553.314 264.82 574.264 256.41 590.104C246.77 608.234 232.82 619.644 217.28 619.644C211.74 619.644 206.41 618.194 201.39 615.494C182.61 605.424 168.38 577.964 165.29 544.244C164.86 539.714 164.64 535.064 164.64 530.344C164.64 506.334 170.22 484.534 179.32 468.484C188.91 451.584 202.37 441.054 217.28 441.054C226.36 441.054 234.88 444.944 242.35 451.794C246.52 455.634 250.38 460.414 253.77 465.974L225.48 510.264L265.29 493.654C266.95 499.854 268.2 506.444 268.98 513.314C269.61 518.834 269.94 524.524 269.94 530.354V530.334Z" fill="url(#paint18_linear_1164_663)" stroke="#490B40" stroke-width="5" stroke-miterlimit="10"/>
<path opacity="0.25" d="M210.23 724.074C320.814 724.074 410.46 634.428 410.46 523.845C410.46 413.261 320.814 323.615 210.23 323.615C99.646 323.615 10 413.261 10 523.845C10 634.428 99.646 724.074 210.23 724.074Z" fill="#00FFFF"/>
<path opacity="0.25" d="M698.55 717.314C809.134 717.314 898.78 627.668 898.78 517.085C898.78 406.501 809.134 316.854 698.55 316.854C587.966 316.854 498.32 406.501 498.32 517.085C498.32 627.668 587.966 717.314 698.55 717.314Z" fill="#00FFFF"/>
<path d="M210.23 724.074C320.814 724.074 410.46 634.428 410.46 523.845C410.46 413.261 320.814 323.615 210.23 323.615C99.646 323.615 10 413.261 10 523.845C10 634.428 99.646 724.074 210.23 724.074Z" stroke="#101220" stroke-width="20" stroke-miterlimit="10"/>
<path d="M698.55 717.314C809.134 717.314 898.78 627.668 898.78 517.085C898.78 406.501 809.134 316.854 698.55 316.854C587.966 316.854 498.32 406.501 498.32 517.085C498.32 627.668 587.966 717.314 698.55 717.314Z" stroke="#101220" stroke-width="20" stroke-miterlimit="10"/>
<defs>
<linearGradient id="paint0_linear_1164_663" x1="456.2" y1="734.014" x2="456.2" y2="1095.24" gradientUnits="userSpaceOnUse">
<stop stop-color="#10FFE2"/>
<stop offset="0.1" stop-color="#15FEDF"/>
<stop offset="0.23" stop-color="#25FDD6"/>
<stop offset="0.38" stop-color="#40FBC9"/>
<stop offset="0.53" stop-color="#65F9B6"/>
<stop offset="0.7" stop-color="#94F69E"/>
<stop offset="0.87" stop-color="#CDF281"/>
<stop offset="1" stop-color="#FEEF69"/>
</linearGradient>
<linearGradient id="paint1_linear_1164_663" x1="462" y1="817.164" x2="462" y2="199.724" gradientUnits="userSpaceOnUse">
<stop stop-color="#FEEF69"/>
<stop offset="0.02" stop-color="#EEF070"/>
<stop offset="0.08" stop-color="#C0F388"/>
<stop offset="0.15" stop-color="#96F59D"/>
<stop offset="0.22" stop-color="#72F8B0"/>
<stop offset="0.3" stop-color="#53FABF"/>
<stop offset="0.39" stop-color="#3AFCCC"/>
<stop offset="0.48" stop-color="#27FDD6"/>
<stop offset="0.59" stop-color="#1AFEDC"/>
<stop offset="0.73" stop-color="#12FEE0"/>
<stop offset="1" stop-color="#10FFE2"/>
</linearGradient>
<linearGradient id="paint2_linear_1164_663" x1="358.06" y1="250.134" x2="649.68" y2="81.7744" gradientUnits="userSpaceOnUse">
<stop stop-color="#C401DB"/>
<stop offset="0.15" stop-color="#D807CF"/>
<stop offset="0.37" stop-color="#F310C0"/>
<stop offset="0.5" stop-color="#FD14BB"/>
<stop offset="0.62" stop-color="#FD16B9"/>
<stop offset="0.7" stop-color="#FD1FB6"/>
<stop offset="0.76" stop-color="#FD2DAF"/>
<stop offset="0.82" stop-color="#FD42A6"/>
<stop offset="0.87" stop-color="#FD5D9A"/>
<stop offset="0.92" stop-color="#FE7E8B"/>
<stop offset="0.96" stop-color="#FEA57A"/>
<stop offset="1" stop-color="#FFC96B"/>
</linearGradient>
<linearGradient id="paint3_linear_1164_663" x1="133.541" y1="250.044" x2="193.271" y2="353.494" gradientUnits="userSpaceOnUse">
<stop stop-color="#C401DB"/>
<stop offset="0.11" stop-color="#B603E0"/>
<stop offset="0.51" stop-color="#8B0DF0"/>
<stop offset="0.82" stop-color="#7012FB"/>
<stop offset="1" stop-color="#6715FF"/>
</linearGradient>
<linearGradient id="paint4_linear_1164_663" x1="218.7" y1="126.484" x2="48.0201" y2="422.104" gradientUnits="userSpaceOnUse">
<stop stop-color="#C401DB"/>
<stop offset="0.11" stop-color="#B603E0"/>
<stop offset="0.51" stop-color="#8B0DF0"/>
<stop offset="0.82" stop-color="#7012FB"/>
<stop offset="1" stop-color="#6715FF"/>
</linearGradient>
<linearGradient id="paint5_linear_1164_663" x1="520.673" y1="643.756" x2="458.627" y2="599.007" gradientUnits="userSpaceOnUse">
<stop stop-color="#C401DB"/>
<stop offset="0.23" stop-color="#DC09CD"/>
<stop offset="0.46" stop-color="#EE0FC3"/>
<stop offset="0.72" stop-color="#F912BC"/>
<stop offset="1" stop-color="#FD14BB"/>
</linearGradient>
<linearGradient id="paint6_linear_1164_663" x1="387.699" y1="639.336" x2="449.745" y2="594.587" gradientUnits="userSpaceOnUse">
<stop stop-color="#C401DB"/>
<stop offset="0.23" stop-color="#DC09CD"/>
<stop offset="0.46" stop-color="#EE0FC3"/>
<stop offset="0.72" stop-color="#F912BC"/>
<stop offset="1" stop-color="#FD14BB"/>
</linearGradient>
<radialGradient id="paint7_radial_1164_663" cx="0" cy="0" r="1" gradientUnits="userSpaceOnUse" gradientTransform="translate(456.74 581.704) scale(48.51 48.51)">
<stop stop-color="#FEEF69"/>
<stop offset="0.28" stop-color="#FEF447"/>
<stop offset="0.76" stop-color="#FEFB14"/>
<stop offset="1" stop-color="#FFFF00"/>
</radialGradient>
<linearGradient id="paint8_linear_1164_663" x1="454.94" y1="418.314" x2="454.94" y2="575.134" gradientUnits="userSpaceOnUse">
<stop stop-color="#FD14BB"/>
<stop offset="0.15" stop-color="#FD17B9"/>
<stop offset="0.28" stop-color="#FD22B5"/>
<stop offset="0.42" stop-color="#FD35AE"/>
<stop offset="0.55" stop-color="#FD4FA4"/>
<stop offset="0.67" stop-color="#FD7197"/>
<stop offset="0.8" stop-color="#FD9B88"/>
<stop offset="0.92" stop-color="#FDCB76"/>
<stop offset="1" stop-color="#FEEF69"/>
</linearGradient>
<linearGradient id="paint9_linear_1164_663" x1="462.67" y1="1051.25" x2="462.67" y2="774.005" gradientUnits="userSpaceOnUse">
<stop stop-color="#8AFF00"/>
<stop offset="0.16" stop-color="#8FFE05"/>
<stop offset="0.36" stop-color="#9FFC13"/>
<stop offset="0.58" stop-color="#BAF82B"/>
<stop offset="0.82" stop-color="#DEF34C"/>
<stop offset="1" stop-color="#FEEF69"/>
</linearGradient>
<linearGradient id="paint10_linear_1164_663" x1="460.75" y1="872.894" x2="460.75" y2="733.354" gradientUnits="userSpaceOnUse">
<stop stop-color="#8AFF00"/>
<stop offset="0.16" stop-color="#8FFE05"/>
<stop offset="0.36" stop-color="#9FFC13"/>
<stop offset="0.58" stop-color="#BAF82B"/>
<stop offset="0.82" stop-color="#DEF34C"/>
<stop offset="1" stop-color="#FEEF69"/>
</linearGradient>
<linearGradient id="paint11_linear_1164_663" x1="310.92" y1="1138.12" x2="310.92" y2="1048.24" gradientUnits="userSpaceOnUse">
<stop stop-color="#FFFF00"/>
<stop offset="0.24" stop-color="#FEFB14"/>
<stop offset="0.72" stop-color="#FEF447"/>
<stop offset="1" stop-color="#FEEF69"/>
</linearGradient>
<linearGradient id="paint12_linear_1164_663" x1="222.983" y1="1137.46" x2="222.983" y2="1047.74" gradientUnits="userSpaceOnUse">
<stop stop-color="#FFFF00"/>
<stop offset="0.24" stop-color="#FEFB14"/>
<stop offset="0.72" stop-color="#FEF447"/>
<stop offset="1" stop-color="#FEEF69"/>
</linearGradient>
<linearGradient id="paint13_linear_1164_663" x1="268.27" y1="1146.24" x2="268.27" y2="1041.86" gradientUnits="userSpaceOnUse">
<stop stop-color="#FFFF00"/>
<stop offset="0.24" stop-color="#FEFB14"/>
<stop offset="0.72" stop-color="#FEF447"/>
<stop offset="1" stop-color="#FEEF69"/>
</linearGradient>
<linearGradient id="paint14_linear_1164_663" x1="696.22" y1="1139.28" x2="696.22" y2="1049.4" gradientUnits="userSpaceOnUse">
<stop stop-color="#FFFF00"/>
<stop offset="0.24" stop-color="#FEFB14"/>
<stop offset="0.72" stop-color="#FEF447"/>
<stop offset="1" stop-color="#FEEF69"/>
</linearGradient>
<linearGradient id="paint15_linear_1164_663" x1="609.446" y1="1140.94" x2="609.446" y2="1051.22" gradientUnits="userSpaceOnUse">
<stop stop-color="#FFFF00"/>
<stop offset="0.24" stop-color="#FEFB14"/>
<stop offset="0.72" stop-color="#FEF447"/>
<stop offset="1" stop-color="#FEEF69"/>
</linearGradient>
<linearGradient id="paint16_linear_1164_663" x1="653.57" y1="1143.92" x2="653.57" y2="1039.54" gradientUnits="userSpaceOnUse">
<stop stop-color="#FFFF00"/>
<stop offset="0.24" stop-color="#FEFB14"/>
<stop offset="0.72" stop-color="#FEF447"/>
<stop offset="1" stop-color="#FEEF69"/>
</linearGradient>
<linearGradient id="paint17_linear_1164_663" x1="694.401" y1="610.655" x2="694.401" y2="432.055" gradientUnits="userSpaceOnUse">
<stop stop-color="#101220"/>
<stop offset="0.42" stop-color="#111120"/>
<stop offset="0.57" stop-color="#181023"/>
<stop offset="0.68" stop-color="#240F28"/>
<stop offset="0.76" stop-color="#350D30"/>
<stop offset="0.84" stop-color="#4B0A39"/>
<stop offset="0.9" stop-color="#660745"/>
<stop offset="0.96" stop-color="#860352"/>
<stop offset="1" stop-color="#9E005D"/>
</linearGradient>
<linearGradient id="paint18_linear_1164_663" x1="217.29" y1="619.644" x2="217.29" y2="441.034" gradientUnits="userSpaceOnUse">
<stop stop-color="#101220"/>
<stop offset="0.42" stop-color="#111120"/>
<stop offset="0.57" stop-color="#181023"/>
<stop offset="0.68" stop-color="#240F28"/>
<stop offset="0.76" stop-color="#350D30"/>
<stop offset="0.84" stop-color="#4B0A39"/>
<stop offset="0.9" stop-color="#660745"/>
<stop offset="0.96" stop-color="#860352"/>
<stop offset="1" stop-color="#9E005D"/>
</linearGradient>
</defs>
</svg>
