<svg width="915" height="1149" viewBox="0 0 915 1149" fill="none" xmlns="http://www.w3.org/2000/svg">
<path d="M862.4 841.664C862.4 977.544 768.87 1087.7 653.5 1087.7C628.36 1087.7 604.25 1082.47 581.93 1072.87C542.54 1087.38 500.46 1095.24 456.74 1095.24C413.02 1095.24 370.53 1087.31 330.98 1072.67C308.51 1082.4 284.24 1087.7 258.91 1087.7C143.54 1087.7 50.0098 977.544 50.0098 841.664C50.0098 831.354 50.5498 821.194 51.5998 811.204C60.9898 815.594 72.3498 817.804 85.9798 817.004C109.59 815.604 140.02 805.144 178.83 781.324C181.74 779.544 184.63 777.834 187.5 776.204C314.92 703.664 398.18 782.494 398.18 782.494C398.18 782.494 400.98 784.464 406.15 787.264C414.39 791.734 428.63 798.294 447.25 802.434C452.96 803.724 459.08 804.764 465.57 805.444C496.82 808.744 536.5 803.674 579.23 775.524C582.41 773.424 585.56 771.424 588.67 769.514C669.66 719.734 728.78 730.114 769.42 753.494C775.71 757.104 781.54 761.024 786.96 765.084C801.71 776.144 821.67 777.664 841.31 773.244C845.36 772.334 849.38 771.184 853.36 769.804C859.26 792.544 862.42 816.674 862.42 841.674L862.4 841.664Z" fill="url(#paint0_linear_1164_657)" stroke="#490B40" stroke-width="5" stroke-miterlimit="10"/>
<g style="mix-blend-mode:darken">
<path d="M862.4 841.664C862.4 977.544 768.87 1087.7 653.5 1087.7C628.36 1087.7 604.25 1082.47 581.93 1072.87C542.54 1087.38 500.46 1095.24 456.74 1095.24C413.02 1095.24 370.53 1087.31 330.98 1072.67C308.51 1082.4 284.24 1087.7 258.91 1087.7C143.54 1087.7 50.0098 977.544 50.0098 841.664C50.0098 831.354 50.5498 821.194 51.5998 811.204C60.9898 815.594 72.3498 817.804 85.9798 817.004C88.9798 816.824 92.0898 816.494 95.3198 816.014C97.0998 855.104 101.56 907.614 112.68 926.384C131.25 957.714 124.28 898.534 133.57 892.724C142.86 886.914 149.82 871.834 164.91 929.864C179.99 987.894 209.01 1020.38 219.45 1019.22C229.9 1018.07 207.78 967.994 222.94 971.644C255.43 979.474 253.69 996.014 307.66 1027.35C381.69 1070.34 571.11 1074.93 652.34 1014.59C733.57 954.234 720.81 984.414 713.85 1012.26C706.89 1040.11 792.77 965.844 795.08 886.924C797.41 808.004 826.42 878.804 821.78 910.144C817.44 939.414 857.66 929.204 825.15 775.454C830.48 775.214 835.91 774.454 841.31 773.244C845.36 772.334 849.38 771.184 853.36 769.804C859.26 792.544 862.42 816.674 862.42 841.674L862.4 841.664Z" fill="#CCCCCC"/>
</g>
<path d="M887.59 646.274C876.53 626.904 863.73 605.494 853.63 580.594C851.47 563.724 848.48 547.164 844.68 530.964C844.22 528.944 843.73 526.924 843.24 524.914C839.99 511.754 836.23 498.824 831.95 486.184C820.4 451.854 805.2 419.524 786.9 389.794C735.48 306.244 659.53 243.184 570.72 213.684C570.9 263.904 553.02 311.454 493.9 325.804C366.57 356.704 371.8 274.354 399.87 199.714C380.04 202.874 360.67 207.674 341.88 213.964C317.36 222.174 293.82 232.944 271.52 246.004C264.97 249.854 258.51 253.884 252.17 258.114C201.96 291.594 158.81 337.034 125.85 390.934C125.38 391.694 124.91 392.454 124.46 393.214C122.87 395.854 121.3 398.514 119.77 401.194C103.35 429.674 89.72 460.374 79.33 492.804C75.13 505.874 71.45 519.224 68.35 532.824C64.19 550.914 61.02 569.454 58.9 588.354C51.71 620.274 44.97 641.434 38.95 656.354C22.65 696.784 11.71 691.354 11.71 730.244C11.71 761.434 21.77 797.294 51.59 811.194C60.98 815.584 72.34 817.794 85.97 816.994C109.58 815.594 140.01 805.134 178.82 781.314C181.73 779.534 184.62 777.824 187.49 776.194C214.48 760.824 239.48 752.254 262.13 748.294C298.48 741.914 328.77 747.394 351.47 755.684C381.42 766.644 398.16 782.484 398.16 782.484C398.16 782.484 400.96 784.454 406.13 787.254C414.37 791.724 428.61 798.284 447.23 802.424C452.94 803.714 459.06 804.754 465.55 805.434C496.8 808.734 536.48 803.664 579.21 775.514C582.39 773.414 585.54 771.414 588.65 769.504C605.29 759.284 621.02 751.584 635.83 746.034C658.9 737.384 679.8 733.904 698.64 734.024C726.63 734.204 750.1 742.374 769.4 753.484C775.69 757.094 781.52 761.014 786.94 765.074C801.69 776.134 821.65 777.654 841.29 773.234C845.34 772.324 849.36 771.174 853.34 769.794C884.73 758.924 912.29 734.354 912.29 711.694C912.29 691.134 901.26 670.254 887.59 646.274ZM318.21 425.614C372.62 446.494 419.9 473.504 455.47 502.164C491.2 473.074 539.03 445.614 594.19 424.444C599.77 422.304 605.34 420.254 610.89 418.304C595.57 443.234 586.14 477.094 586.14 514.384C586.14 521.724 586.51 528.934 587.22 535.974C561.29 547.714 537.92 560.814 517.83 574.634C517.48 574.114 517.1 573.614 516.67 573.114C508.04 562.914 484.47 555.594 456.74 555.594C427.21 555.594 402.39 563.894 395.32 575.144C395.05 574.954 394.78 574.794 394.51 574.614C374.52 561.684 351.67 549.474 326.56 538.554C327.07 532.554 327.33 526.434 327.33 520.204C327.33 480.084 316.42 443.934 298.97 418.614C305.36 420.814 311.77 423.154 318.2 425.624L318.21 425.614Z" fill="url(#paint1_linear_1164_657)" stroke="#490B40" stroke-width="5" stroke-miterlimit="10"/>
<g style="mix-blend-mode:exclusion" opacity="0.15">
<path d="M912.29 711.694C912.29 734.354 884.73 758.924 853.34 769.794C849.37 771.174 845.34 772.324 841.29 773.234C821.65 777.654 801.7 776.134 786.94 765.074C781.52 761.014 775.69 757.094 769.4 753.484C750.1 742.374 726.63 734.204 698.64 734.024C679.8 733.894 658.9 737.374 635.83 746.034C621.01 751.584 605.29 759.284 588.65 769.504C585.54 771.414 582.39 773.414 579.21 775.514C536.48 803.664 496.8 808.744 465.55 805.434C459.06 804.754 452.93 803.714 447.23 802.424C428.62 798.284 414.37 791.724 406.13 787.254C400.95 784.454 398.16 782.484 398.16 782.484C398.16 782.484 381.42 766.644 351.47 755.684C328.77 747.394 298.48 741.914 262.13 748.294C239.48 752.254 214.48 760.824 187.49 776.194C184.62 777.824 181.73 779.534 178.82 781.314C140.01 805.144 109.58 815.594 85.97 816.994C72.34 817.804 60.98 815.594 51.59 811.194C21.77 797.284 11.71 761.434 11.71 730.244C11.71 691.344 22.66 696.774 38.95 656.354C44.97 641.434 51.72 620.284 58.9 588.354C61.03 569.454 64.19 550.914 68.35 532.824C71.45 519.224 75.13 505.874 79.33 492.804C89.72 460.374 103.35 429.674 119.77 401.194C121.3 398.514 122.87 395.854 124.46 393.214C124.92 392.454 125.38 391.694 125.85 390.934C158.81 337.034 201.96 291.594 252.17 258.114C258.51 253.884 264.96 249.854 271.52 246.004C293.83 232.944 317.36 222.174 341.88 213.964C360.67 207.674 380.04 202.884 399.87 199.714C397.54 205.904 395.37 212.144 393.42 218.364C379.21 221.134 365.27 224.794 351.65 229.274C328.66 236.854 306.58 246.784 285.65 258.834C279.5 262.394 273.45 266.114 267.51 270.004C220.41 300.904 179.95 342.824 149.03 392.564C148.6 393.264 148.16 393.954 147.73 394.664C146.24 397.104 144.77 399.544 143.33 402.024C127.93 428.304 115.15 456.624 105.4 486.544C101.46 498.604 98.01 510.924 95.1 523.464C91.2 540.164 88.23 557.274 86.24 574.714C79.5 604.174 73.17 623.694 67.51 637.444C52.22 674.744 41.96 669.744 41.96 705.634C41.96 734.404 51.4 767.494 79.36 780.324C88.17 784.374 98.83 786.424 111.61 785.674C133.75 784.374 162.3 774.724 198.7 752.754C201.43 751.114 204.13 749.524 206.82 748.024C232.14 733.844 255.59 725.934 276.83 722.284C310.93 716.384 339.35 721.444 360.63 729.094C388.73 739.204 404.42 753.834 404.42 753.834C404.42 753.834 407.05 755.644 411.9 758.224C419.63 762.344 432.99 768.414 450.45 772.234C455.8 773.424 461.55 774.374 467.63 775.004C496.95 778.054 534.16 773.374 574.25 747.394C577.22 745.454 580.18 743.614 583.11 741.854C598.71 732.414 613.46 725.314 627.36 720.194C649 712.214 668.61 709.004 686.27 709.124C712.53 709.284 734.54 716.834 752.64 727.074C758.55 730.404 764.02 734.024 769.1 737.764C782.93 747.964 801.64 749.364 820.07 745.294C823.87 744.454 827.65 743.394 831.37 742.114C860.81 732.094 886.66 709.414 886.66 688.504C886.66 669.534 876.31 650.274 863.49 628.144C853.11 610.264 841.11 590.514 831.64 567.534C829.6 551.984 826.81 536.694 823.24 521.754C822.82 519.884 822.35 518.024 821.9 516.174C818.84 504.024 815.32 492.094 811.31 480.424C800.48 448.754 786.22 418.934 769.06 391.494C721.56 315.564 651.74 257.974 570.06 230.264C570.52 224.794 570.73 219.244 570.71 213.664C659.52 243.154 735.47 306.224 786.89 389.774C805.19 419.504 820.38 451.834 831.94 486.164C836.22 498.804 839.97 511.734 843.23 524.894C843.72 526.904 844.22 528.914 844.67 530.944C848.47 547.144 851.45 563.704 853.62 580.574C863.72 605.474 876.52 626.884 887.58 646.254C901.25 670.234 912.28 691.114 912.28 711.674L912.29 711.694Z" fill="#10FFE2"/>
</g>
<path d="M615.78 186.544C596.12 188.644 580.41 185.934 567.65 176.564C569.55 188.804 570.69 201.324 570.74 213.684C570.92 263.904 553.04 311.454 493.92 325.804C366.59 356.704 371.82 274.354 399.89 199.714C380.06 202.874 360.69 207.674 341.9 213.964C364.64 159.454 445.86 -13.8658 553.11 3.7542C680.19 24.6442 664.52 181.314 615.78 186.544Z" fill="url(#paint2_linear_1164_657)" stroke="#490B40" stroke-width="5" stroke-linecap="round" stroke-linejoin="round"/>
<g style="mix-blend-mode:difference" opacity="0.15">
<path d="M615.78 186.544C596.12 188.644 580.41 185.934 567.65 176.564C569.55 188.804 570.69 201.324 570.74 213.684C570.92 263.904 553.04 311.454 493.92 325.804C366.59 356.704 371.82 274.354 399.89 199.714C380.06 202.874 360.69 207.674 341.9 213.964C346.58 202.744 353.74 186.484 363.11 167.884C399.17 107.444 439.38 93.6944 460.85 120.974C460.85 120.974 422.55 149.124 422.55 233.544C422.55 317.964 490.46 309.594 513.08 290.994C539.18 269.524 572.26 203.954 553.99 156.084C535.71 108.204 556.01 146.504 593.73 168.564C629.49 189.484 692.89 9.56438 500.08 10.1044C516.87 3.37438 534.6 0.724385 553.11 3.76438C680.19 24.6544 664.52 181.324 615.78 186.554V186.544Z" fill="#C401DB"/>
</g>
<path d="M438.22 120.384C426.62 140.064 411.34 169.254 399.89 199.724" stroke="#490B40" stroke-width="5" stroke-linecap="round" stroke-linejoin="round"/>
<path d="M525.96 102.184C538.65 121.174 555.54 149.464 568.69 179.234" stroke="#490B40" stroke-width="5" stroke-linecap="round" stroke-linejoin="round"/>
<path d="M252.191 258.114C201.271 292.064 157.621 338.314 124.481 393.214L82.0205 358.244C82.0205 358.244 97.9405 257.604 198.661 214.034L252.201 258.114H252.191Z" fill="url(#paint3_linear_1164_657)" stroke="#490B40" stroke-width="5" stroke-miterlimit="10"/>
<g style="mix-blend-mode:difference" opacity="0.75">
<path d="M252.191 258.114C201.271 292.064 157.621 338.314 124.481 393.214L82.0205 358.244C82.0205 358.244 83.2505 350.484 87.1705 338.364L122.191 369.164C153.781 320.464 193.761 279.114 239.611 247.774L252.191 258.124V258.114Z" fill="#101220"/>
</g>
<path d="M288.53 166.864C288.53 166.864 284.13 201.424 271.54 246.014C264.99 249.864 258.53 253.894 252.19 258.124L198.65 214.044C97.9301 257.604 82.0101 358.254 82.0101 358.254L124.47 393.224C122.88 395.864 121.31 398.524 119.78 401.204C85.8901 404.314 45.6201 404.964 6.58008 398.194C6.58008 398.194 18.4701 219.814 91.8101 146.244C91.8101 146.244 233.88 132.504 288.52 166.864H288.53Z" fill="url(#paint4_linear_1164_657)" stroke="#490B40" stroke-width="5" stroke-miterlimit="10"/>
<path d="M519.219 645.772C527.325 634.533 520.006 615.405 502.872 603.048C485.739 590.691 465.278 589.784 457.173 601.023C449.067 612.262 456.386 631.39 473.519 643.747C490.653 656.104 511.113 657.011 519.219 645.772Z" fill="url(#paint5_linear_1164_657)" stroke="#490B40" stroke-width="5" stroke-miterlimit="10"/>
<path d="M437.282 642.695C454.416 630.338 461.734 611.21 453.629 599.971C445.523 588.732 425.063 589.639 407.929 601.996C390.795 614.353 383.477 633.481 391.582 644.72C399.688 655.959 420.148 655.052 437.282 642.695Z" fill="url(#paint6_linear_1164_657)" stroke="#490B40" stroke-width="5" stroke-miterlimit="10"/>
<path d="M520.18 581.705C520.18 589.915 510.97 597.245 496.57 602.035C491.33 603.765 485.4 605.175 478.97 606.175C472.58 607.145 465.72 607.715 458.55 607.805C457.96 607.815 457.35 607.815 456.74 607.815C456.13 607.815 455.59 607.815 455.02 607.805C448.45 607.725 442.15 607.245 436.23 606.415C429.65 605.505 423.55 604.135 418.15 602.425C403.04 597.655 393.3 590.155 393.3 581.695C393.3 579.435 394 577.225 395.32 575.125C402.39 563.875 427.21 555.575 456.74 555.575C484.46 555.575 508.04 562.905 516.67 573.095C517.1 573.585 517.48 574.095 517.83 574.615C519.29 576.755 520.11 579.015 520.17 581.345C520.18 581.455 520.18 581.575 520.18 581.685V581.705Z" fill="url(#paint7_radial_1164_657)" stroke="#490B40" stroke-width="5" stroke-miterlimit="10"/>
<path d="M586.14 514.394C586.14 521.734 586.51 528.944 587.22 535.984C561.29 547.724 537.92 560.824 517.83 574.644C517.48 574.124 517.1 573.624 516.67 573.124C508.04 562.924 484.47 555.604 456.74 555.604C427.21 555.604 402.39 563.904 395.32 575.154C395.05 574.964 394.78 574.804 394.51 574.624C374.52 561.694 351.67 549.484 326.56 538.564C327.07 532.564 327.33 526.444 327.33 520.214C327.33 480.094 316.42 443.944 298.97 418.624C305.36 420.824 311.77 423.164 318.2 425.634C372.61 446.514 419.89 473.524 455.46 502.184C491.19 473.094 539.02 445.634 594.18 424.464C599.76 422.324 605.33 420.274 610.88 418.324C595.56 443.254 586.13 477.114 586.13 514.404L586.14 514.394Z" fill="url(#paint8_linear_1164_657)" stroke="#490B40" stroke-width="5" stroke-miterlimit="10"/>
<path d="M537.46 978.274L466.38 1051.25L387.89 984.694L458.97 774.004L537.46 978.274Z" fill="url(#paint9_linear_1164_657)" stroke="#490B40" stroke-width="5" stroke-miterlimit="10"/>
<g style="mix-blend-mode:difference" opacity="0.2">
<path d="M458.97 773.995L387.88 984.695L466.38 1051.25L537.45 978.285L458.96 773.995H458.97ZM465.41 1021.17L407.31 971.925L460.85 814.975L518.47 966.645L465.42 1021.16L465.41 1021.17Z" fill="#39B54A"/>
</g>
<path d="M535.54 799.914L464.46 872.894L385.97 806.334L457.05 733.354L535.54 799.914Z" fill="url(#paint10_linear_1164_657)" stroke="#490B40" stroke-width="5" stroke-miterlimit="10"/>
<g style="mix-blend-mode:difference" opacity="0.15">
<path d="M535.54 799.915L464.46 872.895L385.97 806.335L401.29 790.595L464.46 844.174L520.22 786.915L535.54 799.915Z" fill="#39B54A"/>
<path d="M535.54 799.915L464.46 872.895L385.97 806.335L401.29 790.595L464.46 844.174L520.22 786.915L535.54 799.915Z" stroke="#490B40" stroke-miterlimit="10"/>
</g>
<path d="M310.92 1138.12C325.412 1138.12 337.16 1118 337.16 1093.18C337.16 1068.36 325.412 1048.24 310.92 1048.24C296.428 1048.24 284.68 1068.36 284.68 1093.18C284.68 1118 296.428 1138.12 310.92 1138.12Z" fill="url(#paint11_linear_1164_657)" stroke="#490B40" stroke-width="5" stroke-miterlimit="10"/>
<path d="M226.209 1137.44C240.663 1136.38 250.917 1115.46 249.112 1090.71C247.307 1065.95 234.127 1046.74 219.673 1047.79C205.22 1048.85 194.966 1069.77 196.771 1094.52C198.576 1119.28 211.756 1138.49 226.209 1137.44Z" fill="url(#paint12_linear_1164_657)" stroke="#490B40" stroke-width="5" stroke-miterlimit="10"/>
<path d="M268.27 1146.24C285.104 1146.24 298.75 1122.88 298.75 1094.05C298.75 1065.23 285.104 1041.86 268.27 1041.86C251.436 1041.86 237.79 1065.23 237.79 1094.05C237.79 1122.88 251.436 1146.24 268.27 1146.24Z" fill="url(#paint13_linear_1164_657)" stroke="#490B40" stroke-width="5" stroke-miterlimit="10"/>
<path d="M696.22 1139.28C710.712 1139.28 722.46 1119.16 722.46 1094.34C722.46 1069.52 710.712 1049.4 696.22 1049.4C681.728 1049.4 669.98 1069.52 669.98 1094.34C669.98 1119.16 681.728 1139.28 696.22 1139.28Z" fill="url(#paint14_linear_1164_657)" stroke="#490B40" stroke-width="5" stroke-miterlimit="10"/>
<path d="M612.669 1140.94C627.123 1139.88 637.377 1118.96 635.572 1094.21C633.767 1069.45 620.587 1050.24 606.133 1051.29C591.68 1052.35 581.426 1073.27 583.231 1098.02C585.036 1122.78 598.216 1141.99 612.669 1140.94Z" fill="url(#paint15_linear_1164_657)" stroke="#490B40" stroke-width="5" stroke-miterlimit="10"/>
<path d="M653.57 1143.92C670.403 1143.92 684.05 1120.56 684.05 1091.73C684.05 1062.91 670.403 1039.54 653.57 1039.54C636.736 1039.54 623.09 1062.91 623.09 1091.73C623.09 1120.56 636.736 1143.92 653.57 1143.92Z" fill="url(#paint16_linear_1164_657)" stroke="#490B40" stroke-width="5" stroke-miterlimit="10"/>
<path d="M763.71 514.394C763.71 550.084 755.07 582.624 740.9 607.204C724.65 635.374 701.12 653.084 674.93 653.084C665.59 653.084 656.58 650.834 648.13 646.644C616.45 631.004 592.47 588.354 587.23 535.984C586.52 528.944 586.15 521.734 586.15 514.394C586.15 477.104 595.58 443.244 610.9 418.314C627.06 392.054 649.77 375.714 674.92 375.714C690.21 375.714 704.6 381.754 717.17 392.394C740.12 411.834 756.98 446.604 762.08 487.924C763.16 496.494 763.71 505.344 763.71 514.394Z" fill="white" stroke="#490B40" stroke-width="5" stroke-miterlimit="10"/>
<path d="M747.051 521.344C747.051 544.324 741.931 565.274 733.521 581.114C723.881 599.244 709.931 610.654 694.391 610.654C688.851 610.654 683.52 609.204 678.5 606.504C659.72 596.434 645.491 568.974 642.401 535.254C641.971 530.724 641.75 526.074 641.75 521.354C641.75 497.344 647.33 475.544 656.43 459.494C666.02 442.594 679.481 432.064 694.391 432.064C703.471 432.064 711.991 435.954 719.461 442.804C723.631 446.644 727.49 451.424 730.88 456.984L702.591 501.274L742.401 484.664C744.061 490.864 745.311 497.454 746.091 504.324C746.721 509.844 747.051 515.534 747.051 521.364V521.344Z" fill="url(#paint17_linear_1164_657)" stroke="#490B40" stroke-width="5" stroke-miterlimit="10"/>
<path d="M327.34 520.184C327.34 555.874 318.7 588.414 304.53 612.994C288.28 641.164 264.75 658.874 238.56 658.874C229.22 658.874 220.21 656.624 211.76 652.434C180.08 636.794 156.1 594.144 150.86 541.774C150.15 534.734 149.78 527.524 149.78 520.184C149.78 482.894 159.21 449.034 174.53 424.104C190.69 397.844 213.4 381.504 238.55 381.504C253.84 381.504 268.23 387.544 280.8 398.184C303.75 417.624 320.61 452.394 325.71 493.714C326.79 502.284 327.34 511.134 327.34 520.184Z" fill="white" stroke="#490B40" stroke-width="5" stroke-miterlimit="10"/>
<path d="M269.94 530.334C269.94 553.314 264.82 574.264 256.41 590.104C246.77 608.234 232.82 619.644 217.28 619.644C211.74 619.644 206.41 618.194 201.39 615.494C182.61 605.424 168.38 577.964 165.29 544.244C164.86 539.714 164.64 535.064 164.64 530.344C164.64 506.334 170.22 484.534 179.32 468.484C188.91 451.584 202.37 441.054 217.28 441.054C226.36 441.054 234.88 444.944 242.35 451.794C246.52 455.634 250.38 460.414 253.77 465.974L225.48 510.264L265.29 493.654C266.95 499.854 268.2 506.444 268.98 513.314C269.61 518.834 269.94 524.524 269.94 530.354V530.334Z" fill="url(#paint18_linear_1164_657)" stroke="#490B40" stroke-width="5" stroke-miterlimit="10"/>
<path d="M763.51 514.182C763.51 549.872 754.87 582.412 740.7 606.992C724.45 635.162 700.92 652.872 674.73 652.872C665.39 652.872 656.38 650.622 647.93 646.432C616.25 630.792 592.27 588.142 587.03 535.772C586.32 528.732 585.95 521.522 585.95 514.182C585.95 476.892 595.38 443.032 610.7 418.102C626.86 391.842 649.57 375.502 674.72 375.502C690.01 375.502 704.4 381.542 716.97 392.182C739.92 411.622 756.78 446.392 761.88 487.712C762.96 496.282 763.51 505.132 763.51 514.182Z" fill="white" stroke="#490B40" stroke-width="5" stroke-miterlimit="10"/>
<path d="M746.85 521.133C746.85 544.113 741.73 565.063 733.32 580.903C723.68 599.033 709.73 610.443 694.19 610.443C688.65 610.443 683.32 608.993 678.3 606.293C659.52 596.223 645.29 568.763 642.2 535.043C641.77 530.513 641.55 525.863 641.55 521.143C641.55 497.133 647.13 475.333 656.23 459.283C665.82 442.383 679.28 431.853 694.19 431.853C703.27 431.853 711.79 435.743 719.26 442.593C723.43 446.433 727.29 451.213 730.68 456.773L702.39 501.063L742.2 484.453C743.86 490.653 745.11 497.243 745.89 504.113C746.52 509.633 746.85 515.323 746.85 521.153V521.133Z" fill="url(#paint19_linear_1164_657)" stroke="#490B40" stroke-width="5" stroke-miterlimit="10"/>
<path d="M327.14 519.972C327.14 555.662 318.5 588.202 304.33 612.782C288.08 640.952 264.55 658.662 238.36 658.662C229.02 658.662 220.01 656.412 211.56 652.222C179.88 636.582 155.9 593.932 150.66 541.562C149.95 534.523 149.58 527.312 149.58 519.972C149.58 482.682 159.01 448.822 174.33 423.892C190.49 397.632 213.2 381.292 238.35 381.292C253.64 381.292 268.03 387.333 280.6 397.973C303.55 417.413 320.41 452.183 325.51 493.503C326.59 502.073 327.14 510.922 327.14 519.972Z" fill="white" stroke="#490B40" stroke-width="5" stroke-miterlimit="10"/>
<path d="M327.14 519.972C327.14 555.662 318.5 588.202 304.33 612.782C288.08 640.952 264.55 658.662 238.36 658.662C229.02 658.662 220.01 656.412 211.56 652.222C179.88 636.582 155.9 593.932 150.66 541.562C149.95 534.523 149.58 527.312 149.58 519.972C149.58 482.682 159.01 448.822 174.33 423.892C190.49 397.632 213.2 381.292 238.35 381.292C253.64 381.292 268.03 387.333 280.6 397.973C303.55 417.413 320.41 452.183 325.51 493.503C326.59 502.073 327.14 510.922 327.14 519.972Z" fill="white" stroke="#490B40" stroke-width="5" stroke-miterlimit="10"/>
<path d="M269.74 530.122C269.74 553.102 264.62 574.052 256.21 589.892C246.57 608.022 232.62 619.432 217.08 619.432C211.54 619.432 206.21 617.982 201.19 615.282C182.41 605.212 168.18 577.752 165.09 544.032C164.66 539.502 164.44 534.852 164.44 530.132C164.44 506.122 170.02 484.322 179.12 468.272C188.71 451.372 202.17 440.842 217.08 440.842C226.16 440.842 234.68 444.732 242.15 451.582C246.32 455.422 250.18 460.202 253.57 465.762L225.28 510.052L265.09 493.442C266.75 499.642 268 506.232 268.78 513.102C269.41 518.622 269.74 524.312 269.74 530.142V530.122Z" fill="url(#paint20_linear_1164_657)" stroke="#490B40" stroke-width="5" stroke-miterlimit="10"/>
<path d="M763.58 524.969C763.58 526.551 763.58 528.119 763.53 529.688C763.328 527.342 763.088 525.01 762.823 522.705C757.74 478.165 740.939 440.689 718.059 419.742C705.534 408.273 691.181 401.768 675.944 401.768C650.869 401.768 628.229 419.388 612.122 447.685C597.453 473.488 588.195 508.181 587.501 546.502C586.895 539.466 586.58 532.279 586.58 524.969C586.58 484.779 595.977 448.285 611.251 421.42C627.358 393.122 649.999 375.502 675.074 375.502C690.31 375.502 704.664 382.007 717.189 393.477C740.069 414.424 756.87 451.899 761.953 496.439C763.025 505.672 763.58 515.218 763.58 524.969Z" fill="url(#paint21_linear_1164_657)" stroke="#490B40" stroke-width="5" stroke-miterlimit="10"/>
<path d="M326.58 530.969C326.58 532.551 326.58 534.119 326.53 535.688C326.329 533.342 326.091 531.01 325.828 528.705C320.773 484.165 304.067 446.689 281.316 425.742C268.862 414.273 254.59 407.768 239.439 407.768C214.506 407.768 191.993 425.388 175.977 453.685C161.391 479.488 152.185 514.181 151.496 552.502C150.894 545.466 150.58 538.279 150.58 530.969C150.58 490.779 159.924 454.286 175.112 427.42C191.128 399.122 213.641 381.502 238.574 381.502C253.724 381.502 267.997 388.007 280.451 399.477C303.202 420.424 319.908 457.899 324.962 502.439C326.028 511.672 326.58 521.218 326.58 530.969Z" fill="url(#paint22_linear_1164_657)" stroke="#490B40" stroke-width="5" stroke-miterlimit="10"/>
<path opacity="0.25" d="M210.23 724.074C320.814 724.074 410.46 634.428 410.46 523.844C410.46 413.26 320.814 323.614 210.23 323.614C99.646 323.614 10 413.26 10 523.844C10 634.428 99.646 724.074 210.23 724.074Z" fill="#00FFFF"/>
<path opacity="0.25" d="M698.55 717.314C809.134 717.314 898.78 627.668 898.78 517.084C898.78 406.5 809.134 316.854 698.55 316.854C587.966 316.854 498.32 406.5 498.32 517.084C498.32 627.668 587.966 717.314 698.55 717.314Z" fill="#00FFFF"/>
<path d="M210.23 724.074C320.814 724.074 410.46 634.428 410.46 523.844C410.46 413.26 320.814 323.614 210.23 323.614C99.646 323.614 10 413.26 10 523.844C10 634.428 99.646 724.074 210.23 724.074Z" stroke="#101220" stroke-width="20" stroke-miterlimit="10"/>
<path d="M698.55 717.314C809.134 717.314 898.78 627.668 898.78 517.084C898.78 406.5 809.134 316.854 698.55 316.854C587.966 316.854 498.32 406.5 498.32 517.084C498.32 627.668 587.966 717.314 698.55 717.314Z" stroke="#101220" stroke-width="20" stroke-miterlimit="10"/>
<defs>
<linearGradient id="paint0_linear_1164_657" x1="456.2" y1="734.014" x2="456.2" y2="1095.24" gradientUnits="userSpaceOnUse">
<stop stop-color="#10FFE2"/>
<stop offset="0.1" stop-color="#15FEDF"/>
<stop offset="0.23" stop-color="#25FDD6"/>
<stop offset="0.38" stop-color="#40FBC9"/>
<stop offset="0.53" stop-color="#65F9B6"/>
<stop offset="0.7" stop-color="#94F69E"/>
<stop offset="0.87" stop-color="#CDF281"/>
<stop offset="1" stop-color="#FEEF69"/>
</linearGradient>
<linearGradient id="paint1_linear_1164_657" x1="462" y1="817.164" x2="462" y2="199.724" gradientUnits="userSpaceOnUse">
<stop stop-color="#FEEF69"/>
<stop offset="0.02" stop-color="#EEF070"/>
<stop offset="0.08" stop-color="#C0F388"/>
<stop offset="0.15" stop-color="#96F59D"/>
<stop offset="0.22" stop-color="#72F8B0"/>
<stop offset="0.3" stop-color="#53FABF"/>
<stop offset="0.39" stop-color="#3AFCCC"/>
<stop offset="0.48" stop-color="#27FDD6"/>
<stop offset="0.59" stop-color="#1AFEDC"/>
<stop offset="0.73" stop-color="#12FEE0"/>
<stop offset="1" stop-color="#10FFE2"/>
</linearGradient>
<linearGradient id="paint2_linear_1164_657" x1="358.06" y1="250.134" x2="649.68" y2="81.7742" gradientUnits="userSpaceOnUse">
<stop stop-color="#C401DB"/>
<stop offset="0.15" stop-color="#D807CF"/>
<stop offset="0.37" stop-color="#F310C0"/>
<stop offset="0.5" stop-color="#FD14BB"/>
<stop offset="0.62" stop-color="#FD16B9"/>
<stop offset="0.7" stop-color="#FD1FB6"/>
<stop offset="0.76" stop-color="#FD2DAF"/>
<stop offset="0.82" stop-color="#FD42A6"/>
<stop offset="0.87" stop-color="#FD5D9A"/>
<stop offset="0.92" stop-color="#FE7E8B"/>
<stop offset="0.96" stop-color="#FEA57A"/>
<stop offset="1" stop-color="#FFC96B"/>
</linearGradient>
<linearGradient id="paint3_linear_1164_657" x1="133.541" y1="250.044" x2="193.271" y2="353.494" gradientUnits="userSpaceOnUse">
<stop stop-color="#C401DB"/>
<stop offset="0.11" stop-color="#B603E0"/>
<stop offset="0.51" stop-color="#8B0DF0"/>
<stop offset="0.82" stop-color="#7012FB"/>
<stop offset="1" stop-color="#6715FF"/>
</linearGradient>
<linearGradient id="paint4_linear_1164_657" x1="218.7" y1="126.484" x2="48.0201" y2="422.104" gradientUnits="userSpaceOnUse">
<stop stop-color="#C401DB"/>
<stop offset="0.11" stop-color="#B603E0"/>
<stop offset="0.51" stop-color="#8B0DF0"/>
<stop offset="0.82" stop-color="#7012FB"/>
<stop offset="1" stop-color="#6715FF"/>
</linearGradient>
<linearGradient id="paint5_linear_1164_657" x1="520.673" y1="643.756" x2="458.627" y2="599.007" gradientUnits="userSpaceOnUse">
<stop stop-color="#C401DB"/>
<stop offset="0.23" stop-color="#DC09CD"/>
<stop offset="0.46" stop-color="#EE0FC3"/>
<stop offset="0.72" stop-color="#F912BC"/>
<stop offset="1" stop-color="#FD14BB"/>
</linearGradient>
<linearGradient id="paint6_linear_1164_657" x1="387.699" y1="639.335" x2="449.745" y2="594.586" gradientUnits="userSpaceOnUse">
<stop stop-color="#C401DB"/>
<stop offset="0.23" stop-color="#DC09CD"/>
<stop offset="0.46" stop-color="#EE0FC3"/>
<stop offset="0.72" stop-color="#F912BC"/>
<stop offset="1" stop-color="#FD14BB"/>
</linearGradient>
<radialGradient id="paint7_radial_1164_657" cx="0" cy="0" r="1" gradientUnits="userSpaceOnUse" gradientTransform="translate(456.74 581.705) scale(48.51 48.51)">
<stop stop-color="#FEEF69"/>
<stop offset="0.28" stop-color="#FEF447"/>
<stop offset="0.76" stop-color="#FEFB14"/>
<stop offset="1" stop-color="#FFFF00"/>
</radialGradient>
<linearGradient id="paint8_linear_1164_657" x1="454.94" y1="418.314" x2="454.94" y2="575.134" gradientUnits="userSpaceOnUse">
<stop stop-color="#FD14BB"/>
<stop offset="0.15" stop-color="#FD17B9"/>
<stop offset="0.28" stop-color="#FD22B5"/>
<stop offset="0.42" stop-color="#FD35AE"/>
<stop offset="0.55" stop-color="#FD4FA4"/>
<stop offset="0.67" stop-color="#FD7197"/>
<stop offset="0.8" stop-color="#FD9B88"/>
<stop offset="0.92" stop-color="#FDCB76"/>
<stop offset="1" stop-color="#FEEF69"/>
</linearGradient>
<linearGradient id="paint9_linear_1164_657" x1="462.67" y1="1051.25" x2="462.67" y2="774.004" gradientUnits="userSpaceOnUse">
<stop stop-color="#8AFF00"/>
<stop offset="0.16" stop-color="#8FFE05"/>
<stop offset="0.36" stop-color="#9FFC13"/>
<stop offset="0.58" stop-color="#BAF82B"/>
<stop offset="0.82" stop-color="#DEF34C"/>
<stop offset="1" stop-color="#FEEF69"/>
</linearGradient>
<linearGradient id="paint10_linear_1164_657" x1="460.75" y1="872.894" x2="460.75" y2="733.354" gradientUnits="userSpaceOnUse">
<stop stop-color="#8AFF00"/>
<stop offset="0.16" stop-color="#8FFE05"/>
<stop offset="0.36" stop-color="#9FFC13"/>
<stop offset="0.58" stop-color="#BAF82B"/>
<stop offset="0.82" stop-color="#DEF34C"/>
<stop offset="1" stop-color="#FEEF69"/>
</linearGradient>
<linearGradient id="paint11_linear_1164_657" x1="310.92" y1="1138.12" x2="310.92" y2="1048.24" gradientUnits="userSpaceOnUse">
<stop stop-color="#FFFF00"/>
<stop offset="0.24" stop-color="#FEFB14"/>
<stop offset="0.72" stop-color="#FEF447"/>
<stop offset="1" stop-color="#FEEF69"/>
</linearGradient>
<linearGradient id="paint12_linear_1164_657" x1="222.983" y1="1137.46" x2="222.983" y2="1047.74" gradientUnits="userSpaceOnUse">
<stop stop-color="#FFFF00"/>
<stop offset="0.24" stop-color="#FEFB14"/>
<stop offset="0.72" stop-color="#FEF447"/>
<stop offset="1" stop-color="#FEEF69"/>
</linearGradient>
<linearGradient id="paint13_linear_1164_657" x1="268.27" y1="1146.24" x2="268.27" y2="1041.86" gradientUnits="userSpaceOnUse">
<stop stop-color="#FFFF00"/>
<stop offset="0.24" stop-color="#FEFB14"/>
<stop offset="0.72" stop-color="#FEF447"/>
<stop offset="1" stop-color="#FEEF69"/>
</linearGradient>
<linearGradient id="paint14_linear_1164_657" x1="696.22" y1="1139.28" x2="696.22" y2="1049.4" gradientUnits="userSpaceOnUse">
<stop stop-color="#FFFF00"/>
<stop offset="0.24" stop-color="#FEFB14"/>
<stop offset="0.72" stop-color="#FEF447"/>
<stop offset="1" stop-color="#FEEF69"/>
</linearGradient>
<linearGradient id="paint15_linear_1164_657" x1="609.446" y1="1140.94" x2="609.446" y2="1051.22" gradientUnits="userSpaceOnUse">
<stop stop-color="#FFFF00"/>
<stop offset="0.24" stop-color="#FEFB14"/>
<stop offset="0.72" stop-color="#FEF447"/>
<stop offset="1" stop-color="#FEEF69"/>
</linearGradient>
<linearGradient id="paint16_linear_1164_657" x1="653.57" y1="1143.92" x2="653.57" y2="1039.54" gradientUnits="userSpaceOnUse">
<stop stop-color="#FFFF00"/>
<stop offset="0.24" stop-color="#FEFB14"/>
<stop offset="0.72" stop-color="#FEF447"/>
<stop offset="1" stop-color="#FEEF69"/>
</linearGradient>
<linearGradient id="paint17_linear_1164_657" x1="694.401" y1="610.654" x2="694.401" y2="432.054" gradientUnits="userSpaceOnUse">
<stop stop-color="#101220"/>
<stop offset="0.42" stop-color="#111120"/>
<stop offset="0.57" stop-color="#181023"/>
<stop offset="0.68" stop-color="#240F28"/>
<stop offset="0.76" stop-color="#350D30"/>
<stop offset="0.84" stop-color="#4B0A39"/>
<stop offset="0.9" stop-color="#660745"/>
<stop offset="0.96" stop-color="#860352"/>
<stop offset="1" stop-color="#9E005D"/>
</linearGradient>
<linearGradient id="paint18_linear_1164_657" x1="217.29" y1="619.644" x2="217.29" y2="441.034" gradientUnits="userSpaceOnUse">
<stop stop-color="#101220"/>
<stop offset="0.42" stop-color="#111120"/>
<stop offset="0.57" stop-color="#181023"/>
<stop offset="0.68" stop-color="#240F28"/>
<stop offset="0.76" stop-color="#350D30"/>
<stop offset="0.84" stop-color="#4B0A39"/>
<stop offset="0.9" stop-color="#660745"/>
<stop offset="0.96" stop-color="#860352"/>
<stop offset="1" stop-color="#9E005D"/>
</linearGradient>
<linearGradient id="paint19_linear_1164_657" x1="694.2" y1="610.443" x2="694.2" y2="431.843" gradientUnits="userSpaceOnUse">
<stop stop-color="#101220"/>
<stop offset="0.42" stop-color="#111120"/>
<stop offset="0.57" stop-color="#181023"/>
<stop offset="0.68" stop-color="#240F28"/>
<stop offset="0.76" stop-color="#350D30"/>
<stop offset="0.84" stop-color="#4B0A39"/>
<stop offset="0.9" stop-color="#660745"/>
<stop offset="0.96" stop-color="#860352"/>
<stop offset="1" stop-color="#9E005D"/>
</linearGradient>
<linearGradient id="paint20_linear_1164_657" x1="217.09" y1="619.432" x2="217.09" y2="440.822" gradientUnits="userSpaceOnUse">
<stop stop-color="#101220"/>
<stop offset="0.42" stop-color="#111120"/>
<stop offset="0.57" stop-color="#181023"/>
<stop offset="0.68" stop-color="#240F28"/>
<stop offset="0.76" stop-color="#350D30"/>
<stop offset="0.84" stop-color="#4B0A39"/>
<stop offset="0.9" stop-color="#660745"/>
<stop offset="0.96" stop-color="#860352"/>
<stop offset="1" stop-color="#9E005D"/>
</linearGradient>
<linearGradient id="paint21_linear_1164_657" x1="675.086" y1="546.502" x2="675.086" y2="375.502" gradientUnits="userSpaceOnUse">
<stop stop-color="#FEEF69"/>
<stop offset="0.14" stop-color="#DBF17A"/>
<stop offset="0.74" stop-color="#4AFBC4"/>
<stop offset="1" stop-color="#10FFE2"/>
</linearGradient>
<linearGradient id="paint22_linear_1164_657" x1="238.586" y1="552.502" x2="238.586" y2="381.502" gradientUnits="userSpaceOnUse">
<stop stop-color="#FEEF69"/>
<stop offset="0.14" stop-color="#DBF17A"/>
<stop offset="0.74" stop-color="#4AFBC4"/>
<stop offset="1" stop-color="#10FFE2"/>
</linearGradient>
</defs>
</svg>
